<svg xmlns="http://www.w3.org/2000/svg" width="48" height="60" viewBox="0 0 48 60" fill="none">
    <path
        d="M28.7137 12.5847C27.268 12.5121 25.9902 11.7204 25.3585 10.4197C24.7576 9.1809 24.843 7.66821 25.6206 6.54555C26.363 5.47386 27.3998 4.90447 28.731 4.83737C28.7777 4.83478 28.8007 4.80994 28.8001 4.76284C28.7963 4.1157 28.7956 3.52792 28.7982 2.99949C28.8039 1.61165 29.6449 0.409628 30.9908 0.083476C31.2205 0.0279881 31.617 0.000244141 32.1802 0.000244141C36.4765 0.00153456 40.7731 0.00250299 45.07 0.00314819C46.7912 0.00314819 47.9989 1.32034 47.9989 3.05466C48.0008 6.82202 48.0002 10.6162 47.997 14.4371C47.996 16.0901 46.7787 17.3976 45.1036 17.4102C43.7634 17.4205 42.1782 17.4218 40.3478 17.4141C40.3411 17.4141 40.3346 17.4115 40.3298 17.4068C40.325 17.4021 40.3221 17.3957 40.3219 17.3889C40.3091 16.9476 40.3091 16.4888 40.3219 16.0127C40.3359 15.4772 40.2972 15.0855 40.2057 14.8378C39.7468 13.5912 38.2521 13.1373 37.1952 13.9783C36.6403 14.4206 36.4589 15.0342 36.4714 15.7804C36.4816 16.3811 36.4826 16.914 36.4742 17.3792C36.474 17.3896 36.4698 17.3994 36.4627 17.4067C36.4555 17.4139 36.4459 17.4179 36.4358 17.4179L28.8443 17.4189C28.8355 17.419 28.827 17.4158 28.8203 17.4099C28.8136 17.4041 28.8092 17.3959 28.8078 17.387C28.7905 17.2696 28.7819 17.1441 28.7819 17.0105C28.7876 15.5575 28.7886 14.1074 28.7847 12.6602C28.7847 12.6124 28.7611 12.5873 28.7137 12.5847ZM30.6471 6.77396C30.0705 6.77654 29.4926 6.7746 28.9134 6.76815C28.5236 6.76428 28.1719 6.84977 27.8584 7.02462C26.6334 7.70983 26.5441 9.47512 27.6923 10.2813C28.0347 10.5226 28.3873 10.6429 28.7502 10.6423C29.3927 10.6417 30.0327 10.6436 30.6702 10.6481C30.7028 10.6481 30.7191 10.6646 30.7191 10.6975L30.7201 15.4165C30.72 15.4274 30.7223 15.4383 30.7266 15.4483C30.7309 15.4583 30.7372 15.4673 30.7451 15.4748C30.7531 15.4822 30.7624 15.488 30.7727 15.4916C30.7829 15.4952 30.7937 15.4967 30.8046 15.4959C30.9697 15.4823 31.1409 15.4762 31.3181 15.4775C32.3428 15.4872 33.4 15.4881 34.4899 15.4804C34.5386 15.4804 34.5635 15.4555 34.5648 15.4059C34.5898 14.5513 34.8586 13.7548 35.3895 13.0889C37.6464 10.259 42.143 11.7795 42.2313 15.4146C42.2326 15.463 42.2569 15.4868 42.3042 15.4862C43.1836 15.4804 44.0722 15.4807 44.9701 15.4872C45.7295 15.492 46.0847 15.0575 46.0827 14.319C46.068 10.5091 46.068 6.74331 46.0827 3.02175C46.0847 2.413 45.7256 1.9349 45.0844 1.93393C40.6639 1.93071 36.2125 1.93071 31.73 1.93393C31.1031 1.93393 30.7143 2.35977 30.7162 3.01691C30.7194 4.18216 30.7198 5.41095 30.7172 6.70331C30.7166 6.74976 30.6932 6.77331 30.6471 6.77396Z"
        fill="white" />
    <path
        d="M27.8929 44.7384C28.611 44.9965 29.1384 45.4852 29.475 46.2046C30.2574 47.8789 29.3435 49.6587 27.6606 50.2056C27.6273 50.2165 27.6171 50.2381 27.6299 50.2704C28.2357 51.8121 27.435 53.4119 25.9317 54.0042C25.9099 54.0127 25.8907 54.0269 25.8762 54.0455C25.8617 54.064 25.8523 54.0862 25.8491 54.1097C25.6136 55.7853 24.8821 57.1744 23.6546 58.2771C19.6102 61.9122 13.256 59.4549 12.5408 54.0932C12.5383 54.0743 12.5307 54.0563 12.5188 54.0414C12.507 54.0264 12.4914 54.0149 12.4736 54.0081C10.9578 53.4245 10.1581 51.7995 10.7668 50.2491C10.7689 50.2439 10.7698 50.2383 10.7696 50.2327C10.7693 50.2272 10.7678 50.2217 10.7653 50.2167C10.7627 50.2118 10.7591 50.2074 10.7548 50.204C10.7504 50.2005 10.7453 50.1981 10.7399 50.1968C10.5831 50.1614 10.433 50.1072 10.2897 50.0342C7.99433 48.869 8.13065 45.7014 10.4999 44.7239C10.5169 44.7171 10.5316 44.7053 10.5418 44.6901C10.5521 44.6749 10.5576 44.657 10.5575 44.6387L10.5585 42.1456C10.5585 42.1205 10.5529 42.0957 10.5421 42.073C10.5313 42.0502 10.5156 42.0301 10.4961 42.014C9.26216 41.0023 8.02057 39.979 6.77131 38.9441C0.853947 34.0392 -1.46154 25.9706 0.930746 18.6626C3.204 11.7186 9.31239 6.72082 16.5363 5.91851C17.9984 5.75688 19.5939 5.79656 21.053 5.80914C21.0704 5.8094 21.087 5.81644 21.0993 5.82876C21.1115 5.84107 21.1183 5.85767 21.1183 5.87495L21.1193 14.472C21.1193 14.4819 21.1155 14.4913 21.1087 14.4984C21.1018 14.5054 21.0926 14.5095 21.0828 14.5098C20.6361 14.5233 20.1788 14.523 19.711 14.5088C19.1855 14.4927 18.7814 14.5407 18.4985 14.653C16.8694 15.2995 16.8915 17.6097 18.5014 18.2513C18.7779 18.361 19.1481 18.4088 19.6121 18.3946C20.0799 18.3797 20.5612 18.3791 21.0559 18.3926C21.0724 18.3931 21.088 18.4 21.0995 18.4117C21.1109 18.4235 21.1174 18.4392 21.1174 18.4555L21.1212 23.1649C21.1214 23.1801 21.1275 23.1947 21.1381 23.2053C21.1487 23.216 21.163 23.222 21.1778 23.222L24.8872 23.2288C24.9346 23.2288 24.9592 23.2052 24.9611 23.1581C25.0072 21.9555 25.4821 20.977 26.3858 20.2228C27.8334 19.013 29.9963 19.0904 31.3767 20.367C32.1735 21.1044 32.5934 22.041 32.6362 23.1765C32.6375 23.2101 32.6551 23.2268 32.689 23.2268L38.329 23.2278C38.3452 23.2278 38.3608 23.2342 38.3724 23.2455C38.3841 23.2569 38.3909 23.2724 38.3914 23.2888C38.4131 23.9972 38.4042 24.725 38.3645 25.4722C38.0813 30.7922 35.6487 35.6042 31.5745 38.9876C30.3118 40.0361 29.0795 41.0526 27.8776 42.0372C27.8507 42.0598 27.8373 42.0888 27.8373 42.1243L27.8382 44.66C27.8382 44.6993 27.8565 44.7255 27.8929 44.7384ZM11.2132 9.46554C5.97644 12.0719 2.41681 17.2845 1.97233 23.2017C1.97207 23.2049 1.97246 23.2081 1.9735 23.2112C1.97454 23.2142 1.9762 23.217 1.97836 23.2194C1.98053 23.2217 1.98316 23.2236 1.98609 23.2249C1.98902 23.2262 1.99218 23.2269 1.99537 23.2268H7.62474C7.66122 23.2268 7.6801 23.2085 7.68138 23.1717C7.71849 22.0471 8.13577 21.1141 8.9332 20.3728C10.3607 19.0449 12.6167 19.0159 14.0567 20.3312C14.888 21.0912 15.3194 22.0316 15.3507 23.1523C15.3526 23.2014 15.3776 23.2259 15.4256 23.2259L19.1503 23.2278C19.1636 23.2278 19.1763 23.2225 19.1856 23.2131C19.195 23.2036 19.2003 23.1908 19.2003 23.1775L19.1974 20.3776C19.1974 20.363 19.1918 20.3489 19.1818 20.3382C19.1718 20.3276 19.1581 20.3213 19.1436 20.3205C17.9168 20.2708 16.9302 19.7763 16.184 18.8369C14.9898 17.3358 15.1174 15.1466 16.4374 13.7723C17.1651 13.0135 18.0665 12.6177 19.1417 12.5848C19.1569 12.5843 19.1713 12.5778 19.1819 12.5668C19.1924 12.5558 19.1984 12.5411 19.1983 12.5258L19.2003 7.83864C19.2003 7.81485 19.1911 7.792 19.1748 7.77499C19.1585 7.75798 19.1362 7.74818 19.1129 7.74767C16.2912 7.6767 13.6579 8.24932 11.2132 9.46554ZM9.52743 25.1605L1.99249 25.1596C1.95473 25.1596 1.93649 25.1789 1.93777 25.2176C2.15281 29.9889 4.31278 34.3964 7.96073 37.4227C9.48839 38.6905 10.969 39.9129 12.4026 41.0897C12.4532 41.131 12.4784 41.1839 12.4784 41.2485L12.4794 44.4606C12.4794 44.5026 12.5002 44.5235 12.5418 44.5235L19.1244 44.5216C19.1743 44.5216 19.1993 44.4968 19.1993 44.4471V36.8439C19.1993 36.8237 19.1915 36.8043 19.1775 36.7899C19.1635 36.7754 19.1445 36.767 19.1244 36.7665C16.5545 36.7017 14.7421 34.1873 15.5562 31.6933C16.0726 30.1109 17.48 29.1005 19.1187 29.0376C19.1718 29.0356 19.1983 29.0076 19.1983 28.9534L19.2003 25.2341C19.2003 25.2143 19.1925 25.1954 19.1786 25.1814C19.1647 25.1674 19.1459 25.1596 19.1263 25.1596L13.4864 25.1615C13.4797 25.1615 13.473 25.1601 13.4667 25.1575C13.4605 25.1549 13.4548 25.151 13.4501 25.1461C13.4454 25.1413 13.4416 25.1355 13.4391 25.1292C13.4366 25.1228 13.4354 25.1161 13.4355 25.1092C13.4407 24.4395 13.4397 23.8014 13.4327 23.1949C13.4115 21.4799 11.3437 20.6563 10.1457 21.8806C9.78279 22.2516 9.60039 22.7165 9.59847 23.2752C9.59655 23.8914 9.59719 24.4953 9.60039 25.087C9.60039 25.136 9.57607 25.1605 9.52743 25.1605ZM30.7182 25.0908C30.7143 24.4766 30.715 23.8882 30.7201 23.3256C30.7287 22.2484 30.0001 21.3919 28.9412 21.299C28.0686 21.2225 27.2248 21.7955 26.9666 22.6587C26.891 22.9104 26.8594 23.2475 26.8715 23.6701C26.8856 24.1463 26.8859 24.6295 26.8725 25.1199C26.872 25.1308 26.8673 25.1412 26.8594 25.1488C26.8516 25.1563 26.8411 25.1605 26.8302 25.1605L21.1903 25.1625C21.143 25.1625 21.1193 25.1863 21.1193 25.2341V30.9016C21.1193 30.9186 21.1126 30.935 21.1008 30.9471C21.0889 30.9592 21.0728 30.9662 21.0559 30.9664C20.5625 30.9735 20.0409 30.9719 19.4911 30.9616C19.1289 30.9545 18.8345 30.9897 18.608 31.0671C17.624 31.4019 17.0998 32.3814 17.3446 33.3937C17.4876 33.9812 17.9561 34.4999 18.5081 34.7099C18.7827 34.8144 19.1875 34.8599 19.7225 34.8464C20.173 34.8348 20.6166 34.8344 21.053 34.8454C21.0703 34.8459 21.0866 34.8532 21.0986 34.8656C21.1106 34.8781 21.1174 34.8948 21.1174 34.9122L21.1212 44.4635C21.1212 44.472 21.1228 44.4805 21.126 44.4883C21.1292 44.4962 21.1339 44.5034 21.1398 44.5094C21.1456 44.5154 21.1526 44.5202 21.1603 44.5234C21.168 44.5267 21.1762 44.5284 21.1846 44.5284L25.8549 44.5216C25.8952 44.5216 25.9154 44.5013 25.9154 44.4606L25.9173 41.232C25.9173 41.2066 25.9229 41.1816 25.9337 41.1589C25.9445 41.1361 25.9602 41.1161 25.9797 41.1004C27.5176 39.8487 29.0312 38.5986 30.5204 37.3501C34.1089 34.3412 36.2477 29.9522 36.4551 25.2138C36.457 25.1776 36.44 25.1596 36.4042 25.1596L30.7873 25.1605C30.7419 25.1605 30.7188 25.1373 30.7182 25.0908ZM27.8305 47.4124C27.8305 47.1581 27.7303 46.9141 27.5519 46.7343C27.3735 46.5544 27.1315 46.4533 26.8792 46.4533H11.5175C11.2652 46.4533 11.0232 46.5544 10.8448 46.7343C10.6664 46.9141 10.5661 47.1581 10.5661 47.4124V47.4376C10.5661 47.5636 10.5907 47.6883 10.6386 47.8046C10.6864 47.921 10.7564 48.0267 10.8448 48.1158C10.9331 48.2049 11.038 48.2755 11.1534 48.3237C11.2688 48.3719 11.3926 48.3967 11.5175 48.3967H26.8792C27.0041 48.3967 27.1278 48.3719 27.2433 48.3237C27.3587 48.2755 27.4636 48.2049 27.5519 48.1158C27.6402 48.0267 27.7103 47.921 27.7581 47.8046C27.8059 47.6883 27.8305 47.5636 27.8305 47.4376V47.4124ZM25.9096 51.2808C25.9096 51.1553 25.8851 51.0311 25.8375 50.9152C25.7899 50.7993 25.7201 50.694 25.6321 50.6053C25.5441 50.5166 25.4397 50.4463 25.3247 50.3983C25.2097 50.3503 25.0865 50.3256 24.9621 50.3256H13.4346C13.3101 50.3256 13.1869 50.3503 13.072 50.3983C12.957 50.4463 12.8526 50.5166 12.7646 50.6053C12.6766 50.694 12.6068 50.7993 12.5592 50.9152C12.5116 51.0311 12.4871 51.1553 12.4871 51.2808V51.3118C12.4871 51.5651 12.5869 51.8081 12.7646 51.9872C12.9423 52.1663 13.1833 52.267 13.4346 52.267H24.9621C25.2134 52.267 25.4544 52.1663 25.6321 51.9872C25.8098 51.8081 25.9096 51.5651 25.9096 51.3118V51.2808ZM21.9305 57.2009C22.8943 56.5254 23.6536 55.4453 23.8792 54.2578C23.8869 54.2171 23.8703 54.1968 23.8293 54.1968L14.5702 54.1987C14.521 54.1987 14.5018 54.2233 14.5126 54.2723C14.7955 55.4711 15.4189 56.426 16.3827 57.137C18.0252 58.3497 20.2601 58.3719 21.9305 57.2009Z"
        fill="white" />
</svg>