<svg xmlns="http://www.w3.org/2000/svg" width="40" height="40" viewBox="0 0 40 40" fill="none">
    <path
        d="M32.1658 5.12292C30.4673 2.89245 27.9212 1.52282 25.0811 1.35211C20.1156 1.05405 15.6886 4.61081 15.0596 9.45118C14.8232 11.2667 15.1091 13.0079 15.9174 14.675C16.1727 15.2004 15.7588 15.7585 15.176 15.6478C14.9017 15.5958 14.7499 15.4011 14.641 15.1644C13.5422 12.7737 13.326 10.352 13.9922 7.89952C14.9384 4.41344 17.6778 1.61417 21.1892 0.509934C22.8852 -0.0235137 24.6239 -0.138427 26.4052 0.165194C31.5054 1.03471 35.3157 5.39831 35.3919 10.4867C35.4169 12.1804 35.0638 13.775 34.3326 15.2704C34.1073 15.7305 33.511 15.8005 33.1821 15.4105C32.9738 15.1624 33.0147 14.8723 33.1522 14.5903C33.8214 13.2167 34.1093 11.647 34.0188 10.164C33.9035 8.27427 33.2859 6.59391 32.1658 5.12292Z"
        fill="#6E7E44" />
    <path
        d="M21.7769 13.8949C21.8436 13.5795 21.636 13.5088 21.459 13.3128C20.7868 12.566 20.4428 11.6964 20.4269 10.7042C20.4138 9.88627 20.4192 9.12722 20.4433 8.42707C20.493 6.98876 20.9661 5.69315 22.2936 5.07969C23.105 4.70494 24.0819 4.63025 25.0119 4.68493C26.3019 4.76095 27.5089 5.22372 28.1052 6.3993C28.4123 7.00543 28.5423 7.71892 28.5675 8.38639C28.5924 9.0572 28.6001 9.79181 28.5906 10.5902C28.5761 11.782 28.1567 12.7618 27.3326 13.5295C27.2277 13.6275 27.1876 13.7735 27.2488 13.9049C27.2584 13.9258 27.274 13.9409 27.2958 13.9503C28.4045 14.4255 29.4867 14.8785 30.5424 15.3092C30.8392 15.4306 31.0772 15.5499 31.2565 15.6673C31.8358 16.0467 32.3225 16.7455 32.5152 17.3897C32.6343 17.7864 32.4076 18.0171 32.1469 18.2645C30.5689 19.7595 28.6485 20.7764 26.5313 21.1525C24.8517 21.4508 23.2051 21.383 21.5917 20.9491C19.9007 20.4948 18.3685 19.6421 16.9952 18.3912C16.8287 18.2401 16.6891 18.0889 16.5766 17.9378C16.4472 17.7644 16.4259 17.5608 16.5126 17.327C16.7685 16.6384 17.1672 16.1034 17.7087 15.722C17.9365 15.5615 18.322 15.3723 18.8653 15.1545C19.773 14.7904 20.7292 14.3879 21.734 13.9469C21.7448 13.9422 21.7543 13.935 21.7617 13.926C21.7691 13.9169 21.7743 13.9063 21.7769 13.8949ZM21.9335 7.4802C21.8568 7.80382 21.8143 8.10522 21.8062 8.38439C21.7816 9.17301 21.7762 9.94606 21.7898 10.7036C21.8025 11.4126 22.0639 12.0196 22.5741 12.5246C22.8103 12.758 23.1166 12.9047 23.1377 13.2908C23.1486 13.4953 23.1502 13.7046 23.1425 13.9189C23.1421 13.9333 23.1455 13.9475 23.1524 13.9602C23.1593 13.9728 23.1695 13.9834 23.182 13.9909C24.1119 14.5557 24.8777 14.553 25.822 14.0003C25.856 13.9807 25.8723 13.9516 25.871 13.9129C25.8646 13.7044 25.8662 13.497 25.8757 13.2908C25.8941 12.898 26.2529 12.7147 26.4959 12.4659C26.9752 11.9729 27.2184 11.3648 27.2257 10.6415C27.2316 10.0841 27.2311 9.4873 27.2243 8.85116C27.2198 8.4404 27.1848 8.04765 27.1195 7.67291C26.9282 6.57534 26.2134 6.14058 25.1412 6.03389C24.6801 5.98855 24.2235 5.99233 23.7715 6.04523C22.8579 6.15325 22.154 6.54733 21.9335 7.4802ZM29.9324 16.5015C28.8436 16.0551 27.7474 15.5966 26.6436 15.1258C26.6229 15.117 26.6003 15.1134 26.5779 15.1152C26.5554 15.1171 26.5338 15.1244 26.515 15.1365C26.2404 15.3134 25.9556 15.4524 25.6606 15.5533C24.5272 15.9407 23.4781 15.7373 22.4753 15.1265C22.4499 15.1109 22.4236 15.1092 22.3964 15.1212C21.2314 15.6177 20.0573 16.1114 18.8741 16.6022C18.5115 16.7524 18.2079 17.0171 17.9633 17.3963C17.9492 17.4181 17.9519 17.4379 17.9714 17.4557C19.4355 18.784 21.1113 19.5935 22.9988 19.8842C25.8996 20.331 28.9535 19.4634 31.0577 17.4277C31.0603 17.4252 31.0619 17.4219 31.0624 17.4184C31.0629 17.415 31.0622 17.4114 31.0604 17.4083C30.9184 17.1723 30.7532 16.9802 30.5648 16.8322C30.4391 16.7335 30.2283 16.6233 29.9324 16.5015Z"
        fill="#6E7E44" />
    <path
        d="M13.461 33.7521C13.4433 33.761 13.4415 33.7725 13.4556 33.7868C13.6684 33.9988 13.9017 34.2251 14.1554 34.4656C14.6156 34.9017 14.4073 35.3251 14.0186 35.7045C12.6262 37.0635 11.2345 38.4262 9.84348 39.7927C9.47246 40.1568 8.82846 40.0261 8.68891 39.514C8.59973 39.1879 8.74269 38.9872 8.97959 38.7552C10.2435 37.5149 11.4984 36.2837 12.7442 35.0617C12.7791 35.0279 12.7785 34.9946 12.7422 34.9617C12.0362 34.3215 11.3827 33.6461 10.708 32.9839C8.84094 31.152 6.97339 29.322 5.10538 27.4941C5.10279 27.4915 5.09971 27.4895 5.09632 27.4881C5.09294 27.4868 5.08931 27.4861 5.08564 27.4861C5.08197 27.4861 5.07834 27.4868 5.07496 27.4881C5.07157 27.4895 5.06849 27.4915 5.0659 27.4941C3.78788 28.749 2.49784 30.0137 1.19577 31.2882C0.636189 31.8363 -0.260373 31.2816 0.0718383 30.5607C0.0999764 30.5003 0.135603 30.4489 0.178718 30.4067C1.60514 29.0037 3.05289 27.5839 4.52197 26.1471C4.86916 25.8077 5.33752 25.8317 5.67109 26.1591C7.93894 28.3836 10.1886 30.5879 12.4202 32.7719C12.4277 32.7794 12.4376 32.7841 12.4483 32.7852C12.459 32.7863 12.4697 32.7837 12.4787 32.7779C13.0415 32.4169 13.6505 32.1804 14.3059 32.0684C14.5836 32.0208 14.9905 31.9979 15.5265 31.9997C17.5973 32.0077 19.6181 32.009 21.5886 32.0037C22.6493 32.0004 23.5962 31.8443 24.6575 31.5496C26.8677 30.9353 29.0938 30.3213 31.3358 29.7079C31.4465 29.6777 31.55 29.6348 31.6462 29.5792C33.9662 28.2416 36.2584 26.918 38.5226 25.6083C38.5383 25.5992 38.5504 25.585 38.5569 25.5682C38.5634 25.5514 38.564 25.5329 38.5586 25.5157C38.4706 25.2325 38.3578 24.9855 38.2203 24.7748C37.6451 23.8926 36.451 23.7726 35.4932 23.9633C34.6994 24.1211 34.0073 24.3476 33.4169 24.6428C32.1643 25.2683 30.908 25.9057 29.6482 26.5552C29.5406 26.6103 29.4269 26.6486 29.3071 26.6699L28.4827 26.8173C28.4491 26.823 28.4337 26.8428 28.4364 26.8766C28.4704 27.2734 28.5195 27.6868 28.1151 27.9128C28.0034 27.9755 27.8607 28.0066 27.6869 28.0062C24.3162 28.0009 21.0145 28.0002 17.7818 28.0042C17.2011 28.0049 16.8267 27.4754 17.146 26.9726C17.2985 26.7326 17.5476 26.6666 17.8342 26.6672C20.658 26.6726 23.7158 26.673 27.0075 26.6686C27.0379 26.6686 27.0504 26.6539 27.0449 26.6246C26.6644 24.4588 24.746 23.9993 22.8297 24.0013C21.0728 24.0027 19.4238 24.0022 17.8826 24C17.5599 23.9993 17.4101 23.7619 17.1487 23.6386C15.7427 22.9727 14.3143 22.7353 12.8633 22.9264C11.2572 23.1385 9.85414 23.8017 8.65419 24.9162C8.51395 25.0469 8.39073 25.1916 8.2682 25.3383C7.70725 26.0118 6.65479 25.2523 7.17898 24.5474C7.34236 24.3283 7.53729 24.1149 7.76375 23.9073C10.5848 21.3221 14.6919 20.7793 18.0691 22.6104C18.1413 22.6495 18.2198 22.669 18.3046 22.669C19.8377 22.6704 21.3769 22.6706 22.9222 22.6697C25.1266 22.6677 27.2655 23.3092 28.1348 25.475C28.1395 25.4867 28.1481 25.4964 28.1593 25.5026C28.1705 25.5088 28.1835 25.5111 28.1961 25.509C28.5705 25.449 28.93 25.4183 29.284 25.2376C30.2584 24.7419 31.2228 24.2494 32.1772 23.7599C32.6256 23.5297 33.0336 23.3396 33.4012 23.1898C35.0942 22.499 37.3271 22.1276 38.8153 23.4252C39.509 24.03 39.8705 24.9022 39.993 25.8057C40.0311 26.0924 39.9127 26.3505 39.6587 26.4972C37.1218 27.9646 34.6306 29.4036 32.1854 30.8141C32.0853 30.8715 31.9818 30.9028 31.8729 30.9335C29.6128 31.5705 27.1352 32.2542 24.4403 32.9846C23.6053 33.2109 22.6835 33.3264 21.6751 33.3313C19.5725 33.3407 17.4392 33.3409 15.2753 33.332C14.5965 33.3293 14.0356 33.4507 13.461 33.7521Z"
        fill="#6E7E44" />
    <path
        d="M22.4476 36.007C27.8637 36.0117 33.2295 34.2526 37.4706 30.9612C37.664 30.8114 37.8237 30.7221 37.9499 30.6932C38.6518 30.5318 39.0731 31.42 38.5102 31.8608C34.4508 35.0454 29.4363 36.9412 24.2503 37.2779C23.1964 37.3466 22.0773 37.3526 21.0418 37.3306C20.7877 37.3253 20.5975 37.2021 20.4714 36.9612C20.2345 36.5084 20.5912 36.0083 21.1031 36.0077C21.5606 36.0072 22.0087 36.007 22.4476 36.007Z"
        fill="#6E7E44" />
    <path
        d="M18.3521 37.3357C18.7262 37.3357 19.0294 37.0387 19.0294 36.6723C19.0294 36.3058 18.7262 36.0088 18.3521 36.0088C17.978 36.0088 17.6747 36.3058 17.6747 36.6723C17.6747 37.0387 17.978 37.3357 18.3521 37.3357Z"
        fill="#6E7E44" />
</svg>