<svg xmlns="http://www.w3.org/2000/svg" width="82" height="48" viewBox="0 0 82 48" fill="none">
    <path
        d="M60.7257 5.34828C59.3615 1.83066 63.0625 -1.34748 66.2556 0.643118C66.7776 0.968522 67.2802 1.54207 67.7634 2.36375C68.3044 3.28634 68.7248 4.13802 69.0246 4.91881C69.0481 4.9788 69.0684 4.97743 69.0856 4.91472C69.2906 4.14756 69.734 3.51403 70.4159 3.01411C72.5699 1.4339 75.6315 2.79323 75.939 5.47508C76.7609 12.6312 76.9853 19.9751 76.6123 27.5066C76.5347 29.08 76.9027 30.5034 77.7164 31.7768C78.0741 32.3358 78.6715 33.013 79.5087 33.8083C80.242 34.5055 80.9628 35.2167 81.6708 35.9421C82.5175 36.8078 81.5936 38.2722 80.4529 37.8181C80.2235 37.7272 79.9928 37.5595 79.7607 37.315C79.0192 36.537 78.2773 35.7903 77.5349 35.0749C75.8076 33.4143 74.6656 31.5423 74.3473 29.1604C74.2786 28.6478 74.2633 27.8738 74.3012 26.8385C74.3292 26.065 74.3554 25.2919 74.3798 24.5193C74.5776 18.2503 74.3391 12.0813 73.6645 6.01227C73.6103 5.52053 73.5155 5.19058 73.38 5.02242C72.8977 4.42388 71.9901 4.42661 71.5254 5.03742C71.4161 5.18104 71.3308 5.40236 71.2693 5.70141C70.9821 7.09391 70.7248 8.38326 70.4972 9.56943C70.4498 9.81621 70.4227 10.0534 70.4538 10.3043C70.676 12.0577 70.6977 14.0069 70.5188 16.152C70.3766 17.8536 68.0411 17.6013 68.2145 15.9366C68.6927 11.3378 67.9192 6.8235 65.4211 2.97729C64.4877 1.54025 62.2687 2.62144 62.8512 4.24664C63.5949 6.31495 64.0582 8.37644 64.3685 10.5266C64.4145 10.8438 64.4913 11.1551 64.5988 11.4605C65.0982 12.8785 65.3949 14.5277 65.4888 16.4084C65.5728 18.0595 63.1885 18.1399 63.1397 16.5215C63.0977 15.0777 62.8918 13.4784 62.3432 12.1599C62.1494 11.6964 62.0058 11.2178 61.7905 10.7652C60.0795 7.17799 56.6981 4.7102 52.9374 3.39041C51.9932 3.0591 51.1235 3.73263 51.1506 4.71157C51.1682 5.36873 51.622 5.75867 52.2072 5.99863C55.8446 7.48885 58.8819 10.2798 59.9738 14.0537C60.1653 14.7127 60.261 15.3181 60.261 15.8698C60.2601 16.4043 60.0077 16.7737 59.5037 16.9783C58.9442 17.2046 58.4172 16.9414 58.0691 16.482C56.1372 13.931 53.0607 13.0612 49.9096 13.0448C48.8611 13.0393 47.9629 13.4252 47.0458 13.8669C45.3669 14.675 43.8302 15.7425 42.4357 17.0696C42.4126 17.092 42.3959 17.12 42.387 17.1509C42.3782 17.1818 42.3777 17.2144 42.3856 17.2455C42.4931 17.6609 42.5174 18.084 42.4587 18.5148C42.4502 18.5756 42.4584 18.6376 42.4826 18.6941C42.5067 18.7506 42.5458 18.7994 42.5956 18.8352C43.0277 19.1475 43.5114 19.1379 43.9828 18.8802C44.7505 18.4603 45.5154 18.0349 46.2777 17.6041C47.1483 17.1114 47.8744 16.7842 48.456 16.6224C50.8471 15.9571 53.1962 16.5106 55.1266 18.0567C58.0013 20.3582 58.9862 23.7408 58.5568 27.3553C58.3265 29.2981 57.9498 31.0242 56.7333 32.5799C54.6254 35.2776 51.9846 37.2496 48.811 38.4958C46.9379 39.2311 45.2824 40.0723 43.8446 41.0195C43.2973 41.3808 42.7514 41.8048 42.3504 42.3093C42.2393 42.4483 42.1792 42.6142 42.1702 42.8069C42.1575 43.0987 42.1837 43.3209 42.2488 43.4736C42.5459 44.1753 43.0806 44.4494 43.8527 44.2958C46.3599 43.7958 48.6881 43.1864 50.8376 42.4674C51.6577 42.1929 52.4511 41.9398 53.2178 41.708C57.0697 40.5436 60.9871 40.46 64.9699 41.4571C67.6021 42.1156 69.8605 43.5663 71.4658 45.8514C71.9521 46.544 72.0605 47.3471 71.2477 47.8488C70.7505 48.1556 70.1057 47.9729 69.7927 47.5107C69.6013 47.228 69.3953 46.944 69.175 46.6586C67.8663 44.9597 65.6974 43.9494 63.599 43.5377C60.5211 42.9342 57.4694 43.021 54.4439 43.7981C54.107 43.8854 53.2436 44.1649 51.8537 44.6366C49.7259 45.3583 47.2472 46.0196 44.4177 46.6204C43.146 46.8903 42.027 46.6108 41.0607 45.7819C41.0219 45.7483 40.983 45.7483 40.9442 45.7819C39.9896 46.609 38.8692 46.8872 37.5831 46.6163C34.6556 46 31.957 45.2597 29.1596 44.2958C25.7321 43.1123 22.1815 42.8396 18.5969 43.4886C16.0758 43.9454 13.6617 45.1602 12.3192 47.3307C12.1954 47.5307 12.0378 47.6948 11.8464 47.8229C11.0335 48.3683 9.8983 47.553 10.1408 46.6081C10.2076 46.3463 10.33 46.0873 10.5079 45.831C12.4668 43.0019 15.4594 41.5948 18.7947 41.0685C22.6068 40.4677 26.2989 40.7931 29.8708 42.0448C32.4673 42.9546 35.267 43.7181 38.27 44.3353C38.4732 44.3762 38.6737 44.3685 38.8715 44.3121C39.6419 44.0903 39.9548 43.5145 39.8103 42.5847C39.752 42.2043 38.8945 41.5266 38.5843 41.3058C36.8665 40.0855 34.9482 39.1938 32.9406 38.3853C29.5199 37.0083 26.652 34.6509 24.5888 31.5832C24.2867 31.1319 23.9954 30.3521 23.8423 29.7617C23.3032 27.6852 23.1013 25.5746 23.5131 23.4681C24.3964 18.9552 28.619 15.3585 33.2928 16.5188C33.9656 16.686 34.7613 17.0342 35.6798 17.5632C36.5043 18.0367 37.3388 18.4989 38.1833 18.9498C38.6385 19.1925 39.0995 19.1275 39.5664 18.7548C39.5862 18.739 39.6015 18.7183 39.6107 18.6946C39.62 18.6709 39.623 18.6451 39.6193 18.6198C39.5488 18.1399 39.5606 17.68 39.6545 17.24C39.6726 17.1573 39.6504 17.0869 39.5881 17.0287C37.9868 15.5253 36.1946 14.3491 34.2113 13.5002C33.6007 13.2393 33.0313 13.0907 32.503 13.0543C30.284 12.903 27.9539 13.3229 26.0844 14.5241C25.1876 15.1008 24.5237 15.7934 23.8762 16.6101C23.5389 17.0369 22.9333 17.191 22.4443 16.9305C21.9349 16.6597 21.7209 16.1866 21.8021 15.5112C22.3454 11.0433 25.7741 7.69882 29.7638 6.04226C30.1711 5.8732 30.4542 5.69005 30.6132 5.4928C31.1252 4.86018 30.9816 3.99032 30.3314 3.52266C29.7285 3.08909 29.1745 3.37541 28.5648 3.60447C26.1887 4.49615 23.9588 5.93046 22.2654 7.79699C20.1819 10.0957 19.0345 13.1552 18.945 16.2175C18.9351 16.5901 18.8778 16.8783 18.773 17.0819C18.3368 17.9354 17.0417 17.9095 16.6718 16.981C16.596 16.791 16.5653 16.5815 16.5797 16.3525C16.6791 14.6864 16.8881 13.3411 17.207 12.3167C17.4309 11.5959 17.5641 11.0756 17.6066 10.7556C17.808 9.22403 18.1255 7.68064 18.559 6.12543C18.6411 5.83002 18.8272 5.27057 19.1171 4.44706C19.2553 4.05349 19.295 3.71536 19.2363 3.43268C19.0019 2.30104 17.4454 1.8961 16.745 2.80823C16.5337 3.08364 16.3282 3.39132 16.1286 3.73127C13.9909 7.36614 13.3474 11.6746 13.808 15.9189C13.9922 17.6191 11.6215 17.8454 11.4522 16.2052C11.2508 14.241 11.2787 12.1622 11.5361 9.96891C11.5506 9.8453 11.5095 9.56034 11.4129 9.11405C11.2024 8.14966 10.9983 7.14754 10.8005 6.10771C10.7048 5.60233 10.5811 5.26511 10.4293 5.09605C9.75605 4.34617 8.50024 4.70338 8.38374 5.74504C7.58807 12.8948 7.36003 19.8687 7.69961 26.6667C7.75289 27.7247 7.73799 28.5882 7.6549 29.2572C7.46615 30.7652 6.92065 32.16 6.01841 33.4416C5.6129 34.0169 5.00825 34.6823 4.20446 35.4376C3.49549 36.1048 2.75356 36.8156 1.97867 37.57C1.69057 37.8509 1.34015 37.9454 0.927413 37.8536C-0.0141102 37.6436 -0.309437 36.4943 0.371982 35.8316C1.41962 34.8145 2.39456 33.8524 3.2968 32.9453C4.79421 31.4382 5.48827 29.5722 5.37899 27.3471C5.01141 19.8937 5.23674 12.5771 6.05499 5.39737C6.27716 3.44631 8.01119 2.12925 9.92133 2.31876C11.3207 2.45783 12.4072 3.4245 12.9112 4.76747C12.9464 4.86109 12.9753 4.85927 12.9979 4.76201C13.0196 4.66657 13.0475 4.57931 13.0819 4.50023C13.3266 3.94214 13.6098 3.37405 13.9313 2.79596C14.6032 1.5866 15.2277 0.654024 16.5459 0.206822C19.4476 -0.777568 22.2085 1.91792 21.3849 4.86563C21.3235 5.08469 21.2535 5.29693 21.1749 5.50235C21.1415 5.59052 21.1582 5.60142 21.225 5.53507C22.922 3.8717 25.067 2.52191 27.6599 1.48571C28.2894 1.23393 28.8015 1.08759 29.1961 1.04669C32.946 0.655388 34.7301 5.41236 31.7701 7.67564C31.4793 7.89833 31.1049 8.10057 30.647 8.28236C28.7125 9.04861 27.0313 10.352 25.6901 12.0059C25.5863 12.134 25.6084 12.1631 25.7565 12.0931C27.6477 11.1978 29.6585 10.7542 31.7891 10.7624C32.6868 10.7661 33.4495 10.8665 34.0772 11.0637C36.5346 11.8354 39.0191 13.3597 40.932 15.1199C40.978 15.1617 41.0241 15.1613 41.0702 15.1186C42.825 13.4988 44.7916 12.2295 46.9699 11.3105C47.669 11.016 48.3585 10.7774 49.1388 10.7161C51.6193 10.5225 53.9914 11.0078 56.2402 12.0795C56.3675 12.1395 56.3874 12.114 56.2998 12.0031C55.2486 10.6743 53.9273 9.59216 52.3359 8.75683C51.6315 8.38735 50.8308 8.17329 50.2063 7.68928C48.9112 6.68307 48.4032 5.00197 48.9803 3.45313C49.5087 2.03381 50.8688 1.06305 52.3468 1.01669C52.913 0.998515 53.6577 1.17576 54.5807 1.54843C56.8846 2.47919 58.9198 3.7549 60.6864 5.37555C60.7378 5.42282 60.7509 5.41373 60.7257 5.34828ZM36.9898 21.0208C36.1652 20.5545 35.3452 20.0969 34.5296 19.6478C33.8107 19.2506 33.3154 19.012 33.0435 18.932C31.3294 18.4267 29.7516 18.7343 28.3102 19.8551C27.0114 20.8658 26.1882 22.1493 25.8405 23.7054C25.4558 25.4247 25.6305 27.478 26.1128 29.26C26.2781 29.8717 26.5843 30.4693 27.0313 31.0529C28.6281 33.1371 30.6231 34.7364 33.0164 35.8507C33.3036 35.9843 33.9837 36.2693 35.0566 36.7056C35.8333 37.021 36.7206 37.4482 37.7186 37.9872C39.1076 38.738 40.1923 39.5047 40.9726 40.2873C41.016 40.3309 41.0602 40.3314 41.1054 40.2887C41.6978 39.7269 42.3043 39.2493 42.9248 38.8557C44.386 37.9277 46.0487 37.1005 47.9128 36.3743C50.7902 35.2536 53.1682 33.4511 55.0467 30.967C55.7214 30.0739 55.9909 29.0732 56.167 27.9333C56.6344 24.8902 56.3188 21.9043 53.757 19.8837C52.3671 18.7889 50.8119 18.3826 49.1361 18.8407C48.7676 18.9407 48.2208 19.1911 47.4956 19.5919C46.801 19.9764 46.1196 20.3618 45.4513 20.7481C44.6881 21.189 44.1133 21.4435 43.7268 21.5116C42.7884 21.678 41.9209 21.4912 41.1244 20.9513C41.1065 20.9389 41.0852 20.9324 41.0634 20.9326C41.0416 20.9329 41.0203 20.9398 41.0024 20.9526C40.2095 21.5271 39.3113 21.7284 38.3079 21.5566C37.9548 21.4966 37.5154 21.318 36.9898 21.0208Z"
        fill="white" />
</svg>