<svg width="160" height="160" viewBox="0 0 160 160" fill="none" xmlns="http://www.w3.org/2000/svg">
<rect width="160" height="160" rx="20" fill="#3C6B85" fill-opacity="0.05"/>
<path d="M33.9997 86.8868C35.2409 85.9948 36.0122 84.6832 36.0162 83.1566C36.0454 71.4224 36.0392 58.5085 35.9976 44.4149C35.9936 43.2998 36.599 42.3719 37.7313 42.1847C38.8106 42.0068 39.939 42.6944 40.1129 43.7843C40.1553 44.0551 40.1766 44.3326 40.1766 44.6167C40.1863 57.7978 40.1898 70.575 40.1872 82.9482C40.1863 85.1553 39.5292 87.0395 38.2159 88.6006C36.5468 90.583 34.4962 91.6618 32.0642 91.8371C29.534 92.0194 27.3507 91.299 25.5144 89.6759C23.7019 88.0732 22.7023 86.0576 22.5155 83.6292C22.4678 82.9999 22.5301 82.5052 22.7027 82.145C23.5165 80.4538 26.0042 80.5985 26.5857 82.3906C26.7436 82.8738 26.6281 83.4101 26.733 83.888C26.9569 84.9049 27.4149 85.743 28.107 86.4023C29.0654 87.3147 30.204 87.7475 31.5226 87.7006C32.4678 87.667 33.2935 87.3957 33.9997 86.8868Z" fill="#3C6B85"/>
<path d="M52.324 59.3724C55.7111 59.3724 58.457 56.6265 58.457 53.2394C58.457 49.8522 55.7111 47.1063 52.324 47.1063C48.9368 47.1063 46.1909 49.8522 46.1909 53.2394C46.1909 56.6265 48.9368 59.3724 52.324 59.3724Z" fill="#F0D0D5"/>
<path d="M77.4012 94.7697C77.0614 93.9467 76.849 92.9798 76.764 91.8692C76.6831 90.8138 77.0282 89.8845 78.0199 89.4797C79.4164 88.9102 80.9311 89.8859 80.9311 91.4218C80.9324 92.8887 81.5218 94.09 82.6966 95.0565C83.3586 95.6025 84.1095 95.9229 84.9494 96.0176C86.83 96.2309 88.3314 95.5711 89.4536 94.0383C90.0138 93.2736 90.266 92.3285 90.2674 91.3713C90.2877 77.9928 90.2935 65.067 90.2846 52.5938C90.2833 50.953 92.0276 50.0238 93.4056 50.7831C94.0773 51.1535 94.4543 51.8531 94.4543 52.619C94.4552 65.3727 94.453 78.2504 94.4476 91.2519C94.4468 93.467 93.7826 95.3715 92.4551 96.9654C91.0178 98.6912 89.2686 99.7315 87.2075 100.086C85.5322 100.374 83.9157 100.225 82.3581 99.639C80.1717 98.8159 78.2814 96.8937 77.4012 94.7697Z" fill="#3C6B85"/>
<path d="M69.1653 76.5237C69.3176 76.5494 69.4924 76.5613 69.6897 76.5596C71.111 76.5454 72.6217 76.5401 74.2218 76.5436C75.1444 76.545 75.6873 76.6525 76.2422 77.2937C76.8529 77.9972 76.8622 79.1084 76.3312 79.8146C75.8652 80.4359 75.2254 80.6828 74.4674 80.6775C72.1991 80.6624 69.8924 80.6646 67.5471 80.6841C66.9524 80.6885 66.5139 80.6323 66.2316 80.5155C65.7006 80.296 65.3245 79.9181 65.1032 79.3818C64.9519 79.0128 64.9638 78.6158 64.9651 78.191C64.9722 70.6022 64.97 62.7695 64.9585 54.693C64.9576 54.1293 65.0121 53.7186 65.1218 53.4611C65.8426 51.7805 68.2786 51.8575 68.9357 53.5354C69.0224 53.7576 69.0676 54.1098 69.0711 54.5921C69.0755 55.17 69.0773 55.7333 69.0764 56.282C69.072 62.9753 69.072 69.6875 69.0764 76.4188C69.0764 76.479 69.1061 76.514 69.1653 76.5237Z" fill="#EAA95F"/>
<path d="M80.1559 56.9815C80.149 58.307 81.1448 59.3868 82.3802 59.3933C83.6155 59.3998 84.6226 58.3305 84.6295 57.0049C84.6365 55.6794 83.6406 54.5996 82.4053 54.5931C81.1699 54.5867 80.1629 55.656 80.1559 56.9815Z" fill="#4DAAC3"/>
<path d="M62.5118 70.5019C62.5118 71.839 62.2484 73.163 61.7367 74.3983C61.225 75.6336 60.475 76.7561 59.5296 77.7016C58.5841 78.647 57.4616 79.397 56.2263 79.9087C54.991 80.4204 53.667 80.6838 52.3299 80.6838C50.9928 80.6838 49.6687 80.4204 48.4334 79.9087C47.1981 79.397 46.0756 78.647 45.1302 77.7016C44.1847 76.7561 43.4347 75.6336 42.923 74.3983C42.4113 73.163 42.1479 71.839 42.1479 70.5019C42.1479 69.1647 42.4113 67.8407 42.923 66.6054C43.4347 65.3701 44.1847 64.2476 45.1302 63.3022C46.0756 62.3567 47.1981 61.6067 48.4334 61.095C49.6687 60.5833 50.9928 60.3199 52.3299 60.3199C55.0303 60.3199 57.6201 61.3927 59.5296 63.3022C61.439 65.2116 62.5118 67.8014 62.5118 70.5019ZM58.3952 70.5005C58.3952 68.8923 57.7563 67.3498 56.6191 66.2126C55.4819 65.0754 53.9395 64.4365 52.3312 64.4365C50.7229 64.4365 49.1805 65.0754 48.0433 66.2126C46.9061 67.3498 46.2672 68.8923 46.2672 70.5005C46.2672 72.1088 46.9061 73.6512 48.0433 74.7884C49.1805 75.9257 50.7229 76.5645 52.3312 76.5645C53.9395 76.5645 55.4819 75.9257 56.6191 74.7884C57.7563 73.6512 58.3952 72.1088 58.3952 70.5005Z" fill="#A6515D"/>
<path d="M82.4267 60.3512H82.3523C81.3113 60.3512 80.4673 61.1952 80.4673 62.2362V78.7689C80.4673 79.81 81.3113 80.6539 82.3523 80.6539H82.4267C83.4678 80.6539 84.3117 79.81 84.3117 78.7689V62.2362C84.3117 61.1952 83.4678 60.3512 82.4267 60.3512Z" fill="#4DAAC3"/>
<path d="M116.627 70.5003C116.627 73.2007 115.554 75.7905 113.645 77.7C111.735 79.6094 109.145 80.6822 106.445 80.6822C103.744 80.6822 101.155 79.6094 99.2452 77.7C97.3357 75.7905 96.2629 73.2007 96.2629 70.5003C96.2629 67.7999 97.3357 65.21 99.2452 63.3006C101.155 61.3911 103.744 60.3184 106.445 60.3184C109.145 60.3184 111.735 61.3911 113.645 63.3006C115.554 65.21 116.627 67.7999 116.627 70.5003ZM112.458 71.3021C112.527 70.7865 112.529 70.264 112.464 69.7476C112.353 68.8552 112.044 67.999 111.561 67.2413C111.015 66.3842 110.262 65.6784 109.372 65.1889C108.508 64.7128 107.54 64.4548 106.553 64.4375C105.567 64.4201 104.591 64.6439 103.71 65.0894C102.738 65.5812 101.917 66.326 101.333 67.2452C100.758 68.1469 100.432 69.1844 100.389 70.252C100.354 71.1052 100.5 71.956 100.816 72.7489C101.133 73.5418 101.613 74.2588 102.226 74.8531C102.938 75.5436 103.809 76.049 104.761 76.3249C105.714 76.6007 106.72 76.6387 107.69 76.4355C108.631 76.2383 109.511 75.8206 110.259 75.2169C111.466 74.2408 112.253 72.8398 112.458 71.3021Z" fill="#A6515D"/>
<path d="M133.39 79.0968C130.126 81.3389 125.556 81.1623 122.523 78.7383C120.088 76.7913 118.881 74.2744 118.9 71.1875C118.918 68.521 118.915 65.9129 118.892 63.3632C118.887 62.7411 118.947 62.2813 119.073 61.984C119.905 60.002 122.953 60.6113 122.956 62.7606C122.959 65.489 122.957 68.144 122.949 70.7256C122.947 71.6654 123.016 72.3796 123.156 72.8681C123.39 73.6744 123.835 74.4102 124.492 75.0758C125.639 76.2369 127.077 76.7365 128.807 76.5745C130.906 76.3794 132.694 74.7585 133.256 72.8057C133.398 72.3137 133.464 71.4375 133.456 70.1773C133.441 67.7878 133.436 65.3664 133.439 62.9132C133.439 62.5123 133.498 62.1897 133.614 61.9455C134.554 59.9821 137.499 60.6246 137.496 62.8482C137.488 68.121 137.489 73.323 137.5 78.4542C137.501 78.772 137.467 79.0419 137.399 79.264C137.043 80.4256 135.667 80.9964 134.575 80.4641C134.028 80.1968 133.667 79.7534 133.492 79.1339C133.475 79.0746 133.441 79.0622 133.39 79.0968Z" fill="#EAA95F"/>
<path d="M112.465 69.7473C112.53 70.2638 112.528 70.7863 112.459 71.3018L112.465 69.7473Z" fill="#F0D0D5"/>
<path d="M70.7092 123.127L70.7012 125.611C70.7012 125.672 70.6707 125.703 70.6096 125.703L70.1808 125.709C70.11 125.71 70.0747 125.674 70.0747 125.603L70.0693 117.948C70.0693 117.936 70.0717 117.924 70.0764 117.913C70.0811 117.902 70.088 117.892 70.0966 117.884C70.1053 117.875 70.1155 117.869 70.1268 117.864C70.1381 117.86 70.1501 117.858 70.1623 117.858C70.6366 117.871 71.13 117.869 71.6424 117.851C72.7084 117.817 73.5673 118.216 74.1275 119.106C74.5616 119.793 74.6173 120.808 74.2682 121.534C73.9301 122.239 73.3921 122.709 72.654 122.944C72.0898 123.123 71.3955 123.031 70.7822 123.051C70.7335 123.052 70.7092 123.077 70.7092 123.127ZM70.6986 118.547L70.7118 122.359C70.7118 122.372 70.7167 122.384 70.7255 122.392C70.7342 122.401 70.746 122.406 70.7583 122.406L71.9053 122.402C72.4224 122.4 72.9177 122.196 73.2822 121.834C73.6467 121.472 73.8505 120.982 73.8487 120.472V120.413C73.8479 120.161 73.7966 119.911 73.6978 119.678C73.599 119.445 73.4546 119.233 73.2729 119.055C73.0912 118.877 72.8757 118.736 72.6388 118.64C72.4018 118.544 72.1481 118.496 71.892 118.496L70.745 118.5C70.7327 118.5 70.7209 118.505 70.7122 118.514C70.7035 118.523 70.6986 118.535 70.6986 118.547Z" fill="black"/>
<path d="M84.9474 120.206C85.2414 120.206 85.4797 119.968 85.4797 119.674C85.4797 119.38 85.2414 119.141 84.9474 119.141C84.6534 119.141 84.415 119.38 84.415 119.674C84.415 119.968 84.6534 120.206 84.9474 120.206Z" fill="black"/>
<path d="M80.3152 120.809L80.3856 125.69L79.7988 125.703C79.7422 125.705 79.7143 125.677 79.7152 125.619L79.7232 125.045C79.724 124.962 79.6962 124.951 79.6395 125.01C78.2337 126.498 75.7274 125.9 75.0995 123.955C74.9561 123.51 74.9309 123.052 75.0238 122.582C75.4499 120.42 78.1063 119.654 79.6302 121.191C79.6869 121.248 79.7152 121.236 79.7152 121.156L79.7165 120.907C79.7174 120.84 79.751 120.807 79.8174 120.807L80.3152 120.809ZM79.7563 123.109C79.7563 122.838 79.7029 122.57 79.5992 122.319C79.4955 122.069 79.3434 121.841 79.1517 121.65C78.96 121.458 78.7325 121.306 78.482 121.202C78.2316 121.098 77.9632 121.045 77.6921 121.045C77.421 121.045 77.1526 121.098 76.9021 121.202C76.6517 121.306 76.4241 121.458 76.2324 121.65C76.0407 121.841 75.8887 122.069 75.785 122.319C75.6812 122.57 75.6278 122.838 75.6278 123.109C75.6278 123.657 75.8453 124.182 76.2324 124.569C76.6196 124.956 77.1446 125.173 77.6921 125.173C77.9632 125.173 78.2316 125.12 78.482 125.016C78.7325 124.913 78.96 124.761 79.1517 124.569C79.3434 124.377 79.4955 124.15 79.5992 123.899C79.7029 123.649 79.7563 123.38 79.7563 123.109Z" fill="black"/>
<path d="M88.941 121.796C88.8985 121.813 88.8578 121.834 88.8189 121.86C88.6746 121.955 88.5875 121.917 88.5574 121.747C88.3304 120.471 86.7984 121.542 87.5883 122.213C88.0821 122.631 88.8547 122.842 89.164 123.438C89.4278 123.946 89.4331 124.438 89.18 124.914C88.8481 125.539 88.114 125.835 87.437 125.627C86.894 125.461 86.4081 124.931 86.3843 124.33C86.3807 124.245 86.4201 124.193 86.5024 124.173L86.9153 124.074C87.0002 124.054 87.0369 124.087 87.0254 124.173C86.9697 124.622 87.3958 125.016 87.7967 125.051C88.3742 125.101 88.856 124.566 88.7206 124.001C88.6622 123.757 88.5047 123.555 88.2481 123.393C87.421 122.87 86.3325 122.405 86.9033 121.177C87.0794 120.797 87.3958 120.585 87.8525 120.541C88.4817 120.481 88.9074 120.761 89.1295 121.382C89.2003 121.581 89.1375 121.719 88.941 121.796Z" fill="black"/>
<path d="M82.3012 121.37C82.5309 121.102 82.8667 120.895 83.1853 120.763C83.2034 120.756 83.2238 120.755 83.2424 120.761C83.261 120.768 83.2767 120.781 83.2862 120.798L83.5557 121.273C83.5832 121.321 83.5703 121.351 83.5172 121.363C82.8681 121.516 82.2083 122.22 82.211 122.944C82.2136 123.902 82.2065 124.807 82.1897 125.661C82.1888 125.691 82.1729 125.707 82.1419 125.707L81.599 125.71C81.5698 125.71 81.5552 125.695 81.5552 125.664V120.855C81.5552 120.817 81.5742 120.798 81.6123 120.798L82.1379 120.797C82.184 120.797 82.2065 120.82 82.2057 120.866L82.203 121.333C82.2021 121.435 82.2349 121.447 82.3012 121.37Z" fill="black"/>
<path d="M85.2104 120.799H84.6874C84.6595 120.799 84.637 120.822 84.637 120.85V125.658C84.637 125.686 84.6595 125.708 84.6874 125.708H85.2104C85.2383 125.708 85.2609 125.686 85.2609 125.658V120.85C85.2609 120.822 85.2383 120.799 85.2104 120.799Z" fill="black"/>
</svg>
