<svg width="12" height="14" viewBox="0 0 12 14" fill="none" xmlns="http://www.w3.org/2000/svg">
<path fill-rule="evenodd" clip-rule="evenodd" d="M6.63934 13.0306L6.63919 13.0308L6.63852 13.0315C6.42653 13.2417 6.21319 13.4532 5.99984 13.6666C5.78649 13.4532 5.57314 13.2417 5.36116 13.0315L5.36066 13.031L5.36033 13.0306C2.92303 10.6138 0.666504 8.37614 0.666504 5.66659C0.666504 2.72107 3.05432 0.333252 5.99984 0.333252C8.94536 0.333252 11.3332 2.72107 11.3332 5.66659C11.3332 8.37614 9.07664 10.6138 6.63934 13.0306ZM8 5.6665C8 6.77107 7.10457 7.6665 6 7.6665C4.89543 7.6665 4 6.77107 4 5.6665C4 4.56193 4.89543 3.6665 6 3.6665C7.10457 3.6665 8 4.56193 8 5.6665Z" fill="white"/>
</svg>
