<svg width="14" height="12" viewBox="0 0 14 12" fill="none" xmlns="http://www.w3.org/2000/svg">
<path fill-rule="evenodd" clip-rule="evenodd" d="M0.333008 3.81959C0.333008 3.83504 0.333008 3.85059 0.333008 3.86626V8.13293C0.333008 8.47805 0.333008 8.77 0.339384 9.02129L3.58111 6.09327L0.333008 3.81959ZM0.556459 1.74763C0.66754 1.77464 0.775558 1.82239 0.874856 1.8919L5.61988 5.21342C5.6308 5.22073 5.64159 5.22828 5.65226 5.23608L6.31813 5.7022C6.82296 6.05557 6.87689 6.07483 6.90568 6.08201C6.96736 6.09738 7.03187 6.09738 7.09354 6.08201C7.12234 6.07483 7.17627 6.05557 7.68109 5.7022L8.34695 5.2361C8.35763 5.22828 8.36843 5.22072 8.37936 5.21341L13.1244 1.8919C13.2237 1.82237 13.3318 1.77461 13.4429 1.74761C13.2508 1.37617 12.9471 1.07418 12.5743 0.884247C12.1465 0.66626 11.5864 0.66626 10.4663 0.66626H3.53301C2.4129 0.66626 1.85285 0.66626 1.42503 0.884247C1.05226 1.07418 0.748528 1.37618 0.556459 1.74763ZM13.6663 3.81951L10.4181 6.09327L13.66 9.0214C13.6663 8.77008 13.6663 8.47809 13.6663 8.13293V3.86626C13.6663 3.85057 13.6663 3.83498 13.6663 3.81951ZM12.9524 10.8646C12.8622 10.8249 12.7767 10.7703 12.6995 10.7007L8.82959 7.20523L8.76491 7.25051L8.67791 7.31163C8.32837 7.55762 7.96671 7.81214 7.55066 7.91585C7.18883 8.00604 6.81039 8.00604 6.44856 7.91585C6.03252 7.81214 5.67085 7.55762 5.32132 7.31163L5.23432 7.25051L5.16963 7.20523L1.29971 10.7007C1.22259 10.7703 1.13712 10.8249 1.04694 10.8646C1.16241 10.9616 1.28913 11.0457 1.42503 11.1149C1.85285 11.3329 2.4129 11.3329 3.53301 11.3329H10.4663C11.5864 11.3329 12.1465 11.3329 12.5743 11.1149C12.7102 11.0457 12.8369 10.9616 12.9524 10.8646Z" fill="white"/>
</svg>
