<svg width="25" height="24" viewBox="0 0 25 24" fill="none" xmlns="http://www.w3.org/2000/svg">
<path d="M20.4602 8.9599C19.7902 8.2199 18.7802 7.7899 17.3802 7.6399V6.8799C17.3802 5.5099 16.8002 4.1899 15.7802 3.2699C14.7502 2.3299 13.4102 1.8899 12.0202 2.0199C9.63023 2.2499 7.62023 4.5599 7.62023 7.0599V7.6399C6.22023 7.7899 5.21023 8.2199 4.54023 8.9599C3.57023 10.0399 3.60023 11.4799 3.71023 12.4799L4.41023 18.0499C4.62023 19.9999 5.41023 21.9999 9.71023 21.9999H15.2902C19.5902 21.9999 20.3802 19.9999 20.5902 18.0599L21.2902 12.4699C21.4002 11.4799 21.4202 10.0399 20.4602 8.9599ZM12.1602 3.4099C13.1602 3.3199 14.1102 3.6299 14.8502 4.2999C15.5802 4.9599 15.9902 5.8999 15.9902 6.8799V7.5799H9.01023V7.0599C9.01023 5.2799 10.4802 3.5699 12.1602 3.4099ZM8.92023 13.1499H8.91023C8.36023 13.1499 7.91023 12.6999 7.91023 12.1499C7.91023 11.5999 8.36023 11.1499 8.91023 11.1499C9.47023 11.1499 9.92023 11.5999 9.92023 12.1499C9.92023 12.6999 9.47023 13.1499 8.92023 13.1499ZM15.9202 13.1499H15.9102C15.3602 13.1499 14.9102 12.6999 14.9102 12.1499C14.9102 11.5999 15.3602 11.1499 15.9102 11.1499C16.4702 11.1499 16.9202 11.5999 16.9202 12.1499C16.9202 12.6999 16.4702 13.1499 15.9202 13.1499Z" fill="white"/>
</svg>
