<svg width="25" height="24" viewBox="0 0 25 24" fill="none" xmlns="http://www.w3.org/2000/svg">
<path d="M20.4597 8.9599C19.7897 8.2199 18.7797 7.7899 17.3797 7.6399V6.8799C17.3797 5.5099 16.7997 4.1899 15.7797 3.2699C14.7497 2.3299 13.4097 1.8899 12.0197 2.0199C9.62975 2.2499 7.61975 4.5599 7.61975 7.0599V7.6399C6.21975 7.7899 5.20975 8.2199 4.53975 8.9599C3.56975 10.0399 3.59975 11.4799 3.70975 12.4799L4.40975 18.0499C4.61975 19.9999 5.40975 21.9999 9.70975 21.9999H15.2897C19.5897 21.9999 20.3797 19.9999 20.5897 18.0599L21.2897 12.4699C21.3997 11.4799 21.4197 10.0399 20.4597 8.9599ZM12.1597 3.4099C13.1597 3.3199 14.1097 3.6299 14.8497 4.2999C15.5797 4.9599 15.9897 5.8999 15.9897 6.8799V7.5799H9.00975V7.0599C9.00975 5.2799 10.4797 3.5699 12.1597 3.4099ZM8.91975 13.1499H8.90975C8.35975 13.1499 7.90975 12.6999 7.90975 12.1499C7.90975 11.5999 8.35975 11.1499 8.90975 11.1499C9.46975 11.1499 9.91975 11.5999 9.91975 12.1499C9.91975 12.6999 9.46975 13.1499 8.91975 13.1499ZM15.9197 13.1499H15.9097C15.3597 13.1499 14.9097 12.6999 14.9097 12.1499C14.9097 11.5999 15.3597 11.1499 15.9097 11.1499C16.4697 11.1499 16.9197 11.5999 16.9197 12.1499C16.9197 12.6999 16.4697 13.1499 15.9197 13.1499Z" fill="white"/>
</svg>
