<svg width="148" height="149" viewBox="0 0 148 149" fill="none" xmlns="http://www.w3.org/2000/svg">
<rect y="0.5" width="148" height="148" rx="20" fill="#E5372E"/>
<path d="M111.514 75.7053C111.515 75.7881 111.544 75.7994 111.601 75.7393C111.915 75.4082 112.222 75.1104 112.524 74.8459C113.545 73.9489 114.717 73.5272 116.039 73.5809C117.068 73.6226 117.911 74.6916 118.267 75.5899C118.371 75.8528 118.37 76.1167 118.41 76.3902C118.411 76.4029 118.417 76.4147 118.425 76.4243C118.434 76.4339 118.445 76.4407 118.457 76.4441C118.469 76.4474 118.483 76.447 118.495 76.4429C118.507 76.4389 118.518 76.4313 118.526 76.4213C118.975 75.8631 119.534 75.2607 120.202 74.614C120.526 74.3004 120.862 74.03 121.21 73.803C121.83 73.3969 122.488 73.2811 123.182 73.4558C124.282 73.7322 124.971 74.873 125.23 75.8858C125.311 76.2033 125.35 76.5703 125.346 76.9868C125.331 78.6075 125.331 80.1887 125.346 81.7304C125.35 82.1075 125.461 82.4496 125.682 82.7568C125.919 83.0885 126.182 83.0226 126.519 83.1361C126.614 83.1684 126.718 83.1768 126.829 83.1613C127.323 83.0947 127.738 82.9443 128.072 82.7102C128.577 82.3561 129.116 81.9225 129.498 81.453C130.071 80.7478 130.582 79.9387 131.021 79.0938C131.219 78.7145 131.642 78.5845 132.042 78.6039C132.065 78.6051 132.087 78.6125 132.106 78.6254C132.124 78.6382 132.139 78.656 132.148 78.6767C132.236 78.8794 132.486 79.3256 132.376 79.542C131.957 80.3614 131.491 81.1287 130.977 81.8439C130.879 81.9791 130.679 82.2333 130.377 82.6064C129.758 83.3708 128.973 83.98 128.075 84.3797C127.771 84.5149 127.463 84.5941 127.153 84.6174C126.474 84.6688 125.706 84.6649 125.098 84.3477C124.423 83.9955 123.995 83.2729 123.837 82.521C123.769 82.1945 123.734 81.8614 123.733 81.5219C123.733 79.9659 123.736 78.438 123.742 76.9383C123.745 76.1797 123.605 75.6394 123.044 75.1107C122.934 75.0072 122.805 74.9506 122.657 74.9409C122.434 74.9274 122.251 74.9513 122.108 75.0127C121.703 75.1864 121.359 75.4687 121.032 75.7849C120.472 76.3294 120.035 76.7886 119.721 77.1624C119.241 77.7328 118.818 78.3051 118.45 78.8794C118.378 78.9919 118.342 79.1213 118.342 79.2674C118.341 81.022 118.341 82.6442 118.343 84.1343C118.343 84.2953 118.216 84.434 118.086 84.5155C117.68 84.7716 117.296 84.7493 116.934 84.4486C116.852 84.38 116.811 84.2914 116.811 84.1828C116.801 81.6813 116.801 79.2138 116.809 76.7802C116.809 76.5131 116.769 76.2728 116.689 76.0594C116.558 75.716 116.384 75.4438 116.167 75.2426C115.81 74.9109 115.415 75.1408 115.012 75.1641C114.872 75.1718 114.728 75.2138 114.58 75.2902C114.221 75.4764 113.968 75.6371 113.823 75.7723C113.242 76.3116 112.677 76.8655 112.235 77.5388C112.014 77.8777 111.8 78.1868 111.593 78.4662C111.54 78.538 111.514 78.6191 111.513 78.7097C111.511 80.5069 111.511 82.2646 111.514 83.9829C111.516 84.7697 110.541 84.8764 110.075 84.3962C109.961 84.2788 109.969 84.1391 109.969 83.9761C109.968 81.2043 109.972 78.4529 109.981 75.7218C109.982 75.4143 109.927 75.1796 109.71 74.9623C109.704 74.9559 109.697 74.951 109.688 74.9477C109.68 74.9443 109.671 74.9428 109.662 74.9431C109.653 74.9433 109.645 74.9454 109.637 74.9492C109.629 74.953 109.621 74.9585 109.616 74.9652C109.313 75.3164 108.976 75.6452 108.704 76.0323C108.328 76.5684 108.037 77.0204 107.829 77.3884C106.943 78.9651 106.107 80.2339 105.321 81.195C104.611 82.0641 103.868 82.8221 103.092 83.4688C102.763 83.743 102.406 83.9871 102.021 84.2012C101.695 84.3826 101.363 84.3894 101.023 84.499C100.887 84.543 100.75 84.5453 100.611 84.5058C100.276 84.4107 99.9326 84.402 99.6228 84.2206C98.796 83.7356 98.2994 82.9634 97.946 82.0758C97.9441 82.0713 97.9411 82.0673 97.9373 82.0643C97.9335 82.0612 97.929 82.0591 97.9243 82.0583C97.9195 82.0574 97.9147 82.0577 97.9102 82.0593C97.9057 82.0608 97.9017 82.0635 97.8986 82.0671C97.3778 82.6607 96.7156 83.1225 96.0602 83.5241C95.5987 83.8061 95.0834 84.0353 94.5141 84.2119C94.2308 84.2992 93.9452 84.3554 93.6573 84.3807C93.0736 84.4321 92.5953 84.4767 91.999 84.3981C91.7602 84.3664 91.5104 84.3014 91.2497 84.2031C90.3035 83.8468 89.4893 83.2069 88.8071 82.2834C88.6839 82.1165 88.588 81.9199 88.5196 81.6936C88.5173 81.6857 88.5129 81.6787 88.5069 81.6731C88.501 81.6675 88.4937 81.6635 88.4857 81.6616C88.4778 81.6598 88.4695 81.66 88.4617 81.6624C88.4538 81.6648 88.4468 81.6692 88.4412 81.6751C88.0627 82.0845 87.7945 82.554 87.4111 82.9459C86.9878 83.3786 86.5618 83.7142 86.1332 83.9529C85.3084 84.412 84.4149 84.5465 83.4526 84.3564C82.893 84.2458 82.4409 84.0411 82.0962 83.7424C81.4476 83.1807 81.0507 82.555 81.0352 81.6596C81.0158 80.5104 81.0216 79.3399 81.0526 78.148C81.0546 78.0743 81.0333 78.0668 80.9887 78.1257C80.6673 78.5418 80.3982 78.99 80.0671 79.3994C79.8367 79.6846 79.6402 79.996 79.3943 80.2773C79.1774 80.5256 78.9606 80.783 78.7437 81.0495C78.3752 81.5015 77.8737 82.0428 77.2393 82.6733C76.824 83.0856 76.3641 83.3815 75.9246 83.7385C75.6119 83.9926 75.1637 84.24 74.7842 84.3467C74.3014 84.4825 73.8093 84.4777 73.3078 84.3322C72.3174 84.0431 71.572 83.0817 71.1867 82.1515C71.1837 82.1443 71.179 82.138 71.1731 82.1329C71.1672 82.1279 71.1602 82.1244 71.1526 82.1226C71.1451 82.1208 71.1372 82.1208 71.1297 82.1226C71.1221 82.1244 71.1151 82.128 71.1092 82.133C70.1469 82.9847 69.1275 83.7346 67.9377 84.1381C67.575 84.2617 67.22 84.3425 66.8728 84.3807C66.443 84.4285 66.0777 84.4499 65.7769 84.4447C65.4139 84.4379 64.9811 84.3933 64.6336 84.2701C63.8565 83.9946 63.1753 83.5742 62.5899 83.009C62.194 82.6268 61.9055 82.1505 61.6673 81.6606C61.6634 81.6524 61.657 81.6456 61.6492 81.641C61.6413 81.6365 61.6323 81.6344 61.6232 81.635C61.6142 81.6356 61.6055 81.639 61.5984 81.6445C61.5912 81.6501 61.5859 81.6578 61.5831 81.6664C61.5444 81.7815 61.4921 81.8831 61.4263 81.971C61.0768 82.4405 60.7447 82.9159 60.2733 83.299C59.986 83.5325 59.7276 83.7223 59.4978 83.8685C58.6652 84.4001 57.6981 84.5605 56.5964 84.3496C56.3189 84.2966 56.012 84.1727 55.6757 83.9781C54.8654 83.5095 54.209 82.6287 54.2187 81.6567C54.2291 80.4849 54.2294 79.3586 54.2197 78.278C54.2178 78.0969 54.1642 78.0801 54.059 78.2275C53.7511 78.6569 53.4217 79.1012 53.0706 79.5604C52.8737 79.8184 52.6733 80.0645 52.4694 80.2986C52.1896 80.6207 51.9708 80.9641 51.6833 81.2697C51.318 81.659 50.9672 82.0609 50.6309 82.4755C50.2785 82.91 49.8293 83.2069 49.4043 83.5697C49.0558 83.8675 48.5669 84.1964 48.1448 84.3273C47.9551 84.3862 47.7231 84.4444 47.4488 84.5019C47.2971 84.5343 47.1554 84.5317 47.0238 84.4942C46.6704 84.3933 46.3384 84.3962 46.016 84.1867C45.3267 83.7365 44.8175 83.1147 44.4883 82.3212C44.4296 82.1815 44.3447 82.1631 44.2337 82.2659C43.3731 83.0662 42.3498 83.7686 41.2287 84.1721C40.8763 84.2995 40.5388 84.3771 40.2161 84.4049C39.7378 84.4457 39.2915 84.5727 38.7988 84.5107C37.8081 84.3871 36.9397 84.003 36.1936 83.3582C35.5863 82.8337 35.1474 82.2546 34.877 81.6208C34.8531 81.5646 34.8228 81.561 34.786 81.6102C33.9805 82.6759 32.984 83.4986 31.7965 84.078C31.5428 84.2022 31.2417 84.3215 30.9658 84.3622C30.4624 84.4369 29.9338 84.6212 29.444 84.5902C28.7528 84.5462 28.1745 84.3619 27.7091 84.0373C27.3955 83.818 27.1002 83.527 26.8233 83.1642C26.5729 82.8357 26.328 82.3733 26.0885 81.777C25.913 81.3385 25.7581 80.8955 25.6238 80.448C25.4954 80.0205 25.3847 79.5986 25.2918 79.1821C25.0452 78.073 24.7035 76.947 24.2666 75.8043C24.0136 75.144 23.6121 74.4973 23.0622 73.8642C23.042 73.8411 23.014 73.8264 22.9835 73.823C22.9531 73.8196 22.9225 73.8277 22.8977 73.8457C22.7615 73.944 22.6292 74.0452 22.5007 74.1494C22.19 74.4016 21.7572 74.5801 21.3913 74.7566C21.1564 74.8692 20.8982 74.9526 20.6168 75.0069C20.2709 75.0742 19.9837 75.1217 19.7552 75.1495C18.9678 75.2459 18.2078 75.1443 17.4753 74.8449C17.2417 74.7498 17.05 74.6376 16.9003 74.5083C16.5575 74.2114 16.2158 73.8127 16.21 73.352C16.1964 72.2548 17.2536 71.5011 18.2246 71.2993C18.5609 71.2301 18.9281 71.1751 19.3263 71.1344C19.4986 71.1169 19.6574 71.116 19.8026 71.1315C20.1795 71.1735 20.5697 71.2107 20.9731 71.243C21.2874 71.2683 21.583 71.3274 21.8599 71.4206C22.1651 71.5234 22.4514 71.6508 22.7186 71.8028C22.7316 71.8101 22.7467 71.8132 22.7616 71.8116C22.7765 71.8101 22.7905 71.8039 22.8018 71.794C22.9799 71.6356 23.1355 71.4658 23.2684 71.2847C23.708 70.6872 24.0203 70.1291 24.2056 69.6104C24.3585 69.1855 24.5018 68.7215 24.6354 68.2184C24.6896 68.0121 24.7242 67.8103 24.739 67.613C24.7709 67.1717 24.8387 66.7516 24.7961 66.3015C24.7684 66.0124 24.7296 65.7871 24.6799 65.6254C24.3963 64.7058 23.8609 64.0859 23.1532 63.3913C22.8447 63.0893 22.5524 62.8494 22.2761 62.6715C21.7892 62.3592 21.2132 62.0284 20.6555 61.8819C20.4309 61.8227 20.2441 61.7199 20.0059 61.7005C19.2327 61.6384 18.618 61.6491 18.1617 61.7325C17.7273 61.812 17.3011 61.9478 16.8828 62.1399C16.575 62.2816 16.2313 62.4824 15.8518 62.7423C14.7937 63.466 13.8691 64.5418 13.1837 65.5827C12.5712 66.514 11.9816 67.5869 11.415 68.8014C11.3401 68.9611 11.303 69.1276 11.3036 69.301C11.3101 74.3117 11.313 79.1472 11.3124 83.8074C11.3124 84.0208 11.2394 84.187 11.0936 84.306C10.8348 84.5174 10.5731 84.5763 10.3084 84.4825C9.96057 84.3584 9.78695 84.1385 9.7876 83.8229C9.79986 76.0028 9.79986 68.4347 9.7876 61.1184C9.78663 60.4918 10.1942 60.1067 10.8486 60.2861C11.2036 60.3838 11.3817 60.6341 11.383 61.037C11.3882 62.4836 11.3876 63.8844 11.3811 65.2393C11.3805 65.3492 11.3708 65.4618 11.3521 65.5769C11.3353 65.6816 11.3679 65.7004 11.4498 65.6331C11.4937 65.5976 11.5302 65.5552 11.5592 65.5061C11.9252 64.8917 12.3176 64.3158 12.7364 63.7784C13.1324 63.2701 13.5981 62.8442 14.0405 62.3912C14.2173 62.2101 14.4032 62.0471 14.5981 61.9023C15.6643 61.1126 16.7521 60.6098 17.8616 60.3938C18.305 60.3078 18.8339 60.2742 19.4483 60.2929C19.9963 60.3104 20.5229 60.4051 21.0283 60.5771C22.1261 60.9503 23.0267 61.4169 23.7302 61.977C24.0704 62.2473 24.4802 62.646 24.9597 63.173C26.0543 64.3766 26.5368 65.8191 26.407 67.5005C26.3748 67.917 26.3125 68.3868 26.2202 68.91C26.1789 69.1435 26.085 69.4924 25.9385 69.9567C25.5967 71.0422 24.9442 72.0084 24.1668 72.8698C24.0978 72.9462 24.0991 73.0212 24.1707 73.0949C24.8813 73.8176 25.4293 74.8148 25.8058 75.8324C26.164 76.7993 26.449 77.6979 26.6607 78.5282C26.8227 79.1627 26.9915 79.7751 27.167 80.3656C27.4361 81.2726 27.9473 82.5899 28.8215 83.0265C29.2475 83.2389 29.7034 83.2913 30.1691 83.1574C30.5215 83.0556 30.8642 83.073 31.1972 82.8839C32.093 82.3723 32.8046 81.787 33.3319 81.128C33.6701 80.7057 34.0512 80.1554 34.4752 79.477C34.6282 79.2335 34.8789 78.9958 34.9506 78.7184C35.1461 77.9675 35.6118 77.3894 36.0561 76.7724C36.1849 76.5939 36.3504 76.4242 36.5208 76.2835C37.3676 75.5844 38.1547 75.0512 38.882 74.6839C39.5203 74.3618 40.3826 74.0469 41.4688 73.739C41.7147 73.6698 41.9487 73.6181 42.1707 73.5838C42.4892 73.5353 42.7835 73.4383 43.1107 73.4179C43.6277 73.3856 44.1233 73.3552 44.5977 73.3267C44.8378 73.3132 45.3083 73.285 45.47 73.5033C45.5958 73.674 45.7072 73.8855 45.7072 74.1086C45.7091 75.891 45.7085 77.6222 45.7052 79.3024C45.7052 79.4705 45.7272 79.6277 45.7711 79.7738C45.8475 80.0289 45.7439 80.2521 45.7662 80.514C45.7914 80.8043 45.8127 81.0879 45.8301 81.3647C45.8559 81.7709 46.0215 82.166 46.3267 82.5501C46.561 82.8457 46.8334 83.042 47.1438 83.139C47.2813 83.1823 47.41 83.1768 47.5301 83.1225C47.6966 83.0478 47.8593 83.0235 48.0161 82.913C48.4091 82.6336 48.7993 82.3668 49.1497 82.0234C49.555 81.6257 49.912 81.2402 50.2205 80.8671C50.6687 80.3248 51.084 79.8737 51.4896 79.3567C51.8246 78.9299 52.1586 78.4982 52.4916 78.0616C52.7627 77.7056 53.0105 77.3331 53.2816 76.9781C53.6385 76.5099 53.9241 76.0714 54.1384 75.6627C54.212 75.5236 54.2487 75.3723 54.2487 75.2087C54.252 74.3266 54.2523 73.3853 54.2497 72.3848C54.2497 72.3208 54.2178 72.2894 54.1539 72.2907C53.4956 72.303 52.8647 72.3036 52.2612 72.2927C51.9795 72.2878 51.6048 72.184 51.4587 71.9085C51.3257 71.6582 51.3189 71.4151 51.4383 71.179C51.6174 70.823 51.9969 70.7619 52.3629 70.757C52.947 70.7499 53.5304 70.7522 54.1132 70.7638C54.1984 70.7651 54.2413 70.7231 54.242 70.6377C54.2542 68.4958 54.2562 66.3406 54.2478 64.1722C54.2458 63.7784 54.4869 63.5436 54.8683 63.4185C54.9677 63.3861 55.0678 63.3945 55.1684 63.4437C55.4521 63.5814 55.7512 63.7483 55.7512 64.1082C55.7532 66.1874 55.7535 68.3697 55.7522 70.6552C55.7522 70.7295 55.7893 70.7664 55.8635 70.7658C56.6671 70.7606 57.4799 70.7587 58.3022 70.7599C58.8385 70.7599 59.1241 70.8996 59.3168 71.4429C59.3797 71.6194 59.2393 71.8057 59.1657 71.9589C59.0631 72.1724 58.7862 72.2286 58.5771 72.2286C57.6013 72.2312 56.6855 72.2312 55.8297 72.2286C55.778 72.2286 55.7522 72.2545 55.7522 72.3062C55.7522 75.5366 55.7519 78.7213 55.7512 81.8604C55.7512 82.3523 56.1791 82.8363 56.5925 82.9799C56.7939 83.0491 57.0075 83.1076 57.2334 83.1555C57.6061 83.235 58.004 83.0914 58.3661 83.0294C58.8724 82.943 59.5927 82.133 59.8763 81.7207C60.1319 81.3492 60.4127 81.0029 60.6421 80.6343C60.9396 80.1525 61.2381 79.6551 61.5376 79.1423C61.7015 78.8616 61.8554 78.5551 61.9994 78.2227C62.2562 77.6309 62.6161 77.0906 63.0788 76.6017C63.6184 76.0313 64.3215 75.4906 65.1883 74.9797C65.6827 74.6887 66.1616 74.4578 66.625 74.2871C67.5227 73.956 68.2143 73.7432 68.6996 73.6488C68.93 73.6042 69.1511 73.5576 69.3628 73.5091C70.0066 73.3607 70.6978 73.3782 71.3532 73.3258C71.7124 73.2967 72.6388 73.3044 72.6446 73.8525C72.6614 75.6969 72.683 77.5288 72.7095 79.348C72.7121 79.5116 72.7273 79.6733 72.755 79.833C72.7957 80.0639 72.7076 80.2753 72.7221 80.5169C72.7415 80.8486 72.7705 81.1908 72.8092 81.5432C72.8383 81.8025 72.9109 82.0221 73.0271 82.2019C73.302 82.6258 73.6002 82.9789 74.1084 83.1429C74.2272 83.1817 74.3466 83.1758 74.4666 83.1254C74.6525 83.0468 74.82 83.0168 74.9884 82.8897C75.3069 82.6481 75.638 82.427 75.9352 82.1485C76.3889 81.7237 76.7542 81.3421 77.0311 81.0039C77.4077 80.5421 77.8085 80.0881 78.187 79.6138C78.8215 78.8189 79.4333 78.0112 80.0226 77.1905C80.3898 76.679 80.7183 76.1513 81.0081 75.6074C81.0933 75.4476 81.1365 75.2788 81.1378 75.101C81.1423 74.1807 81.1394 73.2676 81.1291 72.3615C81.1285 72.3169 81.1056 72.2946 81.0604 72.2946C80.5124 72.2965 79.9474 72.2981 79.3652 72.2994C78.9015 72.3014 78.3555 72.2975 78.1745 71.7698C77.9876 71.2236 78.5162 70.7687 79.0245 70.7619C79.5679 70.7548 80.1387 70.7538 80.737 70.759C80.79 70.7596 80.8232 70.7344 80.8367 70.6833C80.8496 70.6374 80.8561 70.5756 80.8561 70.498C80.8522 68.4874 80.8516 66.5553 80.8542 64.7019C80.8551 64.083 80.8125 63.7211 81.3895 63.4776C81.4989 63.4321 81.6035 63.3612 81.7274 63.4136C81.8694 63.4738 82.0069 63.5352 82.1398 63.5979C82.1712 63.6131 82.1967 63.6383 82.2124 63.6697C82.337 63.9219 82.3993 64.1803 82.3993 64.4448C82.398 66.4787 82.3964 68.5391 82.3944 70.6261C82.3944 70.6616 82.4085 70.6956 82.4336 70.7207C82.4586 70.7458 82.4926 70.7599 82.528 70.7599C83.2793 70.7612 84.0609 70.7593 84.8728 70.7541C85.4139 70.7502 85.8651 70.889 85.8912 71.4923C85.9183 72.1287 85.4672 72.2393 84.9609 72.2383C84.0373 72.237 83.1683 72.238 82.3538 72.2412C82.3443 72.2412 82.3352 72.245 82.3284 72.2517C82.3217 72.2585 82.3179 72.2676 82.3179 72.2771C82.3225 75.3755 82.3218 78.5147 82.316 81.6945C82.315 82.1515 82.5483 82.5346 82.9036 82.7936C83.3829 83.1419 84.1264 83.1555 84.6704 83.0284C85.4101 82.8557 86.0403 82.1941 86.4517 81.5995C86.8574 81.0136 87.3008 80.417 87.6357 79.7942C87.788 79.5103 87.9381 79.2552 88.0859 79.0288C88.2298 78.8083 88.3496 78.578 88.4451 78.3381C88.8178 77.402 89.448 76.6424 90.2157 75.9692C90.6582 75.5822 91.1945 75.2494 91.6853 74.9477C92.6283 74.3686 93.6728 74.0281 94.7455 73.7274C94.954 73.6692 95.1631 73.6216 95.3728 73.5848C95.6603 73.5343 95.9169 73.4402 96.2073 73.415C96.8405 73.3607 97.4823 73.3022 98.1329 73.2394C98.4194 73.2116 98.677 73.2902 98.9054 73.4752C99.0187 73.5664 99.1174 73.6624 99.1184 73.8166C99.1281 75.6294 99.1465 77.509 99.1736 79.4556C99.1755 79.6429 99.2888 79.7738 99.2791 79.962C99.2585 80.4011 99.2711 80.9324 99.3169 81.5558C99.3324 81.7608 99.3953 81.9561 99.5057 82.1418C99.7574 82.5637 100.131 83.0129 100.612 83.1409C100.73 83.1726 100.849 83.1678 100.967 83.1264C101.705 82.8683 102.279 82.329 102.835 81.777C103.964 80.6543 104.931 79.3871 105.735 77.9753C106.097 77.3399 106.509 76.7385 106.853 76.0963C107.262 75.3319 107.781 74.635 108.411 74.0058C109.001 73.416 110.155 73.351 110.767 73.9369C111.107 74.2629 111.343 74.6422 111.473 75.0748C111.537 75.2843 111.51 75.491 111.514 75.7053ZM20.6575 73.6226C20.9382 73.5528 21.2722 73.4237 21.5113 73.2433C21.5253 73.2329 21.536 73.2188 21.5422 73.2025C21.5485 73.1863 21.55 73.1686 21.5467 73.1514C21.5434 73.1343 21.5353 73.1183 21.5234 73.1054C21.5115 73.0925 21.4963 73.0832 21.4794 73.0784C20.7023 72.8656 19.9349 72.7757 19.1772 72.8087C18.9081 72.8204 18.6583 72.9242 18.4008 72.995C18.1956 73.0522 18.0242 73.1938 17.9235 73.3801C17.9133 73.3991 17.9074 73.4202 17.9063 73.4418C17.9052 73.4634 17.9089 73.4849 17.9171 73.5049C17.9254 73.5249 17.938 73.5428 17.954 73.5573C17.97 73.5717 17.989 73.5825 18.0097 73.5887C18.2627 73.6656 18.5018 73.7326 18.7271 73.7895C19.305 73.935 20.0485 73.772 20.6575 73.6226ZM91.178 77.3777C90.2322 78.2227 89.6697 79.4518 89.8237 80.7332C89.9427 81.7314 90.8508 82.5453 91.7327 82.9576C91.9593 83.0633 92.1713 83.0323 92.3959 83.1079C92.565 83.1655 92.7415 83.1872 92.9255 83.1729C93.4018 83.1361 93.7932 83.0727 94.0998 82.9828C95.5248 82.5666 96.8792 81.5917 97.6382 80.255C97.7544 80.0493 97.8128 79.8398 97.8134 79.6264C97.8141 77.954 97.8124 76.3543 97.8086 74.8274C97.8087 74.8122 97.8052 74.7971 97.7983 74.7834C97.7915 74.7697 97.7815 74.7579 97.7693 74.7488C97.757 74.7397 97.7428 74.7337 97.7277 74.7312C97.7127 74.7287 97.6973 74.7297 97.6827 74.7343C97.3858 74.8268 97.0812 74.8902 96.7688 74.9244C96.4494 74.9594 96.1341 75.0137 95.823 75.0874C95.0827 75.2614 94.4496 75.448 93.9236 75.6471C92.9864 76.0035 92.0713 76.5804 91.178 77.3777ZM37.9217 82.848C38.0804 82.9314 38.2382 83.0303 38.4202 83.0439C38.732 83.0672 38.9895 83.1972 39.3119 83.1749C40.3258 83.107 41.2581 82.7995 42.1087 82.2523C42.646 81.906 43.1446 81.4433 43.5463 80.9748C43.7477 80.7394 43.9346 80.4435 44.1069 80.0871C44.1837 79.9287 44.2205 79.7531 44.2172 79.5604C44.1888 77.8162 44.1766 76.2479 44.1805 74.8556C44.1811 74.7883 44.1501 74.7666 44.0875 74.7906C43.8081 74.8979 43.5047 74.9548 43.1775 74.9613C42.8329 74.9681 42.5279 75.101 42.192 75.1534C41.9693 75.1883 41.7295 75.2439 41.4727 75.3202C41.1093 75.4282 40.7747 75.5369 40.4688 75.6462C39.3703 76.0387 38.3505 76.6832 37.4095 77.5795C37.1669 77.8104 36.9536 78.0807 36.7696 78.3905C36.5908 78.6919 36.4563 78.9774 36.3659 79.2471C36.1652 79.8466 36.1533 80.4968 36.3301 81.1979C36.4995 81.8711 37.3563 82.5511 37.9217 82.848ZM63.1814 79.0802C63.1001 79.2917 63.0236 79.4556 63.011 79.6836C62.9962 79.9772 62.9914 80.2711 62.9965 80.5654C63.001 80.8241 63.0666 81.0805 63.1931 81.3347C63.5138 81.9814 63.9637 82.4499 64.5426 82.7403C64.8001 82.8693 64.9908 83.0342 65.2929 83.0517C65.5639 83.0672 65.7827 83.1875 66.0586 83.1749C67.2926 83.118 68.396 82.6973 69.3686 81.9128C69.9346 81.4562 70.3928 80.9508 70.7433 80.3966C70.8662 80.2036 71.0086 79.7942 71.0047 79.6167C70.9756 78.0814 70.9514 76.5047 70.9321 74.8866C70.9301 74.7657 70.8711 74.722 70.7549 74.7557C70.4567 74.8436 70.1757 74.9008 69.9117 74.9274C69.6297 74.9558 69.3554 75.0008 69.0888 75.0622C68.3305 75.2362 67.6567 75.4392 67.0674 75.6714C65.7656 76.1829 64.7062 76.9053 63.8891 77.8385C63.6174 78.149 63.3815 78.5628 63.1814 79.0802Z" fill="white"/>
<path d="M137.687 62.8401C137.567 63.1214 137.587 63.4163 137.48 63.6995C137.357 64.0245 137.371 64.3631 137.273 64.69C137.148 65.1081 137.165 65.5359 137.057 65.952C137.004 66.1577 136.971 66.3646 136.959 66.5729C136.936 66.9835 136.888 67.391 136.817 67.7952C136.76 68.1172 136.726 68.449 136.716 68.7905C136.694 69.4821 136.58 70.1534 136.552 70.8431C136.44 73.6039 136.5 76.1436 136.654 78.8636C136.686 79.435 136.122 79.8968 135.575 79.7522C135.281 79.6746 134.999 79.4855 134.989 79.1624C134.937 77.633 134.878 76.1691 134.811 74.7709C134.726 72.9899 134.911 70.9333 134.972 69.0116C134.984 68.6475 135.013 68.3054 135.06 67.9853C135.149 67.3771 135.172 66.763 135.289 66.1635C135.37 65.7435 135.398 65.2943 135.513 64.8714C135.601 64.5435 135.613 64.203 135.717 63.879C135.768 63.7186 135.805 63.5498 135.827 63.3726C135.858 63.1262 135.978 62.9206 136.014 62.6819C136.042 62.4963 136.09 62.3198 136.155 62.1523C136.244 61.9301 136.248 61.7002 136.34 61.48C136.638 60.7699 137.488 60.7214 137.916 61.3355C138.179 61.7128 137.837 62.0524 137.794 62.4336C137.778 62.5733 137.742 62.7088 137.687 62.8401Z" fill="white"/>
<path d="M21.5115 73.2435C21.2724 73.4239 20.9384 73.5529 20.6576 73.6228C20.0487 73.7722 19.3052 73.9351 18.7272 73.7896C18.502 73.7327 18.2629 73.6658 18.0099 73.5888C17.9892 73.5826 17.9702 73.5719 17.9541 73.5574C17.9381 73.5429 17.9255 73.525 17.9173 73.5051C17.909 73.4851 17.9053 73.4635 17.9064 73.4419C17.9075 73.4203 17.9134 73.3993 17.9237 73.3803C18.0244 73.194 18.1957 73.0524 18.401 72.9951C18.6585 72.9243 18.9083 72.8205 19.1774 72.8089C19.9351 72.7759 20.7025 72.8658 21.4795 73.0786C21.4964 73.0833 21.5117 73.0927 21.5236 73.1056C21.5355 73.1185 21.5435 73.1344 21.5468 73.1516C21.5502 73.1688 21.5486 73.1865 21.5424 73.2027C21.5361 73.2189 21.5254 73.2331 21.5115 73.2435Z" fill="white"/>
<path d="M135.963 84.6438C136.771 84.5488 137.352 83.8406 137.261 83.0622C137.169 82.2837 136.441 81.7297 135.633 81.8248C134.825 81.9199 134.244 82.628 134.336 83.4065C134.427 84.1849 135.156 84.7389 135.963 84.6438Z" fill="white"/>
</svg>
