<svg width="16" height="16" viewBox="0 0 16 16" fill="none" xmlns="http://www.w3.org/2000/svg">
<path d="M9.3667 3.99967C10.0179 4.12672 10.6163 4.44518 11.0854 4.9143C11.5545 5.38342 11.873 5.98185 12 6.63301M9.3667 1.33301C10.7195 1.4833 11.9811 2.08912 12.9442 3.05101C13.9073 4.0129 14.5147 5.27368 14.6667 6.62634" stroke="white" stroke-width="1.5" stroke-linecap="round" stroke-linejoin="round"/>
<path d="M4.92035 6.56849C5.38435 7.53491 6.01687 8.44067 6.81792 9.24172C7.61898 10.0428 8.52474 10.6753 9.49115 11.1393C9.57428 11.1792 9.61584 11.1992 9.66843 11.2145C9.85534 11.269 10.0848 11.2298 10.2431 11.1165C10.2877 11.0846 10.3258 11.0465 10.402 10.9703C10.6351 10.7372 10.7516 10.6207 10.8688 10.5445C11.3107 10.2572 11.8804 10.2572 12.3223 10.5445C12.4395 10.6207 12.5561 10.7372 12.7891 10.9703L12.9191 11.1002C13.2733 11.4545 13.4505 11.6317 13.5467 11.8219C13.7381 12.2003 13.7381 12.6471 13.5467 13.0255C13.4505 13.2158 13.2733 13.3929 12.9191 13.7472L12.814 13.8523C12.4609 14.2054 12.2843 14.3819 12.0443 14.5167C11.778 14.6664 11.3643 14.7739 11.0588 14.773C10.7835 14.7722 10.5954 14.7188 10.2191 14.612C8.19683 14.038 6.28859 12.955 4.6966 11.363C3.10462 9.77105 2.02163 7.86281 1.44765 5.84055C1.34085 5.46425 1.28745 5.2761 1.28663 5.00081C1.28572 4.69532 1.39329 4.28166 1.54291 4.01533C1.67774 3.7753 1.85428 3.59876 2.20736 3.24568L2.31245 3.14059C2.66675 2.7863 2.84389 2.60915 3.03415 2.51292C3.41252 2.32154 3.85937 2.32154 4.23774 2.51292C4.42799 2.60915 4.60514 2.7863 4.95943 3.14059L5.08935 3.2705C5.32242 3.50358 5.43895 3.62011 5.51515 3.7373C5.80247 4.17922 5.80247 4.74894 5.51514 5.19087C5.43895 5.30806 5.32242 5.42459 5.08935 5.65766C5.01314 5.73387 4.97504 5.77197 4.94314 5.81652C4.8298 5.9748 4.79067 6.20431 4.84515 6.39121C4.86048 6.44381 4.88044 6.48537 4.92035 6.56849Z" fill="white"/>
</svg>
