<svg width="12" height="14" viewBox="0 0 12 14" fill="none" xmlns="http://www.w3.org/2000/svg">
<path fill-rule="evenodd" clip-rule="evenodd" d="M6.63885 13.0306L6.6387 13.0308L6.63803 13.0315C6.42604 13.2417 6.2127 13.4532 5.99935 13.6666C5.786 13.4532 5.57265 13.2417 5.36067 13.0315L5.36017 13.031L5.35984 13.0306C2.92254 10.6138 0.666016 8.37614 0.666016 5.66659C0.666016 2.72107 3.05383 0.333252 5.99935 0.333252C8.94487 0.333252 11.3327 2.72107 11.3327 5.66659C11.3327 8.37614 9.07615 10.6138 6.63885 13.0306ZM7.99951 5.6665C7.99951 6.77107 7.10408 7.6665 5.99951 7.6665C4.89494 7.6665 3.99951 6.77107 3.99951 5.6665C3.99951 4.56193 4.89494 3.6665 5.99951 3.6665C7.10408 3.6665 7.99951 4.56193 7.99951 5.6665Z" fill="white"/>
</svg>
