<svg width="14" height="12" viewBox="0 0 14 12" fill="none" xmlns="http://www.w3.org/2000/svg">
<path fill-rule="evenodd" clip-rule="evenodd" d="M0.333497 3.81959C0.333496 3.83504 0.333496 3.85059 0.333496 3.86626V8.13293C0.333496 8.47805 0.333496 8.77 0.339872 9.02129L3.5816 6.09327L0.333497 3.81959ZM0.556947 1.74763C0.668028 1.77464 0.776046 1.82239 0.875344 1.8919L5.62037 5.21342C5.63129 5.22073 5.64208 5.22828 5.65275 5.23608L6.31862 5.7022C6.82344 6.05557 6.87738 6.07483 6.90617 6.08201C6.96785 6.09738 7.03236 6.09738 7.09403 6.08201C7.12283 6.07483 7.17676 6.05557 7.68158 5.7022L8.34744 5.2361C8.35811 5.22828 8.36892 5.22072 8.37985 5.21341L13.1249 1.8919C13.2242 1.82237 13.3322 1.77461 13.4434 1.74761C13.2513 1.37617 12.9476 1.07418 12.5748 0.884247C12.147 0.66626 11.5869 0.66626 10.4668 0.66626H3.5335C2.41339 0.66626 1.85334 0.66626 1.42552 0.884247C1.05275 1.07418 0.749016 1.37618 0.556947 1.74763ZM13.6668 3.81951L10.4186 6.09327L13.6604 9.0214C13.6668 8.77008 13.6668 8.47809 13.6668 8.13293V3.86626C13.6668 3.85057 13.6668 3.83498 13.6668 3.81951ZM12.9529 10.8646C12.8626 10.8249 12.7772 10.7703 12.7 10.7007L8.83008 7.20523L8.7654 7.25051L8.6784 7.31163C8.32886 7.55762 7.9672 7.81214 7.55115 7.91585C7.18932 8.00604 6.81088 8.00604 6.44905 7.91585C6.033 7.81214 5.67134 7.55762 5.32181 7.31163L5.23481 7.25051L5.17012 7.20523L1.3002 10.7007C1.22307 10.7703 1.13761 10.8249 1.04742 10.8646C1.1629 10.9616 1.28962 11.0457 1.42552 11.1149C1.85334 11.3329 2.41339 11.3329 3.5335 11.3329H10.4668C11.5869 11.3329 12.147 11.3329 12.5748 11.1149C12.7107 11.0457 12.8374 10.9616 12.9529 10.8646Z" fill="white"/>
</svg>
