<svg width="14" height="12" viewBox="0 0 14 12" fill="none" xmlns="http://www.w3.org/2000/svg">
<path fill-rule="evenodd" clip-rule="evenodd" d="M0.333008 3.81971C0.333008 3.83516 0.333008 3.85072 0.333008 3.86638V8.13305C0.333008 8.47817 0.333008 8.77012 0.339384 9.02142L3.58111 6.09339L0.333008 3.81971ZM0.556459 1.74776C0.66754 1.77476 0.775558 1.82252 0.874856 1.89203L5.61988 5.21354C5.6308 5.22085 5.64159 5.2284 5.65226 5.23621L6.31813 5.70232C6.82296 6.05569 6.87689 6.07495 6.90568 6.08213C6.96736 6.09751 7.03187 6.09751 7.09354 6.08213C7.12234 6.07495 7.17627 6.05569 7.68109 5.70232L8.34695 5.23622C8.35763 5.22841 8.36843 5.22084 8.37936 5.21353L13.1244 1.89203C13.2237 1.82249 13.3318 1.77473 13.4429 1.74773C13.2508 1.37629 12.9471 1.0743 12.5743 0.884369C12.1465 0.666382 11.5864 0.666382 10.4663 0.666382H3.53301C2.4129 0.666382 1.85285 0.666382 1.42503 0.884369C1.05226 1.0743 0.748528 1.37631 0.556459 1.74776ZM13.6663 3.81963L10.4181 6.09339L13.66 9.02152C13.6663 8.7702 13.6663 8.47822 13.6663 8.13305V3.86638C13.6663 3.85069 13.6663 3.8351 13.6663 3.81963ZM12.9524 10.8648C12.8622 10.8251 12.7767 10.7705 12.6995 10.7008L8.82959 7.20535L8.76491 7.25063L8.67791 7.31175C8.32837 7.55774 7.96671 7.81226 7.55066 7.91597C7.18883 8.00616 6.81039 8.00616 6.44856 7.91597C6.03252 7.81226 5.67085 7.55774 5.32132 7.31175L5.23432 7.25063L5.16963 7.20535L1.29971 10.7008C1.22259 10.7704 1.13712 10.825 1.04694 10.8647C1.16241 10.9617 1.28913 11.0458 1.42503 11.1151C1.85285 11.333 2.4129 11.333 3.53301 11.333H10.4663C11.5864 11.333 12.1465 11.333 12.5743 11.1151C12.7102 11.0458 12.8369 10.9617 12.9524 10.8648Z" fill="white"/>
</svg>
