<svg width="80" height="80" viewBox="0 0 80 80" fill="none" xmlns="http://www.w3.org/2000/svg">
    <path
        d="M66.5331 29.8666C64.2998 27.4 60.9331 25.9666 56.2665 25.4666V22.9333C56.2665 18.3666 54.3331 13.9666 50.9331 10.9C47.4998 7.76662 43.0331 6.29995 38.3998 6.73329C30.4331 7.49995 23.7331 15.2 23.7331 23.5333V25.4666C19.0665 25.9666 15.6998 27.4 13.4665 29.8666C10.2331 33.4666 10.3331 38.2666 10.6998 41.6L13.0331 60.1666C13.7331 66.6666 16.3665 73.3333 30.6998 73.3333H49.2998C63.6331 73.3333 66.2665 66.6666 66.9665 60.2L69.2998 41.5666C69.6665 38.2666 69.7665 33.4666 66.5331 29.8666ZM38.8665 11.3666C42.1998 11.0666 45.3665 12.1 47.8331 14.3333C50.2665 16.5333 51.6331 19.6666 51.6331 22.9333V25.2666H28.3665V23.5333C28.3665 17.6 33.2665 11.9 38.8665 11.3666ZM39.9998 61.9333C33.0331 61.9333 27.3665 56.2666 27.3665 49.3C27.3665 42.3333 33.0331 36.6666 39.9998 36.6666C46.9665 36.6666 52.6331 42.3333 52.6331 49.3C52.6331 56.2666 46.9665 61.9333 39.9998 61.9333Z"
        fill="#A2AC87" />
    <path
        d="M38.0998 55.4666C37.4664 55.4666 36.8331 55.2333 36.3331 54.7333L33.0331 51.4333C32.0664 50.4666 32.0664 48.8666 33.0331 47.9C33.9998 46.9333 35.5998 46.9333 36.5664 47.9L38.1664 49.5L43.4998 44.5666C44.4998 43.6333 46.0998 43.7 47.0331 44.7C47.9664 45.7 47.8998 47.3 46.8998 48.2333L39.7998 54.8C39.2998 55.2333 38.6998 55.4666 38.0998 55.4666Z"
        fill="#A2AC87" />
</svg>