<svg xmlns="http://www.w3.org/2000/svg" width="16" height="16" viewBox="0 0 16 16" fill="none">
    <path fill-rule="evenodd" clip-rule="evenodd"
        d="M1.33344 5.81959C1.33344 5.83504 1.33344 5.85059 1.33344 5.86626V10.1329C1.33344 10.478 1.33344 10.77 1.33981 11.0213L4.58154 8.09327L1.33344 5.81959ZM1.55689 3.74763C1.66797 3.77464 1.77598 3.82239 1.87528 3.8919L6.62031 7.21342C6.63123 7.22073 6.64202 7.22828 6.65269 7.23608L7.31856 7.7022C7.82338 8.05557 7.87732 8.07483 7.90611 8.08201C7.96779 8.09738 8.03229 8.09738 8.09397 8.08201C8.12277 8.07483 8.1767 8.05557 8.68152 7.7022L9.34738 7.2361C9.35805 7.22828 9.36886 7.22072 9.37979 7.21341L14.1248 3.8919C14.2241 3.82237 14.3322 3.77461 14.4433 3.74761C14.2512 3.37617 13.9475 3.07418 13.5747 2.88425C13.1469 2.66626 12.5869 2.66626 11.4668 2.66626H4.53344C3.41333 2.66626 2.85328 2.66626 2.42545 2.88425C2.05268 3.07418 1.74895 3.37618 1.55689 3.74763ZM14.6668 5.81951L11.4185 8.09327L14.6604 11.0214C14.6668 10.7701 14.6668 10.4781 14.6668 10.1329V5.86626C14.6668 5.85057 14.6668 5.83498 14.6668 5.81951ZM13.9528 12.8646C13.8626 12.8249 13.7771 12.7703 13.6999 12.7007L9.83002 9.20523L9.76534 9.25051L9.67834 9.31163C9.3288 9.55762 8.96714 9.81214 8.55109 9.91585C8.18926 10.006 7.81082 10.006 7.44899 9.91585C7.03294 9.81214 6.67128 9.55762 6.32175 9.31163L6.23475 9.25051L6.17006 9.20523L2.30014 12.7007C2.22301 12.7703 2.13755 12.8249 2.04736 12.8646C2.16284 12.9616 2.28956 13.0457 2.42545 13.1149C2.85328 13.3329 3.41333 13.3329 4.53344 13.3329H11.4668C12.5869 13.3329 13.1469 13.3329 13.5747 13.1149C13.7106 13.0457 13.8373 12.9616 13.9528 12.8646Z"
        fill="#231C1E" />
</svg>