<svg width="80" height="80" fill="none" xmlns="http://www.w3.org/2000/svg"><path d="M66.533 29.867c-2.233-2.467-5.6-3.9-10.267-4.4v-2.534c0-4.566-1.933-8.966-5.333-12.033-3.433-3.133-7.9-4.6-12.533-4.167-7.967.767-14.667 8.467-14.667 16.8v1.934c-4.666.5-8.033 1.933-10.267 4.4-3.233 3.6-3.133 8.4-2.766 11.733l2.333 18.567c.7 6.5 3.333 13.166 17.667 13.166h18.6c14.333 0 16.966-6.666 17.666-13.133L69.3 41.567c.367-3.3.466-8.1-2.767-11.7Zm-27.666-18.5c3.333-.3 6.5.733 8.966 2.966 2.434 2.2 3.8 5.334 3.8 8.6v2.334H28.366v-1.734c0-5.933 4.9-11.633 10.5-12.166ZM40 61.933c-6.967 0-12.634-5.666-12.634-12.633 0-6.967 5.667-12.633 12.634-12.633 6.967 0 12.633 5.666 12.633 12.633 0 6.967-5.666 12.633-12.633 12.633Z" fill="#A2AC87"/><path d="M38.1 55.467a2.472 2.472 0 0 1-1.767-.734l-3.3-3.3a2.515 2.515 0 0 1 0-3.533 2.515 2.515 0 0 1 3.533 0l1.6 1.6 5.334-4.933c1-.934 2.6-.867 3.533.133.933 1 .867 2.6-.133 3.533L39.8 54.8c-.5.433-1.1.667-1.7.667Z" fill="#A2AC87"/></svg>