<svg xmlns="http://www.w3.org/2000/svg" width="48" height="60" fill="none"><path d="M28.714 12.585c-1.446-.073-2.724-.865-3.355-2.165-.601-1.24-.516-2.752.262-3.874.742-1.072 1.779-1.642 3.11-1.709.047-.002.07-.027.07-.074a164.83 164.83 0 0 1-.003-1.764c.006-1.387.847-2.59 2.193-2.916.23-.055.626-.083 1.19-.083 4.296.002 8.592.003 12.889.003 1.721 0 2.929 1.317 2.929 3.052.002 3.767.001 7.561-.002 11.382-.001 1.653-1.218 2.96-2.893 2.973-1.34.01-2.926.012-4.756.004a.026.026 0 0 1-.026-.025c-.013-.441-.013-.9 0-1.376.014-.536-.025-.928-.116-1.175-.46-1.247-1.954-1.7-3.01-.86-.556.443-.737 1.056-.725 1.802.01.601.012 1.134.003 1.6a.04.04 0 0 1-.011.027.038.038 0 0 1-.027.01l-7.592.002a.036.036 0 0 1-.024-.01.038.038 0 0 1-.012-.022 2.585 2.585 0 0 1-.026-.377c.006-1.453.007-2.903.003-4.35 0-.048-.024-.073-.071-.075Zm1.933-5.811c-.576.003-1.154 0-1.734-.006a2.085 2.085 0 0 0-1.055.257c-1.225.685-1.314 2.45-.166 3.256.343.242.695.362 1.058.361.643 0 1.283.002 1.92.006.033 0 .05.017.05.05v4.718a.079.079 0 0 0 .085.08c.165-.014.336-.02.513-.019 1.025.01 2.082.011 3.172.003.049 0 .073-.024.075-.074.025-.855.294-1.651.825-2.317 2.256-2.83 6.753-1.31 6.841 2.326.002.048.026.072.073.071.88-.006 1.768-.005 2.666.001.76.005 1.115-.43 1.113-1.168-.015-3.81-.015-7.576 0-11.297.002-.609-.357-1.087-.999-1.088-4.42-.003-8.872-.003-13.354 0-.627 0-1.016.426-1.014 1.083.003 1.165.004 2.394.001 3.686 0 .047-.024.07-.07.071Z" fill="#fff"/><path d="M27.893 44.738c.718.258 1.245.747 1.582 1.467.782 1.674-.132 3.454-1.814 4-.034.012-.044.033-.031.065.606 1.542-.195 3.142-1.698 3.734a.13.13 0 0 0-.083.106c-.235 1.675-.967 3.064-2.194 4.167-4.045 3.635-10.399 1.178-11.114-4.184a.105.105 0 0 0-.067-.085c-1.516-.584-2.316-2.209-1.707-3.759a.04.04 0 0 0 .003-.016.041.041 0 0 0-.005-.016.038.038 0 0 0-.025-.02 1.92 1.92 0 0 1-.45-.163c-2.296-1.165-2.16-4.333.21-5.31a.091.091 0 0 0 .057-.085l.002-2.493a.169.169 0 0 0-.063-.132 951.78 951.78 0 0 1-3.725-3.07C.854 34.04-1.462 25.971.931 18.663 3.204 11.719 9.312 6.72 16.536 5.919c1.462-.162 3.058-.122 4.517-.11.017 0 .034.007.046.02a.066.066 0 0 1 .02.046v8.597c0 .01-.003.02-.01.026a.038.038 0 0 1-.026.012 22.66 22.66 0 0 1-1.372-.001c-.525-.016-.93.032-1.212.144-1.63.646-1.607 2.957.002 3.598.277.11.647.158 1.111.144.468-.015.95-.016 1.444-.002a.063.063 0 0 1 .061.063l.004 4.709c0 .015.007.03.017.04.01.011.025.017.04.017l3.71.007c.047 0 .071-.024.073-.07.046-1.203.521-2.182 1.425-2.936 1.447-1.21 3.61-1.133 4.99.144.797.737 1.217 1.674 1.26 2.81.002.033.02.05.053.05h5.64a.062.062 0 0 1 .062.062c.022.708.013 1.436-.026 2.183-.284 5.32-2.716 10.132-6.79 13.516a721.865 721.865 0 0 1-3.697 3.05.109.109 0 0 0-.04.086v2.536c0 .04.018.066.055.078ZM11.213 9.466a16.778 16.778 0 0 0-9.24 13.745.024.024 0 0 0 .005.008.024.024 0 0 0 .008.006.021.021 0 0 0 .01.002h5.629c.036 0 .055-.018.056-.055.037-1.125.455-2.058 1.252-2.8 1.428-1.327 3.684-1.356 5.124-.04.831.76 1.262 1.7 1.294 2.82.002.05.027.074.075.074l3.724.002a.05.05 0 0 0 .036-.015.05.05 0 0 0 .014-.036l-.003-2.8a.057.057 0 0 0-.054-.057c-1.226-.05-2.213-.544-2.959-1.483-1.194-1.501-1.067-3.69.253-5.065.728-.758 1.63-1.154 2.705-1.187a.059.059 0 0 0 .056-.06L19.2 7.84a.092.092 0 0 0-.025-.064.089.089 0 0 0-.062-.027c-2.822-.071-5.455.501-7.9 1.718ZM9.527 25.16H1.992c-.037 0-.056.019-.054.058.215 4.77 2.375 9.178 6.023 12.205 1.527 1.267 3.008 2.49 4.442 3.667.05.041.075.094.075.158l.001 3.213c0 .042.021.063.063.063l6.582-.002c.05 0 .075-.025.075-.075v-7.603a.077.077 0 0 0-.075-.078 3.86 3.86 0 0 1-3.568-5.073c.517-1.582 1.924-2.593 3.563-2.655.053-.002.08-.03.08-.085l.001-3.719a.075.075 0 0 0-.074-.074l-5.64.002a.052.052 0 0 1-.036-.016.051.051 0 0 1-.014-.037c.005-.67.004-1.308-.003-1.914-.021-1.715-2.09-2.539-3.287-1.314-.363.37-.546.835-.548 1.394-.001.616 0 1.22.002 1.812 0 .049-.024.073-.073.073Zm21.191-.07c-.004-.613-.003-1.202.002-1.764.009-1.078-.72-1.934-1.779-2.027-.872-.076-1.716.497-1.974 1.36-.076.251-.108.588-.095 1.011.014.476.014.96 0 1.45a.042.042 0 0 1-.042.04l-5.64.003c-.047 0-.07.023-.07.071v5.668a.064.064 0 0 1-.063.065c-.495.007-1.016.005-1.566-.005-.362-.008-.657.028-.883.105-.984.335-1.508 1.314-1.263 2.327a1.953 1.953 0 0 0 1.163 1.316c.275.104.68.15 1.215.136.45-.011.894-.012 1.33 0a.066.066 0 0 1 .064.066l.004 9.552a.066.066 0 0 0 .04.06.061.061 0 0 0 .024.004l4.67-.006c.04 0 .06-.02.06-.061l.002-3.229a.17.17 0 0 1 .063-.132 404.996 404.996 0 0 0 4.54-3.75c3.589-3.009 5.728-7.398 5.935-12.136.002-.036-.015-.054-.05-.054h-5.618c-.045 0-.068-.023-.069-.07Zm-2.887 22.322c0-.254-.1-.498-.28-.678a.947.947 0 0 0-.672-.28H11.517a.947.947 0 0 0-.672.28.963.963 0 0 0-.279.678v.026a.964.964 0 0 0 .587.886c.116.048.24.073.364.073H26.88a.945.945 0 0 0 .88-.592.965.965 0 0 0 .072-.367v-.026Zm-1.921 3.869a.962.962 0 0 0-.278-.676.947.947 0 0 0-.67-.28H13.435a.94.94 0 0 0-.67.28.955.955 0 0 0-.278.676v.03c0 .254.1.497.278.676.177.18.418.28.67.28h11.527c.251 0 .492-.1.67-.28a.959.959 0 0 0 .278-.675v-.031Zm-3.98 5.92c.964-.676 1.724-1.756 1.95-2.943.007-.04-.01-.061-.05-.061l-9.26.002c-.049 0-.068.024-.057.073.283 1.2.906 2.154 1.87 2.865a4.751 4.751 0 0 0 5.547.064Z" fill="#fff"/></svg>