<svg xmlns="http://www.w3.org/2000/svg" width="50" height="40" viewBox="0 0 50 40" fill="none">
    <path d="M25.0472 24.4197C25.3245 24.0828 25.6807 23.8908 26.101 24.0876C26.6557 24.3469 26.669 25.0293 26.2573 25.4437C25.8089 25.8939 25.3966 26.3145 25.0206 26.7054C25.0071 26.7192 24.9995 26.7379 24.9995 26.7574L25.0003 30.8153C25.0003 30.8195 25.0016 30.8237 25.0039 30.8272C25.0062 30.8307 25.0095 30.8335 25.0133 30.8351C25.0172 30.8367 25.0214 30.8371 25.0255 30.8363C25.0295 30.8355 25.0333 30.8335 25.0362 30.8305C28.2012 27.5849 31.1178 24.5983 33.786 21.8707C34.5547 21.0843 35.6477 22.2211 34.9 22.9868C31.6371 26.3305 28.3481 29.6984 25.0331 33.0906C25.0224 33.1016 25.014 33.1145 25.0082 33.1288C25.0025 33.1431 24.9995 33.1584 24.9995 33.1738L25.0003 37.2165C25.0002 37.2205 25.0013 37.2245 25.0034 37.2279C25.0055 37.2313 25.0086 37.2339 25.0123 37.2355C25.0159 37.237 25.0199 37.2374 25.0238 37.2366C25.0276 37.2358 25.0311 37.2338 25.0339 37.2309C29.4145 32.7506 33.7102 28.3479 37.9211 24.0228C38.2343 23.7012 38.5281 23.4924 38.9562 23.6716C39.4874 23.8948 39.5944 24.5797 39.1991 24.9845C34.5873 29.7091 29.9218 34.487 25.2026 39.3182C25.0766 39.4468 24.9524 39.5809 24.83 39.7207C24.6339 39.9455 24.4331 39.9983 24.123 39.9983C16.3492 39.9977 8.57544 39.9975 0.801677 39.9975C0.645951 39.9975 0.483455 39.9364 0.314189 39.8143C0.185025 39.7215 0.0962263 39.6132 0.04779 39.4894C0.0191449 39.4158 0.00482211 39.3462 0.00482211 39.2806C-0.000386092 29.2325 -0.0014284 19.6015 0.00169652 10.3876C0.00169652 10.0643 0.218879 9.74112 0.511059 9.65151C0.647514 9.61044 0.802719 9.59017 0.976673 9.5907C2.2756 9.59711 3.49744 9.59817 4.6422 9.59391C4.67345 9.59391 4.68882 9.5779 4.6883 9.5459C4.68673 9.05734 4.68569 8.58531 4.68517 8.12981C4.68309 6.4049 5.13125 4.86693 6.02967 3.51591C9.06944 -1.05398 15.6122 -1.20599 18.8051 3.2767C19.7733 4.63572 20.2738 6.16755 20.3067 7.8722C20.3176 8.41623 20.3197 8.97146 20.3129 9.5379C20.3128 9.54396 20.3139 9.54997 20.3161 9.5556C20.3183 9.56123 20.3215 9.56635 20.3257 9.57067C20.3298 9.57499 20.3348 9.57842 20.3402 9.58076C20.3457 9.5831 20.3515 9.58431 20.3574 9.58431C21.5293 9.60191 22.7035 9.60324 23.88 9.5883C24.348 9.5819 24.7854 9.63951 24.9401 10.1163C24.9823 10.2459 25.0034 10.4022 25.0034 10.5852C25.0018 15.2233 25.0011 19.829 25.0011 24.4021C25.0011 24.4511 25.0164 24.457 25.0472 24.4197ZM1.62353 38.3982L23.3972 38.399C23.408 38.399 23.4183 38.3946 23.4259 38.3868C23.4335 38.379 23.4378 38.3684 23.4378 38.3574L23.4324 11.2604C23.4324 11.2151 23.4102 11.1924 23.3659 11.1924L20.3543 11.1972C20.3446 11.1972 20.3352 11.2012 20.3283 11.2082C20.3215 11.2153 20.3176 11.2248 20.3176 11.2348C20.3145 12.061 20.3124 12.8256 20.3113 13.5286C20.309 14.667 18.7653 14.6574 18.7528 13.5734C18.7439 12.8277 18.7426 12.0477 18.7489 11.2332C18.7489 11.206 18.7356 11.1924 18.709 11.1924C15.1393 11.1913 11.5241 11.1911 7.86322 11.1916C6.76325 11.1924 6.77574 9.59391 7.85228 9.59471C11.6043 9.59684 15.2279 9.59711 18.7231 9.5955C18.7271 9.5955 18.7311 9.5947 18.7348 9.59313C18.7385 9.59156 18.7418 9.58926 18.7446 9.58637C18.7475 9.58347 18.7497 9.58003 18.7512 9.57624C18.7528 9.57246 18.7536 9.5684 18.7536 9.5643C18.7348 8.76105 18.7957 7.9122 18.6911 7.13855C18.2872 4.15595 15.9591 1.87901 13.0256 1.62299C10.3663 1.39097 7.92962 2.87907 6.80778 5.34963C6.48591 6.05848 6.26404 6.97054 6.25935 7.70818C6.24685 9.57764 6.24477 11.5036 6.2531 13.4862C6.25466 13.9363 6.06717 14.2254 5.69062 14.3534C5.35078 14.4678 4.94845 14.299 4.78751 13.9758C4.71668 13.8339 4.68205 13.6646 4.68361 13.4678C4.68986 12.6762 4.6909 11.9311 4.68673 11.2324C4.68673 11.2057 4.67345 11.1924 4.64689 11.1924L1.60244 11.1932C1.59208 11.1932 1.58214 11.1975 1.57482 11.2052C1.56749 11.2128 1.56338 11.2232 1.56338 11.234V38.3374C1.56338 38.3779 1.58343 38.3982 1.62353 38.3982Z" fill="#6E7E44"></path>
    <path d="M38.6281 38.3691C38.6259 38.3711 38.6244 38.3739 38.6237 38.3769C38.623 38.3798 38.6232 38.383 38.6243 38.3858C38.6254 38.3887 38.6274 38.3911 38.6299 38.3929C38.6323 38.3946 38.6353 38.3955 38.6383 38.3955H42.5921C42.627 38.3955 42.6569 38.3829 42.6819 38.3579C43.7616 37.2559 44.9522 36.0356 46.2537 34.6968C47.0576 33.8704 48.1584 35.0104 47.3826 35.8057C46.592 36.6159 45.7574 37.4698 44.8787 38.3675C44.8766 38.3698 44.8751 38.3727 44.8745 38.3758C44.874 38.379 44.8743 38.3822 44.8756 38.3851C44.8769 38.3881 44.879 38.3905 44.8816 38.3922C44.8843 38.3939 44.8873 38.3948 44.8905 38.3947L48.3857 38.3995C48.4185 38.3995 48.4349 38.3824 48.4349 38.3483V20.8327C48.4349 20.8066 48.4221 20.7935 48.3966 20.7935L43.0132 20.7967C43.0091 20.7967 43.005 20.7976 43.0012 20.7992C42.9974 20.8008 42.994 20.8031 42.9911 20.8061C42.9882 20.8091 42.9859 20.8126 42.9843 20.8165C42.9827 20.8204 42.9819 20.8245 42.9819 20.8287C42.9731 21.7856 42.9681 22.8134 42.9671 23.9121C42.9655 25.0978 41.3781 25.0602 41.4046 23.9113C41.4062 23.8463 41.4067 23.7807 41.4062 23.7145C41.4036 22.7481 41.4064 21.7824 41.4148 20.8175C41.4149 20.8148 41.4145 20.8121 41.4135 20.8096C41.4126 20.8071 41.4112 20.8048 41.4093 20.8029C41.4075 20.8009 41.4053 20.7994 41.4029 20.7983C41.4005 20.7973 41.3979 20.7967 41.3952 20.7967C37.7615 20.7967 34.1259 20.7954 30.4885 20.7927C29.4424 20.7919 29.4221 19.199 30.5057 19.1982C33.9936 19.195 37.605 19.1956 41.3398 19.1998C41.3887 19.1998 41.4127 19.1748 41.4116 19.1246C41.3913 18.203 41.4445 17.1437 41.3804 16.2772C41.1679 13.421 39.0523 11.0033 36.2922 10.5025C34.0275 10.0912 31.772 10.9241 30.3166 12.7506C29.3781 13.9283 28.9083 15.2942 28.9073 16.8485C28.9062 19.1633 28.9057 21.5242 28.9057 23.9313C28.9057 24.2337 28.8042 24.4642 28.601 24.6226C28.2042 24.9322 27.619 24.7954 27.4206 24.3234C27.3654 24.1927 27.3383 24.0455 27.3393 23.8817C27.3466 22.8123 27.3466 21.8045 27.3393 20.8583C27.3391 20.8418 27.3327 20.8261 27.3213 20.8144C27.3099 20.8028 27.2945 20.7961 27.2784 20.7959C27.0763 20.7927 26.8594 20.7925 26.6276 20.7951C25.5269 20.8071 25.5238 19.2078 26.5628 19.2022C26.8118 19.2012 27.0552 19.1985 27.2933 19.1942C27.3076 19.194 27.3213 19.1879 27.3314 19.1773C27.3415 19.1667 27.3472 19.1523 27.3472 19.1374C27.3399 18.3299 27.3401 17.5266 27.3479 16.7277C27.3839 13.1242 29.7291 10.0264 33.0994 9.07837C37.661 7.79428 42.2773 10.9553 42.8952 15.7404C42.9525 16.1831 42.978 16.7146 42.9718 17.3349C42.966 17.9253 42.9663 18.5302 42.9725 19.1494C42.9731 19.1825 42.9897 19.199 43.0225 19.199C45.1386 19.199 47.2039 19.1985 49.2185 19.1974C49.3411 19.1974 49.4638 19.1942 49.5685 19.2742C49.6982 19.3734 49.8138 19.4868 49.9153 19.6142C49.9383 19.6431 49.9601 19.7089 49.981 19.8119C49.9935 19.8727 49.9997 19.9412 49.9997 20.0175C50.0002 26.2531 50.0002 32.4884 49.9997 38.7235C49.9997 39.0888 49.9948 39.2961 49.9849 39.3451C49.9411 39.5723 49.8192 39.7526 49.6193 39.886C49.5156 39.9553 49.3755 39.99 49.1989 39.99C38.2878 40.0006 31.0093 40.0025 27.3636 39.9956C26.3152 39.994 26.2917 38.3955 27.3979 38.3955C28.3031 38.3955 29.2013 38.3955 30.0924 38.3955C30.1279 38.3954 30.1622 38.3808 30.1877 38.3547C35.5063 32.9068 40.8695 27.415 46.2771 21.8792C46.7389 21.4064 47.5107 21.5872 47.6248 22.2624C47.699 22.7 47.4881 22.8969 47.1701 23.2225C42.2379 28.274 37.3115 33.3191 32.3908 38.3579C32.3658 38.3829 32.371 38.3955 32.4064 38.3955H36.3446C36.3614 38.3955 36.3781 38.392 36.3938 38.3853C36.4095 38.3786 36.4238 38.3687 36.436 38.3563C39.7448 34.9656 43.04 31.5913 46.3217 28.2332C46.6248 27.9228 47.1451 27.9372 47.4412 28.2708C47.731 28.5964 47.6951 29.0845 47.3943 29.3933C44.4611 32.3988 41.539 35.3907 38.6281 38.3691Z" fill="#6E7E44"></path>
    <path d="M15.022 21.885C16.1923 22.0733 17.4014 22.2629 18.6493 22.4539C19.0712 22.5179 19.4212 22.6579 19.5126 23.1211C19.6016 23.5764 19.3344 23.826 19.061 24.1124C18.135 25.0821 17.2795 25.9781 16.4947 26.8006C16.4738 26.8224 16.4658 26.8483 16.4704 26.8782C16.7001 28.3108 16.921 29.7013 17.1329 31.0496C17.1853 31.3825 17.0384 31.7321 16.74 31.8905C16.2884 32.1305 16.0064 31.9033 15.5189 31.6281C14.4924 31.0504 13.5007 30.4883 12.544 29.9416C12.5216 29.9282 12.4989 29.928 12.476 29.9408C11.4583 30.5099 10.4331 31.0918 9.40031 31.6865C8.96751 31.9353 8.55268 32.1857 8.10269 31.7673C7.77692 31.4649 7.86207 31.0968 7.92301 30.716C8.13186 29.4162 8.33498 28.1375 8.53237 26.8798C8.5348 26.8644 8.53367 26.8485 8.52906 26.8335C8.52445 26.8185 8.51649 26.8048 8.5058 26.7934C7.59697 25.8408 6.6733 24.8714 5.73478 23.8852C5.4801 23.6174 5.41161 23.3225 5.52932 23.0003C5.69103 22.5587 6.05509 22.5011 6.45195 22.4419C7.60817 22.2696 8.77715 22.0872 9.95889 21.8946C9.98369 21.8905 10.0071 21.8802 10.0271 21.8647C10.0471 21.8493 10.0631 21.8291 10.0737 21.8058C10.6518 20.553 11.2216 19.3129 11.7831 18.0856C12.0901 17.4152 12.9299 17.4456 13.2354 18.1072C13.726 19.1686 14.2921 20.405 14.9338 21.8162C14.9515 21.8552 14.9809 21.8781 15.022 21.885ZM12.4784 20.3297C12.087 21.1786 11.7026 22.0163 11.3159 22.8595C11.1706 23.1771 10.9745 23.3531 10.6347 23.4067C9.72426 23.5502 8.82715 23.6908 7.94332 23.8284C7.93725 23.8293 7.93154 23.8319 7.92682 23.8359C7.92209 23.8399 7.91853 23.8452 7.91652 23.8511C7.91451 23.8571 7.91412 23.8634 7.9154 23.8696C7.91668 23.8757 7.91958 23.8814 7.92379 23.886C8.57325 24.5719 9.23183 25.2623 9.89952 25.9573C10.1058 26.1717 10.1868 26.4243 10.1425 26.715C10.0003 27.6409 9.84535 28.6159 9.67765 29.6399C9.67036 29.6848 9.68598 29.696 9.72452 29.6735C10.4151 29.2805 11.1688 28.8514 11.9854 28.3863C12.2831 28.2175 12.5604 28.1342 12.8721 28.3079C13.7387 28.7911 14.5432 29.2461 15.2853 29.6727C15.3192 29.6925 15.333 29.6826 15.3267 29.6431C15.1648 28.6537 15.0119 27.6921 14.8681 26.7582C14.8202 26.4456 14.8806 26.2013 15.0494 26.0253C15.716 25.3293 16.3892 24.622 17.0689 23.9036C17.109 23.862 17.1006 23.8366 17.0439 23.8276C16.2772 23.7065 15.5194 23.5857 14.7705 23.4651C14.2322 23.3779 13.9275 23.3795 13.7057 22.8987C13.3291 22.0837 12.9369 21.2274 12.5291 20.3297C12.5269 20.3248 12.5233 20.3207 12.5188 20.3178C12.5143 20.3149 12.5091 20.3133 12.5038 20.3133C12.4984 20.3133 12.4932 20.3149 12.4887 20.3178C12.4842 20.3207 12.4806 20.3248 12.4784 20.3297Z" fill="#6E7E44"></path>
</svg>