<svg xmlns="http://www.w3.org/2000/svg" width="40" height="40" fill="none"><path d="M19.962.114h-.05a.76.76 0 0 0-.763.756l-.006 3.537c-.001.419.34.758.76.76h.05a.76.76 0 0 0 .764-.757l.006-3.537a.76.76 0 0 0-.76-.76ZM10.568 3.407 7.675.542a.776.776 0 0 0-1.093.002L6.56.566c-.301.3-.3.787.002 1.086l2.892 2.865c.303.3.792.299 1.093-.002l.022-.022c.302-.3.3-.786-.001-1.086ZM32.185.543l-2.891 2.864a.765.765 0 0 0-.002 1.087l.023.023c.301.3.791.301 1.094.002l2.89-2.864a.765.765 0 0 0 .002-1.087l-.023-.023a.777.777 0 0 0-1.093-.002ZM32.107 22.657l2.583 2.564c.015.016.033.018.053.008 1.082-.552 2.281-.342 3.138.495.491.48.928.916 1.31 1.305.749.766.978 1.658.687 2.677-.113.394-.336.757-.671 1.09l-8.376 8.318c-1.084 1.076-2.727 1.107-3.826.017-.423-.42-.842-.834-1.258-1.244-.892-.88-1.126-2.036-.56-3.179a.047.047 0 0 0-.008-.053l-3.191-3.167a.08.08 0 0 0-.062-.023c-.955.08-1.916-.002-2.87-.06a3.552 3.552 0 0 0-1.007.077.867.867 0 0 0-.42.245c-.956.951-1.914 1.903-2.874 2.855a.059.059 0 0 0-.017.035.061.061 0 0 0 .008.038c.482.832.506 1.807.03 2.647-.125.221-.338.479-.636.771-.43.42-.842.824-1.233 1.21-.807.797-2.098.936-3.105.386-.244-.134-.535-.374-.873-.721a63.258 63.258 0 0 0-1.32-1.313c-.171-.166-.277-.318-.318-.458a.785.785 0 0 1 1.029-.953c.118.045.244.134.377.268.537.537 1.082 1.079 1.636 1.626.43.424 1.092.422 1.53-.01.422-.416.863-.853 1.324-1.311.18-.179.29-.37.332-.574.074-.365-.037-.78-.364-.991-.159-.103-.236-.28-.372-.416-2.562-2.541-5.121-5.082-7.678-7.623a2.988 2.988 0 0 0-.286-.249c-.142-.108-.256-.255-.428-.315-.43-.152-.82-.053-1.172.296l-1.32 1.31a.998.998 0 0 0-.24.362c-.165.445-.071.843.281 1.192.476.474.988.98 1.536 1.52.14.138.292.289.345.48.227.822-.749 1.337-1.338.754A581.105 581.105 0 0 1 .798 30.87c-1.067-1.062-1.066-2.72.017-3.775.357-.349.723-.714 1.098-1.097.302-.308.571-.528.806-.66a2.635 2.635 0 0 1 1.876-.285c.178.037.354.107.523.174.024.01.045.006.064-.013l2.56-2.539c.03-.029.029-.058-.002-.086a2.714 2.714 0 0 1 .1-4.098 2.846 2.846 0 0 1 .85-.482.015.015 0 0 0 .004-.006v-.006a2.714 2.714 0 0 1 1.667-4.178c.027-.006.037-.022.03-.048-.164-.678-.115-1.295.149-1.85.38-.803 1.013-1.315 1.899-1.537a.028.028 0 0 0 .01-.005.029.029 0 0 0 .007-.008.028.028 0 0 0 .003-.01v-.01a2.704 2.704 0 0 1 .694-2.647 2.733 2.733 0 0 1 2.833-.65.081.081 0 0 0 .086-.022c.605-.654 1.637-.57 2.455-.416 1.67.313 3.346.628 5.026.945.151.03.303.041.454.037a2.634 2.634 0 0 1 1.564.435c.999.659 1.456 1.843 1.137 2.997-.007.024.002.04.026.046 1.55.389 2.441 1.828 2.042 3.39-.005.022.003.035.025.04.472.109.866.303 1.18.582.825.731 1.113 1.664.865 2.798-.006.028.005.045.033.051.2.04.4.105.58.194 1.746.867 2.086 3.134.649 4.469-.02.018-.02.038-.001.057ZM17.477 8.775c.52.871 1.239 1.56 2.155 2.068a.03.03 0 0 0 .034-.005l2.008-1.997a.025.025 0 0 0 .006-.026.027.027 0 0 0-.02-.018c-1.078-.196-2.144-.387-3.195-.6a6.07 6.07 0 0 0-1.155-.126.042.042 0 0 0-.04.028.041.041 0 0 0-.003.017c.014.23.084.45.21.66Zm2.053 3.695c-.856-.237-1.69-.868-2.339-1.516-.631-.633-1.215-1.414-1.428-2.227a.158.158 0 0 0-.078-.1c-1.215-.653-2.364.863-1.381 1.835a960.226 960.226 0 0 1 3.458 3.438c.248.248.533.398.892.399.913 0 1.415-.936 1.01-1.719a.216.216 0 0 0-.134-.11Zm1.493-.687c.937 1.647.011 3.654-1.84 4.038a1.99 1.99 0 0 1-.499.04c-.025 0-.039.011-.04.036-.069 1.17-.615 1.997-1.638 2.48a2.66 2.66 0 0 1-1.093.233.04.04 0 0 0-.027.011.039.039 0 0 0-.012.027c-.034 1.522-1.198 2.666-2.72 2.698a.034.034 0 0 0-.034.032c-.022.73-.267 1.343-.736 1.84a2.613 2.613 0 0 1-.99.674c-.827.31-1.63.247-2.411-.186-.021-.011-.04-.008-.058.009l-2.526 2.507c-.014.014-.014.028 0 .043l7.22 7.164a.047.047 0 0 0 .066 0c.95-.942 1.903-1.888 2.856-2.837.823-.819 1.998-.805 3.071-.73.629.044 1.184.067 1.667.07.294.002.592-.03.892-.096.422-.091.74-.3 1.041-.615.17-.177.343-.35.52-.519.597-.567 1.556-.024 1.326.758a1.01 1.01 0 0 1-.261.402c-.44.453-.814.798-1.12 1.034-.02.015-.022.032-.004.05l2.55 2.528a.032.032 0 0 0 .01.007.033.033 0 0 0 .023 0 .032.032 0 0 0 .01-.007l7.237-7.18c.01-.011.01-.022 0-.032l-2.523-2.503a.025.025 0 0 0-.017-.007.025.025 0 0 0-.018.007c-.229.222-.48.538-.75.666-.613.291-1.314-.328-1.058-.98.05-.128.14-.256.27-.382.564-.546 1.118-1.096 1.663-1.649.677-.688.338-1.822-.632-1.965-.67-.1-1.06.367-1.475.81-.31.33-.67.556-1.117.327-.489-.25-.572-.86-.188-1.25.41-.418.824-.83 1.243-1.237.168-.163.285-.318.352-.464a1.139 1.139 0 0 0-.451-1.46c-.48-.285-1.062-.19-1.456.203-.233.233-.474.472-.724.718-.21.207-.446.291-.707.251a.783.783 0 0 1-.621-1.042c.046-.125.154-.269.322-.431.447-.429.893-.872 1.34-1.329.379-.39.453-.957.16-1.422a1.167 1.167 0 0 0-1.802-.202c-.226.218-.448.44-.668.667-.24.247-.52.414-.867.318-.628-.174-.788-.886-.339-1.34.39-.395.842-.842 1.357-1.342a1.57 1.57 0 0 0 .323-.426 1.151 1.151 0 0 0-.306-1.374c-.512-.405-1.164-.336-1.624.124-.773.774-1.491 1.488-2.155 2.142-.028.028-.032.059-.012.093Zm-7.182.433a1.133 1.133 0 0 0-1.597-.003l-.041.041a1.12 1.12 0 0 0-.003 1.587l2.888 2.88a1.132 1.132 0 0 0 1.597.003l.041-.041a1.119 1.119 0 0 0 .003-1.587l-2.888-2.88Zm-2.08 3.422a1.121 1.121 0 0 0-1.221-.242c-.136.056-.26.138-.364.242l-.049.048a1.114 1.114 0 0 0-.243 1.214c.057.136.14.258.243.362l2.213 2.199a1.12 1.12 0 0 0 1.222.241 1.12 1.12 0 0 0 .363-.241l.049-.049a1.113 1.113 0 0 0 .243-1.214 1.113 1.113 0 0 0-.243-.361l-2.213-2.2Zm-.52 6.479a1.085 1.085 0 0 0-.016-1.54l-.867-.843a1.095 1.095 0 0 0-1.196-.224 1.095 1.095 0 0 0-.353.24l-.08.08a1.085 1.085 0 0 0 .016 1.54l.867.844a1.094 1.094 0 0 0 1.196.224c.132-.057.252-.138.353-.24l.08-.081Zm25.491 4.685a1.07 1.07 0 0 0-1.166-.23 1.07 1.07 0 0 0-.347.23l-8.438 8.387a1.063 1.063 0 0 0-.232 1.158c.054.129.133.246.232.345l1.373 1.365a1.071 1.071 0 0 0 1.513 0l8.438-8.387a1.062 1.062 0 0 0 0-1.503l-1.373-1.365Z" fill="#6E7E44"/><path d="M26.792 27.555c.435 0 .787-.35.787-.782a.785.785 0 0 0-.787-.783.785.785 0 0 0-.788.783c0 .432.353.782.788.782ZM5.417 35.199c.435 0 .787-.35.787-.783a.785.785 0 0 0-.787-.782.785.785 0 0 0-.787.782c0 .432.352.783.787.783Z" fill="#6E7E44"/></svg>