<svg xmlns="http://www.w3.org/2000/svg" width="46" height="64" fill="none"><path d="M37.791 57.312 31.417 41.86a.084.084 0 0 0-.037-.042.082.082 0 0 0-.055-.009c-.62.126-1.101.367-1.627.803a807.874 807.874 0 0 0-3.486 2.912c-.09.075-.216.16-.378.258-.193.114-.334.28-.424.498a37799.4 37799.4 0 0 1-6.955 16.88c-.335.81-1.317 1.144-1.983.506-.246-.235-.397-.582-.566-.895-.903-1.662-1.773-3.266-2.61-4.812-.014-.026-.035-.035-.064-.027a672.917 672.917 0 0 0-5.357 1.544c-.456.133-.768.19-.938.168-.845-.105-1.32-.957-.992-1.753 2.237-5.427 4.47-10.84 6.698-16.24a.032.032 0 0 0-.026-.044 556.66 556.66 0 0 1-2.97-.304 4.423 4.423 0 0 1-1.323-.366 5.102 5.102 0 0 1-2.848-3.223c-.134-.455-.238-1.126-.31-2.012-.104-1.269-.22-2.507-.349-3.713a3.384 3.384 0 0 0-.764-1.81c-1.024-1.255-2.002-2.459-2.935-3.61-.54-.668-.887-1.45-1.038-2.35-.263-1.565.121-2.98 1.151-4.247.892-1.098 1.823-2.241 2.792-3.431a3.765 3.765 0 0 0 .839-2.124c.156-1.934.308-3.513.455-4.737.23-1.906 1.664-3.503 3.474-4.11.397-.133 1-.233 1.809-.299 1.132-.092 2.388-.214 3.768-.366.712-.078 1.31-.315 1.792-.712a217.427 217.427 0 0 0 2.998-2.512c.639-.544 1.154-.918 1.547-1.12 1.826-.942 3.981-.679 5.567.65 1.204 1.008 2.385 1.994 3.544 2.958.592.493 1.24.688 2.01.761 1.511.144 2.938.282 4.281.412a5.113 5.113 0 0 1 4.359 3.436c.15.437.257 1.014.321 1.731.123 1.373.252 2.754.386 4.141.067.687.337 1.32.81 1.898.97 1.183 1.935 2.37 2.894 3.562 1.536 1.907 1.467 4.637-.028 6.496a479.424 479.424 0 0 1-2.873 3.538 3.617 3.617 0 0 0-.82 2.009c-.12 1.318-.246 2.674-.376 4.07-.065.697-.17 1.256-.314 1.678a5.132 5.132 0 0 1-3.354 3.246c-.318.097-.754.171-1.308.223-.837.079-1.642.158-2.416.236a.035.035 0 0 0-.031.034c0 .005 0 .011.002.016 2.17 5.254 4.407 10.677 6.709 16.269.349.847-.331 1.82-1.231 1.727-.063-.007-.3-.07-.715-.187l-5.346-1.533a.063.063 0 0 0-.073.03 910.446 910.446 0 0 0-2.769 5.12c-.183.342-.35.566-.5.672a1.194 1.194 0 0 1-1.065.189c-.441-.127-.674-.426-.84-.83l-3.47-8.412c-.5-1.215 1.213-1.984 1.758-.66.964 2.346 1.942 4.719 2.934 7.119a.044.044 0 0 0 .063.022.045.045 0 0 0 .017-.017 840.597 840.597 0 0 0 2.188-4.036c.52-.965 1.35-1.284 2.493-.957 1.406.403 2.813.804 4.224 1.203.061.017.08-.004.055-.063Zm1.501-25.293c.112-1.127.44-2.07 1.127-2.926.795-.995 1.63-2.021 2.505-3.078.519-.628.84-1.098.963-1.411.466-1.185.258-2.417-.537-3.398-.944-1.165-1.89-2.327-2.834-3.485-.804-.987-1.122-1.951-1.25-3.291a387.983 387.983 0 0 1-.334-3.712c-.052-.616-.14-1.084-.262-1.405-.427-1.119-1.424-1.934-2.628-2.063a284.76 284.76 0 0 0-4.315-.425c-1.135-.104-2.083-.378-2.955-1.083a149.421 149.421 0 0 1-3.346-2.795c-.364-.31-.681-.537-.952-.68-.887-.466-1.797-.501-2.732-.107-.302.127-.647.355-1.036.684A394.361 394.361 0 0 1 17.41 5.61a5.204 5.204 0 0 1-1.597.916c-.419.148-.983.254-1.693.32a367.37 367.37 0 0 0-4.198.412c-1.146.12-2.19.953-2.593 2.056-.127.348-.21.781-.251 1.3-.12 1.51-.26 2.976-.419 4.399a4.992 4.992 0 0 1-1.09 2.599c-.797.998-1.626 2.016-2.488 3.054-.518.624-.84 1.094-.965 1.409-.443 1.115-.293 2.37.473 3.327.711.886 1.398 1.73 2.06 2.533.646.781 1.056 1.305 1.23 1.57.448.687.716 1.466.805 2.336.155 1.531.302 3.074.44 4.63a3.275 3.275 0 0 0 1.973 2.744c.282.12.789.216 1.52.288 1.284.127 2.52.246 3.705.358.402.039.764.098 1.088.178.86.214 1.514.625 2.235 1.23 1.071.896 2.082 1.745 3.032 2.546.613.516 1.209.888 2.01.957a3.136 3.136 0 0 0 1.787-.346c.261-.14.719-.488 1.372-1.045.802-.682 1.654-1.4 2.557-2.152.761-.635 1.445-1.02 2.372-1.24.24-.056.884-.131 1.93-.225.954-.086 1.902-.176 2.843-.27.59-.06 1.022-.147 1.298-.26.878-.359 1.487-.984 1.826-1.875.126-.33.218-.852.277-1.568.099-1.204.213-2.462.343-3.771Zm-24.704 9.826-6.39 15.496a.037.037 0 0 0 .006.037c.005.005.01.008.016.01a.032.032 0 0 0 .019 0c1.375-.386 2.811-.798 4.308-1.235.762-.223 1.404-.11 1.927.338.22.188.461.53.724 1.024a327.142 327.142 0 0 0 1.989 3.684.027.027 0 0 0 .04.009.027.027 0 0 0 .008-.012l5.958-14.446c.02-.05.004-.072-.048-.07a4.856 4.856 0 0 1-2.389-.53c-.404-.201-.894-.548-1.471-1.04A388.113 388.113 0 0 0 16.3 42.6c-.514-.428-1.063-.692-1.647-.79a.06.06 0 0 0-.065.035Z" fill="#fff"/><path d="M34.648 28.563c1.894-4.307 1.279-9.343-1.553-13.089-2.768-3.662-7.156-5.5-11.708-4.959a.942.942 0 0 1-1.013-1.253c.191-.553.653-.623 1.159-.669 1.923-.175 3.74-.012 5.451.488 7.606 2.227 12.156 10.15 10.15 17.978-2.023 7.898-9.993 12.699-17.807 10.625-4.783-1.27-8.576-4.875-10.176-9.629-1.576-4.689-.665-9.889 2.33-13.817 1.339-1.755 3.024-3.157 5.056-4.206.338-.174.604-.27.799-.292.865-.092 1.391 1.091.655 1.66-.316.245-.694.364-1.038.558-2.19 1.238-3.874 2.923-5.051 5.056-3.513 6.368-1.17 14.376 5.183 17.767 6.533 3.486 14.556.62 17.563-6.218Z" fill="#fff"/><path d="M19.84 24.306c2.23-2.247 4.462-4.512 6.698-6.796.32-.328.604-.553.85-.677 1.227-.618 2.634-.372 3.516.675.778.924.914 2.218.329 3.289-.143.26-.402.58-.779.962-2.84 2.87-5.704 5.775-8.593 8.715a2.847 2.847 0 0 1-3.727.31c-.102-.074-.47-.433-1.106-1.076a2157.376 2157.376 0 0 1-3.179-3.225c-.539-.548-.849-1.112-.931-1.692-.406-2.869 2.884-4.535 4.897-2.494.65.661 1.307 1.33 1.97 2.008a.038.038 0 0 0 .028.013.039.039 0 0 0 .028-.012Zm.688 1.994c-.427.433-.99.433-1.417 0-.842-.852-1.72-1.744-2.637-2.675-.984-1-2.359.445-1.424 1.393 1.317 1.334 2.648 2.685 3.995 4.051.53.538 1.107.46 1.588-.03 2.944-2.99 5.857-5.947 8.74-8.872 1.01-1.024-.387-2.446-1.378-1.441-2.445 2.477-4.934 5.003-7.467 7.574Z" fill="#fff"/></svg>