<svg xmlns="http://www.w3.org/2000/svg" width="198" height="208" viewBox="0 0 198 208" fill="none">
    <path d="M178.431 2.17756C182.001 11.4401 182.288 21.288 179.292 31.7213C179.224 31.9609 179.093 32.1786 178.913 32.3529C178.734 32.5271 178.511 32.652 178.268 32.715C177.769 32.8442 177.334 32.8255 176.961 32.6588C176.169 32.3005 175.853 31.6942 176.012 30.84C176.263 29.4942 176.563 28.0609 176.91 26.54C178.394 20.0838 178.035 12.4776 175.949 6.19006C175.593 5.11506 175.289 4.08589 175.038 3.10256C174.828 2.27339 175.084 1.62339 175.804 1.15256C175.964 1.04839 176.135 0.981724 176.32 0.952558C177.355 0.798391 178.058 1.20673 178.431 2.17756Z" fill="#6E7E44"></path>
    <path d="M165.302 101.321L165.152 101.596C165.069 101.744 165.024 101.912 165.02 102.084C164.936 109.771 164.921 114.932 164.976 117.565C164.992 118.515 165.537 119.501 166.61 120.521C169.731 125.063 173.265 130.049 177.212 135.478C177.807 136.29 177.725 137.169 176.967 138.115C176.862 138.244 176.721 138.33 176.546 138.371C175.565 138.592 174.903 138.463 174.56 137.984C168.281 129.196 162.041 120.509 155.687 111.946C154.795 110.74 151.527 106.646 149.849 108.878C148.541 110.607 148.051 112.419 148.378 114.315C148.981 117.836 150.31 121.388 152.362 124.971C155.568 130.571 159.854 136.19 161.733 142.196C162.223 143.746 162.072 145.584 161.645 147.14C161 149.49 160.396 151.892 159.835 154.346C158.301 161.059 158.942 167.455 161.758 173.534C162.018 174.096 162.047 174.657 161.846 175.215C161.779 175.399 161.677 175.569 161.544 175.713C161.411 175.858 161.251 175.975 161.073 176.058C160.894 176.141 160.7 176.188 160.503 176.197C160.306 176.206 160.109 176.176 159.923 176.109C159.118 175.821 158.377 175.528 157.503 175.528C151.994 175.515 146.763 175.519 141.811 175.54C141.782 175.541 141.754 175.548 141.729 175.561C141.703 175.575 141.681 175.594 141.665 175.618C141.648 175.641 141.636 175.668 141.631 175.697C141.626 175.726 141.627 175.756 141.635 175.784C143.424 181.792 146.696 186.357 151.451 189.478C153.902 191.09 156.605 192.09 159.257 193.215C163.178 194.873 166.172 197.911 168.237 202.328C168.325 202.515 168.373 202.719 168.38 202.926C168.386 203.133 168.35 203.34 168.275 203.534C168.024 204.18 167.651 204.58 167.156 204.734C166.201 205.034 165.495 204.744 165.038 203.865C163.486 200.865 161.639 198.321 158.446 196.815C155.63 195.484 152.683 194.546 150.043 192.853C143.822 188.857 139.787 183.223 137.939 175.953C137.903 175.809 137.821 175.682 137.705 175.59C137.589 175.498 137.446 175.448 137.298 175.446C122.148 175.317 107.38 175.144 92.9921 174.928C73.1496 174.636 53.6171 174.888 34.3947 175.684C33.3515 175.726 32.2663 175.713 31.1393 175.646C29.3733 175.534 29.5682 173.809 29.7064 172.571C30.0416 169.605 30.2909 166.736 30.4543 163.965C30.8062 158.119 31.1477 152.09 31.4787 145.878C32.2454 131.499 32.6078 116.771 32.5659 101.696C32.4779 70.8006 31.6107 41.7756 29.9641 14.6215C29.918 13.8757 30.0102 13.1423 30.2406 12.4215C30.3243 12.1581 30.4899 11.9278 30.7135 11.7639C30.9371 11.5999 31.2072 11.5107 31.485 11.509C38.4441 11.4798 44.7622 11.5048 50.4392 11.584C71.4968 11.8798 93.74 12.1882 117.169 12.509C130.496 12.6882 145.15 12.4944 161.129 11.9277C163.624 11.8402 163.562 13.159 163.618 15.0465C163.874 23.4298 164.037 30.9361 164.108 37.5652C164.121 38.8152 164.144 40.0694 164.177 41.3277C164.643 58.5652 164.842 75.8548 164.775 93.1964C164.775 93.7548 164.978 94.2506 165.384 94.6839C171.401 101.051 177.48 107.663 183.622 114.521C185.817 116.976 187.125 119.544 187.544 122.228C188.118 125.915 188.285 129.826 188.046 133.959C187.468 143.988 187.497 154.101 188.134 164.296C188.226 165.776 188.543 167.205 189.083 168.584C191.031 173.555 193.851 178.198 197.542 182.515C198.192 183.269 198.15 183.982 197.417 184.653L197.052 184.99C196.285 185.69 195.561 185.651 194.878 184.871C190.625 180.042 187.474 174.736 185.426 168.953C184.906 167.482 184.596 165.821 184.495 163.971C183.938 153.705 183.938 143.236 184.495 132.565C184.651 129.674 184.521 126.621 184.106 123.409C183.622 119.646 181.14 117.134 178.714 114.44C174.34 109.59 169.896 104.776 165.384 99.9964C165.233 99.8339 165.147 99.8631 165.126 100.084C165.08 100.501 165.139 100.913 165.302 101.321ZM155.247 164.421C155.18 157.967 156.177 151.674 158.239 145.54C158.364 144.265 158.383 143.426 158.295 143.021C158.161 142.388 157.675 141.234 156.837 139.559C154.656 135.184 151.696 130.978 149.327 126.978C147.706 124.236 146.333 120.859 145.211 116.846C144.243 113.378 144.639 109.653 146.807 106.821C149.748 102.978 154.154 104.678 156.793 107.703C158.352 109.482 159.732 111.242 160.935 112.984C161.278 113.484 161.446 113.43 161.437 112.821C161.19 93.4631 161.008 74.5694 160.891 56.1402C160.79 40.6069 160.511 27.234 160.055 16.0215C160.042 15.759 159.906 15.634 159.646 15.6465C157.3 15.7215 153.311 15.8152 147.68 15.9277C130.329 16.2652 112.349 16.209 94.4376 15.809C74.2976 15.359 54.1618 15.1215 34.0302 15.0965C33.9752 15.0964 33.9208 15.1075 33.8703 15.1291C33.8197 15.1508 33.7742 15.1825 33.7365 15.2223C33.6988 15.2622 33.6698 15.3093 33.6511 15.3607C33.6324 15.4122 33.6246 15.4669 33.628 15.5215C35.4421 46.5965 36.2759 77.6423 36.1293 108.659C36.0455 126.034 35.4044 143.284 34.2062 160.409C33.9485 164.134 33.3075 167.84 33.2195 171.54C33.2069 172.061 33.4604 172.294 33.9799 172.24C35.1991 172.119 36.389 172.036 37.5496 171.99C56.1352 171.232 76.4406 171.036 98.466 171.403C118.074 171.728 137.47 171.909 156.655 171.946C156.722 171.947 156.788 171.93 156.848 171.899C156.907 171.867 156.957 171.822 156.994 171.766C157.031 171.711 157.053 171.648 157.059 171.582C157.064 171.516 157.053 171.45 157.026 171.39C156.012 169.069 155.419 166.746 155.247 164.421Z" fill="#6E7E44"></path>
    <path d="M88.1716 68.2463C80.2279 65.0338 72.2486 64.9442 64.2336 67.9775C59.1012 70.5692 55.7725 74.5754 54.2475 79.9963C54.0463 80.7171 53.5918 81.2109 52.8837 81.4775C52.582 81.59 52.2992 81.5942 52.0353 81.49C50.9292 81.0567 50.5144 80.2671 50.7909 79.1213C52.7454 70.8963 59.4071 64.89 67.6462 63.215C67.9939 63.1442 68.017 63.015 67.7153 62.8275C62.8678 59.7984 60.1319 55.4442 59.5076 49.765C58.6529 42.0025 64.3342 35.2713 71.8003 33.7525C82.1133 31.6588 92.024 39.0275 91.4521 49.79C91.1589 55.4109 88.4837 59.6942 83.4267 62.64C82.9701 62.9067 83.0036 63.0796 83.5273 63.1588C92.332 64.4963 98.5034 70.8463 100.464 79.2463C100.521 79.4854 100.522 79.7343 100.467 79.9738C100.412 80.2134 100.302 80.4373 100.147 80.6284C99.9921 80.8196 99.795 80.9729 99.5711 81.0767C99.3472 81.1806 99.1024 81.2321 98.8554 81.2275H98.6228C97.8645 81.215 97.3575 80.8525 97.102 80.14C96.4358 78.2609 95.9184 76.938 95.5497 76.1713C93.9408 72.7963 91.4815 70.1546 88.1716 68.2463ZM63.7811 53.1025C64.7586 55.8883 66.7128 58.2305 69.2856 59.6998C71.8584 61.1691 74.8775 61.6671 77.7895 61.1025C80.0565 60.6613 82.1534 59.5958 83.8415 58.0275C85.9718 56.0544 87.3301 53.3926 87.6751 50.515C88.0579 47.3265 87.1689 44.1157 85.199 41.5713C84.1746 40.2487 82.8898 39.148 81.4234 38.3366C79.957 37.5252 78.3398 37.0202 76.6708 36.8525C74.9518 36.6793 73.2155 36.8669 71.5743 37.403C69.9331 37.9392 68.4236 38.812 67.1434 39.965C65.3471 41.5849 64.0703 43.6948 63.4724 46.0312C62.8744 48.3676 62.9818 50.8271 63.7811 53.1025Z" fill="#6E7E44"></path>
    <path d="M144.067 39.6083H113.976C113.643 39.6083 113.373 39.877 113.373 40.2083V40.6208C113.373 40.9522 113.643 41.2208 113.976 41.2208H144.067C144.4 41.2208 144.67 40.9522 144.67 40.6208V40.2083C144.67 39.877 144.4 39.6083 144.067 39.6083Z" fill="#A2AC87"></path>
    <path d="M143.808 50.5335L114.346 50.5846C113.888 50.5854 113.517 50.9554 113.518 51.411L113.518 51.4485C113.519 51.9042 113.891 52.2729 114.349 52.2721L143.811 52.2209C144.269 52.2202 144.64 51.8501 144.639 51.3945L144.639 51.357C144.638 50.9014 144.266 50.5327 143.808 50.5335Z" fill="#A2AC87"></path>
    <path d="M83.8416 58.0278C82.1535 59.5961 80.0566 60.6615 77.7895 61.1028C74.8775 61.6673 71.8585 61.1693 69.2857 59.7C66.7129 58.2307 64.7587 55.8886 63.7812 53.1028C64.4097 53.2528 64.8559 53.1278 65.1198 52.7278C65.2497 52.5278 65.4341 52.4382 65.6729 52.459C66.3097 52.5132 66.8586 52.7861 67.3194 53.2778C71.6055 57.8903 76.7191 59.0549 82.6601 56.7715C83.1209 56.5965 83.5148 57.0153 83.8416 58.0278Z" fill="#A2AC87"></path>
    <path d="M128.068 62.032L114.069 62.3237C113.694 62.3315 113.397 62.6399 113.405 63.0127L113.407 63.1126C113.415 63.4853 113.725 63.7812 114.1 63.7733L128.099 63.4817C128.473 63.4739 128.771 63.1654 128.763 62.7927L128.761 62.6928C128.753 62.32 128.443 62.0242 128.068 62.032Z" fill="#A2AC87"></path>
    <path d="M88.1723 68.2464C87.7072 69.7214 86.7038 70.5964 85.162 70.8714C78.8062 72.0005 72.5782 71.9422 66.4779 70.6964C65.7615 70.5505 65.1058 70.2255 64.5109 69.7214C64.3475 69.5797 64.2846 69.4005 64.3223 69.1839C64.4061 68.7339 64.3768 68.3318 64.2343 67.9776C72.2493 64.9443 80.2286 65.0339 88.1723 68.2464Z" fill="#A2AC87"></path>
    <path d="M165.302 101.321C165.457 101.325 165.543 101.427 165.56 101.627C166.05 107.781 166.4 114.079 166.61 120.521C165.537 119.5 164.992 118.515 164.976 117.565C164.921 114.931 164.936 109.771 165.02 102.083C165.024 101.911 165.069 101.744 165.151 101.596L165.302 101.321Z" fill="#A2AC87"></path>
    <path d="M125.777 107.512L55.5888 106.294C55.1655 106.286 54.8162 106.622 54.8089 107.043L54.8042 107.305C54.7969 107.726 55.1341 108.074 55.5575 108.081L125.745 109.299C126.169 109.307 126.518 108.971 126.525 108.55L126.53 108.288C126.537 107.867 126.2 107.52 125.777 107.512Z" fill="#A2AC87"></path>
    <path d="M75.9357 118.221C84.4827 118.477 93.1114 118.364 101.702 118.689C105.892 118.848 110.482 118.746 115.472 118.383C116.762 118.291 117.952 118.479 119.042 118.946C119.157 118.995 119.26 119.067 119.345 119.158C119.43 119.25 119.495 119.357 119.536 119.475C119.577 119.593 119.593 119.718 119.582 119.842C119.572 119.966 119.535 120.086 119.475 120.196C119.215 120.675 118.805 120.927 118.243 120.952C114.297 121.146 110.438 120.483 106.592 120.452C97.232 120.377 87.845 120.239 78.4307 120.039C75.7723 119.977 73.0385 120.239 70.4115 120.214C66.1506 120.181 61.3303 120.031 55.9507 119.764C55.8385 119.756 55.7277 119.726 55.6239 119.677C54.9829 119.368 54.7106 119.025 54.8069 118.646C54.8991 118.287 55.1337 118.104 55.5108 118.096C62.1515 117.966 68.9598 118.008 75.9357 118.221Z" fill="#A2AC87"></path>
    <path d="M118.194 130.396L141.56 131.096C141.907 131.104 142.071 131.283 142.05 131.633L142.018 132.033C141.981 132.575 141.69 132.833 141.145 132.808C129.236 132.252 118.043 133.215 107.095 132.371C100.232 131.846 90.9375 132.358 82.8492 131.84C80.084 131.665 77.0904 131.558 73.8685 131.521C67.1755 131.446 60.9035 131.177 54.1287 131.121C54.0068 131.119 53.8864 131.093 53.7752 131.044C53.6639 130.995 53.5642 130.923 53.4822 130.834C53.4002 130.745 53.3377 130.64 53.2986 130.526C53.2596 130.412 53.2448 130.291 53.2551 130.171L53.2803 129.827C53.2948 129.642 53.3809 129.471 53.5205 129.348C53.6601 129.226 53.8422 129.162 54.0281 129.171C62.7092 129.567 71.5935 129.744 80.681 129.702C90.6107 129.652 100.54 130.29 109.973 130.277C112.714 130.273 115.454 130.312 118.194 130.396Z" fill="#A2AC87"></path>
    <path d="M158.238 145.54C156.177 151.674 155.18 157.967 155.247 164.422C154.283 162.622 153.925 160.336 154.172 157.565C154.541 153.374 155.515 149.57 157.095 146.153C157.35 145.603 157.732 145.399 158.238 145.54Z" fill="#A2AC87"></path>
    <path d="M21.1849 190.534C21.7316 191.759 22.6429 193.896 20.7135 194.421C19.0418 194.877 18.3819 193.502 17.8917 192.252C16.3332 188.232 15.1077 184.64 14.2153 181.477C11.7894 172.915 10.9955 164.192 11.8334 155.309C11.934 154.225 12.5331 153.669 13.6308 153.64C13.8193 153.636 14.0288 153.682 14.2593 153.777C15.0595 154.094 15.424 154.679 15.3528 155.534C14.8877 161.304 15.1223 167.34 16.0566 173.64C16.4672 176.382 17.0727 179.057 17.8729 181.665C18.8281 184.769 19.9321 187.725 21.1849 190.534Z" fill="#6E7E44"></path>
    <path d="M3.51257 175.052C4.78205 181.415 7.6164 186.646 12.2796 191.527C12.9206 192.198 12.9625 192.906 12.4052 193.652C12.3005 193.785 12.1769 193.902 12.0345 194.002C11.0918 194.648 10.2224 194.56 9.42636 193.74C4.45735 188.594 1.33182 182.646 0.0497691 175.896C-0.155527 174.808 0.273918 174.102 1.33811 173.777C1.80736 173.631 2.3206 173.744 2.87783 174.115C3.04094 174.221 3.18103 174.359 3.28999 174.52C3.39895 174.681 3.47461 174.862 3.51257 175.052Z" fill="#6E7E44"></path>
    <path d="M50.7508 204.049L50.7497 204.049C50.5939 204.118 50.3593 204.207 50.1094 204.227C49.8525 204.247 49.5107 204.196 49.263 203.898M50.7508 204.049L49.6179 203.603M50.7508 204.049C54.1813 202.527 57.6486 200.877 61.1527 199.099L50.7508 204.049ZM49.263 203.898L49.6179 203.603M49.263 203.898C49.2631 203.898 49.2632 203.898 49.2634 203.898L49.6179 203.603M49.263 203.898C49.0121 203.596 48.9374 203.231 49.0522 202.855L49.0525 202.854C49.6172 201.021 50.1668 199.201 50.7014 197.394L51.1439 197.525M49.6179 203.603C49.4659 203.42 49.4244 203.216 49.4935 202.99C50.0587 201.155 50.6089 199.333 51.1439 197.525M51.1439 197.525L50.7014 197.394C52.2354 192.209 53.4636 187.052 54.3862 181.922M51.1439 197.525C52.6826 192.324 53.9147 187.151 54.8404 182.003M54.3862 181.922L54.9384 179.436C54.9924 179.467 55.0363 179.513 55.065 179.568C55.0937 179.623 55.106 179.685 55.1004 179.747L55.094 179.823C55.0321 180.548 54.9697 181.279 54.8404 182.003M54.3862 181.922C54.5107 181.224 54.5715 180.517 54.6334 179.792M54.3862 181.922C54.3862 181.921 54.3862 181.921 54.3862 181.921L54.8404 182.003M54.3862 181.922C54.3862 181.922 54.3862 181.922 54.3861 181.922L54.8404 182.003M54.3862 181.922L45.1273 165.889M45.5841 165.824C44.9323 161.286 45.8422 156.474 47.7828 152.333C48.3819 151.054 49.0074 149.982 49.6593 149.116M45.5841 165.824L80.8704 144.048C74.6172 140.207 66.8117 139.855 59.8897 142.103C55.9143 143.394 52.1613 145.792 49.6593 149.116M45.5841 165.824L45.1273 165.889L45.1273 165.889M45.5841 165.824L45.1273 165.889M49.6593 149.116L49.2907 148.839C49.2907 148.839 49.2906 148.839 49.2906 148.839L49.6593 149.116ZM45.1273 165.889C45.9936 171.931 49.175 176.573 54.6334 179.792M54.6334 179.792C54.6573 179.806 54.6813 179.82 54.7053 179.834C54.6847 179.822 54.6674 179.804 54.6557 179.782C54.6441 179.759 54.6387 179.734 54.6406 179.708L54.6348 179.776C54.6343 179.781 54.6339 179.787 54.6334 179.792ZM56.5208 182.236L56.5191 182.245C55.4078 188.372 53.9016 194.465 52.0006 200.524L52.0006 200.524C51.9226 200.772 51.8435 201.018 51.7633 201.261C54.8166 199.812 57.838 198.351 60.8273 196.876L60.828 196.876C61.0425 196.771 61.2797 196.717 61.5264 196.754C61.7739 196.792 61.984 196.914 62.1555 197.081C64.488 199.346 66.8991 201.593 69.3886 203.822C69.0853 198.704 69.0064 193.581 69.1519 188.454L56.5208 182.236ZM56.5208 182.236L56.522 182.227M56.5208 182.236L56.522 182.227M56.522 182.227L56.7139 180.865C60.266 182.501 64.0519 183.25 68.0652 183.112L68.0654 183.112C68.5515 183.096 69.0362 183.056 69.5192 182.994L69.3742 184.53L69.3739 184.534C69.2638 185.797 69.1898 187.104 69.1519 188.454L69.6132 188.467C69.6509 187.126 69.7244 185.828 69.8337 184.574L70.0202 182.597C70.0219 182.58 70.0195 182.563 70.0134 182.547L56.522 182.227ZM81.1119 143.655C74.7222 139.73 66.7716 139.382 59.7471 141.664L87.7092 198.244C87.7092 198.244 87.7093 198.244 87.7093 198.244C88.1394 198.143 88.3534 197.809 88.4017 197.482C88.4458 197.184 88.3631 196.869 88.2085 196.637L88.2079 196.636C84.7187 191.423 82.3897 185.557 81.2232 179.032C84.9295 176.604 87.6123 173.359 89.2617 169.305C91.4848 163.842 91.3899 157.798 88.7248 152.497C86.9055 148.875 84.5511 145.768 81.112 143.655L81.1119 143.655ZM71.6661 206.25C71.6251 205.473 71.5847 204.697 71.545 203.923L69.9674 206.576L69.6636 206.924C69.6641 206.924 69.6646 206.924 69.6651 206.925C69.8482 207.085 70.0528 207.212 70.2773 207.304L70.2779 207.305C70.6569 207.461 71.0339 207.37 71.2961 207.142C71.5454 206.925 71.6846 206.593 71.6661 206.25ZM49.6582 152.347L49.6583 152.347C51.5534 148.526 54.9747 145.852 58.9494 144.246C62.9254 142.638 67.4262 142.113 71.4223 142.569L71.4224 142.569C76.5835 143.157 81.303 145.439 84.3678 149.506C85.4977 151.006 86.4612 152.651 87.2577 154.441L87.2577 154.441C89.6387 159.791 88.951 166.084 85.9716 171.083C83.991 174.406 81.1299 176.951 77.3713 178.719C72.9293 180.807 68.2679 181.46 63.3747 180.676L63.3745 180.676C59.3616 180.035 55.8389 178.425 52.797 175.846L52.797 175.846C45.8278 169.94 45.797 160.129 49.6582 152.347ZM71.3986 201.001C71.1761 196.311 71.1599 191.765 71.3498 187.363L71.3498 187.363C71.4184 185.761 71.4986 184.212 71.5904 182.715C71.9899 182.62 72.3956 182.533 72.8047 182.445C73.8724 182.216 74.9632 181.981 76.0287 181.591L76.029 181.591C77.1389 181.184 78.2187 180.709 79.2681 180.165L79.619 181.923L79.6188 181.923L79.6214 181.934C80.7474 186.915 82.6337 191.628 85.2787 196.069C82.8786 195.838 80.4825 195.597 78.0904 195.347L78.0894 195.347C77.7079 195.308 77.3564 195.418 77.0697 195.674L77.069 195.675C75.1494 197.399 73.2593 199.174 71.3986 201.001ZM56.3853 180.256V180.256ZM56.3862 180.257V180.257ZM69.5609 182.552L69.5607 182.554L69.5609 182.552Z" fill="#6E7E44" stroke="#6E7E44" stroke-width="0.922969"></path>
    <path d="M49.2446 152.142C53.1597 144.248 63.3373 141.181 71.4745 142.111C76.7347 142.71 81.5805 145.041 84.7363 149.229C85.888 150.758 86.869 152.433 87.6791 154.254C90.1284 159.757 89.4143 166.208 86.3678 171.319C84.3368 174.727 81.4034 177.333 77.5675 179.136C73.0408 181.265 68.2854 181.93 63.3015 181.132C59.2068 180.477 55.6058 178.833 52.4984 176.198C45.307 170.103 45.3296 160.032 49.2446 152.142ZM84.3463 168.224C86.5355 163.154 86.0212 157.284 82.8748 152.708C80.5763 149.368 77.4632 147.076 73.5356 145.834C72.3437 145.456 71.1046 145.226 69.8184 145.144C65.7552 144.884 61.9902 145.777 58.5236 147.822C53.0561 151.048 49.9342 157.111 50.1 163.341C50.1942 166.813 51.6883 170.371 54.2637 172.758C57.0427 175.336 60.7731 177.148 64.3829 177.978C65.1265 178.15 65.9147 178.253 66.7474 178.289C71.4613 178.492 75.5063 177.064 79.2386 174.343C81.458 172.725 83.2761 170.701 84.3463 168.224Z" fill="white"></path>
    <path d="M84.7699 168.408L84.7699 168.408C83.6598 170.978 81.78 173.062 79.5106 174.717L79.5105 174.717C75.705 177.491 71.559 178.959 66.7276 178.752L66.7274 178.752C65.8691 178.714 65.0529 178.607 64.2795 178.429C64.2795 178.429 64.2795 178.429 64.2794 178.429L64.3829 177.979C60.7731 177.149 57.0427 175.338 54.2637 172.759L84.7699 168.408ZM84.7699 168.408C87.0208 163.195 86.4933 157.157 83.2551 152.448L83.255 152.448C80.8972 149.021 77.6987 146.668 73.6749 145.395C72.4462 145.006 71.1702 144.769 69.8479 144.685L69.8479 144.685C65.6934 144.419 61.8364 145.333 58.2891 147.425L58.289 147.425C52.6684 150.742 49.4687 156.967 49.6387 163.355L49.6387 163.355C49.736 166.941 51.2767 170.62 53.9499 173.098L84.7699 168.408ZM52.453 167.98L52.4529 167.98C51.0833 164.615 51.0641 160.551 52.4227 157.109L52.4227 157.109C54.4536 151.963 58.1802 148.619 63.6431 147.056C67.9061 145.837 72.7805 146.27 76.6062 148.595L76.6064 148.596C81.1528 151.355 84.0797 155.767 84.3224 161.053L84.3224 161.053C84.5433 165.845 82.8759 169.683 79.3163 172.617L79.3162 172.617C75.5631 175.711 71.4096 177.165 66.8395 176.999L66.8394 176.999C66.0094 176.969 65.156 176.843 64.2785 176.62C61.9667 176.03 59.4533 174.98 57.2928 173.514C55.1298 172.047 53.3496 170.184 52.453 167.98Z" fill="#A2AC87" stroke="#A2AC87" stroke-width="0.922969"></path>
    <path d="M52.0254 168.152C50.6105 164.676 50.5917 160.488 51.9934 156.938C54.0784 151.654 57.9194 148.212 63.5162 146.61C67.8872 145.36 72.8969 145.799 76.8458 148.199C81.507 151.028 84.5327 155.572 84.7833 161.03C85.0107 165.96 83.2861 169.941 79.6097 172.971C75.7751 176.132 71.5127 177.628 66.8227 177.458C65.9573 177.427 65.0712 177.296 64.1643 177.065C59.4505 175.862 53.9095 172.784 52.0254 168.152ZM70.7849 158.48C70.3352 156.15 69.8196 153.818 69.2381 151.484C69.1137 150.987 68.5221 150.755 68.183 151.201C68.0926 151.319 68.0229 151.451 67.9739 151.596C67.0896 154.215 66.2556 156.653 65.4719 158.909C65.4568 158.953 65.429 158.992 65.3919 159.021C65.3548 159.05 65.31 159.067 65.2627 159.072C63.2393 159.277 61.381 159.419 59.6878 159.499C59.4643 159.509 59.2401 159.536 59.0152 159.58C58.5348 159.672 58.3068 160.236 58.6893 160.575C60.3674 162.066 62.0818 163.341 63.8327 164.399C63.8667 164.42 63.8934 164.451 63.9089 164.487C63.9244 164.524 63.9281 164.564 63.9194 164.603C63.5099 166.433 62.9372 168.253 62.2012 170.063C62.0328 170.476 62.1472 170.777 62.5441 170.964C62.6167 170.999 62.7006 171.006 62.7796 170.983C63.0107 170.917 63.2531 170.804 63.5068 170.644C65.3758 169.466 67.0978 168.325 68.6728 167.222C68.7032 167.201 68.7395 167.189 68.7768 167.188C68.8142 167.188 68.8508 167.198 68.882 167.219C70.6668 168.394 72.5257 169.398 74.4587 170.232C75.154 170.531 75.5496 169.922 75.2651 169.295C74.4311 167.456 73.5946 165.551 72.7556 163.58C72.7412 163.546 72.7376 163.508 72.7454 163.472C72.7531 163.435 72.7718 163.402 72.7989 163.376C74.0524 162.169 75.4309 160.842 76.9344 159.394C77.2829 159.057 77.4826 158.598 76.9721 158.249C76.8926 158.196 76.7979 158.17 76.7026 158.176L70.8753 158.551C70.8539 158.552 70.8329 158.545 70.8163 158.532C70.7996 158.519 70.7885 158.5 70.7849 158.48Z" fill="white"></path>
    <mask id="path-20-outside-1_763_14332" maskUnits="userSpaceOnUse" x="57.497" y="149.964" width="21" height="22" fill="black">
        <rect fill="white" x="57.497" y="149.964" width="21" height="22"></rect>
        <path d="M70.7852 158.481C70.7888 158.501 70.8 158.52 70.8166 158.533C70.8332 158.546 70.8542 158.553 70.8756 158.552L76.703 158.177C76.7982 158.171 76.893 158.197 76.9724 158.25C77.483 158.599 77.2833 159.058 76.9347 159.395C75.4313 160.843 74.0528 162.17 72.7992 163.377C72.7721 163.402 72.7534 163.436 72.7457 163.472C72.738 163.509 72.7415 163.547 72.7559 163.581C73.5949 165.552 74.4315 167.457 75.2655 169.295C75.5499 169.923 75.1543 170.532 74.4591 170.232C72.5261 169.399 70.6671 168.395 68.8823 167.219C68.8512 167.199 68.8145 167.188 68.7772 167.189C68.7398 167.19 68.7036 167.202 68.6732 167.223C67.0981 168.326 65.3761 169.467 63.5071 170.645C63.2534 170.804 63.011 170.917 62.7799 170.984C62.7009 171.007 62.617 171 62.5444 170.965C62.1475 170.778 62.0332 170.477 62.2015 170.064C62.9375 168.254 63.5103 166.434 63.9197 164.604C63.9284 164.565 63.9248 164.525 63.9092 164.488C63.8937 164.451 63.8671 164.42 63.8331 164.4C62.0822 163.342 60.3677 162.067 58.6896 160.575C58.3072 160.236 58.5351 159.672 59.0156 159.58C59.2404 159.537 59.4646 159.51 59.6882 159.5C61.3813 159.42 63.2396 159.278 65.2631 159.073C65.3103 159.068 65.3552 159.05 65.3923 159.021C65.4294 158.993 65.4571 158.954 65.4722 158.91C66.256 156.654 67.09 154.216 67.9742 151.597C68.0232 151.452 68.0929 151.32 68.1833 151.201C68.5225 150.755 69.1141 150.988 69.2384 151.484C69.8199 153.819 70.3355 156.151 70.7852 158.481ZM65.9828 160.244C64.4353 160.409 62.7472 160.514 60.9185 160.56C60.6233 160.568 60.5938 160.66 60.8299 160.838C62.1123 161.803 63.4952 162.749 64.9786 163.674C65.1871 163.804 65.2725 163.981 65.2348 164.205C64.9798 165.71 64.5836 167.184 64.046 168.628C63.9782 168.811 64.0265 168.85 64.1911 168.745C65.5111 167.895 66.9028 166.96 68.3661 165.94C68.579 165.79 68.8578 165.747 69.0858 165.895C70.4297 166.773 71.8528 167.603 73.355 168.385C73.4982 168.459 73.5365 168.422 73.47 168.276C72.7729 166.751 72.0952 165.195 71.4371 163.609C71.309 163.299 71.3623 163.032 71.5972 162.809C72.7264 161.74 73.8286 160.683 74.9037 159.639C75.0067 159.539 74.986 159.494 74.8415 159.506C73.6898 159.598 72.3986 159.685 70.968 159.766C70.5101 159.79 69.8168 159.98 69.6906 159.318C69.3125 157.326 68.9414 155.559 68.5771 154.018C68.5432 153.871 68.5024 153.869 68.4546 154.01C67.7902 155.967 67.1289 157.913 66.4707 159.847C66.3891 160.085 66.2264 160.218 65.9828 160.244Z"></path>
    </mask>
    <path d="M70.7852 158.481C70.7888 158.501 70.8 158.52 70.8166 158.533C70.8332 158.546 70.8542 158.553 70.8756 158.552L76.703 158.177C76.7982 158.171 76.893 158.197 76.9724 158.25C77.483 158.599 77.2833 159.058 76.9347 159.395C75.4313 160.843 74.0528 162.17 72.7992 163.377C72.7721 163.402 72.7534 163.436 72.7457 163.472C72.738 163.509 72.7415 163.547 72.7559 163.581C73.5949 165.552 74.4315 167.457 75.2655 169.295C75.5499 169.923 75.1543 170.532 74.4591 170.232C72.5261 169.399 70.6671 168.395 68.8823 167.219C68.8512 167.199 68.8145 167.188 68.7772 167.189C68.7398 167.19 68.7036 167.202 68.6732 167.223C67.0981 168.326 65.3761 169.467 63.5071 170.645C63.2534 170.804 63.011 170.917 62.7799 170.984C62.7009 171.007 62.617 171 62.5444 170.965C62.1475 170.778 62.0332 170.477 62.2015 170.064C62.9375 168.254 63.5103 166.434 63.9197 164.604C63.9284 164.565 63.9248 164.525 63.9092 164.488C63.8937 164.451 63.8671 164.42 63.8331 164.4C62.0822 163.342 60.3677 162.067 58.6896 160.575C58.3072 160.236 58.5351 159.672 59.0156 159.58C59.2404 159.537 59.4646 159.51 59.6882 159.5C61.3813 159.42 63.2396 159.278 65.2631 159.073C65.3103 159.068 65.3552 159.05 65.3923 159.021C65.4294 158.993 65.4571 158.954 65.4722 158.91C66.256 156.654 67.09 154.216 67.9742 151.597C68.0232 151.452 68.0929 151.32 68.1833 151.201C68.5225 150.755 69.1141 150.988 69.2384 151.484C69.8199 153.819 70.3355 156.151 70.7852 158.481ZM65.9828 160.244C64.4353 160.409 62.7472 160.514 60.9185 160.56C60.6233 160.568 60.5938 160.66 60.8299 160.838C62.1123 161.803 63.4952 162.749 64.9786 163.674C65.1871 163.804 65.2725 163.981 65.2348 164.205C64.9798 165.71 64.5836 167.184 64.046 168.628C63.9782 168.811 64.0265 168.85 64.1911 168.745C65.5111 167.895 66.9028 166.96 68.3661 165.94C68.579 165.79 68.8578 165.747 69.0858 165.895C70.4297 166.773 71.8528 167.603 73.355 168.385C73.4982 168.459 73.5365 168.422 73.47 168.276C72.7729 166.751 72.0952 165.195 71.4371 163.609C71.309 163.299 71.3623 163.032 71.5972 162.809C72.7264 161.74 73.8286 160.683 74.9037 159.639C75.0067 159.539 74.986 159.494 74.8415 159.506C73.6898 159.598 72.3986 159.685 70.968 159.766C70.5101 159.79 69.8168 159.98 69.6906 159.318C69.3125 157.326 68.9414 155.559 68.5771 154.018C68.5432 153.871 68.5024 153.869 68.4546 154.01C67.7902 155.967 67.1289 157.913 66.4707 159.847C66.3891 160.085 66.2264 160.218 65.9828 160.244Z" fill="#6E7E44"></path>
    <path d="M70.7852 158.481L71.6942 158.321L71.6929 158.313L71.6914 158.306L70.7852 158.481ZM70.8756 158.552L70.9121 159.474L70.9235 159.474L70.9349 159.473L70.8756 158.552ZM76.703 158.177L76.6441 157.256L76.6438 157.256L76.703 158.177ZM76.9724 158.25L77.4927 157.488L77.4877 157.484L76.9724 158.25ZM76.9347 159.395L77.5749 160.06L77.5765 160.058L76.9347 159.395ZM72.7992 163.377L73.4367 164.044L73.4393 164.041L72.7992 163.377ZM72.7559 163.581L71.9052 163.939L71.9067 163.942L72.7559 163.581ZM75.2655 169.295L76.1061 168.914L76.106 168.914L75.2655 169.295ZM74.4591 170.232L74.8246 169.385L74.8244 169.385L74.4591 170.232ZM68.8823 167.219L69.39 166.449L69.3894 166.448L68.8823 167.219ZM68.6732 167.223L69.2026 167.979L69.2076 167.976L68.6732 167.223ZM63.5071 170.645L63.9992 171.425L63.9993 171.425L63.5071 170.645ZM62.7799 170.984L62.5257 170.096L62.5227 170.097L62.7799 170.984ZM62.5444 170.965L62.9449 170.133L62.9384 170.13L62.5444 170.965ZM62.2015 170.064L63.0564 170.412L63.0565 170.411L62.2015 170.064ZM63.9197 164.604L63.0191 164.402L63.0191 164.402L63.9197 164.604ZM63.8331 164.4L64.3158 163.613L64.3104 163.61L63.8331 164.4ZM58.6896 160.575L59.3028 159.886L59.302 159.885L58.6896 160.575ZM59.0156 159.58L59.1888 160.487L59.1918 160.486L59.0156 159.58ZM59.6882 159.5L59.7294 160.422L59.7317 160.422L59.6882 159.5ZM65.2631 159.073L65.1751 158.154L65.1701 158.154L65.2631 159.073ZM65.4722 158.91L64.6003 158.607L64.599 158.611L65.4722 158.91ZM67.9742 151.597L67.0999 151.301L67.0997 151.302L67.9742 151.597ZM68.1833 151.201L68.9174 151.761L68.918 151.76L68.1833 151.201ZM69.2384 151.484L70.134 151.261L70.1337 151.26L69.2384 151.484ZM65.9828 160.244L66.0806 161.162L66.0816 161.161L65.9828 160.244ZM60.9185 160.56L60.8951 159.638L60.895 159.638L60.9185 160.56ZM60.8299 160.838L61.3851 160.1L61.3842 160.1L60.8299 160.838ZM64.9786 163.674L64.49 164.457L64.4905 164.458L64.9786 163.674ZM65.2348 164.205L66.1448 164.359L66.1449 164.358L65.2348 164.205ZM64.046 168.628L63.181 168.306L63.1809 168.307L64.046 168.628ZM64.1911 168.745L64.6873 169.523L64.6905 169.521L64.1911 168.745ZM68.3661 165.94L68.8941 166.697L68.8974 166.694L68.3661 165.94ZM69.0858 165.895L69.5906 165.122L69.5884 165.121L69.0858 165.895ZM73.355 168.385L72.9289 169.204L72.9327 169.206L73.355 168.385ZM73.47 168.276L74.3099 167.894L74.3094 167.893L73.47 168.276ZM71.4371 163.609L70.5842 163.962L70.5846 163.963L71.4371 163.609ZM71.5972 162.809L70.9626 162.139L70.9608 162.14L71.5972 162.809ZM74.9037 159.639L74.261 158.976L74.2607 158.976L74.9037 159.639ZM74.8415 159.506L74.7699 158.585L74.7677 158.586L74.8415 159.506ZM70.968 159.766L71.017 160.688L71.0203 160.687L70.968 159.766ZM69.6906 159.318L68.7838 159.49L68.784 159.491L69.6906 159.318ZM68.5771 154.018L67.678 154.226L67.6789 154.23L68.5771 154.018ZM68.4546 154.01L69.3286 154.307L69.329 154.306L68.4546 154.01ZM66.4707 159.847L67.344 160.145L67.3445 160.144L66.4707 159.847ZM69.8762 158.641C69.9197 158.888 70.0534 159.107 70.2457 159.258L71.3876 157.808C71.5466 157.933 71.6579 158.114 71.6942 158.321L69.8762 158.641ZM70.2457 159.258C70.4373 159.409 70.6743 159.483 70.9121 159.474L70.8392 157.63C71.0342 157.622 71.2292 157.683 71.3876 157.808L70.2457 159.258ZM70.9349 159.473L76.7622 159.098L76.6438 157.256L70.8164 157.631L70.9349 159.473ZM76.7619 159.098C76.653 159.105 76.546 159.076 76.4571 159.016L77.4877 157.484C77.2399 157.318 76.9434 157.237 76.6441 157.256L76.7619 159.098ZM76.4521 159.012C76.4797 159.031 76.4398 159.012 76.4019 158.934C76.3605 158.85 76.3526 158.76 76.3627 158.692C76.3712 158.635 76.3884 158.615 76.3761 158.635C76.3648 158.653 76.3389 158.687 76.2929 158.732L77.5765 160.058C77.8102 159.832 78.1155 159.457 78.1888 158.962C78.2285 158.693 78.1966 158.402 78.0599 158.123C77.9267 157.851 77.7204 157.643 77.4927 157.488L76.4521 159.012ZM76.2945 158.73C74.7911 160.178 73.4126 161.505 72.1592 162.712L73.4393 164.041C74.6929 162.835 76.0714 161.508 77.5749 160.06L76.2945 158.73ZM72.1618 162.709C72.0014 162.862 71.8894 163.061 71.8428 163.281L73.6486 163.664C73.6174 163.811 73.5428 163.943 73.4367 164.044L72.1618 162.709ZM71.8428 163.281C71.7962 163.501 71.8174 163.73 71.9052 163.939L73.6067 163.223C73.6656 163.363 73.6797 163.517 73.6486 163.664L71.8428 163.281ZM71.9067 163.942C72.7484 165.92 73.5878 167.831 74.4249 169.677L76.106 168.914C75.2751 167.082 74.4415 165.184 73.6051 163.219L71.9067 163.942ZM74.4248 169.677C74.4637 169.762 74.3896 169.688 74.5011 169.545C74.5615 169.467 74.6522 169.412 74.7464 169.394C74.8332 169.377 74.8664 169.403 74.8246 169.385L74.0936 171.08C74.7323 171.355 75.4914 171.279 75.9583 170.678C76.3702 170.149 76.3517 169.456 76.1061 168.914L74.4248 169.677ZM74.8244 169.385C72.9417 168.573 71.1304 167.595 69.39 166.449L68.3747 167.99C70.2039 169.195 72.1104 170.225 74.0938 171.08L74.8244 169.385ZM69.3894 166.448C69.2027 166.326 68.9835 166.262 68.7606 166.266L68.7937 168.112C68.6455 168.115 68.4996 168.072 68.3753 167.991L69.3894 166.448ZM68.7606 166.266C68.5378 166.27 68.321 166.341 68.1387 166.471L69.2076 167.976C69.0862 168.062 68.9419 168.109 68.7937 168.112L68.7606 166.266ZM68.1438 166.467C66.5826 167.56 64.8732 168.693 63.015 169.864L63.9993 171.425C65.8791 170.241 67.6137 169.092 69.2026 167.979L68.1438 166.467ZM63.0151 169.864C62.8178 169.988 62.6552 170.059 62.5257 170.096L63.0341 171.871C63.3668 171.776 63.6891 171.621 63.9992 171.425L63.0151 169.864ZM62.5227 170.097C62.6574 170.058 62.808 170.067 62.9449 170.133L62.1439 171.797C62.426 171.932 62.7445 171.955 63.0371 171.87L62.5227 170.097ZM62.9384 170.13C62.8754 170.101 62.9689 170.127 63.0236 170.271C63.0772 170.412 63.0258 170.487 63.0564 170.412L61.3466 169.716C61.2089 170.054 61.1305 170.486 61.2984 170.927C61.4674 171.372 61.8165 171.642 62.1504 171.8L62.9384 170.13ZM63.0565 170.411C63.811 168.556 64.3994 166.687 64.8204 164.805L63.0191 164.402C62.6212 166.18 62.0641 167.951 61.3465 169.716L63.0565 170.411ZM64.8204 164.806C64.8713 164.579 64.8497 164.341 64.7589 164.127L63.0596 164.848C62.9998 164.708 62.9856 164.551 63.0191 164.402L64.8204 164.806ZM64.7589 164.127C64.6681 163.913 64.5129 163.734 64.3158 163.613L63.3504 165.186C63.2213 165.107 63.1193 164.989 63.0596 164.848L64.7589 164.127ZM64.3104 163.61C62.6121 162.583 60.9428 161.343 59.3028 159.886L58.0765 161.265C59.7926 162.791 61.5522 164.1 63.3557 165.19L64.3104 163.61ZM59.302 159.885C59.34 159.919 59.3865 159.982 59.4083 160.071C59.4291 160.156 59.42 160.234 59.3987 160.294C59.358 160.409 59.2695 160.472 59.1888 160.487L58.8423 158.674C58.2813 158.781 57.8385 159.172 57.6593 159.676C57.4704 160.208 57.5908 160.835 58.0773 161.266L59.302 159.885ZM59.1918 160.486C59.3731 160.451 59.5522 160.43 59.7294 160.422L59.647 158.578C59.377 158.59 59.1077 158.622 58.8394 158.674L59.1918 160.486ZM59.7317 160.422C61.4442 160.341 63.3193 160.197 65.356 159.991L65.1701 158.154C63.16 158.358 61.3184 158.499 59.6447 158.578L59.7317 160.422ZM65.351 159.991C65.5713 159.97 65.7828 159.887 65.9597 159.749L64.8248 158.294C64.9275 158.214 65.0493 158.166 65.1751 158.154L65.351 159.991ZM65.9597 159.749C66.1367 159.611 66.2716 159.424 66.3454 159.209L64.599 158.611C64.6426 158.483 64.722 158.374 64.8248 158.294L65.9597 159.749ZM66.344 159.213C67.1288 156.954 67.9637 154.514 68.8487 151.892L67.0997 151.302C66.2162 153.919 65.3831 156.354 64.6003 158.607L66.344 159.213ZM68.8486 151.892C68.8663 151.84 68.8893 151.798 68.9174 151.761L67.4492 150.642C67.2965 150.842 67.1801 151.064 67.0999 151.301L68.8486 151.892ZM68.918 151.76C68.8978 151.787 68.8441 151.839 68.7516 151.868C68.6623 151.896 68.5782 151.89 68.5158 151.87C68.4011 151.834 68.3555 151.758 68.3431 151.709L70.1337 151.26C69.997 150.714 69.5934 150.273 69.067 150.109C68.4945 149.929 67.8562 150.107 67.4487 150.643L68.918 151.76ZM68.3428 151.707C68.9204 154.026 69.4325 156.342 69.879 158.656L71.6914 158.306C71.2386 155.96 70.7195 153.612 70.134 151.261L68.3428 151.707ZM65.885 159.326C64.3661 159.488 62.7032 159.592 60.8951 159.638L60.9418 161.483C62.7913 161.436 64.5046 161.329 66.0806 161.162L65.885 159.326ZM60.895 159.638C60.7893 159.64 60.6345 159.651 60.4754 159.7C60.3588 159.736 59.9466 159.882 59.7957 160.355C59.645 160.827 59.8957 161.185 59.9698 161.282C60.071 161.414 60.191 161.512 60.2756 161.576L61.3842 160.1C61.3508 160.075 61.3859 160.095 61.4354 160.159C61.4579 160.189 61.6902 160.49 61.5542 160.916C61.4181 161.342 61.0538 161.453 61.0184 161.464C60.9405 161.488 60.9001 161.484 60.9419 161.483L60.895 159.638ZM60.2747 161.575C61.5805 162.558 62.9858 163.519 64.49 164.457L65.4672 162.891C64.0047 161.979 62.6442 161.048 61.3851 160.1L60.2747 161.575ZM64.4905 164.458C64.4837 164.454 64.4182 164.41 64.368 164.306C64.315 164.196 64.3168 164.098 64.3247 164.051L66.1449 164.358C66.1905 164.088 66.1684 163.789 66.03 163.503C65.8944 163.222 65.6819 163.025 65.4667 162.891L64.4905 164.458ZM64.3248 164.051C64.0796 165.498 63.6985 166.916 63.181 168.306L64.9109 168.95C65.4686 167.453 65.8801 165.922 66.1448 164.359L64.3248 164.051ZM63.1809 168.307C63.1533 168.381 63.1106 168.508 63.0975 168.657C63.0889 168.754 63.0608 169.2 63.4545 169.515C63.8459 169.828 64.272 169.706 64.3635 169.678C64.5058 169.633 64.6205 169.565 64.6873 169.523L63.6948 167.966C63.6794 167.976 63.7263 167.943 63.8154 167.915C63.8536 167.903 64.241 167.78 64.6083 168.074C64.9778 168.37 64.94 168.777 64.9363 168.819C64.928 168.913 64.9048 168.967 64.9111 168.95L63.1809 168.307ZM64.6905 169.521C66.0214 168.664 67.4226 167.723 68.8941 166.697L67.8381 165.183C66.383 166.198 65.0009 167.126 63.6916 167.968L64.6905 169.521ZM68.8974 166.694C68.8865 166.702 68.8565 166.72 68.8014 166.725C68.7388 166.73 68.6566 166.717 68.5832 166.669L69.5884 165.121C68.9625 164.714 68.2677 164.88 67.8347 165.185L68.8974 166.694ZM68.5809 166.667C69.9517 167.563 71.4012 168.408 72.9289 169.204L73.7812 167.566C72.3045 166.798 70.9078 165.983 69.5906 165.122L68.5809 166.667ZM72.9327 169.206C72.9968 169.239 73.1127 169.294 73.2561 169.323C73.3551 169.344 73.7733 169.416 74.1253 169.084C74.4791 168.749 74.428 168.325 74.4123 168.224C74.3898 168.078 74.3398 167.959 74.3099 167.894L72.63 168.659C72.629 168.656 72.6233 168.644 72.6162 168.623C72.6096 168.604 72.5969 168.563 72.5881 168.507C72.5795 168.451 72.5223 168.059 72.857 167.742C73.1899 167.428 73.5758 167.505 73.6294 167.516C73.6848 167.527 73.7244 167.542 73.743 167.549C73.7633 167.557 73.7753 167.563 73.7774 167.564L72.9327 169.206ZM74.3094 167.893C73.617 166.378 72.9437 164.832 72.2896 163.255L70.5846 163.963C71.2468 165.559 71.9288 167.125 72.6305 168.66L74.3094 167.893ZM72.29 163.256C72.2794 163.231 72.3028 163.274 72.286 163.358C72.2783 163.397 72.2645 163.429 72.2507 163.452C72.2377 163.475 72.2285 163.482 72.2336 163.477L70.9608 162.14C70.7329 162.357 70.5467 162.642 70.476 162.995C70.4059 163.346 70.4666 163.677 70.5842 163.962L72.29 163.256ZM72.2318 163.479C73.3637 162.407 74.4687 161.348 75.5468 160.301L74.2607 158.976C73.1884 160.018 72.0891 161.072 70.9626 162.139L72.2318 163.479ZM75.5464 160.301C75.5963 160.253 75.686 160.16 75.7595 160.031C75.8156 159.933 76.0014 159.567 75.8016 159.14C75.605 158.719 75.2132 158.624 75.1081 158.603C74.9654 158.574 74.8392 158.58 74.7699 158.585L74.9132 160.426C74.9082 160.426 74.8923 160.427 74.8683 160.427C74.846 160.426 74.8022 160.424 74.7453 160.412C74.6814 160.4 74.3155 160.32 74.1293 159.921C73.9398 159.516 74.1205 159.179 74.156 159.117C74.1858 159.065 74.2141 159.029 74.229 159.011C74.2451 158.992 74.257 158.98 74.261 158.976L75.5464 160.301ZM74.7677 158.586C73.6246 158.677 72.3407 158.764 70.9157 158.844L71.0203 160.687C72.4564 160.606 73.755 160.519 74.9154 160.426L74.7677 158.586ZM70.9189 158.844C70.8391 158.849 70.7602 158.856 70.6962 158.862C70.626 158.869 70.5731 158.875 70.5171 158.879C70.4023 158.889 70.3481 158.887 70.325 158.884C70.3056 158.882 70.3802 158.887 70.4698 158.961C70.515 158.999 70.5491 159.043 70.5717 159.084C70.5932 159.123 70.5976 159.147 70.5972 159.145L68.784 159.491C68.848 159.827 69.0056 160.144 69.2883 160.38C69.5576 160.604 69.8579 160.685 70.0848 160.714C70.3081 160.744 70.5209 160.731 70.6688 160.719C70.8681 160.703 70.9096 160.693 71.017 160.688L70.9189 158.844ZM70.5974 159.146C70.2174 157.144 69.8435 155.363 69.4753 153.805L67.6789 154.23C68.0392 155.755 68.4076 157.508 68.7838 159.49L70.5974 159.146ZM69.4762 153.809C69.4621 153.748 69.4336 153.637 69.375 153.52C69.3459 153.462 69.2872 153.358 69.1829 153.255C69.0738 153.148 68.8706 153.003 68.5774 152.985C68.2821 152.967 68.0601 153.088 67.9354 153.186C67.8175 153.279 67.7467 153.379 67.7113 153.434C67.64 153.546 67.6002 153.656 67.5803 153.714L69.329 154.306C69.3288 154.306 69.3253 154.317 69.3179 154.334C69.3113 154.349 69.2953 154.384 69.267 154.428C69.2426 154.466 69.1827 154.554 69.0755 154.638C68.9614 154.727 68.7498 154.845 68.4647 154.827C68.1817 154.81 67.9885 154.67 67.8892 154.572C67.7947 154.479 67.7455 154.389 67.7258 154.349C67.7028 154.304 67.6907 154.268 67.6859 154.253C67.6804 154.236 67.6781 154.226 67.678 154.226L69.4762 153.809ZM67.5807 153.713C66.9163 155.67 66.2551 157.616 65.597 159.549L67.3445 160.144C68.0027 158.21 68.6641 156.264 69.3286 154.307L67.5807 153.713ZM65.5975 159.548C65.6012 159.537 65.6273 159.472 65.7048 159.409C65.7839 159.345 65.8589 159.329 65.884 159.326L66.0816 161.161C66.3503 161.132 66.6285 161.037 66.8702 160.841C67.1104 160.645 67.2586 160.395 67.344 160.145L65.5975 159.548Z" fill="#6E7E44" mask="url('#path-20-outside-1_763_14332')"></path>
    <path d="M65.9821 160.244C66.2258 160.217 66.3885 160.085 66.4701 159.846C67.1283 157.913 67.7896 155.967 68.454 154.01C68.5017 153.869 68.5425 153.871 68.5765 154.017C68.9407 155.559 69.3119 157.326 69.6899 159.318C69.8162 159.98 70.5095 159.79 70.9673 159.766C72.3979 159.685 73.6891 159.598 74.8409 159.505C74.9853 159.494 75.0061 159.539 74.9031 159.638C73.8279 160.683 72.7257 161.74 71.5966 162.809C71.3617 163.032 71.3083 163.299 71.4364 163.609C72.0946 165.195 72.7722 166.751 73.4693 168.276C73.5359 168.422 73.4976 168.459 73.3544 168.385C71.8522 167.603 70.4291 166.773 69.0851 165.895C68.8572 165.747 68.5783 165.79 68.3654 165.94C66.9022 166.96 65.5105 167.895 64.1904 168.745C64.0259 168.849 63.9775 168.811 64.0453 168.628C64.5829 167.184 64.9792 165.71 65.2342 164.205C65.2718 163.981 65.1864 163.804 64.9779 163.674C63.4946 162.749 62.1117 161.803 60.8293 160.838C60.5931 160.66 60.6227 160.568 60.9178 160.56C62.7466 160.514 64.4347 160.409 65.9821 160.244Z" fill="white"></path>
    <path d="M80.0722 181.833C78.1694 183.053 76.1063 183.872 73.8832 184.289C73.8369 184.298 73.7946 184.321 73.7627 184.355C73.7308 184.39 73.7109 184.434 73.7061 184.48C73.2225 188.955 72.7584 193.05 72.3138 196.766C72.1542 198.086 71.9382 199.428 71.6656 200.791C71.6418 200.909 71.6003 201.025 71.5413 201.139C71.4446 201.326 71.4383 201.456 71.5225 201.527C71.3918 201.691 71.2398 201.827 71.0665 201.935C71.0125 201.969 70.9842 201.954 70.9817 201.89C70.718 196.88 70.6872 192.031 70.8894 187.343C70.961 185.673 71.0452 184.059 71.1419 182.502C71.1445 182.457 71.1612 182.415 71.1897 182.38C71.2181 182.346 71.2568 182.322 71.3001 182.311C72.8526 181.93 74.3655 181.709 75.8708 181.158C77.1105 180.704 78.3119 180.162 79.475 179.534C79.5579 179.489 79.6088 179.512 79.6276 179.605L80.0722 181.833Z" fill="#A2AC87"></path>
    <path d="M69.834 184.574C67.1813 184.413 64.3225 184.075 61.2578 183.56C59.3487 183.239 57.6179 182.773 56.0654 182.163L56.3348 180.25C56.336 180.241 56.3392 180.234 56.344 180.227C56.3488 180.22 56.3551 180.215 56.3625 180.211C56.3698 180.207 56.378 180.205 56.3862 180.205C56.3945 180.205 56.4027 180.207 56.4102 180.21C60.0388 181.979 63.9187 182.793 68.0498 182.652C68.6653 182.63 69.2782 182.572 69.8886 182.476C69.9059 182.473 69.9236 182.474 69.9403 182.479C69.957 182.484 69.9723 182.493 69.9851 182.505C69.9978 182.517 70.0076 182.531 70.0137 182.547C70.0199 182.563 70.0222 182.58 70.0205 182.597L69.834 184.574Z" fill="#A2AC87"></path>
    <path d="M80.0714 181.832C81.2483 187.038 83.2636 191.948 86.1173 196.561C86.1386 196.597 86.1286 196.614 86.0871 196.61C83.4005 196.354 80.7189 196.086 78.0423 195.806C77.786 195.78 77.5643 195.85 77.3772 196.018C75.3939 197.799 73.4421 199.635 71.5216 201.526C71.4374 201.455 71.4437 201.326 71.5404 201.138C71.5995 201.025 71.6409 200.909 71.6648 200.79C71.9373 199.427 72.1534 198.086 72.3129 196.765C72.7575 193.049 73.2216 188.954 73.7052 184.48C73.7101 184.433 73.73 184.389 73.7619 184.355C73.7938 184.32 73.836 184.297 73.8823 184.289C76.1055 183.871 78.1685 183.053 80.0714 181.832Z" fill="white"></path>
    <path d="M56.0652 182.162C57.6176 182.772 59.3484 183.238 61.2576 183.559C64.3223 184.074 67.181 184.412 69.8338 184.573C69.7245 185.827 69.651 187.125 69.6133 188.467C69.4639 193.733 69.5518 198.995 69.8771 204.252C69.8884 204.436 69.8884 204.611 69.8771 204.777C69.8767 204.785 69.8738 204.793 69.8688 204.8C69.8639 204.807 69.8569 204.812 69.8489 204.816C69.8408 204.819 69.832 204.819 69.8233 204.818C69.8146 204.816 69.8065 204.813 69.7999 204.807C67.0504 202.364 64.3952 199.898 61.8341 197.411C61.5992 197.183 61.3317 197.142 61.0315 197.29C57.7596 198.904 54.4493 200.502 51.1007 202.084C51.0902 202.09 51.0782 202.092 51.0664 202.09C51.0546 202.089 51.0436 202.084 51.0348 202.076C51.026 202.068 51.0198 202.057 51.0171 202.046C51.0144 202.034 51.0153 202.022 51.0197 202.011C51.2056 201.483 51.3858 200.941 51.5604 200.385C53.4558 194.344 54.9574 188.27 56.0652 182.162Z" fill="white"></path>
</svg>