<svg xmlns="http://www.w3.org/2000/svg" width="198" height="208" fill="none"><path d="M178.431 2.178c3.57 9.262 3.857 19.11.861 29.543a1.446 1.446 0 0 1-1.024.994c-.499.13-.934.11-1.307-.056-.792-.358-1.108-.965-.949-1.819.251-1.346.551-2.78.898-4.3 1.484-6.456 1.125-14.062-.961-20.35a46.18 46.18 0 0 1-.911-3.087c-.21-.83.046-1.48.766-1.95.16-.105.331-.171.516-.2 1.035-.155 1.738.254 2.111 1.225ZM165.302 101.321l-.15.275a1.048 1.048 0 0 0-.132.488c-.084 7.687-.099 12.848-.044 15.481.016.95.561 1.936 1.634 2.956a694.514 694.514 0 0 0 10.602 14.957c.595.812.513 1.691-.245 2.637a.746.746 0 0 1-.421.256c-.981.221-1.643.092-1.986-.387-6.279-8.788-12.519-17.475-18.873-26.038-.892-1.206-4.16-5.3-5.838-3.068-1.308 1.729-1.798 3.541-1.471 5.437.603 3.521 1.932 7.073 3.984 10.656 3.206 5.6 7.492 11.219 9.371 17.225.49 1.55.339 3.388-.088 4.944a172.293 172.293 0 0 0-1.81 7.206c-1.534 6.713-.893 13.109 1.923 19.188.26.562.289 1.123.088 1.681a1.48 1.48 0 0 1-.773.843 1.52 1.52 0 0 1-1.15.051c-.805-.288-1.546-.581-2.42-.581-5.509-.013-10.74-.009-15.692.012a.192.192 0 0 0-.082.021.176.176 0 0 0-.064.057.196.196 0 0 0-.03.166c1.789 6.008 5.061 10.573 9.816 13.694 2.451 1.612 5.154 2.612 7.806 3.737 3.921 1.658 6.915 4.696 8.98 9.113a1.526 1.526 0 0 1 .038 1.206c-.251.646-.624 1.046-1.119 1.2-.955.3-1.661.01-2.118-.869-1.552-3-3.399-5.544-6.592-7.05-2.816-1.331-5.763-2.269-8.403-3.962-6.221-3.996-10.256-9.63-12.104-16.9a.67.67 0 0 0-.641-.507c-15.15-.129-29.918-.302-44.306-.518-19.842-.292-39.375-.04-58.597.756a32.717 32.717 0 0 1-3.256-.038c-1.766-.112-1.57-1.837-1.433-3.075.336-2.966.585-5.835.748-8.606.352-5.846.694-11.875 1.025-18.087.766-14.379 1.129-29.107 1.087-44.182-.088-30.895-.955-59.92-2.602-87.075a5.958 5.958 0 0 1 .277-2.2 1.318 1.318 0 0 1 1.244-.912c6.96-.03 13.277-.004 18.954.075 21.058.296 43.301.604 66.73.925 13.327.18 27.981-.015 43.96-.581 2.495-.088 2.433 1.231 2.489 3.118.256 8.384.419 15.89.49 22.52.013 1.25.036 2.503.069 3.762.466 17.237.665 34.527.598 51.868 0 .559.203 1.055.609 1.488a1007.454 1007.454 0 0 1 18.238 19.837c2.195 2.455 3.503 5.023 3.922 7.707.574 3.687.741 7.598.502 11.731a252.819 252.819 0 0 0 .088 30.337c.092 1.48.409 2.909.949 4.288 1.948 4.971 4.768 9.614 8.459 13.931.65.754.608 1.467-.125 2.138l-.365.337c-.767.7-1.491.661-2.174-.119-4.253-4.829-7.404-10.135-9.452-15.918-.52-1.471-.83-3.132-.931-4.982-.557-10.266-.557-20.735 0-31.406.156-2.891.026-5.944-.389-9.156-.484-3.763-2.966-6.275-5.392-8.969a863.332 863.332 0 0 0-13.33-14.444c-.151-.162-.237-.133-.258.088-.046.417.013.829.176 1.237Zm-10.055 63.1a56.987 56.987 0 0 1 2.992-18.881c.125-1.275.144-2.114.056-2.519-.134-.633-.62-1.787-1.458-3.462-2.181-4.375-5.141-8.581-7.51-12.581-1.621-2.742-2.994-6.119-4.116-10.132-.968-3.468-.572-7.193 1.596-10.025 2.941-3.843 7.347-2.143 9.986.882a58.363 58.363 0 0 1 4.142 5.281c.343.5.511.446.502-.163a8846.42 8846.42 0 0 1-.546-56.68c-.101-15.534-.38-28.907-.836-40.12-.013-.262-.149-.387-.409-.375-2.346.075-6.335.17-11.966.282-17.351.337-35.331.281-53.242-.119-20.14-.45-40.276-.688-60.408-.712a.405.405 0 0 0-.379.264.398.398 0 0 0-.023.16 1477.886 1477.886 0 0 1 2.501 93.138 796.274 796.274 0 0 1-1.923 51.75c-.258 3.725-.899 7.431-.987 11.131-.012.521.241.754.76.7 1.22-.121 2.41-.204 3.57-.25 18.586-.758 38.892-.954 60.917-.587 19.608.325 39.004.506 58.189.543a.408.408 0 0 0 .339-.18.392.392 0 0 0 .032-.376c-1.014-2.321-1.607-4.644-1.779-6.969Z" fill="#6E7E44"/><path d="M88.172 68.246c-7.944-3.212-15.923-3.302-23.938-.268-5.133 2.591-8.461 6.597-9.986 12.018-.202.721-.656 1.215-1.364 1.482-.302.112-.585.116-.849.012-1.106-.433-1.52-1.223-1.244-2.369 1.954-8.225 8.616-14.231 16.855-15.906.348-.07.371-.2.07-.388-4.848-3.029-7.584-7.383-8.208-13.062-.855-7.763 4.826-14.494 12.292-16.013 10.313-2.093 20.224 5.276 19.652 16.038-.293 5.62-2.968 9.904-8.025 12.85-.457.267-.423.44.1.519 8.805 1.337 14.976 7.687 16.937 16.087a1.596 1.596 0 0 1-.317 1.382 1.615 1.615 0 0 1-1.292.6h-.232c-.758-.013-1.266-.375-1.521-1.088-.666-1.88-1.184-3.202-1.552-3.969-1.61-3.375-4.069-6.016-7.378-7.925Zm-24.39-15.143a12.285 12.285 0 0 0 5.504 6.597 12.395 12.395 0 0 0 8.504 1.402 12.36 12.36 0 0 0 6.051-3.074 12.223 12.223 0 0 0 3.834-7.513c.383-3.188-.506-6.4-2.476-8.944a12.32 12.32 0 0 0-3.776-3.234 12.41 12.41 0 0 0-9.85-.934 12.353 12.353 0 0 0-4.43 2.562 12.264 12.264 0 0 0-3.67 6.066 12.202 12.202 0 0 0 .308 7.072Z" fill="#6E7E44"/><path d="M144.067 39.608h-30.091a.602.602 0 0 0-.603.6v.413c0 .331.27.6.603.6h30.091a.602.602 0 0 0 .603-.6v-.413c0-.331-.27-.6-.603-.6ZM143.808 50.533l-29.462.052a.827.827 0 0 0-.828.826v.038a.828.828 0 0 0 .831.823l29.462-.051c.458 0 .829-.37.828-.826v-.038a.827.827 0 0 0-.831-.824ZM83.842 58.028a12.361 12.361 0 0 1-6.052 3.075 12.395 12.395 0 0 1-8.504-1.403 12.285 12.285 0 0 1-5.505-6.597c.629.15 1.075.025 1.339-.375.13-.2.314-.29.553-.269.637.054 1.186.327 1.646.819 4.287 4.612 9.4 5.777 15.341 3.494.46-.175.855.243 1.182 1.256ZM128.068 62.032l-13.999.292a.676.676 0 0 0-.664.689l.002.1a.677.677 0 0 0 .693.66l13.999-.291a.677.677 0 0 0 .664-.69l-.002-.1a.677.677 0 0 0-.693-.66ZM88.172 68.246c-.465 1.475-1.468 2.35-3.01 2.625-6.356 1.13-12.584 1.071-18.684-.175a4.354 4.354 0 0 1-1.967-.975.544.544 0 0 1-.189-.537c.084-.45.055-.852-.088-1.206 8.015-3.034 15.995-2.944 23.938.268ZM165.302 101.321c.155.004.241.106.258.306.49 6.154.84 12.452 1.05 18.894-1.073-1.021-1.618-2.006-1.634-2.956-.055-2.634-.04-7.794.044-15.482.004-.172.049-.339.131-.487l.151-.275ZM125.777 107.512l-70.188-1.218a.764.764 0 0 0-.78.749l-.005.262a.765.765 0 0 0 .753.776l70.188 1.218a.764.764 0 0 0 .78-.749l.005-.262a.765.765 0 0 0-.753-.776ZM75.936 118.221c8.547.256 17.175.143 25.766.468 4.19.159 8.78.057 13.77-.306 1.29-.092 2.48.096 3.57.563a.893.893 0 0 1 .433 1.25c-.26.479-.67.731-1.232.756-3.946.194-7.805-.469-11.651-.5-9.36-.075-18.747-.213-28.161-.413-2.659-.062-5.392.2-8.02.175-4.26-.033-9.08-.183-14.46-.45a.92.92 0 0 1-.327-.087c-.641-.309-.913-.652-.817-1.031.092-.359.327-.542.704-.55 6.64-.13 13.449-.088 20.425.125ZM118.194 130.396l23.366.7c.347.008.511.187.49.537l-.032.4c-.037.542-.328.8-.873.775-11.909-.556-23.102.407-34.05-.437-6.863-.525-16.157-.013-24.246-.531a174.433 174.433 0 0 0-8.98-.319c-6.694-.075-12.965-.344-19.74-.4a.883.883 0 0 1-.83-.595.868.868 0 0 1-.044-.355l.025-.344a.712.712 0 0 1 .748-.656c8.681.396 17.566.573 26.653.531 9.93-.05 19.859.588 29.292.575 2.741-.004 5.481.035 8.221.119ZM158.238 145.54a57.013 57.013 0 0 0-2.991 18.882c-.964-1.8-1.322-4.086-1.075-6.857.369-4.191 1.343-7.995 2.923-11.412.255-.55.637-.754 1.143-.613Z" fill="#A2AC87"/><path d="M21.185 190.534c.547 1.225 1.458 3.362-.471 3.887-1.672.456-2.332-.919-2.822-2.169-1.559-4.02-2.784-7.612-3.677-10.775-2.426-8.562-3.22-17.285-2.382-26.168.101-1.084.7-1.64 1.798-1.669a1.58 1.58 0 0 1 .628.137c.8.317 1.165.902 1.094 1.757-.465 5.77-.23 11.806.704 18.106a55.174 55.174 0 0 0 1.816 8.025 78.268 78.268 0 0 0 3.312 8.869ZM3.513 175.052c1.269 6.363 4.103 11.594 8.767 16.475.64.671.683 1.379.125 2.125-.104.133-.228.25-.37.35-.943.646-1.813.558-2.609-.262-4.969-5.146-8.094-11.094-9.376-17.844-.206-1.088.224-1.794 1.288-2.119.47-.146.983-.033 1.54.338a1.457 1.457 0 0 1 .635.937Z" fill="#6E7E44"/><path d="M50.75 204.049c-.156.069-.39.158-.64.178-.258.02-.6-.031-.847-.329m1.488.151-1.133-.446m1.133.446a221.694 221.694 0 0 0 10.402-4.95l-10.402 4.95Zm-1.488-.151.355-.295m-.355.295.355-.295m-.355.295a1.082 1.082 0 0 1-.21-1.043v-.001a509.124 509.124 0 0 0 1.648-5.46l.443.131m-1.526 6.078a.621.621 0 0 1-.125-.613 514.728 514.728 0 0 0 1.65-5.465m0 0-.442-.131a144.971 144.971 0 0 0 3.685-15.472m-3.242 15.603a145.404 145.404 0 0 0 3.696-15.522m-.454-.081.552-2.486a.326.326 0 0 1 .162.311l-.006.076c-.062.725-.124 1.456-.254 2.18m-.454-.081c.125-.698.185-1.405.247-2.13m-.247 2.13v-.001l.454.082m-.454-.081.454.081m-.454-.081-9.259-16.033m.457-.065c-.652-4.538.258-9.35 2.199-13.491.599-1.279 1.224-2.351 1.876-3.217m-4.075 16.708 35.286-21.776c-6.253-3.841-14.058-4.193-20.98-1.945-3.976 1.291-7.729 3.689-10.23 7.013m-4.076 16.708-.457.065m.457-.065-.457.065m4.532-16.773-.368-.277.368.277Zm-4.532 16.773c.867 6.042 4.048 10.684 9.506 13.903m0 0 .072.042a.132.132 0 0 1-.064-.126l-.006.068-.002.016Zm1.888 2.444-.002.009a151.086 151.086 0 0 1-4.518 18.279 55.1 55.1 0 0 1-.238.737 659.069 659.069 0 0 0 9.064-4.385h.001a1.18 1.18 0 0 1 .698-.122c.248.038.458.16.63.327a244.333 244.333 0 0 0 7.233 6.741 175.505 175.505 0 0 1-.237-15.368l-12.631-6.218Zm0 0 .001-.009m-.001.009.001-.009m0 0 .192-1.362c3.552 1.636 7.338 2.385 11.351 2.247.487-.016.971-.056 1.454-.118l-.145 1.536v.004a66.73 66.73 0 0 0-.222 3.92l.461.013c.038-1.341.111-2.639.22-3.893l.187-1.977a.11.11 0 0 0-.007-.05l-13.491-.32Zm24.59-38.572c-6.39-3.925-14.34-4.273-21.365-1.991l27.962 56.58a.892.892 0 0 0 .693-.762 1.24 1.24 0 0 0-.194-.845v-.001c-3.49-5.213-5.818-11.079-6.985-17.604 3.707-2.428 6.39-5.673 8.039-9.727 2.223-5.463 2.128-11.507-.537-16.808-1.82-3.622-4.174-6.729-7.613-8.842Zm-9.446 62.595-.121-2.327-1.578 2.653-.303.348.001.001c.183.16.388.287.612.379v.001a.965.965 0 0 0 1.02-.163c.248-.217.388-.549.37-.892Zm-22.008-53.903c1.895-3.821 5.317-6.495 9.291-8.101 3.976-1.608 8.477-2.133 12.473-1.677 5.162.588 9.881 2.87 12.946 6.937a25.184 25.184 0 0 1 2.89 4.935c2.38 5.35 1.693 11.643-1.286 16.642-1.981 3.323-4.842 5.868-8.6 7.636-4.443 2.088-9.104 2.741-13.997 1.957-4.013-.641-7.536-2.251-10.578-4.83-6.97-5.906-7-15.717-3.139-23.499Zm21.74 48.654c-.222-4.69-.238-9.236-.048-13.638.068-1.602.149-3.151.24-4.648.4-.095.806-.182 1.215-.27 1.067-.229 2.158-.464 3.224-.854 1.11-.407 2.19-.882 3.24-1.426l.35 1.758.002.011a48.267 48.267 0 0 0 5.658 14.135c-2.4-.231-4.796-.472-7.189-.722a1.292 1.292 0 0 0-1.02.327l-.001.001a174.83 174.83 0 0 0-5.67 5.326Zm-15.013-20.745Zm.001.001Zm13.175 2.295v.002-.002Z" fill="#6E7E44" stroke="#6E7E44" stroke-width=".923"/><path d="M49.245 152.142c3.915-7.894 14.092-10.961 22.23-10.031 5.26.599 10.106 2.93 13.261 7.118a25.635 25.635 0 0 1 2.943 5.025c2.45 5.503 1.735 11.954-1.311 17.065-2.031 3.408-4.965 6.014-8.8 7.817-4.527 2.129-9.283 2.794-14.267 1.996-4.094-.655-7.695-2.299-10.803-4.934-7.191-6.095-7.168-16.166-3.253-24.056Zm35.101 16.082c2.19-5.07 1.675-10.94-1.471-15.516-2.299-3.34-5.412-5.632-9.34-6.874a15.514 15.514 0 0 0-3.717-.69c-4.063-.26-7.828.633-11.294 2.678-5.468 3.226-8.59 9.289-8.424 15.519.094 3.472 1.588 7.03 4.164 9.417 2.779 2.578 6.51 4.39 10.119 5.22.743.172 1.532.275 2.364.311 4.714.203 8.76-1.225 12.492-3.946 2.219-1.618 4.037-3.642 5.107-6.119Z" fill="#fff"/><path d="M84.77 168.408c-1.11 2.57-2.99 4.654-5.26 6.309-3.805 2.774-7.951 4.242-12.782 4.035a13.58 13.58 0 0 1-2.448-.323l.103-.45c-3.61-.83-7.34-2.641-10.12-5.22l30.507-4.351Zm0 0c2.25-5.213 1.723-11.251-1.515-15.96-2.358-3.427-5.556-5.78-9.58-7.053a15.991 15.991 0 0 0-3.827-.71c-4.155-.266-8.012.648-11.559 2.74-5.62 3.317-8.82 9.542-8.65 15.93.097 3.586 1.638 7.265 4.31 9.743l30.82-4.69Zm-32.317-.428c-1.37-3.365-1.389-7.429-.03-10.871 2.03-5.146 5.757-8.49 11.22-10.053 4.263-1.219 9.138-.786 12.963 1.539v.001c4.547 2.759 7.474 7.171 7.716 12.457.221 4.792-1.446 8.63-5.006 11.564-3.753 3.094-7.906 4.548-12.477 4.382-.83-.03-1.683-.156-2.56-.379-2.312-.59-4.826-1.64-6.986-3.106-2.163-1.467-3.943-3.33-4.84-5.534Z" fill="#A2AC87" stroke="#A2AC87" stroke-width=".923"/><path d="M52.025 168.152c-1.414-3.476-1.433-7.664-.032-11.214 2.085-5.284 5.926-8.726 11.523-10.328 4.371-1.25 9.38-.811 13.33 1.589 4.661 2.829 7.687 7.373 7.937 12.831.228 4.93-1.497 8.911-5.173 11.941-3.835 3.161-8.097 4.657-12.787 4.487a12.583 12.583 0 0 1-2.659-.393c-4.714-1.203-10.255-4.281-12.139-8.913Zm18.76-9.672a133.89 133.89 0 0 0-1.547-6.996c-.124-.497-.716-.729-1.055-.283-.09.118-.16.25-.21.395a890.87 890.87 0 0 1-2.501 7.313.242.242 0 0 1-.21.163c-2.023.205-3.881.347-5.574.427a4.56 4.56 0 0 0-.673.081c-.48.092-.708.656-.326.995 1.678 1.491 3.393 2.766 5.144 3.824a.19.19 0 0 1 .087.204 34.46 34.46 0 0 1-1.719 5.46c-.168.413-.054.714.343.901a.33.33 0 0 0 .236.019c.23-.066.473-.179.727-.339a128.072 128.072 0 0 0 5.166-3.422.187.187 0 0 1 .21-.003 36.22 36.22 0 0 0 5.576 3.013c.695.299 1.09-.31.806-.937a267.747 267.747 0 0 1-2.51-5.715.185.185 0 0 1 .043-.204l4.136-3.982c.349-.337.549-.796.038-1.145a.437.437 0 0 0-.27-.073l-5.827.375a.09.09 0 0 1-.059-.019.086.086 0 0 1-.031-.052Z" fill="#fff"/><mask id="path-20-outside-1_763_14332" maskUnits="userSpaceOnUse" x="57.497" y="149.964" width="21" height="22" fill="#000"><path fill="#fff" d="M57.497 149.964h21v22h-21z"/><path d="M70.785 158.481a.09.09 0 0 0 .09.071l5.828-.375c.095-.006.19.02.27.073.51.349.31.808-.038 1.145l-4.136 3.982a.182.182 0 0 0-.043.204 265.417 265.417 0 0 0 2.51 5.714c.284.628-.112 1.237-.807.937a36.05 36.05 0 0 1-5.577-3.013.186.186 0 0 0-.209.004 128.15 128.15 0 0 1-5.166 3.422 2.911 2.911 0 0 1-.727.339.33.33 0 0 1-.236-.019c-.396-.187-.51-.488-.342-.901a34.449 34.449 0 0 0 1.718-5.46.19.19 0 0 0-.087-.204c-1.75-1.058-3.465-2.333-5.143-3.825-.383-.339-.155-.903.326-.995.224-.043.449-.07.672-.08 1.693-.08 3.552-.222 5.575-.427a.253.253 0 0 0 .13-.052.234.234 0 0 0 .08-.111 883.382 883.382 0 0 0 2.501-7.313 1.38 1.38 0 0 1 .21-.396c.338-.446.93-.213 1.054.283a134.153 134.153 0 0 1 1.547 6.997Zm-4.802 1.763c-1.548.165-3.236.27-5.065.316-.295.008-.324.1-.088.278a57.482 57.482 0 0 0 4.149 2.836c.208.13.293.307.256.531a24.27 24.27 0 0 1-1.189 4.423c-.068.183-.02.222.145.117 1.32-.85 2.712-1.785 4.175-2.805.213-.15.492-.193.72-.045a50.071 50.071 0 0 0 4.269 2.49c.143.074.181.037.115-.109a143.694 143.694 0 0 1-2.033-4.667c-.128-.31-.075-.577.16-.8a360.603 360.603 0 0 0 3.307-3.17c.103-.1.082-.145-.063-.133-1.151.092-2.442.179-3.873.26-.458.024-1.151.214-1.277-.448-.379-1.992-.75-3.759-1.114-5.3-.034-.147-.075-.149-.122-.008l-1.984 5.837a.544.544 0 0 1-.488.397Z"/></mask><path d="M70.785 158.481a.09.09 0 0 0 .09.071l5.828-.375c.095-.006.19.02.27.073.51.349.31.808-.038 1.145l-4.136 3.982a.182.182 0 0 0-.043.204 265.417 265.417 0 0 0 2.51 5.714c.284.628-.112 1.237-.807.937a36.05 36.05 0 0 1-5.577-3.013.186.186 0 0 0-.209.004 128.15 128.15 0 0 1-5.166 3.422 2.911 2.911 0 0 1-.727.339.33.33 0 0 1-.236-.019c-.396-.187-.51-.488-.342-.901a34.449 34.449 0 0 0 1.718-5.46.19.19 0 0 0-.087-.204c-1.75-1.058-3.465-2.333-5.143-3.825-.383-.339-.155-.903.326-.995.224-.043.449-.07.672-.08 1.693-.08 3.552-.222 5.575-.427a.253.253 0 0 0 .13-.052.234.234 0 0 0 .08-.111 883.382 883.382 0 0 0 2.501-7.313 1.38 1.38 0 0 1 .21-.396c.338-.446.93-.213 1.054.283a134.153 134.153 0 0 1 1.547 6.997Zm-4.802 1.763c-1.548.165-3.236.27-5.065.316-.295.008-.324.1-.088.278a57.482 57.482 0 0 0 4.149 2.836c.208.13.293.307.256.531a24.27 24.27 0 0 1-1.189 4.423c-.068.183-.02.222.145.117 1.32-.85 2.712-1.785 4.175-2.805.213-.15.492-.193.72-.045a50.071 50.071 0 0 0 4.269 2.49c.143.074.181.037.115-.109a143.694 143.694 0 0 1-2.033-4.667c-.128-.31-.075-.577.16-.8a360.603 360.603 0 0 0 3.307-3.17c.103-.1.082-.145-.063-.133-1.151.092-2.442.179-3.873.26-.458.024-1.151.214-1.277-.448-.379-1.992-.75-3.759-1.114-5.3-.034-.147-.075-.149-.122-.008l-1.984 5.837a.544.544 0 0 1-.488.397Z" fill="#6E7E44"/><path d="m70.785 158.481.91-.16-.002-.008-.002-.007-.906.175Zm.09.071.037.922h.011l.012-.001-.06-.921Zm5.828-.375-.059-.921.059.921Zm.27.073.52-.762-.005-.004-.516.766Zm-.038 1.145.64.665.001-.002-.641-.663Zm-4.136 3.982.638.667.002-.003-.64-.664Zm-.043.204-.85.358v.003l.85-.361Zm2.51 5.714.84-.381-.84.381Zm-.807.937.366-.847-.366.847Zm-5.577-3.013.508-.77v-.001l-.508.771Zm-.209.004.53.756.005-.003-.535-.753Zm-5.166 3.422.492.78-.492-.78Zm-.727.339-.254-.888-.003.001.257.887Zm-.236-.019.4-.832-.006-.003-.394.835Zm-.342-.901.854.348v-.001l-.854-.347Zm1.718-5.46-.9-.202.9.202Zm-.087-.204.483-.787-.006-.003-.477.79Zm-5.143-3.825.613-.689-.001-.001-.612.69Zm.326-.995.173.907.003-.001-.176-.906Zm.672-.08.041.922h.003l-.044-.922Zm5.575-.427-.088-.919h-.005l.093.919Zm.21-.163-.873-.303-.001.004.873.299Zm2.501-7.313-.874-.296v.001l.874.295Zm.21-.396.733.56.001-.001-.735-.559Zm1.054.283.896-.223v-.001l-.896.224Zm-3.255 8.76.098.918v-.001l-.098-.917Zm-5.065.316-.023-.922.023.922Zm-.088.278.555-.738-.555.738Zm4.149 2.836-.489.783v.001l.489-.784Zm.256.531.91.154v-.001l-.91-.153Zm-1.189 4.423-.865-.322v.001l.865.321Zm.145.117.496.778.004-.002-.5-.776Zm4.175-2.805.528.757.003-.003-.53-.754Zm.72-.045.505-.773-.003-.001-.502.774Zm4.269 2.49-.426.819.004.002.422-.821Zm.115-.109.84-.382v-.001l-.84.383Zm-2.033-4.667-.853.353v.001l.853-.354Zm.16-.8-.634-.67-.002.001.636.669Zm3.307-3.17-.643-.663.643.663Zm-.063-.133-.071-.921-.002.001.073.92Zm-3.873.26.049.922.003-.001-.052-.921Zm-1.277-.448-.907.172v.001l.907-.173Zm-1.114-5.3-.899.208v.004l.9-.212Zm-.122-.008.874.297v-.001l-.874-.296Zm-1.984 5.837.873.298v-.001l-.873-.297Zm3.405-1.206c.044.247.177.466.37.617l1.142-1.45c.159.125.27.306.306.513l-1.818.32Zm.37.617c.191.151.428.225.666.216l-.073-1.844a.83.83 0 0 1 .549.178l-1.142 1.45Zm.689.215 5.827-.375-.118-1.842-5.828.375.119 1.842Zm5.827-.375a.488.488 0 0 1-.305-.082l1.03-1.532a1.362 1.362 0 0 0-.843-.228l.118 1.842Zm-.31-.086c.028.019-.012 0-.05-.078a.422.422 0 0 1-.04-.242c.01-.057.026-.077.014-.057a.584.584 0 0 1-.083.097l1.283 1.326c.234-.226.54-.601.613-1.096a1.42 1.42 0 0 0-.13-.839 1.655 1.655 0 0 0-.566-.635l-1.04 1.524Zm-.157-.282-4.136 3.982 1.28 1.329 4.136-3.981-1.28-1.33Zm-4.133 3.979c-.16.153-.273.352-.32.572l1.807.383a.735.735 0 0 1-.212.38l-1.275-1.335Zm-.32.572c-.046.22-.025.449.063.658l1.702-.716c.059.14.073.294.042.441l-1.806-.383Zm.065.661a267.61 267.61 0 0 0 2.518 5.735l1.681-.763a266.17 266.17 0 0 1-2.5-5.695l-1.7.723Zm2.518 5.735c.039.085-.035.011.076-.132a.415.415 0 0 1 .245-.151c.087-.017.12.009.079-.009l-.731 1.695c.638.275 1.397.199 1.864-.402.412-.529.394-1.222.148-1.764l-1.681.763Zm.4-.292a35.248 35.248 0 0 1-5.435-2.936l-1.015 1.541a37.018 37.018 0 0 0 5.719 3.09l.73-1.695Zm-5.436-2.937a1.114 1.114 0 0 0-.628-.182l.033 1.846a.74.74 0 0 1-.419-.121l1.014-1.543Zm-.628-.182c-.223.004-.44.075-.622.205l1.069 1.505a.742.742 0 0 1-.414.136l-.033-1.846Zm-.617.201a127.314 127.314 0 0 1-5.129 3.397l.984 1.561a127.875 127.875 0 0 0 5.204-3.446l-1.06-1.512Zm-5.129 3.397c-.197.124-.36.195-.49.232l.51 1.775c.332-.095.654-.25.964-.446l-.984-1.561Zm-.492.233a.592.592 0 0 1 .422.036l-.801 1.664c.282.135.6.158.893.073l-.514-1.773Zm.415.033c-.063-.029.03-.003.086.141.053.141.002.216.032.141l-1.71-.696c-.137.338-.215.77-.048 1.211.17.445.518.715.852.873l.788-1.67Zm.118.281a35.349 35.349 0 0 0 1.764-5.606l-1.8-.403a33.55 33.55 0 0 1-1.674 5.314l1.71.695Zm1.764-5.605c.051-.227.03-.465-.061-.679l-1.7.721a.73.73 0 0 1-.04-.446l1.801.404Zm-.061-.679a1.113 1.113 0 0 0-.443-.514l-.966 1.573a.73.73 0 0 1-.29-.338l1.699-.721Zm-.449-.517c-1.698-1.027-3.367-2.267-5.007-3.724l-1.226 1.379c1.716 1.526 3.475 2.835 5.279 3.925l.954-1.58Zm-5.008-3.725a.39.39 0 0 1 .097.409.286.286 0 0 1-.21.193l-.347-1.813a1.56 1.56 0 0 0-1.183 1.002 1.453 1.453 0 0 0 .418 1.59l1.225-1.381Zm-.11.601c.181-.035.36-.056.537-.064l-.082-1.844a5.53 5.53 0 0 0-.808.096l.353 1.812Zm.54-.064c1.712-.081 3.587-.225 5.624-.431l-.186-1.837c-2.01.204-3.852.345-5.525.424l.087 1.844Zm5.619-.431a1.17 1.17 0 0 0 .609-.242l-1.135-1.455a.675.675 0 0 1 .35-.14l.176 1.837Zm.609-.242c.177-.138.312-.325.385-.54l-1.746-.598a.678.678 0 0 1 .226-.317l1.135 1.455Zm.384-.536c.785-2.259 1.62-4.699 2.505-7.321l-1.75-.59a879.647 879.647 0 0 1-2.499 7.305l1.744.606Zm2.505-7.321a.453.453 0 0 1 .068-.131l-1.468-1.119c-.153.2-.269.422-.35.659l1.75.591Zm.069-.132a.394.394 0 0 1-.402.11c-.115-.036-.16-.112-.173-.161l1.79-.449a1.607 1.607 0 0 0-1.066-1.151c-.572-.18-1.21-.002-1.618.534l1.469 1.117Zm-.575-.053c.577 2.319 1.09 4.635 1.536 6.949l1.812-.35a135.07 135.07 0 0 0-1.557-7.045l-1.791.446Zm-2.458 7.619a62.177 62.177 0 0 1-4.99.312l.047 1.845a64.517 64.517 0 0 0 5.139-.321l-.196-1.836Zm-4.99.312a1.54 1.54 0 0 0-.42.062c-.116.036-.528.182-.68.655-.15.472.1.83.175.927.101.132.221.23.306.294l1.108-1.476c-.033-.025.002-.005.051.059.023.03.255.331.12.757-.137.426-.501.537-.537.548-.078.024-.118.02-.076.019l-.047-1.845Zm-.62 1.937a58.288 58.288 0 0 0 4.215 2.882l.977-1.566a56.4 56.4 0 0 1-4.082-2.791l-1.11 1.475Zm4.215 2.883a.375.375 0 0 1-.122-.152.44.44 0 0 1-.043-.255l1.82.307c.046-.27.023-.569-.115-.855a1.485 1.485 0 0 0-.563-.612l-.977 1.567Zm-.165-.407a23.35 23.35 0 0 1-1.144 4.255l1.73.644a25.16 25.16 0 0 0 1.234-4.591l-1.82-.308Zm-1.144 4.256c-.028.074-.07.201-.084.35a.981.981 0 0 0 .358.858.984.984 0 0 0 .909.163c.142-.045.257-.113.323-.155l-.992-1.557c-.016.01.031-.023.12-.051.039-.012.426-.135.793.159.37.296.332.703.328.745-.008.094-.031.148-.025.131l-1.73-.643Zm1.51 1.214c1.33-.857 2.732-1.798 4.203-2.824l-1.056-1.514a133.316 133.316 0 0 1-4.146 2.785l.998 1.553Zm4.206-2.827a.19.19 0 0 1-.096.031.355.355 0 0 1-.218-.056l1.005-1.548c-.625-.407-1.32-.241-1.753.064l1.062 1.509Zm-.316-.027a51.08 51.08 0 0 0 4.348 2.537l.852-1.638a48.84 48.84 0 0 1-4.19-2.444l-1.01 1.545Zm4.352 2.539c.064.033.18.088.323.117a.973.973 0 0 0 .87-.239.973.973 0 0 0 .286-.86 1.253 1.253 0 0 0-.102-.33l-1.68.765c-.001-.003-.007-.015-.014-.036a.686.686 0 0 1-.028-.116.876.876 0 0 1 .269-.765.875.875 0 0 1 .772-.226c.056.011.095.026.114.033l.034.015-.844 1.642Zm1.376-1.313a142.486 142.486 0 0 1-2.02-4.638l-1.704.708a144.446 144.446 0 0 0 2.046 4.697l1.678-.767Zm-2.019-4.637c-.01-.025.013.018-.004.102a.296.296 0 0 1-.035.094c-.013.023-.023.03-.017.025l-1.273-1.337a1.617 1.617 0 0 0-.485.855c-.07.351-.01.682.108.967l1.706-.706Zm-.058.223a366.391 366.391 0 0 0 3.315-3.178l-1.286-1.325a357.44 357.44 0 0 1-3.298 3.163l1.269 1.34Zm3.314-3.178c.05-.048.14-.141.213-.27a.967.967 0 0 0 .043-.891.969.969 0 0 0-.694-.537 1.243 1.243 0 0 0-.338-.018l.143 1.841-.045.001a.871.871 0 0 1-.739-.506.877.877 0 0 1 .027-.804.753.753 0 0 1 .105-.141l1.285 1.325Zm-.778-1.715c-1.143.091-2.427.178-3.852.258l.104 1.843c1.436-.081 2.735-.168 3.895-.261l-.147-1.84Zm-3.85.258c-.079.005-.158.012-.222.018-.07.007-.123.013-.179.017-.115.01-.169.008-.192.005-.02-.002.055.003.145.077.045.038.08.082.102.123.021.039.026.063.025.061l-1.813.346c.064.336.222.653.504.889.27.224.57.305.797.334.223.03.436.017.584.005.2-.016.24-.026.348-.031l-.098-1.844Zm-.32.302c-.38-2.002-.754-3.783-1.123-5.341l-1.796.425c.36 1.525.729 3.278 1.105 5.26l1.813-.344Zm-1.122-5.337a1.299 1.299 0 0 0-.101-.289.947.947 0 0 0-1.664-.086 1.31 1.31 0 0 0-.13.28l1.748.592-.011.028a.848.848 0 0 1-.242.304.9.9 0 0 1-1.35-.289.64.64 0 0 1-.04-.096l-.008-.027 1.798-.417Zm-1.895-.096a7200.08 7200.08 0 0 1-1.984 5.836l1.748.595c.658-1.934 1.32-3.88 1.984-5.837l-1.748-.594Zm-1.984 5.835a.34.34 0 0 1 .108-.139.373.373 0 0 1 .179-.083l.198 1.835c.268-.029.547-.124.788-.32a1.52 1.52 0 0 0 .474-.696l-1.746-.597Z" fill="#6E7E44" mask="url('#path-20-outside-1_763_14332')"/><path d="M65.982 160.244a.546.546 0 0 0 .488-.398c.658-1.933 1.32-3.879 1.984-5.836.048-.141.089-.139.123.007.364 1.542.735 3.309 1.113 5.301.126.662.82.472 1.277.448a163.11 163.11 0 0 0 3.874-.261c.144-.011.165.034.062.133a350.026 350.026 0 0 1-3.306 3.171c-.235.223-.289.49-.16.8a143.913 143.913 0 0 0 2.032 4.667c.067.146.029.183-.115.109a50.089 50.089 0 0 1-4.269-2.49c-.228-.148-.507-.105-.72.045a137.426 137.426 0 0 1-4.175 2.805c-.164.104-.212.066-.145-.117a24.27 24.27 0 0 0 1.19-4.423c.037-.224-.049-.401-.257-.531a57.501 57.501 0 0 1-4.149-2.836c-.236-.178-.206-.27.089-.278a62.892 62.892 0 0 0 5.064-.316Z" fill="#fff"/><path d="M80.072 181.833a17.257 17.257 0 0 1-6.189 2.456.224.224 0 0 0-.12.066.22.22 0 0 0-.057.125c-.484 4.475-.948 8.57-1.392 12.286a52.916 52.916 0 0 1-.648 4.025 1.326 1.326 0 0 1-.125.348c-.096.187-.103.317-.019.388-.13.164-.282.3-.456.408-.053.034-.082.019-.084-.045-.264-5.01-.295-9.859-.093-14.547.072-1.67.156-3.284.253-4.841a.211.211 0 0 1 .048-.122.211.211 0 0 1 .11-.069c1.553-.381 3.066-.602 4.57-1.153a27.437 27.437 0 0 0 3.605-1.624c.083-.045.134-.022.153.071l.444 2.228ZM69.834 184.574c-2.653-.161-5.511-.499-8.576-1.014-1.91-.321-3.64-.787-5.193-1.397l.27-1.913a.051.051 0 0 1 .028-.039.05.05 0 0 1 .023-.006c.008 0 .017.002.024.005 3.629 1.769 7.509 2.583 11.64 2.442.615-.022 1.228-.08 1.839-.176a.113.113 0 0 1 .132.121l-.187 1.977Z" fill="#A2AC87"/><path d="M80.071 181.832c1.177 5.206 3.193 10.116 6.046 14.729.022.036.012.053-.03.049a875.903 875.903 0 0 1-8.045-.804.828.828 0 0 0-.665.212 174.945 174.945 0 0 0-5.855 5.508c-.085-.071-.078-.2.018-.388.06-.113.1-.229.125-.348.272-1.363.488-2.704.648-4.025.444-3.716.909-7.811 1.392-12.285a.215.215 0 0 1 .177-.191 17.259 17.259 0 0 0 6.19-2.457ZM56.065 182.162c1.553.61 3.283 1.076 5.193 1.397 3.064.515 5.923.853 8.576 1.014a66.314 66.314 0 0 0-.22 3.894 175.07 175.07 0 0 0 .263 15.785c.011.184.011.359 0 .525a.044.044 0 0 1-.008.023.052.052 0 0 1-.02.016.05.05 0 0 1-.049-.009 245.506 245.506 0 0 1-7.966-7.396c-.235-.228-.502-.269-.803-.121a652.078 652.078 0 0 1-9.93 4.794.051.051 0 0 1-.035.006.054.054 0 0 1-.031-.014.059.059 0 0 1-.015-.065c.186-.528.366-1.07.54-1.626a150.6 150.6 0 0 0 4.505-18.223Z" fill="#fff"/></svg>