<svg xmlns="http://www.w3.org/2000/svg" width="54" height="60" viewBox="0 0 54 60" fill="none">
    <path d="M37.6052 -0.000183105H37.532C36.9059 -0.000183105 36.3984 0.506505 36.3984 1.13154V6.57917C36.3984 7.20421 36.9059 7.71089 37.532 7.71089H37.6052C38.2313 7.71089 38.7388 7.20421 38.7388 6.57917V1.13154C38.7388 0.506505 38.2313 -0.000183105 37.6052 -0.000183105Z" fill="white"></path>
    <path d="M26.8065 5.14254L26.7666 5.18232C26.3203 5.62795 26.3203 6.35045 26.7666 6.79607L30.1137 10.1376C30.56 10.5832 31.2837 10.5832 31.7301 10.1376L31.7699 10.0978C32.2163 9.65221 32.2163 8.92971 31.7699 8.48409L28.4229 5.14254C27.9765 4.69691 27.2528 4.69691 26.8065 5.14254Z" fill="white"></path>
    <path d="M46.7169 5.14084L43.3686 8.48371C42.9222 8.92934 42.9222 9.65184 43.3686 10.0975L43.4084 10.1372C43.8548 10.5829 44.5785 10.5829 45.0248 10.1372L48.3732 6.79437C48.8195 6.34875 48.8195 5.62625 48.3732 5.18062L48.3333 5.14084C47.887 4.69521 47.1633 4.69521 46.7169 5.14084Z" fill="white"></path>
    <path d="M50.9041 38.6977C51.785 40.0647 51.9015 41.8134 51.1896 43.2695C50.6336 44.4072 49.7545 45.2026 48.5524 45.6558C48.5496 45.6568 48.547 45.6584 48.5449 45.6604C48.5428 45.6625 48.5412 45.6651 48.5402 45.6679C48.5392 45.6707 48.5388 45.6736 48.5392 45.6766C48.5395 45.6795 48.5405 45.6824 48.5421 45.6849C48.9816 46.3881 49.2314 47.126 49.2915 47.8986C49.4549 49.9858 48.2115 51.9548 46.2232 52.6815C46.1882 52.694 46.1807 52.7162 46.2007 52.7481C47.6639 55.0781 46.9333 58.0185 44.5684 59.3855C43.7128 59.8806 42.8582 60.0025 41.8317 60.0006C37.6718 59.9956 33.5735 59.9944 29.537 59.9969C28.2215 59.9981 26.8838 59.9462 25.5239 59.8412C23.4145 59.679 21.4 59.273 19.2079 58.7058C18.2193 58.4495 17.2122 58.1866 16.1866 57.9172C16.1541 57.9091 16.1303 57.92 16.1153 57.95C15.6156 58.9514 14.8439 59.5953 13.8002 59.8815C13.5153 59.9597 12.9985 59.9984 12.2496 59.9978C8.739 59.9959 5.24841 59.9963 1.77785 59.9988C1.20746 59.9988 0.856213 59.9684 0.724103 59.9078C0.280814 59.7015 0.00187917 59.2993 0.00187917 58.823C0.00438362 49.3954 0.00375782 40.0257 1.13635e-06 30.7137C-0.000938036 29.9946 0.580409 29.5145 1.26694 29.5173C4.85333 29.5311 8.44003 29.5298 12.027 29.5136C12.8792 29.5104 13.4646 29.5508 13.7833 29.6345C14.8414 29.9146 15.6238 30.5703 16.1303 31.6017C16.1348 31.6112 16.1424 31.6188 16.1519 31.6233C16.1613 31.6277 16.172 31.6287 16.1819 31.626C19.2342 30.8506 22.2236 29.8117 24.9444 28.3968C28.5837 26.5047 32.5404 23.3711 32.841 18.9333C32.8983 18.0932 32.8006 17.0853 32.9349 16.3445C33.2476 14.6118 34.4291 13.2016 36.0933 12.654C38.5277 11.8533 41.1367 13.1388 41.9885 15.5457C42.1519 16.0089 42.2518 16.5602 42.2881 17.1997C42.5257 21.4002 42.042 25.6055 40.5619 29.477C40.5599 29.4824 40.5592 29.4883 40.56 29.494C40.5607 29.4997 40.5627 29.5052 40.566 29.5099C40.5692 29.5146 40.5735 29.5184 40.5785 29.521C40.5836 29.5236 40.5891 29.5249 40.5948 29.5248C43.5394 29.5223 46.448 29.5233 49.3206 29.5276C52.7899 29.5323 55.043 33.1881 53.5112 36.2917C52.9784 37.3706 52.1184 38.1438 50.9313 38.6114C50.8875 38.6289 50.8784 38.6577 50.9041 38.6977ZM39.6932 16.1092C38.8939 14.4655 36.6136 14.2564 35.5984 15.8307C35.3379 16.2351 35.2118 16.6477 35.2199 17.0684C35.2368 17.981 35.2271 18.6486 35.1908 19.0712C34.9992 21.2927 34.204 23.298 32.8053 25.087C31.1786 27.1695 29.0702 28.7766 26.7627 30.0724C23.5779 31.8605 20.0476 33.1169 16.4872 33.9636C16.454 33.9717 16.4374 33.9926 16.4374 34.0264V55.5169C16.4374 55.5308 16.4419 55.5443 16.4504 55.5554C16.4589 55.5664 16.4709 55.5743 16.4844 55.5778C17.9933 55.9779 19.4963 56.3626 20.9933 56.732C22.7233 57.1584 24.4742 57.4293 26.2461 57.545C27.3255 57.6156 28.388 57.6512 29.4337 57.6519C33.6224 57.6531 37.8186 57.6541 42.0223 57.6547C42.4362 57.6553 42.764 57.614 43.0056 57.5309C45.1347 56.7986 45.1357 53.8207 43.0244 53.095C42.7377 52.9968 42.3523 52.9509 41.8683 52.9571C40.8408 52.9709 39.8046 52.9715 38.7596 52.959C37.179 52.9403 37.1828 50.6281 38.7963 50.6224C40.4373 50.6168 42.2621 50.6187 44.2707 50.6281C44.709 50.6299 45.0555 50.5906 45.3104 50.5099C47.4432 49.8386 47.5221 46.8213 45.409 46.074C45.1009 45.9646 44.6683 45.914 44.111 45.9221C43.1437 45.9365 42.1491 45.9384 41.1273 45.9277C39.5185 45.9118 39.5514 43.6015 41.1001 43.594C43.0034 43.584 44.8705 43.584 46.7013 43.594C47.1101 43.5965 47.4467 43.5527 47.7109 43.4627C49.8315 42.7407 49.8278 39.7825 47.7203 39.0286C47.4567 38.9342 47.081 38.8889 46.5933 38.8927C45.6316 38.8989 44.6332 38.903 43.5983 38.9049C43.3766 38.9055 43.1769 38.8727 42.9991 38.8064C42.3529 38.5645 42.0843 37.7938 42.4046 37.1853C42.6572 36.7071 43.0977 36.5514 43.6114 36.5524C45.4966 36.5567 47.3427 36.5589 49.1497 36.5589C49.7461 36.5589 50.3068 36.4258 50.7745 36.0395C51.3536 35.56 51.646 34.9503 51.6517 34.2102C51.6582 33.205 50.9952 32.2946 50.0429 31.9889C49.7749 31.9033 49.4055 31.8608 48.9346 31.8614C44.029 31.8701 39.1115 31.8714 34.1821 31.8651C33.6825 31.8651 33.2561 31.7057 33.0128 31.2379C32.6869 30.6143 32.9706 29.8549 33.6299 29.6036C33.7758 29.5479 34.0415 29.5204 34.4272 29.5211C35.7383 29.5236 36.9154 29.5226 37.9585 29.5183C37.9911 29.5183 38.0136 29.5032 38.0261 29.4732C38.9869 27.2398 39.526 24.9811 39.8068 22.5985C39.9802 21.1283 40.0203 19.3225 39.927 17.1809C39.9082 16.7483 39.8303 16.3911 39.6932 16.1092ZM13.3381 31.9692C13.1791 31.9036 13.0611 31.8708 12.9841 31.8708C9.43711 31.8633 5.90739 31.8642 2.39489 31.8736C2.36484 31.8736 2.34981 31.8886 2.34981 31.9186V57.6265C2.34981 57.6345 2.35298 57.6421 2.35861 57.6478C2.36425 57.6534 2.37189 57.6565 2.37986 57.6565C5.64317 57.6528 9.07084 57.6525 12.6629 57.6556C12.9878 57.6556 13.2473 57.6097 13.4414 57.5178C13.8735 57.3128 14.0895 56.9343 14.0895 56.3823C14.0901 48.8981 14.0901 41.1299 14.0895 33.0775C14.0895 32.5455 13.839 32.1761 13.3381 31.9692Z" fill="white"></path>
    <path d="M28.2054 14.7599H23.4513C22.8268 14.7599 22.3206 15.2654 22.3206 15.8889V15.9657C22.3206 16.5892 22.8268 17.0947 23.4513 17.0947H28.2054C28.8299 17.0947 29.3362 16.5892 29.3362 15.9657V15.8889C29.3362 15.2654 28.8299 14.7599 28.2054 14.7599Z" fill="white"></path>
    <path d="M51.6838 14.7599H46.9315C46.307 14.7599 45.8008 15.2654 45.8008 15.8889V15.9657C45.8008 16.5892 46.307 17.0947 46.9315 17.0947H51.6838C52.3083 17.0947 52.8145 16.5892 52.8145 15.9657V15.8889C52.8145 15.2654 52.3083 14.7599 51.6838 14.7599Z" fill="white"></path>
    <path d="M10.5665 38.8952C11.2123 38.8952 11.7358 38.3725 11.7358 37.7278C11.7358 37.0831 11.2123 36.5605 10.5665 36.5605C9.92078 36.5605 9.39728 37.0831 9.39728 37.7278C9.39728 38.3725 9.92078 38.8952 10.5665 38.8952Z" fill="white"></path>
    <path d="M10.5819 41.2551L10.533 41.2551C9.8992 41.2562 9.38627 41.7701 9.38738 42.4029L9.40382 51.8092C9.40493 52.442 9.91965 52.9541 10.5535 52.953L10.6023 52.9529C11.2362 52.9518 11.7491 52.4379 11.748 51.8051L11.7315 42.3988C11.7304 41.766 11.2157 41.254 10.5819 41.2551Z" fill="white"></path>
</svg>