<svg xmlns="http://www.w3.org/2000/svg" width="40" height="40" fill="none"><path d="M21.98 32.797a.04.04 0 0 0 .021.05.043.043 0 0 0 .02.004c1.348-.03 2.646-.06 3.895-.092.028 0 .042-.014.042-.041-.08-3.78-.167-7.518-.262-11.216-.003-.12.011-.23.043-.331.196-.621 1.154-.637 1.349-.009.035.115.055.247.058.394.099 4.31.2 8.727.306 13.252.031 1.355-.411 2.502-1.328 3.442a4.71 4.71 0 0 1-2.544 1.37c-.305.058-.748.093-1.329.107-5.523.126-9.61.217-12.262.272a4.514 4.514 0 0 1-1.454-.214c-1.83-.576-3.216-2.14-3.373-4.03a15.445 15.445 0 0 1-.047-1.322.072.072 0 0 0-.018-.047.076.076 0 0 0-.045-.025c-.362-.055-.738-.138-1.1-.208-2.654-.508-4.343-2.902-3.874-5.497.095-.523.214-1.146.359-1.869A16154.03 16154.03 0 0 0 3.8 9.913c.292-1.47 1.097-2.647 2.415-3.533 2.484-1.67 4.995-3.355 7.531-5.053a4.314 4.314 0 0 1 1.965-.69c1.253-.12 2.374.223 3.363 1.025a.052.052 0 0 0 .06.007c.821-.385 1.68-.698 2.575-.939 2.546-.686 5.235-.865 7.867-.635 2.533.222 5.064.859 7.235 2.135 1.171.688 2.323 1.724 2.841 2.95 1.128 2.664-.659 4.914-2.89 6.227a13.86 13.86 0 0 1-3.175 1.358c-2.5.727-5.137.961-7.734.791a.06.06 0 0 0-.041.013.056.056 0 0 0-.02.036 9.075 9.075 0 0 1-.094.567 8640.894 8640.894 0 0 0-3.24 16.33 97.574 97.574 0 0 1-.478 2.295Zm12.683-30.06a15.945 15.945 0 0 0-2.755-.86c-2.38-.516-4.833-.611-7.361-.286a16.938 16.938 0 0 0-4.458 1.185.059.059 0 0 0-.033.036.056.056 0 0 0 .008.048l4.796 7.045c.466.683.767 1.418.904 2.205.002.01.007.019.015.025.007.007.017.01.027.011 2.473.177 4.98-.04 7.327-.73 1.376-.406 2.773-1.019 3.86-1.894 1.405-1.13 2.124-2.708 1.019-4.356-.737-1.098-2.073-1.897-3.349-2.428ZM24.328 13.405c-2.612-.344-5.153-1.126-7.198-2.655a.073.073 0 0 0-.08-.008c-2.116.994-4.654-.39-4.786-2.71-.138-2.436 2.42-4.182 4.732-3.13 1.938.881 2.483 3.204 1.268 4.86-.015.021-.013.04.007.055.066.054.136.104.21.151 1.68 1.08 3.696 1.68 5.739 1.999.026.004.035-.006.028-.031a4.34 4.34 0 0 0-.591-1.26c-1.547-2.26-3.101-4.546-4.663-6.857-.343-.508-.615-.853-.815-1.035-.97-.884-2.521-1.036-3.597-.313-2.455 1.648-4.84 3.246-7.156 4.794-.525.35-.895.633-1.112.848a3.948 3.948 0 0 0-1.099 2.08C4.118 15.7 3.023 21.21 1.928 26.716a.05.05 0 0 0 .008.039.053.053 0 0 0 .034.021c6.307 1.186 12.603 2.368 18.887 3.546.043.008.087.014.133.017.015 0 .025-.007.027-.022a6936.456 6936.456 0 0 0 3.31-16.672c.013-.064.025-.13.036-.197a.04.04 0 0 0-.008-.03.041.041 0 0 0-.027-.015Zm-9.432-7.28c-1.247.49-1.59 1.999-.7 2.946.432.462 1.009.657 1.728.587.036-.003.042-.019.02-.046-.835-1.035-1.225-2.21-1.025-3.469a.016.016 0 0 0-.006-.016.018.018 0 0 0-.017-.002Zm2.302 2.678c.545-.968.254-2.062-.743-2.602a.062.062 0 0 0-.053-.002.059.059 0 0 0-.022.016.055.055 0 0 0-.011.024c-.204.939.137 1.85.77 2.57a.036.036 0 0 0 .031.012.037.037 0 0 0 .028-.018Zm3.198 24.295c.183-.422.244-.886.339-1.336a.027.027 0 0 0-.005-.02.03.03 0 0 0-.018-.012L1.693 28.152c-.039-.007-.062.008-.068.046-.04.23-.08.46-.124.69a3.315 3.315 0 0 0 2.68 3.882c4.014.753 7.97 1.498 11.867 2.235.616.117 1.066.168 1.35.153 1.355-.07 2.47-.845 2.998-2.061Zm.99 1.21a4.892 4.892 0 0 1-4.305 2.255c-.3-.01-.729-.068-1.287-.174-2.903-.551-5.764-1.092-8.583-1.622-.21-.04-.417-.074-.621-.105-.028-.005-.04.007-.038.034.014.19.022.385.022.583.003 1.175.602 2.198 1.607 2.817.651.4 1.322.519 2.126.5l12.272-.28c1.25-.03 2.211-.532 2.884-1.506a3.232 3.232 0 0 0 .551-1.871 25.12 25.12 0 0 0-.018-.74c0-.025-.014-.037-.038-.036l-4.498.104a.09.09 0 0 0-.075.041Z" fill="#6E7E44"/><path d="M16.773 22.283a.041.041 0 0 0-.018.017.037.037 0 0 0-.005.024c.102.828.223 1.774.363 2.838.047.358.044.628-.009.808a1.535 1.535 0 0 1-2.15.952c-.178-.085-.442-.313-.791-.684-.627-.667-1.231-1.297-1.812-1.89a.082.082 0 0 0-.094-.017c-.842.38-1.726.783-2.65 1.208-.338.156-.605.235-.802.239-.99.02-1.714-.782-1.57-1.72.03-.189.165-.488.405-.898.441-.753.872-1.511 1.293-2.273a.095.095 0 0 0-.015-.112 256.943 256.943 0 0 0-1.952-2.026c-.244-.25-.405-.459-.485-.625-.426-.888.206-1.965 1.203-2.076.172-.019.433.005.784.073.911.177 1.848.354 2.812.532a.087.087 0 0 0 .052-.006.083.083 0 0 0 .038-.035l1.52-2.672c.386-.676 1.136-.956 1.88-.695.685.24.933.778 1.016 1.475.108.916.224 1.84.348 2.771.007.054.038.085.092.096.956.176 1.966.365 3.032.566.532.101.908.364 1.128.79.355.688.132 1.53-.558 1.925a5.723 5.723 0 0 1-.52.261c-.866.386-1.71.77-2.535 1.154Zm-1.342-.524c.203-.466.553-.683 1.015-.887.87-.385 1.743-.782 2.62-1.19a.065.065 0 0 0 .037-.048c.008-.047 0-.073-.025-.078a79.445 79.445 0 0 0-2.514-.474c-.564-.097-.947-.204-1.15-.321-.41-.237-.649-.622-.72-1.157-.134-1.024-.261-2.02-.38-2.988a.074.074 0 0 0-.011-.032.078.078 0 0 0-.026-.023c-.043-.024-.073-.021-.09.009-.525.902-1 1.736-1.426 2.501-.45.812-1.017 1.111-1.971.925a232.56 232.56 0 0 0-2.897-.546.134.134 0 0 0-.084.01.05.05 0 0 0-.028.036.049.049 0 0 0 .012.043c.549.59 1.136 1.2 1.762 1.832.405.408.65.718.736.932.172.43.134.865-.115 1.304l-1.503 2.647a.082.082 0 0 0-.009.064c.014.056.048.072.1.047.868-.386 1.772-.798 2.71-1.234.713-.332 1.405-.294 1.974.299.714.744 1.427 1.486 2.138 2.224a.075.075 0 0 0 .103.003.053.053 0 0 0 .019-.049 727.445 727.445 0 0 0-.389-3.097 1.41 1.41 0 0 1 .112-.752Z" fill="#6E7E44"/></svg>