<svg xmlns="http://www.w3.org/2000/svg" width="82" height="48" fill="none"><path d="M60.726 5.348c-1.364-3.517 2.337-6.695 5.53-4.705.522.326 1.024.9 1.507 1.72.541.923.962 1.775 1.262 2.556.023.06.043.058.06-.004.206-.767.649-1.401 1.33-1.9 2.155-1.581 5.216-.222 5.524 2.46.822 7.156 1.046 14.5.673 22.032-.077 1.573.29 2.996 1.104 4.27.358.559.956 1.236 1.793 2.031a81.289 81.289 0 0 1 2.162 2.134c.846.866-.077 2.33-1.218 1.876-.23-.09-.46-.258-.692-.503a74.263 74.263 0 0 0-2.226-2.24c-1.727-1.66-2.87-3.533-3.188-5.915-.068-.512-.084-1.286-.046-2.322.028-.773.054-1.546.079-2.319a130.17 130.17 0 0 0-.715-18.507c-.055-.491-.15-.821-.285-.99a1.175 1.175 0 0 0-1.855.015c-.109.144-.194.365-.256.664a286.709 286.709 0 0 0-.772 3.868 2.313 2.313 0 0 0-.043.735c.222 1.754.244 3.703.065 5.848-.142 1.702-2.478 1.45-2.305-.215.479-4.6-.295-9.113-2.793-12.96-.933-1.437-3.152-.356-2.57 1.27.744 2.068 1.207 4.13 1.517 6.28.047.317.123.628.23.934.5 1.418.797 3.067.89 4.947.085 1.651-2.3 1.732-2.348.113-.042-1.443-.248-3.043-.797-4.361-.194-.464-.337-.942-.553-1.395-1.71-3.587-5.092-6.055-8.853-7.375-.944-.33-1.813.343-1.786 1.322.017.657.471 1.047 1.056 1.287 3.638 1.49 6.675 4.28 7.767 8.055.191.659.287 1.264.287 1.816 0 .534-.253.904-.757 1.108-.56.227-1.087-.037-1.435-.496-1.932-2.551-5.008-3.42-8.16-3.437-1.048-.006-1.946.38-2.863.822a17.957 17.957 0 0 0-4.61 3.203.184.184 0 0 0-.05.175c.107.416.131.839.073 1.27a.337.337 0 0 0 .137.32c.432.313.915.303 1.387.045.768-.42 1.532-.845 2.295-1.276.87-.493 1.596-.82 2.178-.982 2.391-.665 4.74-.111 6.67 1.435 2.875 2.301 3.86 5.684 3.43 9.298-.23 1.943-.606 3.67-1.823 5.225-2.108 2.698-4.748 4.67-7.922 5.916-1.873.735-3.529 1.576-4.966 2.523-.548.362-1.094.786-1.495 1.29a.838.838 0 0 0-.18.498c-.013.292.014.514.079.667.297.701.832.975 1.604.822 2.507-.5 4.835-1.11 6.985-1.829.82-.274 1.613-.527 2.38-.759 3.852-1.164 7.77-1.248 11.752-.25 2.632.658 4.89 2.108 6.496 4.393.486.693.595 1.496-.218 1.998-.498.307-1.142.124-1.455-.338a16.926 16.926 0 0 0-.618-.852c-1.309-1.7-3.478-2.71-5.576-3.121a20.498 20.498 0 0 0-9.155.26c-.337.087-1.2.367-2.59.839-2.128.721-4.607 1.383-7.436 1.983-1.272.27-2.391-.01-3.357-.838-.04-.034-.078-.034-.117 0-.954.827-2.075 1.105-3.36.834a68.905 68.905 0 0 1-8.424-2.32 20.684 20.684 0 0 0-10.563-.807c-2.521.456-4.935 1.671-6.278 3.842-.124.2-.281.364-.473.492-.813.545-1.948-.27-1.705-1.215.067-.262.189-.52.367-.777 1.959-2.83 4.951-4.236 8.287-4.763 3.812-.6 7.504-.275 11.076.977 2.596.91 5.396 1.673 8.399 2.29.203.041.404.033.601-.023.77-.222 1.084-.797.94-1.727-.059-.38-.916-1.058-1.227-1.28-1.718-1.22-3.636-2.111-5.643-2.92-3.421-1.377-6.289-3.734-8.352-6.802-.302-.451-.594-1.23-.747-1.821-.539-2.077-.74-4.187-.329-6.294.883-4.513 5.106-8.11 9.78-6.95.673.168 1.468.516 2.387 1.045.824.474 1.659.936 2.503 1.387.456.242.916.178 1.383-.195a.143.143 0 0 0 .053-.135 3.87 3.87 0 0 1 .035-1.38.21.21 0 0 0-.066-.211 18.36 18.36 0 0 0-5.377-3.529c-.61-.26-1.18-.41-1.708-.446-2.219-.151-4.55.269-6.419 1.47-.896.577-1.56 1.27-2.208 2.086-.337.427-.943.581-1.432.32-.51-.27-.723-.743-.642-1.419.543-4.468 3.972-7.812 7.962-9.469.407-.169.69-.352.85-.55.511-.632.368-1.502-.283-1.97-.602-.433-1.157-.147-1.766.082-2.376.892-4.606 2.326-6.3 4.193-2.083 2.299-3.23 5.358-3.32 8.42-.01.373-.067.661-.172.865-.436.853-1.731.828-2.101-.101-.076-.19-.107-.4-.092-.629.1-1.666.308-3.01.627-4.035.224-.721.357-1.241.4-1.561.201-1.532.518-3.075.952-4.63.082-.296.268-.855.558-1.679.138-.394.178-.732.12-1.014-.235-1.132-1.792-1.537-2.492-.625a9.01 9.01 0 0 0-.616.923c-2.138 3.635-2.782 7.944-2.321 12.188.184 1.7-2.187 1.926-2.356.286-.201-1.964-.173-4.043.084-6.236.015-.124-.027-.409-.123-.855-.21-.964-.415-1.966-.613-3.006-.095-.506-.219-.843-.37-1.012-.674-.75-1.93-.393-2.046.649-.796 7.15-1.024 14.124-.684 20.922.053 1.058.038 1.921-.045 2.59-.189 1.508-.734 2.903-1.637 4.185-.405.575-1.01 1.24-1.814 1.996-.709.667-1.45 1.378-2.225 2.132-.288.28-.639.375-1.052.284-.941-.21-1.236-1.36-.555-2.022a235.912 235.912 0 0 0 2.925-2.887c1.497-1.507 2.191-3.373 2.082-5.598-.368-7.453-.142-14.77.676-21.95.222-1.95 1.956-3.268 3.866-3.078 1.4.139 2.486 1.106 2.99 2.448.035.094.064.092.087-.005.022-.095.05-.183.084-.262a20.21 20.21 0 0 1 .85-1.704c.671-1.21 1.296-2.142 2.614-2.59 2.902-.984 5.663 1.712 4.839 4.66-.062.219-.132.43-.21.636-.034.089-.017.1.05.033 1.697-1.663 3.842-3.013 6.435-4.05.63-.251 1.142-.397 1.536-.438 3.75-.392 5.534 4.365 2.574 6.629-.29.222-.665.425-1.123.606-1.934.767-3.616 2.07-4.957 3.724-.104.128-.082.157.066.087a13.797 13.797 0 0 1 6.033-1.33c.898.003 1.66.104 2.288.3 2.458.772 4.942 2.297 6.855 4.057.046.042.092.041.138-.001a20.235 20.235 0 0 1 5.9-3.809c.699-.294 1.389-.533 2.169-.594 2.48-.193 4.852.292 7.101 1.364.127.06.147.034.06-.077-1.051-1.329-2.373-2.41-3.964-3.246-.704-.37-1.505-.584-2.13-1.068-1.295-1.006-1.803-2.687-1.226-4.236.529-1.42 1.889-2.39 3.367-2.436.566-.018 1.31.159 2.234.531 2.304.931 4.339 2.207 6.105 3.828.052.047.065.038.04-.028ZM36.99 21.021c-.825-.466-1.645-.924-2.46-1.373-.72-.397-1.215-.636-1.486-.716-1.715-.505-3.292-.198-4.734.923-1.299 1.01-2.122 2.294-2.47 3.85-.384 1.72-.21 3.773.273 5.555.165.612.471 1.21.918 1.793a15.864 15.864 0 0 0 5.985 4.798c.288.133.968.418 2.04.855a27.45 27.45 0 0 1 2.663 1.281c1.389.751 2.473 1.518 3.254 2.3.043.044.087.044.132.002a11.977 11.977 0 0 1 1.82-1.433c1.461-.928 3.124-1.756 4.988-2.482 2.877-1.12 5.255-2.923 7.134-5.407.674-.893.944-1.894 1.12-3.034.467-3.043.152-6.029-2.41-8.05-1.39-1.094-2.945-1.5-4.62-1.042-.37.1-.916.35-1.641.75-.695.385-1.376.77-2.045 1.157-.763.441-1.338.695-1.724.764-.939.166-1.806-.02-2.603-.56a.105.105 0 0 0-.122 0c-.793.575-1.69.776-2.694.605-.353-.06-.793-.239-1.318-.536Z" fill="#fff"/></svg>