<svg xmlns="http://www.w3.org/2000/svg" width="54" height="60" fill="none"><path d="M37.605 0h-.073c-.626 0-1.134.507-1.134 1.132v5.447c0 .625.508 1.132 1.134 1.132h.073c.626 0 1.134-.507 1.134-1.132V1.132C38.739.507 38.23 0 37.605 0ZM26.806 5.143l-.04.04a1.14 1.14 0 0 0 0 1.613l3.348 3.342c.446.445 1.17.445 1.616 0l.04-.04a1.14 1.14 0 0 0 0-1.614l-3.347-3.341a1.144 1.144 0 0 0-1.616 0ZM46.717 5.14l-3.348 3.344a1.14 1.14 0 0 0 0 1.614l.04.04c.446.445 1.17.445 1.616 0l3.348-3.344a1.14 1.14 0 0 0 0-1.613l-.04-.04a1.144 1.144 0 0 0-1.616 0ZM50.904 38.698a4.684 4.684 0 0 1 .286 4.572c-.556 1.137-1.435 1.933-2.638 2.386a.021.021 0 0 0-.007.004.02.02 0 0 0-.005.008v.009a4.705 4.705 0 0 1-2.316 7.005c-.036.012-.043.034-.023.066 1.463 2.33.732 5.27-1.633 6.638-.855.495-1.71.616-2.736.615-4.16-.005-8.258-.007-12.295-.004a51.514 51.514 0 0 1-4.013-.156c-2.11-.162-4.124-.568-6.316-1.135a975.64 975.64 0 0 1-3.021-.789c-.033-.008-.057.003-.072.033-.5 1.001-1.271 1.645-2.315 1.931-.285.079-.802.117-1.55.117-3.511-.002-7.002-.002-10.472 0-.57 0-.922-.03-1.054-.09-.443-.206-.722-.609-.722-1.085.002-9.428.002-18.797-.002-28.11 0-.718.58-1.198 1.267-1.196 3.586.014 7.173.013 10.76-.003.852-.004 1.438.037 1.756.12 1.058.28 1.84.936 2.347 1.968.005.01.012.017.022.021.01.005.02.006.03.003 3.052-.775 6.042-1.814 8.762-3.23 3.64-1.891 7.596-5.025 7.897-9.463.057-.84-.04-1.848.094-2.588.313-1.733 1.494-3.143 3.158-3.691a4.689 4.689 0 0 1 5.895 2.892c.164.463.264 1.014.3 1.654.238 4.2-.246 8.405-1.726 12.277a.035.035 0 0 0-.002.017.035.035 0 0 0 .018.027c.006.003.011.004.017.004 2.944-.003 5.853-.002 8.726.003 3.469.004 5.722 3.66 4.19 6.764-.533 1.079-1.393 1.852-2.58 2.32-.043.017-.053.046-.027.086Zm-11.21-22.589c-.8-1.644-3.08-1.853-4.096-.278-.26.404-.386.817-.378 1.237.017.913.007 1.58-.03 2.003-.19 2.222-.986 4.227-2.385 6.016-1.626 2.082-3.735 3.69-6.042 4.985-3.185 1.788-6.715 3.045-10.276 3.892-.033.008-.05.029-.05.062v21.49a.063.063 0 0 0 .047.062c1.51.4 3.012.785 4.51 1.154 1.73.426 3.48.697 5.252.813 1.08.07 2.142.106 3.188.107l12.588.003c.414 0 .742-.041.984-.124 2.129-.732 2.13-3.71.018-4.436-.286-.098-.672-.144-1.156-.138-1.027.014-2.063.014-3.108.002-1.581-.019-1.577-2.33.036-2.337 1.641-.005 3.466-.003 5.475.006.438.002.785-.037 1.04-.118 2.132-.671 2.211-3.689.098-4.436-.308-.11-.74-.16-1.298-.152-.967.015-1.962.016-2.984.006-1.608-.016-1.576-2.326-.027-2.334 1.903-.01 3.77-.01 5.601 0 .41.002.746-.041 1.01-.131 2.12-.722 2.117-3.68.01-4.434-.264-.095-.64-.14-1.128-.136-.961.006-1.96.01-2.995.012-.221 0-.421-.032-.599-.099-.646-.241-.915-1.012-.594-1.62.252-.479.693-.635 1.206-.634 1.886.005 3.732.007 5.539.007.596 0 1.157-.133 1.625-.52.579-.479.871-1.089.877-1.829a2.335 2.335 0 0 0-1.61-2.221c-.267-.086-.636-.128-1.107-.128-4.906.01-9.824.01-14.753.004-.5 0-.926-.16-1.17-.627a1.163 1.163 0 0 1 .618-1.634c.146-.056.411-.084.797-.083 1.311.003 2.488.002 3.532-.003a.068.068 0 0 0 .067-.045c.96-2.233 1.5-4.492 1.78-6.874.174-1.47.214-3.276.121-5.418-.019-.433-.097-.79-.234-1.072ZM13.337 31.97c-.159-.065-.277-.098-.354-.098-3.547-.008-7.077-.007-10.59.003-.03 0-.044.015-.044.045v25.707a.03.03 0 0 0 .03.03c3.263-.003 6.69-.004 10.283 0 .325 0 .584-.046.778-.138.432-.205.648-.584.648-1.136V33.078c0-.533-.25-.902-.75-1.109Z" fill="#fff"/><path d="M28.205 14.76h-4.754a1.13 1.13 0 0 0-1.13 1.129v.077a1.13 1.13 0 0 0 1.13 1.129h4.754a1.13 1.13 0 0 0 1.131-1.13v-.076a1.13 1.13 0 0 0-1.13-1.13ZM51.684 14.76h-4.752a1.13 1.13 0 0 0-1.131 1.129v.077a1.13 1.13 0 0 0 1.13 1.129h4.753a1.13 1.13 0 0 0 1.13-1.13v-.076a1.13 1.13 0 0 0-1.13-1.13ZM10.566 38.895a1.168 1.168 0 1 0 .002-2.337 1.168 1.168 0 0 0-.002 2.337ZM10.582 41.255h-.049a1.147 1.147 0 0 0-1.146 1.148l.017 9.406a1.147 1.147 0 0 0 1.15 1.144h.048a1.147 1.147 0 0 0 1.146-1.148l-.016-9.406a1.147 1.147 0 0 0-1.15-1.144Z" fill="#fff"/></svg>