<svg xmlns="http://www.w3.org/2000/svg" width="252" height="177" fill="none"><path d="M122.66 31.078c.535-10.149.45-19.682-.256-28.601a1.608 1.608 0 0 1 .895-1.573c.193-.096.404-.152.619-.166l.249-.014c1.256-.09 1.948.485 2.076 1.725 1.014 9.763.981 19.412-.1 28.946-.109.957-.649 1.42-1.621 1.387l-.298-.014a1.623 1.623 0 0 1-1.143-.518 1.586 1.586 0 0 1-.421-1.172ZM148.812 11.601l-.433-.177a1.648 1.648 0 0 0-2.146.88l-8.129 19.437c-.347.83.051 1.782.889 2.126l.433.177a1.648 1.648 0 0 0 2.146-.88l8.129-19.437a1.621 1.621 0 0 0-.889-2.126ZM97.4 12.738l-.065.03a1.873 1.873 0 0 0-.926 2.495l7.687 16.478a1.906 1.906 0 0 0 2.519.918l.065-.03a1.874 1.874 0 0 0 .927-2.495l-7.688-16.478a1.906 1.906 0 0 0-2.52-.918Z" fill="#6E7E44"/><path d="M48.724 123.669c-.228-.188-.37-.136-.427.155-.308 1.619-1.3 2.126-2.978 1.521-2.294-.826-4.54-1.631-6.74-2.415a.227.227 0 0 0-.212.031.24.24 0 0 0-.1.194l.092 7.647a1.229 1.229 0 0 1-.412.941c-.132.119-.289.209-.46.264-.17.055-.35.074-.529.055a428.734 428.734 0 0 1-13.536-1.732c-8.047-1.164-15.303-2.394-21.768-3.69-1.161-.234-1.711-.936-1.65-2.105.024-.46.252-.88.683-1.26a1.538 1.538 0 0 1 1.258-.352l31.95 5.316a.675.675 0 0 0 .538-.148.654.654 0 0 0 .229-.5c-.178-13.533-.12-26.89 1.337-40.423a198.624 198.624 0 0 1 8.388-39.558.513.513 0 0 0-.284-.626c-8.427-3.591-16.46-7.471-24.1-11.64-.16-.088-.304-.2-.427-.33-1.019-1.085-1.3-1.948-.846-2.591.735-1.047 1.666-1.266 2.794-.655 8.005 4.351 16.71 8.555 26.112 12.61 2.211.951.853 3.627.142 5.12a.46.46 0 0 0 .214.612c4.35 2.202 8.718 4.41 13.102 6.626 1.62.816 2.68 1.626 1.457 3.47a.575.575 0 0 0 .075.73c.063.065.14.113.224.144 1.028.366 2.095.594 3.199.683 5.097.408 10.187.31 15.413-.465 6.597-.98 12.929-1.673 18.995-2.077 8.162-.535 15.946.289 21.961 5.59a.827.827 0 0 0 .388.191.857.857 0 0 0 .436-.028c7.28-2.486 14.61-4.063 22.103-3.753 4.564.19 8.758 1.64 13.038 2.443 5.73 1.085 11.323 1.667 16.778 1.746 4.386.064 10.536-3.365 14.318-5.654.327-.202.417-.478.27-.83l-.654-1.529a1.715 1.715 0 0 1-.029-1.264c.151-.41.454-.748.846-.946l13.934-7.063a.604.604 0 0 0 .299-.725l-1.01-3.147a.88.88 0 0 1 .064-.697c.327-.62.82-1.073 1.479-1.36a353.001 353.001 0 0 0 25.927-12.526c1.147-.61 2.06-.366 2.737.733.375.61.097 1.436-.831 2.478-.179.2-.391.367-.626.493-7.375 4-15.387 7.872-24.036 11.618a.427.427 0 0 0-.242.528c5.678 17.655 8.86 36.185 9.548 55.59.142 4.037.263 8.177.362 12.421.1 4.084-.277 8.153-.064 12.153a.422.422 0 0 0 .162.312.434.434 0 0 0 .343.089l31.821-5.133c1.18-.188 1.907.293 2.182 1.443.033.137.045.275.036.416-.071.99-.6 1.582-1.586 1.774-10.644 2.052-22.126 3.885-34.444 5.499-1.654.216-2.471-.485-2.452-2.105.019-2.108.123-4.248.313-6.421a.45.45 0 0 0-.397-.488.458.458 0 0 0-.229.03c-2.047.835-4.332 1.615-6.853 2.338-3.683 1.056-2.481-3.852-2.474-5.521 0-.286-.14-.396-.42-.331l-7.329 1.718a1.298 1.298 0 0 0-.903.782c-1.886 4.741-5.067 8.576-9.541 11.505-.256.164-.303.378-.142.641 1.057 1.713 1.73 3.398 2.019 5.056 1.223 6.921-8.922 8.759-13.543 8.688-.298-.004-.422.139-.37.43 1.515 8.562-5.09 14.399-13.208 14.709a.686.686 0 0 0-.619.38c-3.078 5.584-9.661 9.837-16.422 8.527-.289-.056-.514.037-.675.281-7.877 12.132-23.077 4.282-32.212-1.035a.961.961 0 0 0-1.01.029c-3.782 2.478-6.618 3.999-11.495 2.901-4.389-.991-7.486-3.16-9.292-6.506a.628.628 0 0 0-.668-.31c-2.225.45-4.23.584-6.47-.028-4.962-1.366-7.614-5.633-6.426-10.738a.385.385 0 0 0-.248-.452.394.394 0 0 0-.186-.02c-2.659.343-4.782-.141-6.37-1.45-3.592-2.962-5.41-6.596-5.453-10.9 0-.286-.137-.47-.412-.549-5.133-1.507-11.097-6.809-8.453-12.66.142-.315.076-.582-.199-.803l-5.104-4.112Zm165.175-5.506c.024.005.05.003.074-.004a.148.148 0 0 0 .064-.037.142.142 0 0 0 .04-.062.164.164 0 0 0 .007-.073 46.781 46.781 0 0 1-.463-5.971c-.17-20.406-2.353-40.677-8.026-59.99a.334.334 0 0 0-.476-.204l-11.417 5.794a.327.327 0 0 0-.166.19.339.339 0 0 0 .016.253c6.323 13.233 10.64 26.715 12.953 40.445 1.067 6.327 1.448 12.97 1.145 19.926a.504.504 0 0 0 .227.44.52.52 0 0 0 .498.039c1.82-.812 3.661-1.061 5.524-.746Zm-175.853 1.619a.486.486 0 0 0 .203.401.48.48 0 0 0 .444.057c1.194-.451 3.853.401 5.254.641a.38.38 0 0 0 .447-.388c-.322-12.585 1.368-24.97 5.07-37.156a168.55 168.55 0 0 1 8.971-23.2.363.363 0 0 0-.163-.48l-11.41-5.773a.287.287 0 0 0-.254-.005.314.314 0 0 0-.173.195c-6.214 21.624-7.963 43.226-8.39 65.708Zm85.445 51.189c5.325 2.606 11.595 3.225 15.576-2.035.143-.192.128-.37-.042-.535a9.76 9.76 0 0 0-3.036-2.02l-4.855-3.641c-.683-.516-.913-1.183-.69-1.999.081-.287.218-.514.412-.683.882-.756 1.801-.803 2.759-.141l6.505 4.485c3.398 2.248 6.673 2.666 9.824 1.253 3.024-1.356 5.084-3.464 6.178-6.323-4.052-3.239-8.564-7.099-13.536-11.582-.464-.413-.511-1.099-.142-2.056.228-.601.934-.841 2.119-.719.421.042.818.212 1.137.486 3.915 3.352 7.775 6.645 11.581 9.879 2.048 1.739 4.578 2.31 7.102 1.113 4.387-2.071 6.747-5.619 5.09-10.52-.317-.943-.912-1.741-1.784-2.394a1060.654 1060.654 0 0 1-15.285-11.632c-.834-.648-1.05-1.457-.647-2.429.223-.545.868-.85 1.934-.915.434-.032.865.098 1.209.366a1024.349 1024.349 0 0 0 14.893 11.322c3.399 2.528 6.647 2.154 10.501.852 1.99-.669 4.173-1.613 3.17-4.232-.715-1.859-1.682-3.675-2.9-5.45a76.387 76.387 0 0 0-15.605-16.673 173.668 173.668 0 0 0-26.197-17.153c-1.379-.736-2.361-1.13-2.943-1.182-1.659-1.244-3.32-2.223-4.984-2.937-6.519-2.788-17.538.803-23.098 4.303-4.891 3.084-9.135 5.419-12.732 7.006-2.574.431-4.745.621-6.512.57-1.972-.061-3.83-.747-5.574-2.056-4.593-3.457-2.794-9.886.42-13.449a34.999 34.999 0 0 1 4.201-3.922c10.45-8.299 20.733-14.643 30.847-19.032a.27.27 0 0 0 .166-.232.27.27 0 0 0-.131-.254c-3.872-2.366-8.208-3.53-13.009-3.492-9.129.063-18.769 1.69-27.925 2.647-3.517.371-7.363.38-11.538.028-1.702-.145-3.283-.542-4.742-1.19-.28-.122-.481-.044-.605.233-5.824 13.03-9.8 26.343-11.929 39.937-.65 4.159-.836 8.471-.562 12.935a1.497 1.497 0 0 0 .555 1.07l8.083 6.598c.346.286.737.373 1.173.26 7.015-1.755 12.145.728 15.392 7.45.104.216.267.279.49.19 2.521-1.009 5.22-1.505 8.097-1.486 5.823.035 11.283 3.394 10.408 9.703a.21.21 0 0 0 .079.192.222.222 0 0 0 .098.043.207.207 0 0 0 .108-.01c4.756-1.823 10.457-2.478 14.31 1.275 2.361 2.295 1.984 5.266.527 7.9-.143.263-.064.392.234.387 5.446-.035 10.707 3.76 9.391 9.682-.469 2.089-1.604 3.849-3.405 5.281a.342.342 0 0 0-.105.136.346.346 0 0 0 .155.448 56.544 56.544 0 0 0 9.789 4.344Zm32.774-67.531c2.587 1.788 6.587 4.811 12 9.069 5.701 4.483 10.498 9.634 14.389 15.455a.9.9 0 0 0 .59.388c.12.023.243.021.363-.005a.912.912 0 0 0 .334-.144c3.843-2.656 6.533-6.203 8.069-10.639.132-.385.331-.692.597-.922.331-.291.64-.507.924-.648l10.081-2.422a.344.344 0 0 0 .193-.124.364.364 0 0 0 .077-.221 85.935 85.935 0 0 0-1.187-13.956c-2.09-12.355-5.735-24.308-10.934-35.86a.442.442 0 0 0-.462-.253.455.455 0 0 0-.178.063c-3.024 1.873-6.486 3.562-10.387 5.07-1.72.666-3.267 1-4.642 1-7.912 0-16.131-1.1-24.129-3.148-12.341-3.162-25.486.823-36.832 6.513-9.247 4.637-18.297 10.634-27.15 17.99-2.19 1.817-4.742 5.26-3.711 8.118.56 1.54 1.791 2.408 3.697 2.606 7.805.816 13.706-4.781 20.055-8.119 5.592-2.934 11.663-4.448 18.213-4.541 2.242-.033 3.972.23 5.19.788 7.759 3.572 16.038 8.22 24.84 13.942Zm-87.057 32.193c.431-.978.232-2.18-.553-3.342s-2.091-2.19-3.633-2.857a9.603 9.603 0 0 0-2.347-.682 7.346 7.346 0 0 0-2.238-.017c-.69.109-1.297.33-1.786.65-.49.321-.851.735-1.065 1.219-.43.977-.232 2.179.553 3.341.785 1.163 2.092 2.19 3.633 2.857a9.56 9.56 0 0 0 2.348.682c.786.12 1.547.126 2.237.017.69-.108 1.298-.329 1.787-.65.49-.321.85-.735 1.064-1.218Zm-1.31 5.604c-.915-.047-1.302.469-1.16 1.549.294 2.272 1.446 4.438 3.456 6.499 2.154 2.211 7.372.619 9.569-.662 3.407-.775 5.967-2.549 7.677-5.323 1.546-2.512 1.467-4.551-.234-6.119-3.256-2.993-9.619-1.789-13.173-.099-.825.39-1.865 1.19-3.121 2.401-.45.437-1.455 1.021-3.015 1.754Zm12.739 11.519c-2.445 2.755-2.737 5.138-.874 7.147 4.77 5.147 13.06-.345 17.012-3.901 3.118-1.854 5.652-4.474 7.6-7.858.663-1.155.5-2.098-.491-2.831-1.867-1.38-4.138-1.748-6.81-1.105-4.543 1.098-7.536 2.964-11.084 5.964-.63.535-2.414 1.396-5.353 2.584Zm16.408 8.161-4.4 2.598c-.47.277-.546.636-.228 1.077 1.317 1.84 3.216 3.054 5.694 3.64 3.365.798 6.185.242 8.46-1.668 1.195-.648 2.749-1.824 4.664-3.528 1.912-1.697 3.391-4.872.86-6.633-1.934-1.338-3.519-1.859-5.972-1.211-3.476.923-5.516 2.88-9.078 5.725Z" fill="#6E7E44"/><path d="M135.819 96.413c-6.28-.023-12.204.784-17.773 2.422-3.903 1.148-7.82 3.894-11.076 5.197-3.958 1.586-7.946 1.837-11.965.753 3.597-1.586 7.841-3.922 12.732-7.006 5.56-3.5 16.579-7.09 23.098-4.302 1.664.713 3.325 1.692 4.984 2.936ZM193.531 115.995c-.284.14-.592.356-.924.647-.266.23-.465.538-.597.923-1.536 4.436-4.226 7.982-8.069 10.639a.943.943 0 0 1-.697.149.9.9 0 0 1-.59-.388c-3.891-5.821-8.687-10.973-14.389-15.456-5.413-4.257-9.413-7.28-12-9.069 6.052-1.061 10.298-2.211 12.739-3.45a186.316 186.316 0 0 0 6.448-3.43 1.11 1.11 0 0 1 .851-.096 1.115 1.115 0 0 1 .671.534c.35.638.244 1.227-.32 1.767-2.441 2.337-4.74 5.013-6.896 8.027-.555.781-.974 1.676-.32 2.563 2.545 3.457 6.178 6.365 9.441 9.097 2.254 1.887 4.287 1.443 6.334-.338 1.948-1.69 4.188-3.788 6.733-4.359a.671.671 0 0 1 .639.169c.436.404.752 1.094.946 2.071Z" fill="#A2AC87"/><path d="M20.43 115.623c-1.642 1.028-3.659 1.321-5.606.816-1.947-.506-3.666-1.769-4.778-3.511-1.112-1.743-1.527-3.823-1.153-5.782.374-1.959 1.507-3.637 3.148-4.664 1.642-1.028 3.658-1.322 5.605-.816 1.948.505 3.666 1.768 4.779 3.511 1.112 1.743 1.527 3.822 1.152 5.781-.374 1.959-1.506 3.637-3.148 4.665Zm-1.98-3.328c.376-.248.691-.578.928-.971.237-.393.391-.842.453-1.32a3.957 3.957 0 0 0-.09-1.466 4.452 4.452 0 0 0-1.678-2.493c-.41-.3-.863-.52-1.333-.647a3.495 3.495 0 0 0-1.404-.093 3.04 3.04 0 0 0-2.191 1.448 3.395 3.395 0 0 0-.453 1.319c-.063.478-.032.976.09 1.467a4.435 4.435 0 0 0 1.678 2.492c.411.301.864.52 1.333.647.47.127.947.159 1.404.093a3.07 3.07 0 0 0 1.263-.476Z" fill="#6E7E44"/><path d="M13.394 110.928c1.21 1.799 3.474 2.41 5.055 1.366 1.581-1.044 1.881-3.349.67-5.148-1.211-1.798-3.475-2.41-5.056-1.366-1.58 1.044-1.88 3.349-.67 5.148ZM61.773 136.803c3.209 1.388 6.538.865 7.436-1.17.897-2.035-.977-4.81-4.186-6.199-3.21-1.388-6.539-.865-7.436 1.17-.898 2.035.976 4.81 4.186 6.199ZM79.763 148.623c-2.147-.352-4.543-.493-6.349-1.542-1.82-1.061-3.156-2.596-4.01-4.605a1.197 1.197 0 0 0-.447-.542l-1.06-.697c1.56-.732 2.564-1.317 3.015-1.753 1.256-1.211 2.296-2.012 3.12-2.401 3.555-1.69 9.918-2.894 13.174.098 1.701 1.568 1.78 3.608.235 6.119-1.711 2.774-4.27 4.549-7.678 5.323Z" fill="#fff"/><path d="m67.897 141.237 1.06.697c.204.136.353.317.448.542.853 2.009 2.19 3.544 4.01 4.605 1.805 1.049 4.2 1.19 6.348 1.542-2.197 1.281-7.415 2.873-9.57.662-2.009-2.061-3.16-4.227-3.454-6.499-.142-1.08.244-1.596 1.158-1.549Z" fill="#A2AC87"/><path d="M96.775 156.002c-1.768.132-4 .406-6.697.824a9.153 9.153 0 0 1-5.07-.627c-1.606-.683-2.9-2.225-4.371-3.443 2.938-1.187 4.723-2.049 5.353-2.584 3.547-2.999 6.54-4.865 11.083-5.964 2.673-.643 4.943-.274 6.811 1.106.99.732 1.154 1.676.49 2.83-1.948 3.385-4.48 6.004-7.6 7.858Z" fill="#fff"/><path d="M80.637 152.756c1.472 1.218 2.766 2.76 4.372 3.443 1.63.69 3.32.899 5.069.627 2.697-.418 4.93-.693 6.697-.824-3.953 3.556-12.242 9.048-17.012 3.901-1.863-2.009-1.572-4.392.874-7.147Z" fill="#A2AC87"/><path d="M106.572 166.564c-1.884-.557-4.073-.782-5.623-1.564-1.73-.877-3.031-2.239-3.903-4.083 3.562-2.845 5.602-4.803 9.078-5.725 2.453-.648 4.038-.127 5.972 1.211 2.531 1.76 1.052 4.936-.86 6.633-1.915 1.704-3.469 2.88-4.664 3.528Z" fill="#fff"/><path d="M156.122 159.333c-1.095 2.858-3.154 4.966-6.178 6.323-3.152 1.412-6.427.995-9.825-1.254 2.83.366 5.107.24 6.832-.38 1.569-.559 4.626-2.122 9.171-4.689ZM97.045 160.917c.872 1.845 2.173 3.206 3.903 4.084 1.55.781 3.739 1.007 5.623 1.563-2.275 1.911-5.095 2.467-8.46 1.669-2.478-.587-4.377-1.8-5.694-3.64-.318-.442-.242-.801.227-1.078l4.4-2.598ZM135.989 166.381a9.745 9.745 0 0 1 3.036 2.021c.17.164.185.342.042.535-3.981 5.259-10.251 4.64-15.576 2.035 4.842.669 8.908.408 12.605-2.873.317-.287.469-.554.455-.803-.019-.314-.206-.62-.562-.915Z" fill="#A2AC87"/></svg>