<svg xmlns="http://www.w3.org/2000/svg" width="46" height="64" viewBox="0 0 46 64" fill="none">
    <path d="M37.7912 57.3119L31.4172 41.8603C31.41 41.8422 31.3968 41.8272 31.3799 41.8179C31.363 41.8086 31.3434 41.8055 31.3245 41.8093C30.7057 41.9353 30.2238 42.1763 29.6975 42.6123C28.5833 43.5376 27.4214 44.5082 26.2119 45.5242C26.1226 45.5989 25.9964 45.6849 25.8335 45.7822C25.641 45.8962 25.4997 46.0622 25.4097 46.2802C23.1412 51.79 20.823 57.4166 18.4552 63.1597C18.1202 63.9707 17.1377 64.3037 16.4715 63.6657C16.2261 63.4307 16.0753 63.0837 15.9058 62.7708C15.0031 61.1088 14.133 59.5048 13.2953 57.9589C13.2815 57.9329 13.2605 57.9239 13.2322 57.9319C11.4604 58.4345 9.67469 58.9492 7.87521 59.4758C7.41927 59.6092 7.10654 59.6652 6.93704 59.6438C6.09249 59.5388 5.61651 58.6869 5.94467 57.8909C8.18235 52.4644 10.4151 47.0508 12.6429 41.6503C12.6448 41.6457 12.6456 41.6408 12.6452 41.6358C12.6449 41.6309 12.6434 41.6261 12.6409 41.6218C12.6384 41.6175 12.635 41.6139 12.6309 41.6112C12.6268 41.6085 12.6222 41.6068 12.6173 41.6063C11.532 41.4983 10.5416 41.3973 9.64611 41.3033C9.2125 41.2573 8.77166 41.1353 8.3236 40.9373C6.94493 40.3273 5.90131 39.1604 5.47558 37.7144C5.34156 37.2591 5.23841 36.5884 5.16615 35.7024C5.06234 34.4331 4.94606 33.1952 4.81729 31.9885C4.74568 31.3206 4.49077 30.7176 4.05256 30.1796C3.02898 28.9236 2.05074 27.72 1.11782 26.5687C0.577127 25.9014 0.231226 25.1184 0.0801198 24.2197C-0.182673 22.6544 0.201005 21.2385 1.23115 19.9718C2.12333 18.8745 3.05395 17.7309 4.023 16.5409C4.51639 15.9349 4.79594 15.227 4.86163 14.417C5.018 12.483 5.16976 10.9041 5.31692 9.68011C5.54752 7.77416 6.98139 6.1772 8.79072 5.57021C9.18819 5.43688 9.7913 5.33722 10.6 5.27122C11.732 5.17922 12.9878 5.05723 14.3675 4.90523C15.0803 4.82723 15.6779 4.58991 16.1601 4.19325C17.1784 3.35527 18.1777 2.51796 19.1579 1.68131C19.7965 1.13666 20.3122 0.763003 20.7051 0.560342C22.5312 -0.380634 24.6864 -0.117641 26.272 1.21133C27.4756 2.2193 28.6569 3.20527 29.8158 4.16925C30.408 4.66224 31.0565 4.85723 31.8261 4.93023C33.3372 5.07423 34.7642 5.21156 36.107 5.34222C38.1085 5.53721 39.8124 6.86618 40.4658 8.77813C40.6156 9.21545 40.7227 9.79244 40.7871 10.5091C40.9099 11.8824 41.0387 13.2627 41.1734 14.65C41.2404 15.3366 41.5104 15.9693 41.9834 16.5479C42.9531 17.7312 43.9176 18.9185 44.8768 20.1098C46.4131 22.0168 46.3441 24.7467 44.8492 26.6057C43.9136 27.769 42.9557 28.9483 41.9755 30.1436C41.4986 30.7256 41.2256 31.3952 41.1566 32.1525C41.0351 33.4705 40.9096 34.8271 40.7802 36.2224C40.7151 36.9198 40.6103 37.4794 40.4658 37.9014C39.9356 39.4493 38.686 40.6723 37.1122 41.1473C36.7936 41.244 36.3577 41.3183 35.8045 41.3703C34.9675 41.449 34.162 41.5276 33.3881 41.6063C33.3826 41.6069 33.3773 41.6089 33.3727 41.6119C33.3681 41.615 33.3642 41.6191 33.3614 41.624C33.3587 41.6289 33.357 41.6343 33.3567 41.6399C33.3564 41.6455 33.3574 41.6511 33.3595 41.6563C35.5296 46.9102 37.7656 52.333 40.0677 57.9249C40.4165 58.7719 39.7365 59.7448 38.8368 59.6518C38.7744 59.6452 38.5362 59.5828 38.1223 59.4648C36.336 58.9529 34.5539 58.4419 32.7761 57.9319C32.7623 57.9279 32.7476 57.9287 32.7344 57.9341C32.7211 57.9396 32.7102 57.9493 32.7032 57.9619C31.7972 59.6238 30.8742 61.3305 29.934 63.0817C29.7507 63.4237 29.5839 63.6477 29.4334 63.7537C29.1023 63.9877 28.7475 64.0507 28.3691 63.9427C27.9276 63.8157 27.695 63.5167 27.5285 63.1137C26.3295 60.2045 25.1732 57.4002 24.0596 54.701C23.559 53.486 25.2718 52.717 25.8167 54.041C26.7812 56.3869 27.7594 58.7599 28.7515 61.1598C28.7546 61.1677 28.7599 61.1745 28.7667 61.1794C28.7735 61.1844 28.7815 61.1873 28.7898 61.1878C28.7982 61.1883 28.8065 61.1864 28.8138 61.1824C28.8212 61.1783 28.8272 61.1722 28.8313 61.1648C29.6072 59.7422 30.3364 58.3969 31.019 57.1289C31.5387 56.1643 32.3698 55.8453 33.5123 56.1719C34.9176 56.5746 36.3255 56.9756 37.736 57.3749C37.7971 57.3922 37.8155 57.3712 37.7912 57.3119ZM39.2921 32.0185C39.4044 30.8916 39.7326 29.9496 40.4185 29.0926C41.2141 28.098 42.0491 27.072 42.9236 26.0147C43.4426 25.3874 43.7638 24.9171 43.8874 24.6037C44.3535 23.4188 44.1455 22.1868 43.3503 21.2058C42.4055 20.0405 41.4608 18.8789 40.516 17.7209C39.7119 16.7339 39.3936 15.77 39.2665 14.43C39.1515 13.2187 39.0401 11.9814 38.9324 10.7181C38.8798 10.1021 38.7925 9.63378 38.6703 9.31312C38.2435 8.19415 37.2463 7.37917 36.042 7.25017C34.6177 7.09884 33.1792 6.95718 31.7266 6.82518C30.5923 6.72118 29.6443 6.44719 28.7722 5.74221C27.7709 4.93356 26.6554 4.00192 25.4255 2.94728C25.0622 2.63662 24.7449 2.40996 24.4735 2.2673C23.5873 1.80131 22.6767 1.76564 21.7418 2.1603C21.4402 2.28696 21.095 2.51496 20.7061 2.84428C19.5531 3.82159 18.4543 4.74323 17.4097 5.60921C16.9136 6.01987 16.3815 6.32519 15.8132 6.52519C15.394 6.67252 14.8297 6.77885 14.1202 6.84418C12.7773 6.96818 11.3779 7.10584 9.92204 7.25717C8.77593 7.37617 7.73133 8.21015 7.32926 9.31312C7.20246 9.66111 7.1187 10.0941 7.07796 10.6121C6.95839 12.1227 6.81878 13.5893 6.65914 15.012C6.55205 15.9666 6.18841 16.8329 5.56822 17.6109C4.77196 18.6089 3.94285 19.6269 3.08089 20.6648C2.56318 21.2888 2.24159 21.7585 2.11611 22.0738C1.67264 23.1888 1.82342 24.4447 2.58913 25.4007C3.29999 26.2867 3.98686 27.131 4.64976 27.9336C5.29491 28.715 5.70454 29.2386 5.87864 29.5046C6.3267 30.1913 6.59508 30.9699 6.68377 31.8405C6.83882 33.3712 6.98566 34.9141 7.12428 36.4694C7.23367 37.6924 7.98361 38.7414 9.0972 39.2144C9.37904 39.3344 9.88558 39.4304 10.6168 39.5023C11.9012 39.629 13.1363 39.7483 14.3222 39.8603C14.7236 39.899 15.0862 39.9583 15.4101 40.0383C16.2695 40.2523 16.9238 40.6633 17.6452 41.2673C18.7161 42.1639 19.7268 43.0129 20.6775 43.8142C21.2895 44.3302 21.8857 44.7022 22.6879 44.7712C23.3409 44.8279 23.9365 44.7125 24.4745 44.4252C24.7353 44.2852 25.1926 43.9369 25.8463 43.3803C26.6478 42.6976 27.4999 41.9803 28.4026 41.2283C29.1644 40.5933 29.8483 40.2073 30.7746 39.9883C31.0158 39.9317 31.6589 39.8567 32.7042 39.7633C33.6588 39.6773 34.6068 39.587 35.5483 39.4923C36.1376 39.4324 36.5702 39.346 36.8461 39.2334C37.7239 38.874 38.3326 38.249 38.6722 37.3584C38.7977 37.0284 38.89 36.5058 38.9491 35.7904C39.0477 34.5858 39.162 33.3285 39.2921 32.0185ZM14.5883 41.8453L8.19845 57.3409C8.19598 57.347 8.19523 57.3537 8.19627 57.3603C8.19732 57.3668 8.20012 57.3729 8.20435 57.3778C8.20859 57.3827 8.21408 57.3863 8.22018 57.3881C8.22629 57.3899 8.23277 57.3898 8.23885 57.3879C9.61391 57.0019 11.0501 56.5902 12.5473 56.1529C13.3088 55.9303 13.951 56.0429 14.4739 56.4909C14.694 56.6789 14.9355 57.0202 15.1983 57.5149C15.8618 58.7629 16.5247 59.9908 17.1869 61.1988C17.1893 61.2034 17.193 61.2071 17.1974 61.2096C17.2019 61.2122 17.207 61.2133 17.212 61.213C17.2171 61.2127 17.222 61.2109 17.2261 61.2079C17.2302 61.2048 17.2334 61.2006 17.2352 61.1958L23.1934 46.7502C23.2131 46.7008 23.197 46.6775 23.1451 46.6802C22.3311 46.7135 21.5349 46.5368 20.7563 46.1502C20.3523 45.9488 19.8618 45.6022 19.285 45.1102C18.5315 44.4682 17.5365 43.6316 16.3 42.6003C15.7856 42.1716 15.2367 41.908 14.6533 41.8093C14.64 41.8071 14.6264 41.8094 14.6147 41.8159C14.6029 41.8224 14.5936 41.8328 14.5883 41.8453Z" fill="white"></path>
    <path d="M34.6485 28.5629C36.5425 24.2561 35.9266 19.2202 33.0953 15.4743C30.3272 11.8124 25.9388 9.97441 21.3869 10.5154C20.6942 10.5974 20.1354 9.95341 20.3739 9.26243C20.5651 8.70945 21.0272 8.63945 21.5328 8.59345C23.4558 8.41812 25.273 8.58078 26.9844 9.08144C34.5903 11.3084 39.1402 19.2302 37.1348 27.059C35.1106 34.9568 27.1411 39.7577 19.3273 37.6837C14.5438 36.4147 10.7507 32.8088 9.15131 28.055C7.57455 23.3661 8.48611 18.1662 11.481 14.2383C12.8199 12.483 14.5054 11.0811 16.5374 10.0324C16.8751 9.85842 17.1412 9.76109 17.3357 9.74042C18.2009 9.64842 18.7271 10.8314 17.991 11.4004C17.6747 11.6454 17.2972 11.7644 16.9533 11.9584C14.7629 13.1957 13.0791 14.881 11.9018 17.0142C8.38855 23.3821 10.732 31.3899 17.0854 34.7808C23.6181 38.2667 31.6408 35.4018 34.6485 28.5629Z" fill="white"></path>
    <path d="M19.8409 24.3064C22.0694 22.0592 24.3018 19.7936 26.5382 17.5096C26.8588 17.1823 27.1422 16.9566 27.3886 16.8326C28.6155 16.2146 30.0218 16.4606 30.9038 17.5076C31.6823 18.4316 31.8183 19.7256 31.2329 20.7965C31.0904 21.0572 30.8309 21.3778 30.4544 21.7585C27.6149 24.6284 24.7505 27.5337 21.8611 30.4743C20.8589 31.4943 19.2851 31.6253 18.134 30.7843C18.0322 30.7096 17.6636 30.351 17.0283 29.7083C15.9404 28.607 14.8807 27.532 13.8492 26.4834C13.3105 25.9354 13 25.3714 12.9179 24.7914C12.5119 21.9225 15.8024 20.2555 17.8147 22.2975C18.4658 22.9581 19.1225 23.6275 19.7847 24.3054C19.7883 24.3093 19.7926 24.3124 19.7974 24.3145C19.8022 24.3166 19.8074 24.3178 19.8126 24.3179C19.8178 24.318 19.823 24.317 19.8279 24.315C19.8327 24.3131 19.8371 24.3102 19.8409 24.3064ZM20.5277 26.3004C20.101 26.7334 19.5373 26.7334 19.1106 26.3004C18.269 25.4477 17.3903 24.5558 16.4745 23.6245C15.49 22.6245 14.1153 24.0704 15.0505 25.0184C16.3671 26.3524 17.6985 27.7027 19.0446 29.0693C19.5758 29.6073 20.1523 29.5283 20.6332 29.0393C23.5765 26.0494 26.4895 23.0921 29.3724 20.1675C30.3825 19.1426 28.9861 17.7206 27.9947 18.7256C25.55 21.2035 23.0611 23.7285 20.5277 26.3004Z" fill="white"></path>
</svg>