<svg xmlns="http://www.w3.org/2000/svg" width="40" height="40" viewBox="0 0 40 40" fill="none">
    <path d="M21.9796 32.7973C21.9776 32.8035 21.9771 32.8101 21.9782 32.8165C21.9793 32.8229 21.9819 32.829 21.9859 32.8342C21.9899 32.8395 21.9951 32.8437 22.0011 32.8466C22.0071 32.8495 22.0137 32.8509 22.0204 32.8508C23.3685 32.8212 24.6671 32.7906 25.9162 32.7592C25.9443 32.7587 25.9581 32.7448 25.9577 32.7175C25.8776 28.9382 25.7905 25.1998 25.6962 21.5024C25.6929 21.382 25.7072 21.2714 25.7391 21.1705C25.9348 20.5496 26.8934 20.5336 27.0877 21.1621C27.1234 21.2774 27.1429 21.4087 27.1463 21.5559C27.2448 25.8653 27.3467 30.2827 27.452 34.8078C27.4834 36.1625 27.0408 37.3098 26.1241 38.2497C25.4183 38.9733 24.5705 39.4298 23.5804 39.6192C23.2747 39.6775 22.8316 39.7134 22.2511 39.7268C16.7285 39.8532 12.6412 39.944 9.98921 39.999C9.50633 40.0092 9.02155 39.9379 8.53487 39.7852C6.70409 39.2094 5.31904 37.6441 5.16189 35.7558C5.12951 35.3701 5.11403 34.9294 5.11546 34.4335C5.1155 34.4161 5.1091 34.3992 5.09744 34.386C5.08578 34.3727 5.06961 34.364 5.05188 34.3613C4.69044 34.3064 4.314 34.2231 3.95113 34.153C1.29818 33.6453 -0.391172 31.2508 0.0781306 28.6555C0.172896 28.1328 0.292424 27.5101 0.436715 26.7874C1.48342 21.551 2.60441 15.9262 3.7997 9.91303C4.09161 8.44352 4.89664 7.26569 6.21478 6.37954C8.69916 4.7091 11.2097 3.025 13.7465 1.32724C14.3179 0.944584 15.0151 0.702907 15.7108 0.636932C16.9642 0.517945 18.0852 0.859627 19.0738 1.66198C19.0919 1.67679 19.1117 1.67911 19.1331 1.66892C19.955 1.28418 20.8137 0.971206 21.7089 0.729992C24.2554 0.0438516 26.9441 -0.135323 29.5756 0.0952427C32.1093 0.31678 34.6401 0.953613 36.8109 2.23006C37.9824 2.91828 39.1338 3.95444 39.6524 5.18088C40.7796 7.84419 38.9931 10.0936 36.7623 11.4068C35.7885 11.98 34.7301 12.4328 33.5872 12.7652C31.0864 13.4923 28.4499 13.7264 25.8526 13.5562C25.838 13.5552 25.8234 13.5597 25.812 13.5687C25.8006 13.5778 25.7932 13.5907 25.7912 13.6049C25.765 13.8025 25.7341 13.9917 25.6984 14.1722C24.6193 19.584 23.5395 25.0271 22.4589 30.5014C22.2947 31.3339 22.1377 32.0867 21.9882 32.7598C21.9835 32.7811 21.9806 32.7936 21.9796 32.7973ZM34.663 2.73772C33.7853 2.37196 32.867 2.08491 31.9079 1.87657C29.5287 1.36081 27.0751 1.26566 24.5469 1.59114C22.9616 1.79485 21.4756 2.18978 20.0889 2.77591C20.081 2.77927 20.074 2.78426 20.0683 2.79054C20.0627 2.79681 20.0585 2.80422 20.0561 2.81224C20.0537 2.82026 20.0532 2.82869 20.0545 2.83693C20.0559 2.84517 20.0591 2.85303 20.0639 2.85995C21.5858 5.09523 23.1847 7.44348 24.8605 9.90469C25.3257 10.5881 25.6269 11.323 25.7641 12.1096C25.7659 12.1195 25.7711 12.1285 25.7788 12.1352C25.7864 12.1419 25.7961 12.1458 25.8062 12.1465C28.2792 12.3229 30.7864 12.1069 33.1329 11.4152C34.5094 11.0096 35.9059 10.3971 36.9938 9.52204C38.3981 8.39213 39.1174 6.81359 38.0117 5.16629C37.2752 4.06833 35.9387 3.26899 34.663 2.73772ZM24.3283 13.4041C21.7161 13.0604 19.1753 12.2784 17.1295 10.7492C17.1047 10.7307 17.0783 10.7279 17.0502 10.7408C14.9344 11.7346 12.3957 10.3505 12.2643 8.0317C12.1264 5.59548 14.6844 3.84888 16.9959 4.90031C18.9338 5.78229 19.4788 8.10462 18.2638 9.76163C18.2486 9.78247 18.2509 9.80075 18.2709 9.81649C18.3371 9.86974 18.4069 9.91997 18.4802 9.9672C20.1617 11.0478 22.1768 11.6478 24.2197 11.9659C24.2459 11.9701 24.2554 11.9596 24.2483 11.9346C24.1169 11.4781 23.9197 11.058 23.6569 10.6742C22.1101 8.41435 20.5558 6.12907 18.9938 3.81832C18.6505 3.30996 18.3788 2.96481 18.1788 2.78286C17.2088 1.89879 15.658 1.7467 14.5822 2.46965C12.1274 4.11833 9.74182 5.71632 7.42554 7.26361C6.90124 7.61409 6.53075 7.89697 6.31407 8.11226C5.74501 8.67802 5.3788 9.37111 5.21546 10.1915C4.11828 15.701 3.02252 21.2096 1.9282 26.7172C1.92685 26.7238 1.92686 26.7306 1.92821 26.7371C1.92957 26.7437 1.93225 26.7499 1.9361 26.7555C1.93996 26.761 1.9449 26.7658 1.95066 26.7695C1.95641 26.7732 1.96286 26.7757 1.96963 26.777C8.277 27.9627 14.5727 29.1446 20.8567 30.3229C20.9001 30.3313 20.9444 30.3368 20.9896 30.3396C21.0053 30.3405 21.0146 30.3334 21.0175 30.3181C22.1313 24.7424 23.2345 19.185 24.3269 13.6458C24.3397 13.5819 24.3516 13.5162 24.3626 13.4486C24.364 13.4383 24.3612 13.4279 24.3548 13.4195C24.3484 13.4112 24.3389 13.4057 24.3283 13.4041ZM14.8958 6.12398C13.6493 6.61358 13.3065 8.12267 14.1951 9.06993C14.6284 9.53153 15.2049 9.72714 15.9244 9.65677C15.9597 9.65352 15.9663 9.63825 15.9444 9.61093C15.1087 8.57616 14.7187 7.40181 14.9194 6.14203C14.9199 6.13909 14.9196 6.13608 14.9185 6.1333C14.9173 6.13052 14.9155 6.12809 14.9131 6.12624C14.9107 6.1244 14.9078 6.12322 14.9048 6.12282C14.9017 6.12242 14.8986 6.12282 14.8958 6.12398ZM17.198 8.80187C17.7431 7.83447 17.4523 6.73997 16.4552 6.20037C16.4471 6.19602 16.438 6.19354 16.4288 6.19315C16.4196 6.19275 16.4104 6.19445 16.402 6.19809C16.3936 6.20174 16.3862 6.20723 16.3804 6.21414C16.3746 6.22105 16.3706 6.22917 16.3687 6.23787C16.1651 7.1768 16.5059 8.08725 17.1388 8.80812C17.1426 8.81239 17.1475 8.8157 17.1529 8.81777C17.1584 8.81983 17.1643 8.82059 17.1701 8.81998C17.1759 8.81936 17.1815 8.8174 17.1863 8.81425C17.1912 8.81109 17.1952 8.80685 17.198 8.80187ZM20.396 33.0967C20.5789 32.6751 20.6396 32.2112 20.7346 31.7612C20.736 31.754 20.7344 31.7466 20.7302 31.7405C20.7259 31.7344 20.7193 31.7301 20.7117 31.7286L1.69319 28.152C1.65414 28.1446 1.63128 28.1601 1.62462 28.1985C1.58557 28.4277 1.54438 28.6578 1.50104 28.8888C1.16603 30.6827 2.32036 32.4216 4.18114 32.7703C8.19462 33.5226 12.1502 34.2676 16.048 35.0051C16.6637 35.1218 17.114 35.1727 17.3988 35.1579C18.7531 35.0877 19.8681 34.3134 20.396 33.0967ZM21.3853 34.3071C20.4474 35.7551 18.8517 36.6225 17.0809 36.5621C16.7814 36.5519 16.3523 36.4938 15.7937 36.3878C12.8907 35.8368 10.0299 35.2963 7.21125 34.7662C7.00077 34.7268 6.79361 34.6916 6.5898 34.6606C6.56218 34.6565 6.54956 34.6678 6.55194 34.6947C6.56623 34.8854 6.57361 35.0799 6.57408 35.278C6.57694 36.4531 7.17625 37.476 8.18128 38.0948C8.83202 38.4948 9.50348 38.6136 10.3071 38.5955C14.7096 38.4951 18.8002 38.4013 22.579 38.3143C23.829 38.2851 24.7902 37.7834 25.4626 36.8093C25.8455 36.2537 26.0198 35.5968 26.0141 34.9377C26.0117 34.6872 26.0057 34.4405 25.9962 34.1974C25.9953 34.1733 25.9824 34.1615 25.9577 34.162L21.4596 34.2662C21.4448 34.2664 21.4302 34.2702 21.4172 34.2774C21.4042 34.2845 21.3932 34.2948 21.3853 34.3071Z" fill="#6E7E44"></path>
    <path d="M16.7729 22.2834C16.7651 22.2871 16.7588 22.293 16.7547 22.3002C16.7506 22.3074 16.7489 22.3156 16.75 22.3237C16.8524 23.1519 16.9734 24.0981 17.1129 25.162C17.16 25.5203 17.1572 25.7898 17.1043 25.9704C16.8372 26.8857 15.83 27.335 14.9542 26.9218C14.7757 26.8375 14.5118 26.6095 14.1628 26.2377C13.5361 25.5706 12.932 24.9407 12.3506 24.3481C12.3389 24.336 12.3236 24.3278 12.3068 24.3246C12.29 24.3215 12.2726 24.3236 12.257 24.3307C11.4146 24.7108 10.5314 25.1136 9.6076 25.5391C9.26902 25.6946 9.00163 25.7743 8.80543 25.778C7.8154 25.7974 7.09108 24.996 7.23538 24.0585C7.2649 23.8691 7.39967 23.5696 7.63968 23.1598C8.08112 22.4065 8.51209 21.6489 8.93258 20.8868C8.94234 20.869 8.94614 20.8486 8.94345 20.8286C8.94077 20.8085 8.93172 20.7898 8.91758 20.775C8.2666 20.0916 7.6161 19.4161 6.96608 18.7485C6.72226 18.4985 6.56059 18.2902 6.48106 18.1235C6.05533 17.236 6.68678 16.1588 7.68396 16.0484C7.85587 16.029 8.11707 16.0533 8.46756 16.1213C9.37903 16.2977 10.3164 16.475 11.2798 16.6533C11.2974 16.6565 11.3156 16.6543 11.3318 16.6468C11.348 16.6393 11.3613 16.627 11.3698 16.6116C11.8855 15.7042 12.3922 14.8136 12.8899 13.94C13.2756 13.2636 14.0256 12.9844 14.7692 13.2448C15.455 13.4844 15.7028 14.0226 15.7857 14.7199C15.8938 15.6361 16.01 16.56 16.1343 17.4915C16.1414 17.5448 16.1719 17.5765 16.2257 17.5867C17.1815 17.7631 18.1922 17.952 19.258 18.1534C19.7904 18.2543 20.1663 18.5175 20.3859 18.943C20.7409 19.6305 20.518 20.4736 19.828 20.8681C19.6732 20.9569 19.5001 21.044 19.3087 21.1292C18.4425 21.5148 17.5972 21.8996 16.7729 22.2834ZM15.4314 21.7591C15.6343 21.2931 15.9843 21.0757 16.4457 20.8715C17.3157 20.4868 18.1893 20.0902 19.0665 19.6819C19.0762 19.6774 19.0846 19.6707 19.0909 19.6624C19.0973 19.654 19.1014 19.6443 19.103 19.634C19.1106 19.5872 19.1022 19.5613 19.078 19.5562C18.2217 19.3807 17.3836 19.2226 16.5636 19.0819C16.0002 18.9851 15.6169 18.8782 15.4135 18.761C15.0049 18.5244 14.7654 18.1388 14.6949 17.604C14.5597 16.5799 14.433 15.584 14.3149 14.6164C14.3134 14.6049 14.3092 14.594 14.3026 14.5843C14.2961 14.5747 14.2873 14.5667 14.2771 14.5608C14.2337 14.5368 14.2035 14.5398 14.1863 14.5699C13.6616 15.4722 13.1865 16.306 12.7613 17.0714C12.3106 17.8832 11.7441 18.1825 10.7898 17.9957C9.84309 17.811 8.87734 17.629 7.89254 17.4498C7.86349 17.4443 7.83564 17.4478 7.80897 17.4603C7.80179 17.4637 7.79553 17.4686 7.79067 17.4748C7.7858 17.4809 7.78248 17.4881 7.78095 17.4957C7.77943 17.5033 7.77975 17.5112 7.78188 17.5186C7.78402 17.5261 7.78791 17.533 7.79325 17.5387C8.34184 18.129 8.92925 18.7397 9.55546 19.3708C9.95976 19.7787 10.2048 20.0893 10.2905 20.3027C10.4629 20.7329 10.4248 21.1676 10.1762 21.607C9.69713 22.4515 9.19616 23.3339 8.67329 24.2543C8.66138 24.2747 8.65828 24.296 8.664 24.3182C8.67829 24.3738 8.71186 24.3895 8.76472 24.3654C9.63237 23.9788 10.5355 23.5672 11.4741 23.1307C12.187 22.7987 12.8792 22.8369 13.4477 23.43C14.1621 24.1744 14.8747 24.9157 15.5857 25.6537C15.599 25.6674 15.6173 25.6755 15.6367 25.6762C15.6561 25.6768 15.675 25.67 15.6893 25.6571C15.704 25.6442 15.7102 25.628 15.7078 25.6085C15.5726 24.5131 15.4431 23.4807 15.3192 22.5112C15.2869 22.2561 15.3242 22.0054 15.4314 21.7591Z" fill="#6E7E44"></path>
</svg>