<svg xmlns="http://www.w3.org/2000/svg" width="242" height="189" fill="none"><path d="M30.712 43.572c.556-.059.58-.205.074-.44-5.935-2.702-9.474-6.797-12.017-12.575-.731-1.657-1.23-3.313-1.494-4.966C14.907 10.772 26.883-.215 41.242.866c12.28.926 21.854 11.494 20.589 23.92-.828 8.136-5.228 14.049-12.515 17.61-.453.22-.91.441-1.373.662-.39.185-.37.309.061.372 10.382 1.473 18.24 5.243 24.02 14.63 7.308 11.858 7.227 25.832 6.568 39.447a1.71 1.71 0 0 1-.525 1.148c-.314.3-.731.468-1.164.467l-74.875.007c-.421 0-.828-.157-1.14-.442a1.705 1.705 0 0 1-.548-1.099C-.436 89.21.118 80.278 2.002 70.79c2.866-14.407 13.92-25.644 28.71-27.218ZM57.886 26.46a17.87 17.87 0 0 0-.002-7.157 18.331 18.331 0 0 0-2.815-6.647A18.954 18.954 0 0 0 49.87 7.53a19.371 19.371 0 0 0-14.14-2.914 18.867 18.867 0 0 0-6.788 2.654 18.247 18.247 0 0 0-5.195 4.996 17.84 17.84 0 0 0-2.81 6.577A17.87 17.87 0 0 0 20.94 26a18.333 18.333 0 0 0 2.815 6.647 18.956 18.956 0 0 0 5.198 5.126 19.37 19.37 0 0 0 14.14 2.915 18.87 18.87 0 0 0 6.789-2.655 18.248 18.248 0 0 0 5.195-4.996 17.836 17.836 0 0 0 2.81-6.577ZM27.011 48.099c-1.78.288-3.196.69-4.245 1.203C14.148 53.55 8.612 60.242 6.16 69.377c-1.907 7.09-2.71 15.618-2.41 25.583.01.306.167.46.472.46h10.476c.26 0 .395-.129.404-.386l.619-20.683c.036-1.253.673-1.83 1.91-1.73l.324.027c.96.076 1.428.599 1.406 1.568l-.579 20.967a.218.218 0 0 0 .132.206.215.215 0 0 0 .084.017l39.819.013a.43.43 0 0 0 .43-.432l.014-20.84c0-1.328.657-1.932 1.971-1.81l.236.027c.982.09 1.47.63 1.466 1.622l-.053 21.069c0 .252.127.378.383.378h11.297a.466.466 0 0 0 .464-.433c.815-13.54.182-27.988-9.022-38.833-3.513-4.14-7.956-6.85-13.33-8.129-7.737-1.94-17.783-2.56-25.662.061ZM213.638 44.586c4.665.779 8.693 2.227 12.084 4.344 5.948 3.717 10.403 10.177 12.865 16.745 3.835 10.25 3.661 21.487 3.129 32.38-.063 1.234-.709 1.851-1.938 1.851-25.622 0-50.365-.002-74.228-.006-1.292 0-1.994-.656-2.106-1.967-.731-8.442-.153-17.366 1.736-26.772 2.637-13.156 13.033-24.291 26.268-26.474.439-.072.473-.228.101-.466-.915-.588-1.911-1.162-2.739-1.852-4.472-3.73-7.251-8.493-8.336-14.291-.727-3.883-.368-7.694 1.076-11.433 2.671-6.9 8.444-11.285 15.691-12.819 2.234-.477 4.867-.617 7.899-.419 8.653.568 15.967 6.616 18.678 14.46 3.566 10.319-.625 21.002-10.247 26.313-.359.198-.337.334.067.406Zm7.135-14.743c.621-2.329.765-4.762.422-7.16a18.376 18.376 0 0 0-2.418-6.817 18.983 18.983 0 0 0-4.891-5.436 19.372 19.372 0 0 0-6.618-3.228c-4.837-1.301-9.974-.681-14.281 1.724-4.308 2.405-7.433 6.4-8.688 11.102a17.925 17.925 0 0 0-.422 7.16 18.376 18.376 0 0 0 2.418 6.817 18.983 18.983 0 0 0 4.891 5.436 19.387 19.387 0 0 0 6.619 3.228c4.836 1.302 9.973.682 14.281-1.724 4.307-2.405 7.432-6.399 8.687-11.102ZM189.369 48.83c-10.645 3.048-18.315 12.453-20.563 23.103-1.655 7.834-2.283 15.818-1.884 23.954.009.212.119.318.33.318l10.793.006a.223.223 0 0 0 .222-.216l.545-20.988a1.614 1.614 0 0 1 1.5-1.574l.289-.02c1.279-.086 1.9.515 1.864 1.804l-.565 20.663a.285.285 0 0 0 .078.2.282.282 0 0 0 .198.084l39.92.007a.211.211 0 0 0 .147-.06.2.2 0 0 0 .061-.143l.135-21.008c.004-.96.46-1.597 1.366-1.912.17-.059.345-.075.525-.048 1.215.158 1.819.852 1.81 2.082l-.135 20.663c-.004.297.141.446.437.446h11.304a.288.288 0 0 0 .29-.27c1.52-17.84-1.319-42.206-22.521-47.287-7.154-1.653-14.412-1.95-21.773-.892-1.467.21-2.934.69-4.373 1.088Z" fill="#6E7E44"/><path d="M49.121 35.78c-8.807 5.703-21.544 2.575-25.487-7.615a1.023 1.023 0 0 1 .03-.805 1.006 1.006 0 0 1 .602-.526c.664-.208 1.232-.046 1.703.486a25.594 25.594 0 0 0 2.94 2.858c5.836 4.798 12.394 5.82 19.674 3.068.592-.225 1.135-.137 1.628.264.148.121.207.27.175.446-.157.774-.578 1.383-1.265 1.824ZM189.006 29.524c5.638 6.615 14.668 9.744 22.621 5.824.587-.288 1.087-.178 1.5.331a.867.867 0 0 1 .202.514c.063.838-.256 1.487-.955 1.946-1.929 1.266-3.791 2.072-5.585 2.42-8.164 1.567-14.583-1.122-19.257-8.069-.543-.806-.72-1.69-.531-2.649.089-.446.459-.682 1.11-.71a1.09 1.09 0 0 1 .491.092c.155.068.293.17.404.3ZM52.674 48.038c-1.117.656-2.247 1.311-3.553 1.568a47.994 47.994 0 0 1-15.542.52c-.063-.009-.79-.067-2.18-.175-1.754-.14-3.216-.757-4.387-1.852 7.879-2.622 17.924-2 25.662-.06ZM215.516 48.633c-1.238 1.266-3.091 1.987-5.558 2.162-6.396.46-11.92.367-16.572-.277a6.853 6.853 0 0 1-2.086-.635 29.694 29.694 0 0 1-1.931-1.054c1.44-.399 2.907-.879 4.374-1.088 7.361-1.059 14.618-.761 21.773.892Z" fill="#A2AC87"/><path d="M131.524 115.529c.395.162.808.275 1.238.338 11.066 1.639 19.818 6.881 26.255 15.724 11.694 16.061 11.741 36.292 10.671 55.679-.024.406-.2.787-.493 1.066s-.68.434-1.081.434c-32.988.049-66.081.02-99.279-.088-.475 0-.957-.007-1.446-.02a1.176 1.176 0 0 1-1.137-1 56.194 56.194 0 0 1-.6-6.285c-.367-9.572.528-19.789 2.685-30.65.922-4.676 2.96-9.197 5.195-13.251 4.057-7.379 11.256-14.649 18.274-17.879 4.961-2.284 9.79-3.715 14.487-4.291.453-.054.484-.198.094-.433-6.77-4.081-11.219-9.784-13.35-17.109-3.243-11.135.525-22.346 10.234-28.819 9.474-6.311 22.743-6.453 32.263.385 9.891 7.095 13.881 19.305 9.864 30.779-2.314 6.618-6.943 11.629-13.887 15.035-.283.139-.278.268.013.385Zm11.268-19.598c1.264-6.024.012-12.322-3.482-17.51-3.493-5.188-8.941-8.84-15.145-10.153-6.204-1.313-12.656-.18-17.936 3.152-5.281 3.33-8.958 8.586-10.222 14.61-1.264 6.023-.011 12.322 3.482 17.509 3.493 5.188 8.941 8.84 15.145 10.153 6.204 1.313 12.656.179 17.937-3.152 5.28-3.33 8.957-8.586 10.221-14.61Zm-29.704 25.659c1.978 3.626 4.874 4.622 8.687 2.987 1.866-.802 3.144-2.291 3.835-4.467.341-.455.522-.824.545-1.108.022-.369-.15-.563-.518-.581-4.593-.27-8.862-.338-12.804-.203-.243.009-.373.133-.391.372a5.41 5.41 0 0 0 .646 3Zm16.875 40.232c.054 1.169.054 2.176-.753 3.108-3.97 4.595-7.285 9.681-9.945 15.258-.612 1.277-2.099 1.527-2.934.284a73.268 73.268 0 0 1-.538-.797 275.735 275.735 0 0 1-9.79-15.947c3.97-11.708 6.883-23.443 8.74-35.205.036-.221-.044-.381-.242-.48-3.682-1.91-5.616-4.944-5.8-9.102-.009-.234-.128-.338-.356-.311-4.665.595-9.295 1.829-13.888 3.703-2.49 1.018-4.864 2.489-7.125 4.413-3.347 2.838-5.982 5.484-7.906 7.939-4.199 5.359-6.742 12.582-8.06 19.839-1.853 10.222-2.5 20.252-1.939 30.09a.595.595 0 0 0 .592.561l15.449-.014c.251 0 .379-.126.383-.378l.781-28.441c.031-1.198.644-1.836 1.837-1.912.152-.009.305.007.457.047.933.248 1.384.856 1.353 1.825l-.834 28.44c-.01.271.118.406.383.406l54.864.02a.386.386 0 0 0 .276-.117.402.402 0 0 0 .114-.282l-.007-28.832c0-1.136.557-1.798 1.669-1.987.31-.05.612.009.908.176.745.423 1.115 1.063 1.111 1.919l-.142 28.961c0 .018.004.035.011.052a.125.125 0 0 0 .029.044.134.134 0 0 0 .095.039l17.104-.013c.07 0 .139-.029.19-.079a.286.286 0 0 0 .085-.192c.895-16.676.64-34.603-8.706-49.097-4.881-7.564-11.277-12.505-19.19-14.825a80.921 80.921 0 0 0-7.906-1.919c-.372-.073-.592.081-.659.459-.597 3.388-2.319 6.007-5.168 7.859a.567.567 0 0 0-.282.581 242.284 242.284 0 0 0 5.739 33.907Zm-18.725-2.52a44.683 44.683 0 0 0-1.144 4.081.637.637 0 0 0 .081.493l7.179 11.535a.17.17 0 0 0 .147.079.17.17 0 0 0 .142-.086 64.876 64.876 0 0 1 8.243-12.251 1.466 1.466 0 0 0 .303-1.304c-2.584-10.604-4.39-21.197-5.417-31.779-.027-.306-.193-.459-.498-.459l-1.608.02c-.282 0-.446.142-.491.426-1.597 10.253-3.909 20.001-6.937 29.245Z" fill="#6E7E44"/><path d="M111.527 104.061c6.307 2.955 12.724 3.09 19.25.406.808-.338 1.669-.102 1.925.804a.87.87 0 0 1-.303.912c-10.799 8.298-26.302 4.581-32.169-7.717-.363-.757-.211-1.412.458-1.966.209-.175.479-.26.75-.237.27.022.521.151.696.358 2.884 3.379 6.015 5.859 9.393 7.44Z" fill="#A2AC87"/><path d="M59.08 148.862c-9.346-11.251-15.826-25.536-18.47-39.753a1.442 1.442 0 0 1 1.224-1.689l.364-.041c1.144-.148 1.834.347 2.072 1.487 2.974 14.359 9.03 26.657 17.561 38.205a1.31 1.31 0 0 1 .23 1.041c-.104.486-.322.844-.653 1.074-.875.599-1.651.491-2.328-.324ZM182.001 144.24c8.949-9.555 15.362-20.961 18.894-33.556.247-.892.832-1.309 1.756-1.25.166.009.325.043.478.101 1.094.424 1.485 1.203 1.171 2.338-3.683 13.303-10.19 24.894-19.52 34.773-.807.851-1.715.979-2.725.385-.39-.235-.583-.726-.578-1.473.004-.491.191-.961.524-1.318Z" fill="#6E7E44"/><path d="M125.61 120.11c-.938.009-2.14.388-3.607 1.135-1.689.859-3.552.521-5.611.048-1.238-.284-2.339-.185-3.304.297a5.4 5.4 0 0 1-.646-3c.018-.239.148-.363.39-.372 3.943-.135 8.211-.067 12.805.203.367.018.54.212.518.581-.023.284-.204.653-.545 1.108Z" fill="#fff"/><path d="M125.61 120.109c-.691 2.176-1.97 3.665-3.836 4.467-3.812 1.635-6.708.64-8.686-2.987.964-.482 2.066-.581 3.304-.297 2.058.473 3.922.811 5.611-.047 1.467-.748 2.669-1.126 3.607-1.136Z" fill="#A2AC87"/><path d="M111.238 159.301c3.028-9.243 5.34-18.992 6.937-29.244.045-.284.209-.426.491-.426l1.609-.02c.305 0 .47.153.497.459 1.028 10.582 2.833 21.175 5.417 31.779a1.472 1.472 0 0 1-.303 1.304 64.823 64.823 0 0 0-8.242 12.251.178.178 0 0 1-.06.062.174.174 0 0 1-.083.024.165.165 0 0 1-.147-.079l-7.179-11.535a.637.637 0 0 1-.081-.493 44.787 44.787 0 0 1 1.144-4.082Z" fill="#fff"/><path d="M129.964 161.821c.821 1.433.89 2.726.208 3.879a1029.494 1029.494 0 0 1-10.927 18.021c-.854 1.379-2.334.872-3.102-.236-4.194-6.028-7.744-11.514-10.651-16.461a2.414 2.414 0 0 1-.316-1.567c.103-.807.379-1.383.828-1.73a275.395 275.395 0 0 0 9.79 15.947c.179.27.358.536.538.797.834 1.243 2.321.993 2.933-.284 2.66-5.577 5.975-10.663 9.945-15.257.808-.933.808-1.94.754-3.109Z" fill="#A2AC87"/></svg>