<svg xmlns="http://www.w3.org/2000/svg" width="40" height="40" viewBox="0 0 40 40" fill="none">
    <path d="M19.9625 0.113714L19.9123 0.113627C19.4914 0.112897 19.1496 0.451449 19.1488 0.869805L19.1426 4.4073C19.1419 4.82566 19.4825 5.1654 19.9034 5.16613L19.9536 5.16621C20.3745 5.16694 20.7164 4.82839 20.7171 4.41003L20.7233 0.872537C20.724 0.454181 20.3834 0.114444 19.9625 0.113714Z" fill="#6E7E44"></path>
    <path d="M10.5676 3.40711L7.67498 0.542181C7.37265 0.242742 6.88333 0.243591 6.58205 0.544076L6.55991 0.566157C6.25863 0.866642 6.25949 1.35298 6.56182 1.65241L9.45444 4.51735C9.75677 4.81678 10.2461 4.81593 10.5474 4.51545L10.5695 4.49337C10.8708 4.19288 10.8699 3.70655 10.5676 3.40711Z" fill="#6E7E44"></path>
    <path d="M32.1846 0.543428L29.2937 3.4066C28.9911 3.70628 28.9903 4.19301 29.2918 4.49374L29.3148 4.5167C29.6164 4.81743 30.1061 4.81828 30.4087 4.5186L33.2995 1.65543C33.6021 1.35575 33.6029 0.869018 33.3014 0.568289L33.2784 0.545325C32.9769 0.244596 32.4871 0.243747 32.1846 0.543428Z" fill="#6E7E44"></path>
    <path d="M32.107 22.6572L34.6896 25.2208C34.705 25.2366 34.7228 25.2393 34.7429 25.2289C35.8249 24.6766 37.0243 24.8867 37.8806 25.724C38.3724 26.2049 38.809 26.64 39.1904 27.0295C39.9398 27.7947 40.1689 28.6868 39.8779 29.706C39.7654 30.0996 39.5416 30.4627 39.2067 30.7952C36.475 33.5081 33.6832 36.281 30.8311 39.114C29.7471 40.1901 28.1043 40.2206 27.0046 39.1308C26.5818 38.7119 26.1628 38.2973 25.7475 37.887C24.8555 37.0067 24.6209 35.8508 25.1874 34.708C25.1916 34.6994 25.193 34.6897 25.1915 34.6802C25.1899 34.6707 25.1854 34.6619 25.1786 34.655L21.9876 31.4878C21.9795 31.4798 21.9698 31.4737 21.9592 31.4698C21.9485 31.4659 21.9372 31.4644 21.9261 31.4654C20.9713 31.5446 20.0097 31.4629 19.0556 31.4049C18.706 31.3833 18.3704 31.4089 18.0488 31.4816C17.8844 31.5184 17.7471 31.61 17.6291 31.7272C16.6732 32.6782 15.7151 33.6298 14.7549 34.5821C14.7455 34.5913 14.7395 34.6035 14.7378 34.6167C14.7361 34.6299 14.7388 34.6433 14.7455 34.655C15.2285 35.4867 15.2517 36.4618 14.7762 37.3016C14.6508 37.5235 14.4385 37.7808 14.1395 38.0734C13.7092 38.4932 13.2983 38.8966 12.9069 39.2836C12.0996 40.0803 10.8086 40.2188 9.80244 39.6689C9.55822 39.5354 9.26695 39.295 8.92863 38.9475C8.51043 38.5186 8.07049 38.0809 7.60881 37.6345C7.43777 37.4691 7.33196 37.3166 7.2914 37.1769C7.112 36.5559 7.72172 35.9967 8.31953 36.2236C8.43788 36.2685 8.56375 36.3579 8.69716 36.4917C9.23412 37.0287 9.77944 37.5709 10.3331 38.1183C10.7628 38.5423 11.4252 38.5398 11.8637 38.1077C12.2853 37.6921 12.7262 37.255 13.1867 36.7966C13.3665 36.6183 13.4771 36.4271 13.5185 36.223C13.5932 35.8583 13.4815 35.4431 13.1553 35.2317C12.996 35.1288 12.9194 34.9512 12.7833 34.8159C10.2211 32.2746 7.6615 29.7338 5.10467 27.1935C5.01308 27.1028 4.91794 27.0197 4.81925 26.9441C4.67748 26.8356 4.56269 26.6885 4.39144 26.6286C3.96195 26.4773 3.57115 26.5762 3.21903 26.9254C2.74396 27.3963 2.30382 27.8329 1.89859 28.2353C1.78693 28.3458 1.70684 28.4664 1.65833 28.5969C1.49398 29.042 1.58787 29.4396 1.93999 29.7895C2.41631 30.263 2.92818 30.7692 3.47559 31.3083C3.61673 31.4473 3.76791 31.5976 3.8206 31.7883C4.04768 32.6107 3.07225 33.1257 2.48322 32.5434C1.93162 31.998 1.36978 31.4403 0.797692 30.87C-0.269328 29.8076 -0.268074 28.1505 0.814629 27.0949C1.17218 26.7462 1.53831 26.3807 1.91301 25.9983C2.21537 25.6899 2.48406 25.47 2.71908 25.3387C3.30455 25.0111 3.92996 24.916 4.59531 25.0531C4.77346 25.0899 4.9491 25.1604 5.11784 25.2271C5.1421 25.237 5.16342 25.2327 5.18182 25.214L7.7418 22.6753C7.77149 22.6462 7.77086 22.6175 7.73991 22.5892C6.5236 21.4757 6.56437 19.5517 7.84028 18.4912C8.08325 18.2896 8.3649 18.13 8.68524 18.0124C8.68731 18.0116 8.68919 18.0104 8.69073 18.0088C8.69228 18.0072 8.69345 18.0053 8.69417 18.0033C8.69489 18.0012 8.69514 17.999 8.69489 17.9968C8.69465 17.9946 8.69392 17.9925 8.69277 17.9906C7.627 16.3765 8.47949 14.2455 10.362 13.8184C10.3879 13.8126 10.3977 13.7968 10.3915 13.771C10.2267 13.0927 10.276 12.4759 10.5395 11.9206C10.9201 11.1184 11.5532 10.6061 12.4389 10.3838C12.4425 10.3829 12.4458 10.3813 12.4487 10.3792C12.4516 10.377 12.454 10.3743 12.4559 10.3712C12.4577 10.3681 12.4588 10.3647 12.4593 10.3612C12.4597 10.3577 12.4594 10.3541 12.4584 10.3507C12.1956 9.40869 12.4565 8.39806 13.1534 7.70415C13.8892 6.97097 14.9914 6.70101 15.9863 7.05326C16.0012 7.05843 16.0173 7.05918 16.0325 7.05542C16.0478 7.05165 16.0616 7.04353 16.0722 7.03206C16.6769 6.37805 17.7094 6.46285 18.5274 6.61622C20.1973 6.92878 21.8726 7.24383 23.5533 7.56138C23.7042 7.59006 23.8556 7.60211 24.0074 7.59754C24.5837 7.58091 25.1048 7.72618 25.5706 8.03334C26.5699 8.69171 27.0272 9.87566 26.7079 11.0303C26.7012 11.0544 26.71 11.0696 26.7343 11.0758C28.2849 11.4649 29.175 12.9044 28.7761 14.4656C28.7707 14.4876 28.7788 14.5011 28.8006 14.5061C29.2731 14.615 29.6668 14.8091 29.9817 15.0884C30.8056 15.8191 31.0937 16.7516 30.8461 17.8859C30.8399 17.9141 30.851 17.9312 30.8794 17.937C31.0789 17.9763 31.279 18.0417 31.459 18.1309C33.2054 18.9981 33.5454 21.265 32.1076 22.5998C32.0876 22.6185 32.0873 22.6376 32.107 22.6572ZM17.4761 8.77525C17.9972 9.64602 18.7158 10.3351 19.6321 10.8426C19.6375 10.8455 19.6437 10.8466 19.6498 10.8457C19.6559 10.8448 19.6616 10.842 19.666 10.8377L21.6739 8.84134C21.6773 8.83809 21.6796 8.83399 21.6808 8.82947C21.6819 8.82495 21.6818 8.82019 21.6803 8.8157C21.6789 8.81121 21.6763 8.80716 21.6727 8.80399C21.6692 8.80082 21.6648 8.79864 21.6601 8.7977C20.5818 8.60068 19.516 8.40991 18.4647 8.19606C18.0695 8.11584 17.6846 8.07407 17.3099 8.07074C17.304 8.07064 17.2982 8.07175 17.2928 8.07401C17.2874 8.07626 17.2826 8.0796 17.2785 8.08383C17.2745 8.08805 17.2715 8.09306 17.2695 8.09854C17.2675 8.10402 17.2668 8.10984 17.2672 8.11563C17.281 8.34548 17.3506 8.56536 17.4761 8.77525ZM19.5298 12.4705C18.6736 12.233 17.8393 11.602 17.1913 10.9536C16.5596 10.3214 15.9762 9.53961 15.763 8.72662C15.7576 8.7056 15.7479 8.68593 15.7346 8.66886C15.7212 8.65179 15.7043 8.6377 15.6852 8.62749C14.4701 7.97411 13.3209 9.49036 14.3039 10.4617C15.4012 11.5469 16.554 12.6931 17.7621 13.9001C18.0105 14.1482 18.2953 14.2978 18.6541 14.2985C19.5668 14.2997 20.0693 13.3627 19.6647 12.5802C19.651 12.5537 19.632 12.5302 19.6088 12.5114C19.5856 12.4925 19.5587 12.4786 19.5298 12.4705ZM21.0228 11.7828C21.96 13.43 21.0341 15.4369 19.1829 15.821C19.0182 15.8555 18.8519 15.869 18.6842 15.8615C18.6587 15.8602 18.6454 15.8721 18.6441 15.897C18.5751 17.0679 18.0291 17.8944 17.0062 18.3765C16.693 18.5241 16.3286 18.6018 15.9129 18.6097C15.9026 18.61 15.8928 18.6142 15.8855 18.6214C15.8783 18.6286 15.8741 18.6382 15.874 18.6483C15.8401 20.1696 14.6759 21.3142 13.1534 21.346C13.1448 21.3462 13.1365 21.3496 13.1303 21.3557C13.1241 21.3617 13.1205 21.3699 13.1202 21.3785C13.0984 22.1083 12.8532 22.7214 12.3844 23.2177C12.0879 23.5319 11.7579 23.7567 11.3945 23.8922C10.5673 24.2011 9.76334 24.1391 8.98257 23.7065C8.96167 23.6948 8.94243 23.6975 8.92486 23.7146L6.39877 26.2221C6.38455 26.2362 6.38455 26.2504 6.39877 26.2645L13.6189 33.4293C13.6277 33.438 13.6397 33.443 13.6521 33.443C13.6646 33.443 13.6765 33.438 13.6854 33.4293C14.6359 32.4866 15.5879 31.5408 16.5414 30.5919C17.3644 29.7733 18.5393 29.787 19.612 29.8619C20.2405 29.9055 20.7961 29.9288 21.2787 29.9317C21.5731 29.9338 21.8707 29.902 22.1713 29.8363C22.5935 29.7446 22.9103 29.5358 23.212 29.2209C23.3818 29.0435 23.5554 28.8706 23.7327 28.7022C24.3292 28.1349 25.2884 28.6779 25.0575 29.4597C25.0199 29.5877 24.9329 29.7218 24.7966 29.8619C24.3562 30.3153 23.9828 30.6599 23.6762 30.8956C23.6561 30.9109 23.6551 30.9276 23.6731 30.9454L26.2224 33.4742C26.2253 33.4771 26.2287 33.4794 26.2324 33.481C26.2362 33.4825 26.2403 33.4833 26.2443 33.4833C26.2484 33.4833 26.2525 33.4825 26.2563 33.481C26.26 33.4794 26.2634 33.4771 26.2663 33.4742L33.5033 26.2932C33.5138 26.2828 33.5138 26.2724 33.5033 26.262L30.9798 23.7588C30.9752 23.7544 30.9691 23.7519 30.9627 23.7519C30.9562 23.7519 30.95 23.7544 30.9453 23.7588C30.7163 23.9814 30.4654 24.2969 30.195 24.4253C29.5822 24.7165 28.8815 24.0974 29.1368 23.4459C29.1874 23.3166 29.2777 23.189 29.4078 23.063C29.9707 22.5169 30.5246 21.9672 31.0695 21.414C31.7469 20.7257 31.4076 19.5923 30.4384 19.4489C29.7685 19.3497 29.3777 19.8161 28.963 20.2581C28.6525 20.5892 28.2937 20.8149 27.8458 20.586C27.3572 20.336 27.2737 19.7269 27.6576 19.336C28.0675 18.9183 28.4819 18.506 28.9009 18.0991C29.0686 17.9357 29.1859 17.7811 29.2528 17.6352C29.495 17.1084 29.3118 16.4768 28.8018 16.1751C28.3213 15.8902 27.7404 15.9855 27.3465 16.3783C27.1131 16.6107 26.8716 16.8499 26.622 17.0959C26.4116 17.3033 26.176 17.3871 25.915 17.3472C25.4301 17.273 25.1209 16.7748 25.294 16.3048C25.34 16.1797 25.4475 16.036 25.6164 15.8739C26.0631 15.445 26.5093 15.0021 26.9551 14.5454C27.3346 14.1557 27.4086 13.5884 27.1169 13.1233C26.7255 12.4992 25.8517 12.3994 25.3141 12.9206C25.0882 13.1393 24.8656 13.3616 24.646 13.5877C24.4058 13.8352 24.1254 14.0017 23.7791 13.9057C23.1512 13.7324 22.9912 13.0198 23.4404 12.5653C23.8297 12.1712 24.2818 11.724 24.7966 11.2236C24.9429 11.081 25.0506 10.9391 25.1196 10.7978C25.3429 10.3383 25.215 9.74099 24.8135 9.42365C24.3016 9.01902 23.6499 9.08823 23.1901 9.54834C22.4168 10.3218 21.6986 11.0357 21.0353 11.6899C21.0073 11.7178 21.0031 11.7487 21.0228 11.7828ZM13.8412 12.2157C13.6298 12.0049 13.3429 11.8862 13.0434 11.8856C12.7439 11.8851 12.4565 12.0029 12.2444 12.213L12.2026 12.2543C11.9905 12.4644 11.8711 12.7496 11.8705 13.0473C11.87 13.3449 11.9885 13.6306 12.1999 13.8414L15.0877 16.7216C15.2991 16.9325 15.5861 17.0512 15.8855 17.0517C16.185 17.0522 16.4724 16.9345 16.6845 16.7244L16.7263 16.683C16.9384 16.4729 17.0579 16.1877 17.0584 15.8901C17.0589 15.5924 16.9405 15.3068 16.7291 15.096L13.8412 12.2157ZM11.7614 15.6376C11.6574 15.5342 11.5338 15.4521 11.3978 15.3961C11.2618 15.3401 11.116 15.3113 10.9688 15.3113C10.8216 15.3113 10.6758 15.3401 10.5398 15.3961C10.4038 15.4521 10.2803 15.5342 10.1762 15.6376L10.1274 15.6861C10.0233 15.7896 9.94071 15.9124 9.88437 16.0476C9.82804 16.1828 9.79904 16.3276 9.79904 16.4739C9.79904 16.6203 9.82804 16.7651 9.88437 16.9003C9.94071 17.0355 10.0233 17.1583 10.1274 17.2617L12.3399 19.4607C12.4439 19.5642 12.5675 19.6462 12.7035 19.7022C12.8395 19.7582 12.9853 19.787 13.1325 19.787C13.2797 19.787 13.4255 19.7582 13.5615 19.7022C13.6975 19.6462 13.821 19.5642 13.9251 19.4607L13.9739 19.4122C14.078 19.3088 14.1606 19.1859 14.2169 19.0508C14.2733 18.9156 14.3023 18.7707 14.3023 18.6244C14.3023 18.4781 14.2733 18.3332 14.2169 18.1981C14.1606 18.0629 14.078 17.9401 13.9739 17.8366L11.7614 15.6376ZM11.2408 22.1167C11.4441 21.9105 11.5565 21.6324 11.5535 21.3437C11.5505 21.055 11.4322 20.7794 11.2246 20.5774L10.3578 19.7337C10.2551 19.6337 10.1335 19.5548 10 19.5015C9.8666 19.4482 9.72388 19.4215 9.58006 19.423C9.43624 19.4245 9.29412 19.4541 9.16182 19.5102C9.02952 19.5663 8.90964 19.6477 8.809 19.7499L8.72913 19.8309C8.52589 20.0372 8.41342 20.3153 8.41646 20.604C8.41951 20.8926 8.53781 21.1683 8.74535 21.3703L9.61213 22.2139C9.71489 22.314 9.83647 22.3929 9.96992 22.4462C10.1034 22.4995 10.2461 22.5262 10.3899 22.5247C10.5337 22.5232 10.6758 22.4936 10.8081 22.4375C10.9404 22.3814 11.0603 22.2999 11.161 22.1978L11.2408 22.1167ZM36.732 26.8018C36.6327 26.7031 36.5148 26.6248 36.385 26.5714C36.2553 26.5179 36.1162 26.4904 35.9757 26.4904C35.8353 26.4904 35.6962 26.5179 35.5665 26.5714C35.4367 26.6248 35.3188 26.7031 35.2195 26.8018L26.7812 35.1886C26.6819 35.2873 26.6031 35.4044 26.5493 35.5334C26.4956 35.6624 26.4679 35.8006 26.4679 35.9402C26.4679 36.0798 26.4956 36.218 26.5493 36.347C26.6031 36.476 26.6819 36.5932 26.7812 36.6919L28.1544 38.0567C28.2537 38.1554 28.3716 38.2337 28.5014 38.2872C28.6312 38.3406 28.7703 38.3681 28.9107 38.3681C29.0512 38.3681 29.1902 38.3406 29.32 38.2872C29.4498 38.2337 29.5677 38.1554 29.667 38.0567L38.1053 29.67C38.2046 29.5713 38.2834 29.4541 38.3371 29.3251C38.3909 29.1961 38.4185 29.0579 38.4185 28.9183C38.4185 28.7787 38.3909 28.6405 38.3371 28.5115C38.2834 28.3826 38.2046 28.2654 38.1053 28.1667L36.732 26.8018Z" fill="#6E7E44"></path>
    <path d="M26.7918 27.5551C27.2266 27.5551 27.579 27.2048 27.579 26.7727C27.579 26.3405 27.2266 25.9902 26.7918 25.9902C26.357 25.9902 26.0045 26.3405 26.0045 26.7727C26.0045 27.2048 26.357 27.5551 26.7918 27.5551Z" fill="#6E7E44"></path>
    <path d="M5.41713 35.1987C5.85192 35.1987 6.20438 34.8484 6.20438 34.4162C6.20438 33.9841 5.85192 33.6338 5.41713 33.6338C4.98235 33.6338 4.62988 33.9841 4.62988 34.4162C4.62988 34.8484 4.98235 35.1987 5.41713 35.1987Z" fill="#6E7E44"></path>
</svg>