<svg xmlns="http://www.w3.org/2000/svg" width="40" height="40" fill="none"><path d="M32.166 5.123a9.56 9.56 0 0 0-7.085-3.77C20.116 1.053 15.69 4.61 15.06 9.45c-.237 1.816.05 3.557.857 5.224.256.525-.158 1.083-.741.973-.274-.052-.426-.247-.535-.484-1.099-2.39-1.315-4.812-.649-7.264.946-3.487 3.686-6.286 7.197-7.39a10.99 10.99 0 0 1 5.216-.345c5.1.87 8.91 5.233 8.987 10.322a10.39 10.39 0 0 1-1.06 4.783.683.683 0 0 1-1.15.14c-.208-.248-.167-.538-.03-.82a8.99 8.99 0 0 0 .867-4.426c-.115-1.89-.733-3.57-1.853-5.041Z" fill="#6E7E44"/><path d="M21.777 13.895c.067-.316-.141-.386-.318-.582a3.876 3.876 0 0 1-1.032-2.609 45.37 45.37 0 0 1 .016-2.277c.05-1.438.523-2.734 1.85-3.347.812-.375 1.789-.45 2.719-.395 1.29.076 2.497.539 3.093 1.714.307.606.437 1.32.462 1.987.025.671.033 1.406.024 2.204-.015 1.192-.434 2.172-1.258 2.94a.323.323 0 0 0-.084.375c.01.02.025.036.047.045 1.108.476 2.19.929 3.246 1.36.297.12.535.24.714.357.58.38 1.066 1.079 1.26 1.723.118.396-.108.627-.37.875-1.577 1.494-3.498 2.511-5.615 2.887-1.68.299-3.326.231-4.94-.203-1.69-.454-3.223-1.307-4.596-2.558a3.2 3.2 0 0 1-.418-.453c-.13-.174-.151-.377-.064-.611.255-.689.654-1.224 1.196-1.605.227-.16.613-.35 1.156-.567a97.183 97.183 0 0 0 2.869-1.208.074.074 0 0 0 .043-.052Zm.156-6.415c-.076.324-.119.625-.127.904-.024.789-.03 1.562-.016 2.32.012.709.274 1.316.784 1.82.236.234.543.38.564.767.01.204.012.414.004.628a.082.082 0 0 0 .04.072c.93.565 1.696.562 2.64.01a.09.09 0 0 0 .049-.088 8.108 8.108 0 0 1 .005-.622c.018-.393.377-.576.62-.825.48-.493.722-1.101.73-1.824a84.45 84.45 0 0 0-.002-1.79 7.325 7.325 0 0 0-.105-1.18c-.19-1.097-.906-1.531-1.978-1.638a6.38 6.38 0 0 0-1.37.011c-.913.108-1.617.502-1.838 1.435Zm8 9.021a253.338 253.338 0 0 1-3.29-1.375.14.14 0 0 0-.128.01c-.275.177-.56.316-.854.417-1.134.388-2.183.184-3.186-.427a.08.08 0 0 0-.079-.005c-1.165.497-2.339.99-3.522 1.481-.362.15-.666.415-.91.794-.015.022-.012.042.007.06 1.465 1.328 3.14 2.137 5.028 2.428 2.9.447 5.954-.42 8.059-2.456a.016.016 0 0 0 .002-.02 2.094 2.094 0 0 0-.495-.576c-.126-.099-.337-.209-.633-.33ZM13.461 33.752c-.018.009-.02.02-.005.035.212.212.446.438.7.679.46.436.251.86-.137 1.239a1799.68 1799.68 0 0 0-4.176 4.088c-.37.364-1.015.233-1.154-.279-.09-.326.054-.527.29-.759l3.765-3.693c.035-.034.034-.067-.002-.1-.706-.64-1.36-1.316-2.034-1.978a5823.25 5823.25 0 0 0-5.612-5.496.03.03 0 0 0-.021 0 3447.121 3447.121 0 0 1-3.88 3.8c-.559.548-1.455-.006-1.123-.727a.52.52 0 0 1 .107-.154c1.426-1.403 2.874-2.823 4.343-4.26.347-.34.816-.315 1.15.012 2.267 2.225 4.517 4.429 6.748 6.613a.046.046 0 0 0 .059.006 4.871 4.871 0 0 1 1.827-.71c.278-.047.685-.07 1.22-.068 2.071.008 4.092.009 6.063.004 1.06-.004 2.007-.16 3.069-.454 2.21-.615 4.436-1.229 6.678-1.842.11-.03.214-.073.31-.129 2.32-1.337 4.612-2.661 6.877-3.97a.08.08 0 0 0 .036-.093c-.088-.283-.201-.53-.339-.741-.575-.882-1.769-1.002-2.727-.812-.794.158-1.486.385-2.076.68a328.122 328.122 0 0 0-3.769 1.912 1.208 1.208 0 0 1-.34.115l-.825.147c-.034.006-.05.026-.047.06.034.396.084.81-.32 1.036a.864.864 0 0 1-.43.093c-3.37-.005-6.671-.006-9.904-.002-.58 0-.955-.529-.636-1.031.152-.24.402-.306.688-.306 2.824.006 5.882.006 9.174.002.03 0 .042-.015.037-.044-.38-2.166-2.299-2.626-4.215-2.624-1.757.002-3.406.001-4.947-.001-.323 0-.473-.238-.734-.361-1.406-.666-2.835-.904-4.286-.713-1.606.213-3.009.876-4.209 1.99-.14.13-.263.276-.386.422-.56.674-1.613-.086-1.089-.79.163-.22.358-.433.585-.64 2.82-2.586 6.928-3.129 10.305-1.298.072.04.15.059.236.059 1.533.001 3.072.002 4.617 0 2.205-.001 4.343.64 5.213 2.806a.057.057 0 0 0 .061.034c.375-.06.734-.09 1.088-.271.974-.496 1.939-.989 2.893-1.478.449-.23.857-.42 1.224-.57 1.693-.691 3.926-1.062 5.414.235.694.605 1.056 1.477 1.178 2.38a.668.668 0 0 1-.334.692 7295.11 7295.11 0 0 1-7.474 4.317c-.1.058-.203.089-.312.12a771.77 771.77 0 0 1-7.433 2.05c-.835.227-1.757.342-2.765.347-2.102.01-4.236.01-6.4.001-.678-.003-1.24.119-1.814.42ZM22.448 36.007c5.416.005 10.782-1.754 15.023-5.046.193-.15.353-.239.479-.268.702-.161 1.123.727.56 1.168-4.06 3.184-9.074 5.08-14.26 5.417a37.991 37.991 0 0 1-3.208.053c-.254-.006-.445-.129-.57-.37-.238-.453.12-.953.631-.953l1.345-.001Z" fill="#6E7E44"/><path d="M18.352 37.336a.67.67 0 0 0 .677-.664.67.67 0 0 0-.677-.663.67.67 0 0 0-.677.663.67.67 0 0 0 .677.664Z" fill="#6E7E44"/></svg>