<svg xmlns="http://www.w3.org/2000/svg" width="50" height="40" fill="none"><path d="M25.047 24.42c.277-.337.634-.53 1.054-.332.555.259.568.941.156 1.356-.448.45-.86.87-1.236 1.261a.074.074 0 0 0-.021.052v4.058a.022.022 0 0 0 .013.02.021.021 0 0 0 .012.001.02.02 0 0 0 .011-.005c3.165-3.246 6.082-6.233 8.75-8.96.769-.787 1.862.35 1.114 1.116-3.263 3.344-6.552 6.711-9.867 10.104a.118.118 0 0 0-.034.083L25 37.217a.02.02 0 0 0 .003.01.02.02 0 0 0 .02.01.02.02 0 0 0 .01-.006c4.381-4.48 8.677-8.883 12.888-13.208.313-.322.607-.53 1.035-.351.531.223.638.908.243 1.313-4.612 4.724-9.277 9.502-13.996 14.333-.126.129-.25.263-.373.403-.196.225-.397.277-.707.277H.802c-.156 0-.319-.062-.488-.184a.73.73 0 0 1-.266-.325.576.576 0 0 1-.043-.208C0 29.233-.001 19.6.002 10.388c0-.324.217-.647.51-.736.136-.042.29-.062.465-.061 1.299.006 2.52.007 3.665.003.031 0 .047-.016.046-.048L4.685 8.13c-.002-1.725.446-3.263 1.345-4.614 3.04-4.57 9.582-4.722 12.775-.24.968 1.36 1.469 2.892 1.502 4.596.01.544.013 1.1.006 1.666a.047.047 0 0 0 .027.043.044.044 0 0 0 .017.003c1.172.018 2.346.02 3.523.004.468-.006.905.052 1.06.528.042.13.063.286.063.47l-.002 13.816c0 .05.015.055.046.018ZM1.624 38.398l21.773.001a.04.04 0 0 0 .029-.012.042.042 0 0 0 .012-.03l-.006-27.097c0-.045-.022-.068-.066-.068l-3.012.005c-.01 0-.019.004-.026.011a.038.038 0 0 0-.01.027c-.004.826-.006 1.59-.007 2.294-.002 1.138-1.546 1.128-1.558.044-.01-.745-.01-1.525-.004-2.34 0-.027-.013-.04-.04-.04-3.57-.002-7.185-.002-10.846-.001-1.1 0-1.087-1.598-.01-1.597a10582.008 10582.008 0 0 0 10.882-.002.03.03 0 0 0 .01-.007.03.03 0 0 0 .006-.01.03.03 0 0 0 .003-.012c-.02-.803.042-1.652-.063-2.425-.404-2.983-2.732-5.26-5.665-5.516-2.66-.232-5.096 1.256-6.218 3.727-.322.708-.544 1.62-.549 2.358-.012 1.87-.014 3.796-.006 5.778.002.45-.186.74-.562.867a.764.764 0 0 1-.903-.377 1.106 1.106 0 0 1-.104-.508c.006-.792.007-1.537.003-2.236 0-.026-.014-.04-.04-.04l-3.045.001c-.01 0-.02.005-.027.012a.042.042 0 0 0-.012.029v27.103c0 .04.02.061.06.061Z" fill="#6E7E44"/><path d="M38.628 38.37a.015.015 0 0 0-.004.007.015.015 0 0 0 .006.016.015.015 0 0 0 .008.002h3.954a.123.123 0 0 0 .09-.037c1.08-1.102 2.27-2.322 3.572-3.661.804-.827 1.904.313 1.129 1.109l-2.504 2.562a.017.017 0 0 0-.005.008.016.016 0 0 0 .008.016.016.016 0 0 0 .009.003l3.495.005c.032 0 .049-.018.049-.052V20.833c0-.026-.013-.04-.038-.04l-5.384.004a.031.031 0 0 0-.029.02 373.26 373.26 0 0 0-.017 3.096c-.002 1.185-1.589 1.147-1.562-.002a254.224 254.224 0 0 1 .009-3.102.018.018 0 0 0-.005-.006.02.02 0 0 0-.014-.006c-3.634 0-7.27-.002-10.907-.004-1.046-.001-1.066-1.594.018-1.595 3.488-.003 7.099-.002 10.834.002.049 0 .073-.025.072-.075-.02-.922.032-1.981-.032-2.848-.212-2.856-2.328-5.274-5.088-5.775a6.156 6.156 0 0 0-5.975 2.249c-.939 1.177-1.409 2.543-1.41 4.098l-.001 7.082c0 .303-.102.533-.305.692a.764.764 0 0 1-1.18-.3 1.107 1.107 0 0 1-.082-.441c.008-1.07.008-2.078 0-3.024a.064.064 0 0 0-.018-.044.061.061 0 0 0-.043-.018 24.162 24.162 0 0 0-.65 0c-1.101.011-1.104-1.588-.065-1.594.249 0 .492-.004.73-.008a.054.054 0 0 0 .038-.017.058.058 0 0 0 .016-.04c-.007-.807-.007-1.61 0-2.41.037-3.603 2.382-6.7 5.752-7.649 4.562-1.284 9.178 1.877 9.796 6.662.057.443.083.975.077 1.595a91.53 91.53 0 0 0 0 1.814c.001.034.018.05.05.05 2.117 0 4.182 0 6.197-.002.122 0 .245-.003.35.077.13.1.245.213.346.34a.54.54 0 0 1 .066.198c.012.06.019.13.019.205v18.707c0 .365-.005.572-.015.621a.815.815 0 0 1-.366.541.747.747 0 0 1-.42.104c-10.911.01-18.19.012-21.835.006-1.049-.002-1.072-1.6.034-1.6h2.694c.036 0 .07-.015.096-.041 5.318-5.448 10.682-10.94 16.09-16.476.46-.473 1.233-.292 1.347.383.074.438-.137.635-.455.96-4.932 5.052-9.858 10.097-14.78 15.136-.024.025-.019.038.016.038h3.939a.125.125 0 0 0 .091-.04c3.309-3.39 6.604-6.765 9.886-10.123a.77.77 0 0 1 1.12.038c.289.325.253.813-.048 1.122-2.933 3.006-5.855 5.998-8.766 8.976ZM15.022 21.885c1.17.188 2.38.378 3.627.569.422.064.772.204.864.667.089.455-.179.705-.452.991l-2.566 2.689a.087.087 0 0 0-.025.077c.23 1.433.451 2.823.663 4.172.052.332-.095.682-.393.84-.452.24-.734.013-1.221-.262a522.7 522.7 0 0 1-2.975-1.686.064.064 0 0 0-.068-.001c-1.018.569-2.043 1.15-3.076 1.745-.432.25-.847.5-1.297.081-.326-.302-.24-.67-.18-1.051.209-1.3.412-2.579.61-3.836a.103.103 0 0 0-.027-.087c-.909-.952-1.833-1.922-2.771-2.908-.255-.268-.323-.563-.206-.885.162-.441.526-.499.923-.558 1.156-.172 2.325-.355 3.507-.547a.152.152 0 0 0 .115-.09 1259.22 1259.22 0 0 0 1.71-3.72c.306-.67 1.146-.64 1.451.022.491 1.062 1.057 2.298 1.699 3.71a.112.112 0 0 0 .088.068Zm-2.544-1.555-1.162 2.53c-.145.317-.341.493-.681.547-.91.143-1.808.284-2.692.421a.033.033 0 0 0-.016.008.034.034 0 0 0-.012.034.035.035 0 0 0 .009.016c.65.686 1.308 1.376 1.976 2.071a.855.855 0 0 1 .242.758c-.142.926-.297 1.9-.464 2.925-.008.045.008.056.047.034l2.26-1.288c.298-.168.575-.252.887-.078.867.483 1.671.938 2.413 1.365.034.02.048.01.042-.03-.162-.99-.315-1.95-.459-2.885-.048-.312.013-.557.181-.733.667-.696 1.34-1.403 2.02-2.121.04-.042.032-.067-.025-.076-.767-.122-1.525-.242-2.274-.363-.538-.087-.842-.085-1.064-.566-.377-.815-.77-1.672-1.177-2.57a.028.028 0 0 0-.05 0Z" fill="#6E7E44"/></svg>