<svg xmlns="http://www.w3.org/2000/svg" width="242" height="189" viewBox="0 0 242 189" fill="none">
    <path d="M30.7119 43.5717C31.2681 43.5132 31.2927 43.3668 30.7859 43.1325C24.8514 40.4297 21.3122 36.3348 18.7688 30.5574C18.0377 28.8997 17.5398 27.2442 17.2751 25.5909C14.9067 10.7725 26.8834 -0.214656 41.2419 0.86649C53.5213 1.79222 63.0959 12.3604 61.831 24.7868C61.0034 32.9225 56.603 38.835 49.316 42.396C48.863 42.6167 48.4055 42.8375 47.9434 43.0582C47.5532 43.2429 47.5734 43.3668 48.004 43.4298C58.386 44.9029 66.2449 48.6734 72.0246 58.0591C79.3317 69.9179 79.251 83.8917 78.5916 97.5074C78.5691 97.9436 78.3814 98.3544 78.067 98.655C77.7527 98.9555 77.3359 99.1229 76.9027 99.1224L2.02843 99.1291C1.60653 99.1294 1.19968 98.9716 0.887387 98.6867C0.575089 98.4018 0.37977 98.0103 0.339588 97.5885C-0.436427 89.2096 0.11755 80.2766 2.00152 70.7896C4.86784 56.3833 15.9227 45.1462 30.7119 43.5717ZM57.8864 26.46C58.3681 24.1035 58.3672 21.6716 57.8837 19.3031C57.4003 16.9345 56.4438 14.6758 55.0689 12.6559C53.6939 10.6359 51.9274 8.8943 49.8703 7.53044C47.8132 6.16658 45.5057 5.20719 43.0796 4.70706C40.6534 4.20692 38.1562 4.17583 35.7304 4.61556C33.3046 5.0553 30.9978 5.95724 28.9417 7.26989C26.8856 8.58254 25.1204 10.2802 23.747 12.2659C22.3736 14.2517 21.4188 16.4866 20.9371 18.8431C20.4554 21.1996 20.4563 23.6315 20.9398 26.0001C21.4232 28.3686 22.3797 30.6273 23.7546 32.6473C25.1296 34.6672 26.8961 36.4088 28.9532 37.7727C31.0103 39.1366 33.3178 40.096 35.7439 40.5961C38.1701 41.0962 40.6673 41.1273 43.0931 40.6876C45.5189 40.2478 47.8257 39.3459 49.8818 38.0333C51.9379 36.7206 53.7031 35.0229 55.0765 33.0372C56.4499 31.0515 57.4048 28.8166 57.8864 26.46ZM27.0112 48.099C25.2304 48.3873 23.8152 48.7883 22.7655 49.3018C14.1486 53.5498 8.61335 60.2416 6.15971 69.3773C4.25331 76.4678 3.45038 84.9954 3.75092 94.9599C3.75989 95.2663 3.91689 95.4194 4.22191 95.4194H14.6981C14.9583 95.4194 15.0929 95.291 15.1018 95.0343L15.7208 74.3506C15.7567 73.0983 16.3937 72.5217 17.6317 72.6208L17.9547 72.6478C18.9146 72.7244 19.3834 73.2469 19.3609 74.2155L18.7823 95.1829C18.7814 95.2119 18.7863 95.2407 18.7967 95.2678C18.8071 95.2948 18.8228 95.3194 18.8429 95.3402C18.863 95.361 18.8871 95.3775 18.9136 95.3888C18.9402 95.4001 18.9688 95.4059 18.9976 95.4059L58.8166 95.4194C58.9308 95.4194 59.0404 95.3739 59.1211 95.2928C59.2019 95.2117 59.2472 95.1017 59.2472 94.987L59.2607 74.1479C59.2607 72.819 59.9179 72.2153 61.2322 72.337L61.4676 72.364C62.45 72.4541 62.9389 72.9947 62.9344 73.9857L62.8806 95.0545C62.8806 95.3068 63.0085 95.4329 63.2641 95.4329H74.5612C74.6798 95.4333 74.794 95.3886 74.8803 95.3082C74.9667 95.2278 75.0186 95.1177 75.0255 95.0005C75.8396 81.4591 75.2072 67.0123 66.0026 56.1671C62.4904 52.0272 58.0473 49.3176 52.6735 48.0382C44.9358 46.0989 34.8902 45.4773 27.0112 48.099Z" fill="#6E7E44"></path>
    <path d="M213.638 44.5856C218.303 45.3649 222.331 46.8132 225.722 48.9304C231.67 52.6469 236.125 59.1067 238.587 65.6747C242.422 75.9253 242.248 87.1625 241.716 98.055C241.653 99.2893 241.007 99.9065 239.778 99.9065C214.156 99.9065 189.413 99.9042 165.55 99.8997C164.258 99.8997 163.556 99.2443 163.444 97.9334C162.713 89.4914 163.291 80.5675 165.18 71.1615C167.817 58.0053 178.213 46.8695 191.448 44.6869C191.887 44.6149 191.921 44.4594 191.549 44.2207C190.634 43.6328 189.638 43.0585 188.81 42.3692C184.338 38.6393 181.559 33.8755 180.474 28.0778C179.747 24.1947 180.106 20.3837 181.55 16.6447C184.221 9.74567 189.994 5.36027 197.241 3.82639C199.475 3.34889 202.108 3.20924 205.14 3.40745C213.793 3.97505 221.107 10.0227 223.818 17.8678C227.384 28.186 223.193 38.869 213.571 44.1802C213.212 44.3784 213.234 44.5135 213.638 44.5856ZM220.773 29.8432C221.394 27.5143 221.538 25.0814 221.195 22.6832C220.853 20.2851 220.031 17.9686 218.777 15.8662C217.523 13.7638 215.861 11.9166 213.886 10.43C211.912 8.9434 209.663 7.84658 207.268 7.20214C202.431 5.90062 197.294 6.52077 192.987 8.92615C188.679 11.3315 185.554 15.3251 184.299 20.0284C183.678 22.3572 183.534 24.7901 183.877 27.1883C184.219 29.5865 185.041 31.9029 186.295 34.0053C187.549 36.1077 189.211 37.9549 191.186 39.4415C193.161 40.9281 195.41 42.0249 197.805 42.6694C202.641 43.9709 207.778 43.3508 212.086 40.9454C216.393 38.54 219.518 34.5464 220.773 29.8432ZM189.369 48.8291C178.724 51.8766 171.054 61.2825 168.806 71.9318C167.151 79.7656 166.523 87.7503 166.922 95.8859C166.931 96.0977 167.041 96.2035 167.252 96.2035L178.045 96.2103C178.102 96.2103 178.158 96.1878 178.199 96.1474C178.241 96.107 178.265 96.052 178.267 95.9941L178.812 75.0063C178.822 74.6036 178.982 74.2193 179.259 73.9283C179.537 73.6372 179.912 73.4603 180.312 73.4319L180.601 73.4116C181.88 73.326 182.501 73.9274 182.465 75.2158L181.9 95.8792C181.899 95.9161 181.906 95.9529 181.919 95.9873C181.932 96.0217 181.953 96.053 181.978 96.0795C182.004 96.1059 182.035 96.1269 182.069 96.1413C182.103 96.1556 182.139 96.163 182.176 96.163L222.096 96.1698C222.151 96.1698 222.204 96.1484 222.243 96.1104C222.282 96.0724 222.304 96.0208 222.304 95.967L222.439 74.959C222.443 73.9995 222.899 73.3621 223.805 73.0467C223.975 72.9882 224.15 72.9724 224.33 72.9994C225.545 73.1571 226.149 73.8508 226.14 75.0807L226.005 95.744C226.001 96.0414 226.146 96.19 226.442 96.19H237.746C237.82 96.1902 237.89 96.1624 237.944 96.1122C237.998 96.062 238.03 95.9932 238.036 95.9197C239.556 78.0808 236.717 53.7145 215.515 48.6331C208.361 46.9799 201.103 46.6826 193.742 47.7412C192.275 47.9506 190.808 48.4304 189.369 48.8291Z" fill="#6E7E44"></path>
    <path d="M49.1214 35.7801C40.3139 41.4831 27.5769 38.3545 23.634 28.1647C23.5841 28.0354 23.561 27.8972 23.5661 27.7587C23.5712 27.6202 23.6045 27.4843 23.6638 27.3595C23.7231 27.2347 23.8071 27.1237 23.9108 27.0332C24.0145 26.9427 24.1355 26.8748 24.2665 26.8336C24.9304 26.6264 25.4978 26.7885 25.9688 27.3201C26.9377 28.4148 27.9178 29.3675 28.9091 30.1784C34.7449 34.976 41.303 35.9985 48.5831 33.2461C49.1753 33.0209 49.718 33.1087 50.2114 33.5097C50.3595 33.6313 50.4178 33.7799 50.3864 33.9556C50.2294 34.7305 49.8077 35.3386 49.1214 35.7801Z" fill="#A2AC87"></path>
    <path d="M189.006 29.5238C194.644 36.139 203.674 39.2676 211.627 35.3484C212.214 35.0601 212.714 35.1705 213.127 35.6795C213.248 35.8237 213.316 35.9949 213.329 36.1931C213.392 37.031 213.073 37.6797 212.374 38.1392C210.445 39.405 208.583 40.2113 206.789 40.5582C198.625 42.1259 192.206 39.4365 187.532 32.4902C186.989 31.6838 186.812 30.8009 187.001 29.8414C187.09 29.3954 187.46 29.1589 188.111 29.1319C188.279 29.1236 188.446 29.1546 188.602 29.2226C188.757 29.2905 188.895 29.3936 189.006 29.5238Z" fill="#A2AC87"></path>
    <path d="M52.6741 48.0383C51.5571 48.6937 50.4268 49.3492 49.1214 49.6059C43.9764 50.624 38.7955 50.7975 33.5787 50.1262C33.5159 50.1172 32.7892 50.0587 31.3987 49.9506C29.6448 49.8109 28.1825 49.1938 27.0117 48.0991C34.8907 45.4773 44.9363 46.099 52.6741 48.0383Z" fill="#A2AC87"></path>
    <path d="M215.516 48.633C214.278 49.8988 212.425 50.6196 209.958 50.7953C203.562 51.2548 198.038 51.1624 193.386 50.5182C192.646 50.4146 191.951 50.2029 191.3 49.8831C190.641 49.5542 189.997 49.2028 189.369 48.8289C190.809 48.4303 192.276 47.9505 193.743 47.741C201.104 46.6824 208.361 46.9797 215.516 48.633Z" fill="#A2AC87"></path>
    <path d="M131.524 115.529C131.919 115.691 132.332 115.804 132.762 115.867C143.828 117.506 152.58 122.748 159.017 131.591C170.711 147.652 170.758 167.883 169.688 187.27C169.664 187.676 169.488 188.057 169.195 188.336C168.902 188.615 168.515 188.77 168.114 188.77C135.126 188.819 102.033 188.79 68.8352 188.682C68.3597 188.682 67.8775 188.675 67.3886 188.662C67.1113 188.655 66.8453 188.552 66.6373 188.369C66.4293 188.186 66.2926 187.935 66.2515 187.662C65.933 185.567 65.7334 183.472 65.6526 181.377C65.2848 171.805 66.1797 161.588 68.3373 150.727C69.2591 146.051 71.2978 141.53 73.5317 137.476C77.5889 130.097 84.7884 122.827 91.8061 119.597C96.7673 117.313 101.596 115.882 106.293 115.306C106.746 115.252 106.777 115.108 106.387 114.873C99.6179 110.792 95.1681 105.089 93.0375 97.7643C89.7943 86.6285 93.5623 75.4183 103.271 68.945C112.745 62.6338 126.014 62.4919 135.534 69.3301C145.425 76.4251 149.415 88.6353 145.398 100.109C143.084 106.727 138.455 111.738 131.511 115.144C131.228 115.283 131.233 115.412 131.524 115.529ZM142.792 95.9306C144.056 89.907 142.804 83.6086 139.31 78.4208C135.817 73.2331 130.369 69.581 124.165 68.268C117.961 66.9551 111.509 68.0887 106.229 71.4197C100.948 74.7506 97.2711 80.0059 96.0071 86.0295C94.7431 92.0531 95.9955 98.3516 99.4887 103.539C102.982 108.727 108.43 112.379 114.634 113.692C120.838 115.005 127.29 113.871 132.571 110.54C137.851 107.21 141.528 101.954 142.792 95.9306ZM113.088 121.59C115.066 125.216 117.962 126.212 121.775 124.577C123.641 123.775 124.919 122.286 125.61 120.11C125.951 119.655 126.132 119.286 126.155 119.002C126.177 118.633 126.005 118.439 125.637 118.421C121.044 118.151 116.775 118.083 112.833 118.218C112.59 118.227 112.46 118.351 112.442 118.59C112.371 119.666 112.586 120.667 113.088 121.59ZM129.963 161.822C130.017 162.991 130.017 163.998 129.21 164.93C125.24 169.525 121.925 174.611 119.265 180.188C118.653 181.465 117.166 181.715 116.331 180.472C116.152 180.211 115.973 179.945 115.793 179.675C112.267 174.336 109.004 169.021 106.003 163.728C109.973 152.02 112.886 140.285 114.743 128.523C114.779 128.302 114.699 128.142 114.501 128.043C110.819 126.133 108.885 123.099 108.701 118.941C108.692 118.707 108.573 118.603 108.345 118.63C103.68 119.225 99.0504 120.459 94.4572 122.333C91.9676 123.351 89.5925 124.822 87.3317 126.746C83.9854 129.584 81.3501 132.23 79.4258 134.685C75.2272 140.044 72.6839 147.267 71.3651 154.524C69.5125 164.746 68.8666 174.776 69.4273 184.614C69.4359 184.766 69.5021 184.909 69.6122 185.013C69.7223 185.117 69.868 185.175 70.0194 185.175L85.4679 185.161C85.7191 185.161 85.847 185.035 85.8515 184.783L86.632 156.342C86.6634 155.144 87.2757 154.506 88.4688 154.43C88.6213 154.421 88.7738 154.437 88.9264 154.477C89.8594 154.725 90.3102 155.333 90.2788 156.302L89.4445 184.742C89.4355 185.013 89.5633 185.148 89.828 185.148L144.692 185.168C144.795 185.168 144.895 185.126 144.968 185.051C145.041 184.977 145.082 184.875 145.082 184.769L145.075 155.937C145.075 154.801 145.632 154.139 146.744 153.95C147.054 153.9 147.356 153.959 147.652 154.126C148.397 154.549 148.767 155.189 148.763 156.045L148.621 185.006C148.621 185.024 148.625 185.041 148.632 185.058C148.638 185.074 148.648 185.089 148.661 185.102C148.673 185.114 148.688 185.124 148.704 185.131C148.721 185.138 148.738 185.141 148.756 185.141L165.86 185.128C165.93 185.128 165.999 185.099 166.05 185.049C166.101 184.999 166.132 184.93 166.135 184.857C167.03 168.181 166.775 150.254 157.429 135.76C152.548 128.196 146.152 123.255 138.239 120.935C135.512 120.133 132.877 119.493 130.333 119.016C129.961 118.943 129.741 119.097 129.674 119.475C129.077 122.863 127.355 125.482 124.506 127.334C124.291 127.469 124.197 127.662 124.224 127.915C125.336 139.366 127.249 150.668 129.963 161.822ZM111.238 159.302C110.758 160.766 110.377 162.126 110.094 163.383C110.054 163.559 110.081 163.723 110.175 163.876L117.354 175.411C117.37 175.436 117.391 175.456 117.417 175.47C117.443 175.484 117.471 175.491 117.501 175.49C117.53 175.489 117.558 175.481 117.583 175.466C117.608 175.451 117.629 175.43 117.643 175.404C119.891 171.057 122.638 166.973 125.886 163.153C126.036 162.976 126.141 162.765 126.194 162.538C126.247 162.311 126.245 162.075 126.189 161.849C123.605 151.245 121.799 140.652 120.772 130.07C120.745 129.764 120.579 129.611 120.274 129.611L118.666 129.631C118.384 129.631 118.22 129.773 118.175 130.057C116.578 140.31 114.266 150.058 111.238 159.302Z" fill="#6E7E44"></path>
    <path d="M111.527 104.061C117.834 107.016 124.251 107.151 130.777 104.467C131.585 104.129 132.446 104.365 132.702 105.271C132.747 105.436 132.742 105.612 132.688 105.774C132.634 105.937 132.534 106.079 132.399 106.183C121.6 114.481 106.097 110.764 100.23 98.4662C99.8667 97.7094 100.019 97.054 100.688 96.4999C100.897 96.3251 101.167 96.2398 101.438 96.2626C101.708 96.2854 101.959 96.4143 102.134 96.6215C105.018 100 108.149 102.48 111.527 104.061Z" fill="#A2AC87"></path>
    <path d="M59.0795 148.862C49.7337 137.611 43.2542 123.326 40.6099 109.109C40.5744 108.917 40.5784 108.719 40.6215 108.529C40.6645 108.338 40.7459 108.158 40.8605 108C40.975 107.842 41.1205 107.709 41.288 107.609C41.4554 107.51 41.6414 107.445 41.8345 107.42L42.1978 107.379C43.3416 107.231 44.0324 107.726 44.2702 108.866C47.2441 123.225 53.2998 135.523 61.8314 147.071C61.9415 147.22 62.0188 147.389 62.0583 147.569C62.0977 147.748 62.0984 147.933 62.0602 148.112C61.957 148.598 61.7395 148.956 61.4076 149.186C60.5329 149.785 59.7568 149.677 59.0795 148.862Z" fill="#6E7E44"></path>
    <path d="M182.001 144.24C190.95 134.685 197.363 123.279 200.895 110.684C201.142 109.792 201.727 109.375 202.651 109.434C202.817 109.443 202.976 109.477 203.129 109.535C204.223 109.959 204.614 110.738 204.3 111.873C200.617 125.176 194.11 136.767 184.78 146.646C183.973 147.497 183.065 147.625 182.055 147.031C181.665 146.796 181.472 146.305 181.477 145.558C181.481 145.067 181.668 144.597 182.001 144.24Z" fill="#6E7E44"></path>
    <path d="M125.61 120.11C124.672 120.119 123.47 120.498 122.003 121.245C120.314 122.104 118.451 121.766 116.392 121.293C115.154 121.009 114.053 121.108 113.088 121.59C112.586 120.667 112.37 119.667 112.442 118.59C112.46 118.351 112.59 118.227 112.832 118.218C116.775 118.083 121.043 118.151 125.637 118.421C126.004 118.439 126.177 118.633 126.155 119.002C126.132 119.286 125.951 119.655 125.61 120.11Z" fill="white"></path>
    <path d="M125.61 120.109C124.919 122.285 123.64 123.774 121.774 124.576C117.962 126.211 115.066 125.216 113.088 121.589C114.052 121.107 115.154 121.008 116.392 121.292C118.45 121.765 120.314 122.103 122.003 121.245C123.47 120.497 124.672 120.119 125.61 120.109Z" fill="#A2AC87"></path>
    <path d="M111.238 159.301C114.266 150.058 116.578 140.309 118.175 130.057C118.22 129.773 118.384 129.631 118.666 129.631L120.275 129.611C120.58 129.611 120.745 129.764 120.772 130.07C121.8 140.652 123.605 151.245 126.189 161.849C126.245 162.075 126.247 162.311 126.194 162.538C126.142 162.765 126.036 162.975 125.886 163.153C122.638 166.973 119.891 171.057 117.644 175.404C117.629 175.429 117.609 175.451 117.584 175.466C117.559 175.481 117.53 175.489 117.501 175.49C117.472 175.491 117.443 175.484 117.417 175.47C117.391 175.456 117.37 175.435 117.354 175.411L110.175 163.876C110.081 163.723 110.054 163.559 110.094 163.383C110.377 162.126 110.758 160.766 111.238 159.301Z" fill="white"></path>
    <path d="M129.964 161.821C130.785 163.254 130.854 164.547 130.172 165.7C126.391 172.074 122.749 178.081 119.245 183.721C118.391 185.1 116.911 184.593 116.143 183.485C111.949 177.457 108.399 171.971 105.492 167.024C105.21 166.542 105.104 166.02 105.176 165.457C105.279 164.65 105.555 164.074 106.004 163.727C109.005 169.02 112.268 174.336 115.794 179.674C115.973 179.944 116.152 180.21 116.332 180.471C117.166 181.714 118.653 181.464 119.265 180.187C121.925 174.61 125.24 169.524 129.21 164.93C130.018 163.997 130.018 162.99 129.964 161.821Z" fill="#A2AC87"></path>
</svg>