<svg xmlns="http://www.w3.org/2000/svg" width="32" height="32" fill="none"><path d="m12 12 8 8m0-8-8 8m-1.6 8h11.2c2.24 0 3.36 0 4.216-.436a4 4 0 0 0 1.748-1.748C28 24.96 28 23.84 28 21.6V10.4c0-2.24 0-3.36-.436-4.216a4 4 0 0 0-1.748-1.748C24.96 4 23.84 4 21.6 4H10.4c-2.24 0-3.36 0-4.216.436a4 4 0 0 0-1.748 1.748C4 7.04 4 8.16 4 10.4v11.2c0 2.24 0 3.36.436 4.216a4 4 0 0 0 1.748 1.748C7.04 28 8.16 28 10.4 28Z" stroke="#231C1E" stroke-opacity=".2" stroke-width="1.5" stroke-linecap="round" stroke-linejoin="round"/></svg>