<svg xmlns="http://www.w3.org/2000/svg" width="16" height="16" fill="none"><path fill-rule="evenodd" clip-rule="evenodd" d="M1.333 5.82V10.133c0 .345 0 .637.007.888l3.242-2.928L1.333 5.82Zm.224-2.072c.111.027.219.074.318.144L6.62 7.213l.033.023.666.466c.504.354.558.373.587.38a.388.388 0 0 0 .188 0c.029-.007.083-.026.588-.38l.665-.466a.92.92 0 0 1 .033-.023l4.745-3.321c.1-.07.207-.117.318-.144a2 2 0 0 0-.868-.864c-.428-.218-.988-.218-2.108-.218H4.533c-1.12 0-1.68 0-2.108.218a2 2 0 0 0-.868.864Zm13.11 2.072-3.248 2.273 3.241 2.928c.007-.25.007-.543.007-.888V5.82Zm-.714 7.045a.947.947 0 0 1-.253-.164L9.83 9.205l-.065.046-.087.06c-.35.247-.71.501-1.127.605-.362.09-.74.09-1.102 0-.416-.104-.778-.358-1.127-.604l-.087-.061-.065-.046-3.87 3.496a.946.946 0 0 1-.253.164c.116.097.243.18.378.25.428.218.988.218 2.108.218h6.934c1.12 0 1.68 0 2.108-.218.136-.07.262-.153.378-.25Z" fill="#231C1E"/></svg>