<svg width="44" height="62" fill="none" xmlns="http://www.w3.org/2000/svg"><path d="m21.533.005.01 10.819c-2.998.043-5.54 1.108-7.625 3.195-2.746 2.748-3.849 6.921-2.696 10.732 1.376 4.547 5.387 7.62 10.171 7.726-.02.05-.005.086.046.111a.161.161 0 0 1 .09.145l.01 28.854c-.643-.018-1.13-.3-1.46-.843a126662.32 126662.32 0 0 1-16.815-27.66C1.14 29.59.052 25.888.001 21.979c-.008-.633.043-1.252.072-1.886.019-.409.062-.844.13-1.307.087-.58.159-1.154.29-1.726.196-.852.38-1.537.554-2.056.268-.803.555-1.609.924-2.378.282-.587.547-1.158.886-1.728.344-.577.646-1.062.906-1.456.128-.192.423-.592.885-1.2.242-.319.507-.635.793-.949.376-.41.721-.805 1.13-1.194 1.469-1.402 3.015-2.549 4.638-3.44C14.4.909 17.841.024 21.533.006Z" fill="#FFC1AA"/><path d="M21.533.005c.848-.021 1.677.026 2.487.14l1.135.16c.424.06.798.132 1.12.216.615.16 1.239.297 1.837.497 3.365 1.125 6.243 2.896 8.635 5.316 3.045 3.079 5.007 6.729 5.886 10.95.356 1.707.498 3.51.427 5.41-.01.292-.03.574-.056.847-.027.28-.058.561-.093.84a21.376 21.376 0 0 1-2.942 8.468 52274.712 52274.712 0 0 1-16.815 27.84c-.33.548-.949.95-1.615.898l-.01-28.855a.162.162 0 0 0-.09-.144c-.05-.025-.066-.062-.045-.11.725-.03 1.259-.07 1.6-.12 2.35-.337 4.352-1.312 6.003-2.925 2.039-1.992 3.134-4.483 3.285-7.472.026-.525-.024-1.106-.091-1.642-.477-3.82-2.896-6.987-6.373-8.569a9.824 9.824 0 0 0-3.043-.808 52.32 52.32 0 0 0-1.231-.119L21.534.005Z" fill="#F57545"/><path d="M21.544 10.823c.438.037.848.077 1.231.118a9.822 9.822 0 0 1 3.044.809c3.477 1.581 5.895 4.748 6.372 8.569.067.536.117 1.116.092 1.642-.152 2.989-1.247 5.48-3.286 7.472-1.651 1.612-3.652 2.587-6.003 2.925-.341.05-.875.089-1.6.119-4.785-.107-8.795-3.18-10.172-7.727-1.152-3.81-.05-7.984 2.696-10.732 2.085-2.087 4.627-3.152 7.626-3.195Z" fill="#fff"/></svg>