<svg width="44" height="62" viewBox="0 0 44 62" fill="none" xmlns="http://www.w3.org/2000/svg">
    <path d="M21.5333 0.00531006L21.5438 10.8236C18.5448 10.8666 16.0027 11.9317 13.9177 14.019C11.172 16.7669 10.0691 20.9402 11.2218 24.7506C12.5984 29.2984 16.6087 32.3706 21.3935 32.4774C21.3731 32.5262 21.3881 32.5631 21.4385 32.5881C21.4655 32.6014 21.4882 32.622 21.5041 32.6475C21.52 32.673 21.5285 32.7024 21.5285 32.7325L21.5391 61.5866C20.8957 61.5687 20.4087 61.2879 20.0781 60.7445C14.4247 51.4469 8.82013 42.227 3.26436 33.0847C1.14033 29.5897 0.0524741 25.8873 0.000777683 21.9777C-0.00688105 21.3454 0.0438581 20.7265 0.0725783 20.0922C0.0917251 19.6835 0.135444 19.2478 0.203734 18.7852C0.289895 18.2048 0.361695 17.6312 0.492851 17.0595C0.688787 16.2074 0.873554 15.5218 1.04715 15.0027C1.31521 14.1999 1.60241 13.3944 1.97099 12.6253C2.2534 12.0382 2.51763 11.4675 2.85749 10.8967C3.20085 10.3199 3.50273 9.83478 3.76313 9.44145C3.89078 9.24896 4.18564 8.84857 4.64771 8.24028C4.89024 7.92202 5.15479 7.60601 5.44135 7.29224C5.81663 6.88222 6.16223 6.48664 6.57006 6.0978C8.03989 4.69579 9.58632 3.54948 11.2093 2.65886C14.3998 0.907794 17.8412 0.0232763 21.5333 0.00531006Z" fill="#FFC1AA"></path>
    <path d="M21.5334 0.00521165C22.3809 -0.0159629 23.21 0.0305566 24.0205 0.144771C24.3958 0.197386 24.774 0.250644 25.155 0.304543C25.5794 0.364858 25.9528 0.437044 26.2751 0.5211C26.8897 0.681834 27.5139 0.817544 28.1122 1.01774C31.477 2.14256 34.3554 3.91448 36.7474 6.33351C39.7924 9.4128 41.7543 13.0628 42.6332 17.2836C42.9887 18.9911 43.131 20.7948 43.0602 22.6947C43.0493 22.986 43.0305 23.268 43.0037 23.5407C42.9769 23.8218 42.9459 24.1022 42.9108 24.3819C42.5298 27.4086 41.5491 30.2309 39.9689 32.8488C34.3908 42.0912 28.7859 51.3714 23.1542 60.6895C22.8239 61.2372 22.2054 61.6385 21.5391 61.5865L21.5286 32.7324C21.5285 32.7024 21.5201 32.6729 21.5042 32.6474C21.4883 32.6219 21.4656 32.6013 21.4386 32.588C21.3882 32.563 21.3732 32.5261 21.3936 32.4773C22.1193 32.4472 22.6525 32.4077 22.9933 32.3589C25.3445 32.0208 27.3457 31.0455 28.9968 29.433C31.0359 27.4407 32.1311 24.9501 32.2824 21.9613C32.3083 21.4358 32.2575 20.8554 32.1905 20.3193C31.7137 16.4983 29.2955 13.3317 25.8184 11.7503C24.8956 11.3301 23.8811 11.0606 22.775 10.9419C22.3921 10.9002 21.9817 10.8607 21.5439 10.8235L21.5334 0.00521165Z" fill="#F57545"></path>
    <path d="M21.5442 10.823C21.982 10.8602 22.3924 10.8997 22.7753 10.9414C23.8814 11.0601 24.8958 11.3296 25.8187 11.7499C29.2958 13.3312 31.714 16.4978 32.1908 20.3188C32.2578 20.8549 32.3085 21.4353 32.2827 21.9608C32.1314 24.9496 31.0362 27.4402 28.9971 29.4325C27.346 31.045 25.3448 32.0203 22.9936 32.3585C22.6528 32.4072 22.1195 32.4467 21.3939 32.4768C16.6091 32.37 12.5988 29.2978 11.2221 24.7501C10.0695 20.9396 11.1723 16.7663 13.918 14.0184C16.0031 11.9311 18.5451 10.866 21.5442 10.823Z" fill="white"></path>
</svg>