<svg xmlns="http://www.w3.org/2000/svg" width="16" height="16" viewBox="0 0 16 16" fill="none">
    <path d="M9.36646 3.99967C10.0176 4.12672 10.616 4.44518 11.0852 4.9143C11.5543 5.38342 11.8727 5.98185 11.9998 6.63301M9.36646 1.33301C10.7193 1.4833 11.9808 2.08912 12.9439 3.05101C13.907 4.0129 14.5145 5.27368 14.6665 6.62634" stroke="#231C1E" stroke-width="1.5" stroke-linecap="round" stroke-linejoin="round"></path>
    <path d="M4.9201 6.56874C5.3841 7.53515 6.01663 8.44091 6.81768 9.24197C7.61873 10.043 8.52449 10.6755 9.49091 11.1395C9.57403 11.1795 9.6156 11.1994 9.66819 11.2147C9.85509 11.2692 10.0846 11.2301 10.2429 11.1167C10.2874 11.0849 10.3255 11.0467 10.4017 10.9705C10.6348 10.7375 10.7513 10.6209 10.8685 10.5447C11.3105 10.2574 11.8802 10.2574 12.3221 10.5447C12.4393 10.6209 12.5558 10.7375 12.7889 10.9705L12.9188 11.1005C13.2731 11.4547 13.4503 11.6319 13.5465 11.8221C13.7379 12.2005 13.7379 12.6474 13.5465 13.0257C13.4503 13.216 13.2731 13.3931 12.9188 13.7474L12.8137 13.8525C12.4606 14.2056 12.2841 14.3822 12.0441 14.517C11.7777 14.6666 11.3641 14.7742 11.0586 14.7733C10.7833 14.7724 10.5951 14.719 10.2189 14.6122C8.19659 14.0383 6.28835 12.9553 4.69636 11.3633C3.10437 9.7713 2.02139 7.86306 1.44741 5.84079C1.3406 5.4645 1.2872 5.27635 1.28638 5.00105C1.28547 4.69557 1.39305 4.28191 1.54266 4.01557C1.67749 3.77555 1.85403 3.59901 2.20712 3.24593L2.31221 3.14084C2.6665 2.78654 2.84365 2.60939 3.0339 2.51316C3.41228 2.32178 3.85912 2.32178 4.23749 2.51316C4.42775 2.60939 4.6049 2.78654 4.95919 3.14084L5.0891 3.27075C5.32218 3.50382 5.43871 3.62036 5.5149 3.73754C5.80223 4.17947 5.80223 4.74919 5.5149 5.19111C5.43871 5.3083 5.32218 5.42484 5.0891 5.65791C5.0129 5.73411 4.97479 5.77222 4.9429 5.81676C4.82956 5.97505 4.79042 6.20455 4.8449 6.39145C4.86024 6.44405 4.88019 6.48561 4.9201 6.56874Z" fill="#231C1E"></path>
</svg>