<svg xmlns="http://www.w3.org/2000/svg" width="16" height="16" fill="none"><path d="M9.366 4A3.334 3.334 0 0 1 12 6.633m-2.634-5.3a6 6 0 0 1 5.3 5.293" stroke="#231C1E" stroke-width="1.5" stroke-linecap="round" stroke-linejoin="round"/><path d="M4.92 6.569a9.735 9.735 0 0 0 1.898 2.673 9.735 9.735 0 0 0 2.673 1.897c.083.04.125.06.177.076a.697.697 0 0 0 .575-.098c.044-.032.082-.07.159-.147.233-.232.35-.35.466-.425a1.333 1.333 0 0 1 1.454 0c.117.076.234.193.467.425l.13.13c.354.355.531.532.627.722.192.379.192.825 0 1.204-.096.19-.273.367-.627.721l-.105.105c-.353.354-.53.53-.77.665-.266.15-.68.257-.985.256-.276 0-.464-.054-.84-.16a12.691 12.691 0 0 1-5.523-3.25 12.692 12.692 0 0 1-3.249-5.522c-.106-.377-.16-.565-.16-.84-.002-.305.106-.72.256-.985.134-.24.311-.417.664-.77l.105-.105c.355-.354.532-.532.722-.628a1.333 1.333 0 0 1 1.203 0c.19.096.368.274.722.628l.13.13c.233.233.35.35.426.467a1.333 1.333 0 0 1 0 1.453c-.076.117-.193.234-.426.467-.076.076-.114.114-.146.159a.697.697 0 0 0-.098.574c.015.053.035.095.075.178Z" fill="#231C1E"/></svg>