<svg xmlns="http://www.w3.org/2000/svg" width="252" height="177" viewBox="0 0 252 177" fill="none">
    <path
        d="M122.66 31.078C123.195 20.9293 123.11 11.3956 122.404 2.47677C122.386 2.26378 122.412 2.04949 122.479 1.84635C122.546 1.6432 122.653 1.45526 122.794 1.29344C122.934 1.13162 123.106 0.999144 123.299 0.903723C123.492 0.808303 123.703 0.751831 123.918 0.7376L124.167 0.72352C125.423 0.634332 126.115 1.20936 126.243 2.4486C127.257 12.2123 127.224 21.8611 126.143 31.3948C126.034 32.3524 125.494 32.8148 124.522 32.7819L124.224 32.7678C124.008 32.7616 123.796 32.7126 123.6 32.6237C123.403 32.5348 123.227 32.4078 123.081 32.2502C122.935 32.0926 122.823 31.9077 122.751 31.7064C122.678 31.505 122.647 31.2913 122.66 31.078Z"
        fill="#6E7E44" />
    <path
        d="M148.812 11.6015L148.379 11.4236C147.541 11.0799 146.58 11.474 146.233 12.3039L138.104 31.7414C137.757 32.5713 138.155 33.5227 138.993 33.8665L139.426 34.0443C140.264 34.3881 141.225 33.994 141.572 33.1641L149.701 13.7266C150.048 12.8967 149.65 11.9452 148.812 11.6015Z"
        fill="#6E7E44" />
    <path
        d="M97.3999 12.7383L97.3354 12.7678C96.3838 13.2033 95.9688 14.3205 96.4085 15.263L104.096 31.7411C104.536 32.6836 105.664 33.0946 106.615 32.6591L106.68 32.6296C107.631 32.1941 108.046 31.077 107.607 30.1344L99.9192 13.6563C99.4795 12.7138 98.3516 12.3028 97.3999 12.7383Z"
        fill="#6E7E44" />
    <path
        d="M48.7239 123.669C48.4964 123.481 48.3542 123.533 48.2974 123.824C47.9893 125.443 46.9964 125.95 45.3186 125.345C43.0247 124.519 40.7782 123.714 38.5791 122.93C38.544 122.917 38.5064 122.914 38.4695 122.919C38.4325 122.925 38.3973 122.939 38.3668 122.961C38.3362 122.983 38.3112 123.012 38.2937 123.046C38.2762 123.08 38.2668 123.117 38.2663 123.155L38.3587 130.802C38.3619 130.978 38.3268 131.154 38.2559 131.316C38.185 131.478 38.0798 131.624 37.9473 131.743C37.8149 131.862 37.6582 131.952 37.4877 132.007C37.3171 132.062 37.1366 132.081 36.9582 132.062C32.5363 131.569 28.0243 130.992 23.4223 130.33C15.3747 129.166 8.11861 127.936 1.65399 126.64C0.492821 126.406 -0.0569561 125.704 0.00465679 124.535C0.0283541 124.075 0.255847 123.655 0.687138 123.275C0.858398 123.127 1.0601 123.019 1.27769 122.958C1.49528 122.897 1.72335 122.885 1.94546 122.923L33.8941 128.239C33.9896 128.254 34.0872 128.249 34.1803 128.223C34.2733 128.198 34.3595 128.152 34.4327 128.091C34.5059 128.029 34.5644 127.952 34.604 127.866C34.6436 127.779 34.6634 127.686 34.6619 127.591C34.4842 114.058 34.5411 100.701 35.9985 87.1675C37.4582 73.6532 40.2545 60.4675 44.3873 47.6103C44.4266 47.4885 44.4193 47.3567 44.3667 47.2408C44.3141 47.125 44.2201 47.0333 44.1029 46.9837C35.6762 43.3927 27.6428 39.513 20.0028 35.3446C19.8426 35.2559 19.6986 35.1443 19.5762 35.0137C18.5573 33.9294 18.2753 33.0656 18.7302 32.4226C19.4649 31.3758 20.3962 31.1575 21.5242 31.7677C29.5291 36.1192 38.2331 40.3227 47.6362 44.3784C49.8471 45.329 48.4893 48.0046 47.7784 49.4974C47.7264 49.6069 47.7196 49.7321 47.7594 49.8465C47.7993 49.9609 47.8826 50.0554 47.9916 50.1099C52.3425 52.3115 56.7099 54.52 61.0939 56.7357C62.7148 57.5524 63.774 58.3622 62.5513 60.2069C62.5024 60.2806 62.4711 60.3643 62.4599 60.4519C62.4487 60.5394 62.4578 60.6285 62.4865 60.7125C62.5152 60.7965 62.5628 60.8732 62.6258 60.9368C62.6887 61.0005 62.7653 61.0494 62.8499 61.0801C63.8783 61.4462 64.9447 61.6739 66.049 61.7631C71.1463 62.1714 76.2364 62.0729 81.4617 61.2983C88.059 60.3173 94.3909 59.6249 100.457 59.2212C108.619 58.6861 116.403 59.5099 122.418 64.8119C122.527 64.9081 122.661 64.9737 122.806 65.0022C122.951 65.0306 123.101 65.0208 123.242 64.9738C130.522 62.4883 137.852 60.9111 145.345 61.2209C149.909 61.411 154.103 62.8615 158.383 63.6642C164.113 64.7485 169.706 65.3306 175.161 65.4104C179.547 65.4737 185.697 62.0447 189.479 59.7563C189.806 59.5545 189.896 59.2775 189.749 58.9255L189.095 57.3975C188.925 56.9948 188.914 56.5433 189.066 56.1333C189.217 55.7234 189.52 55.3853 189.912 55.1866L203.846 48.1243C203.975 48.0596 204.076 47.9509 204.13 47.8179C204.185 47.6849 204.19 47.5364 204.145 47.3991L203.135 44.2517C203.06 44.0123 203.081 43.7799 203.199 43.5546C203.526 42.935 204.019 42.482 204.678 42.1957C213.565 38.3371 222.207 34.1617 230.605 29.6695C231.752 29.0592 232.665 29.3033 233.342 30.4017C233.717 31.012 233.439 31.8381 232.511 32.8802C232.332 33.0806 232.12 33.2474 231.885 33.3731C224.51 37.3725 216.498 41.2451 207.849 44.991C207.749 45.0332 207.669 45.1108 207.624 45.2086C207.58 45.3063 207.573 45.4171 207.607 45.5191C213.285 63.1736 216.467 81.7036 217.155 101.109C217.297 105.146 217.418 109.286 217.517 113.53C217.617 117.614 217.24 121.683 217.453 125.683C217.456 125.743 217.472 125.802 217.5 125.856C217.528 125.91 217.567 125.957 217.615 125.995C217.663 126.033 217.718 126.061 217.777 126.076C217.836 126.091 217.898 126.094 217.958 126.084L249.779 120.951C250.959 120.763 251.686 121.244 251.961 122.394C251.994 122.531 252.006 122.669 251.997 122.81C251.926 123.8 251.397 124.392 250.411 124.584C239.767 126.636 228.285 128.469 215.967 130.083C214.313 130.299 213.496 129.598 213.515 127.978C213.534 125.87 213.638 123.73 213.828 121.557C213.835 121.479 213.822 121.402 213.79 121.331C213.758 121.261 213.708 121.199 213.645 121.153C213.582 121.107 213.508 121.078 213.431 121.069C213.353 121.059 213.274 121.07 213.202 121.099C211.155 121.934 208.87 122.714 206.349 123.437C202.666 124.493 203.868 119.585 203.875 117.916C203.875 117.63 203.735 117.52 203.455 117.585L196.126 119.303C195.924 119.351 195.737 119.447 195.579 119.583C195.422 119.719 195.3 119.891 195.223 120.085C193.337 124.826 190.156 128.661 185.682 131.59C185.426 131.754 185.379 131.968 185.54 132.231C186.597 133.944 187.27 135.629 187.559 137.287C188.782 144.208 178.637 146.046 174.016 145.975C173.718 145.971 173.594 146.114 173.646 146.405C175.161 154.967 168.556 160.804 160.438 161.114C160.158 161.123 159.952 161.25 159.819 161.494C156.741 167.078 150.158 171.331 143.397 170.021C143.108 169.965 142.883 170.058 142.722 170.302C134.845 182.434 119.645 174.584 110.51 169.267C110.356 169.178 110.18 169.134 110.002 169.139C109.824 169.144 109.65 169.198 109.5 169.296C105.718 171.774 102.882 173.295 98.0048 172.197C93.616 171.206 90.5188 169.037 88.7131 165.691C88.6488 165.575 88.5493 165.482 88.4291 165.426C88.3088 165.371 88.1742 165.355 88.0448 165.381C85.8196 165.831 83.8148 165.965 81.5754 165.353C76.6132 163.987 73.9615 159.72 75.1487 154.615C75.1632 154.554 75.1623 154.49 75.1464 154.429C75.1304 154.368 75.0998 154.312 75.0571 154.266C75.0144 154.22 74.961 154.184 74.9014 154.163C74.8418 154.141 74.7779 154.135 74.7151 154.143C72.0563 154.486 69.933 154.002 68.3453 152.693C64.7527 149.731 62.9352 146.097 62.8925 141.793C62.8925 141.507 62.7551 141.323 62.4802 141.244C57.3473 139.737 51.3827 134.435 54.0274 128.584C54.1695 128.269 54.1032 128.002 53.8283 127.781L48.7239 123.669ZM213.899 118.163C213.923 118.168 213.949 118.166 213.973 118.159C213.997 118.152 214.019 118.14 214.037 118.122C214.056 118.105 214.069 118.084 214.077 118.06C214.085 118.037 214.087 118.011 214.084 117.987C213.794 115.903 213.64 113.912 213.621 112.016C213.451 91.6105 211.268 71.339 205.595 52.0251C205.582 51.9777 205.558 51.9338 205.525 51.8967C205.492 51.8596 205.452 51.8302 205.406 51.8106C205.36 51.7911 205.311 51.7818 205.261 51.7836C205.212 51.7854 205.163 51.7982 205.119 51.8209L193.702 57.6158C193.623 57.6546 193.564 57.7227 193.536 57.8056C193.508 57.8885 193.514 57.9796 193.552 58.0594C199.875 71.2921 204.192 84.7735 206.505 98.5038C207.572 104.831 207.953 111.474 207.65 118.43C207.647 118.517 207.666 118.603 207.706 118.68C207.746 118.757 207.805 118.822 207.877 118.87C207.95 118.918 208.034 118.947 208.121 118.954C208.208 118.961 208.295 118.945 208.375 118.909C210.195 118.097 212.036 117.848 213.899 118.163ZM38.0459 119.782C38.0447 119.86 38.0626 119.938 38.098 120.008C38.1335 120.078 38.1854 120.138 38.2492 120.183C38.3131 120.228 38.3869 120.257 38.4643 120.267C38.5416 120.277 38.6201 120.267 38.6928 120.24C39.8872 119.789 42.546 120.641 43.9465 120.881C44.0021 120.891 44.0594 120.889 44.1141 120.874C44.1688 120.86 44.2195 120.833 44.2626 120.795C44.3056 120.758 44.3398 120.712 44.3626 120.659C44.3854 120.607 44.3963 120.55 44.3944 120.493C44.0721 107.908 45.7617 95.523 49.4633 83.3372C51.8614 75.437 54.852 67.7034 58.435 60.1365C58.4751 60.0512 58.4805 59.9539 58.4501 59.8647C58.4196 59.7756 58.3557 59.7014 58.2715 59.6577L46.8613 53.884C46.8226 53.8642 46.7799 53.8535 46.7361 53.8526C46.6924 53.8517 46.6486 53.8606 46.608 53.8787C46.5674 53.8968 46.5308 53.9237 46.5009 53.9575C46.4709 53.9912 46.4484 54.031 46.4347 54.0741C40.2213 75.6975 38.4725 97.2998 38.0459 119.782ZM123.491 170.971C128.816 173.577 135.086 174.196 139.067 168.936C139.21 168.744 139.195 168.566 139.025 168.401C138.162 167.552 137.15 166.878 135.989 166.381L131.134 162.74C130.451 162.224 130.221 161.557 130.444 160.741C130.525 160.454 130.662 160.227 130.856 160.058C131.738 159.302 132.657 159.255 133.615 159.917L140.12 164.402C143.518 166.65 146.793 167.068 149.944 165.655C152.968 164.299 155.028 162.191 156.122 159.332C152.07 156.093 147.558 152.233 142.586 147.75C142.122 147.337 142.075 146.651 142.444 145.694C142.672 145.093 143.378 144.853 144.563 144.975C144.984 145.017 145.381 145.187 145.7 145.461C149.615 148.813 153.475 152.106 157.281 155.34C159.329 157.079 161.859 157.65 164.383 156.453C168.77 154.382 171.13 150.834 169.473 145.933C169.156 144.99 168.561 144.192 167.689 143.539C162.338 139.54 157.243 135.662 152.404 131.907C151.57 131.259 151.354 130.45 151.757 129.478C151.98 128.933 152.625 128.628 153.691 128.563C154.125 128.531 154.556 128.661 154.9 128.929C160.227 133.05 165.191 136.824 169.793 140.251C173.192 142.779 176.44 142.405 180.294 141.103C182.284 140.434 184.467 139.49 183.464 136.871C182.749 135.012 181.782 133.196 180.564 131.421C176.218 125.103 171.016 119.545 164.959 114.748C156.75 108.246 148.018 102.529 138.762 97.5955C137.383 96.8585 136.401 96.4642 135.819 96.4126C134.16 95.1686 132.499 94.1899 130.835 93.4764C124.316 90.6881 113.297 94.2791 107.737 97.7786C102.846 100.863 98.6019 103.198 95.0047 104.785C92.4312 105.216 90.2605 105.406 88.4927 105.355C86.5211 105.294 84.6632 104.608 82.9191 103.299C78.3265 99.8416 80.1252 93.413 83.3385 89.8502C84.566 88.4889 85.9666 87.1816 87.54 85.9283C97.9906 77.6291 108.273 71.285 118.387 66.896C118.433 66.8761 118.474 66.8439 118.503 66.803C118.532 66.762 118.55 66.7139 118.553 66.6638C118.557 66.6137 118.547 66.5636 118.524 66.5189C118.501 66.4742 118.466 66.4366 118.422 66.4102C114.55 64.0444 110.214 62.8802 105.413 62.9178C96.2843 62.9812 86.6443 64.6077 77.4877 65.5653C73.971 65.9361 70.1249 65.9455 65.9495 65.5934C64.248 65.4479 62.6674 65.0513 61.2076 64.4035C60.928 64.2814 60.7266 64.3589 60.6033 64.6358C54.7786 77.6667 50.8022 90.9792 48.6741 104.573C48.0248 108.732 47.8376 113.044 48.1125 117.508C48.1258 117.714 48.1819 117.916 48.2773 118.1C48.3727 118.284 48.5053 118.447 48.667 118.578L56.7502 125.176C57.0962 125.462 57.4872 125.549 57.9232 125.436C64.9376 123.681 70.068 126.164 73.3146 132.886C73.4188 133.102 73.5824 133.165 73.8051 133.076C76.3265 132.067 79.0256 131.571 81.9025 131.59C87.7249 131.625 93.1847 134.984 92.3103 141.293C92.3057 141.329 92.3104 141.365 92.3242 141.399C92.3379 141.433 92.3601 141.462 92.3886 141.485C92.4172 141.507 92.4511 141.522 92.4872 141.528C92.5233 141.534 92.5603 141.531 92.5947 141.518C97.3507 139.695 103.052 139.04 106.905 142.793C109.266 145.088 108.889 148.059 107.432 150.693C107.289 150.956 107.368 151.085 107.666 151.08C113.112 151.045 118.373 154.84 117.057 160.762C116.588 162.851 115.453 164.611 113.652 166.043C113.606 166.079 113.57 166.125 113.547 166.179C113.523 166.232 113.514 166.29 113.519 166.348C113.524 166.406 113.543 166.462 113.575 166.51C113.607 166.559 113.65 166.599 113.702 166.627C116.844 168.392 120.107 169.84 123.491 170.971ZM156.265 103.44C158.852 105.228 162.852 108.251 168.265 112.509C173.966 116.992 178.763 122.143 182.654 127.964C182.721 128.065 182.807 128.151 182.909 128.217C183.01 128.284 183.124 128.33 183.244 128.352C183.364 128.375 183.487 128.373 183.607 128.347C183.727 128.322 183.84 128.273 183.941 128.203C187.784 125.547 190.474 122 192.01 117.564C192.142 117.179 192.341 116.872 192.607 116.642C192.938 116.351 193.247 116.135 193.531 115.994L203.612 113.572C203.688 113.554 203.756 113.511 203.805 113.448C203.854 113.386 203.881 113.308 203.882 113.227C203.863 108.505 203.467 103.853 202.695 99.2713C200.605 86.9164 196.96 74.9629 191.761 63.4107C191.735 63.3539 191.697 63.3034 191.65 63.2623C191.603 63.2213 191.547 63.1908 191.487 63.1728C191.426 63.1548 191.362 63.1498 191.299 63.158C191.236 63.1662 191.175 63.1876 191.121 63.2206C188.097 65.0935 184.635 66.7834 180.734 68.2902C179.014 68.9568 177.467 69.2901 176.092 69.2901C168.18 69.2901 159.961 68.1916 151.963 66.1427C139.622 62.9812 126.477 66.9665 115.131 72.6557C105.884 77.2935 96.8341 83.2902 87.9808 90.6459C85.7912 92.4625 83.239 95.9056 84.2698 98.7643C84.8291 100.304 86.0613 101.172 87.9666 101.37C95.7725 102.186 101.673 96.5886 108.022 93.2511C113.614 90.3173 119.685 88.8034 126.235 88.7096C128.477 88.6767 130.207 88.9396 131.425 89.4982C139.184 93.0704 147.463 97.7175 156.265 103.44ZM69.2083 135.633C69.6393 134.655 69.4404 133.453 68.6554 132.291C67.8704 131.129 66.5636 130.101 65.0224 129.434C64.2593 129.104 63.4616 128.872 62.6749 128.752C61.8882 128.632 61.1279 128.626 60.4374 128.735C59.7469 128.844 59.1397 129.065 58.6505 129.385C58.1613 129.706 57.7996 130.12 57.5862 130.604C57.1552 131.581 57.3541 132.783 58.1391 133.945C58.9241 135.108 60.2309 136.135 61.7721 136.802C62.5352 137.133 63.3329 137.364 64.1196 137.484C64.9063 137.604 65.6666 137.61 66.3571 137.501C67.0476 137.393 67.6548 137.172 68.1441 136.851C68.6333 136.53 68.9949 136.116 69.2083 135.633ZM67.8974 141.237C66.9827 141.19 66.5964 141.706 66.7386 142.786C67.0324 145.058 68.1841 147.224 70.1936 149.285C72.3477 151.496 77.5659 149.904 79.7626 148.623C83.1703 147.848 85.7296 146.074 87.4405 143.3C88.9856 140.788 88.9074 138.749 87.2059 137.181C83.9499 134.188 77.5872 135.392 74.0326 137.082C73.2079 137.472 72.1676 138.272 70.9117 139.483C70.4614 139.92 69.4566 140.504 67.8974 141.237ZM80.637 152.756C78.1915 155.511 77.9 157.894 79.7626 159.903C84.5329 165.05 92.8222 159.558 96.7749 156.002C99.8934 154.148 102.427 151.528 104.375 148.144C105.038 146.989 104.875 146.046 103.884 145.313C102.017 143.933 99.7465 143.565 97.0735 144.208C92.5307 145.306 89.5377 147.172 85.9902 150.172C85.3599 150.707 83.5755 151.568 80.637 152.756ZM97.045 160.917L92.6444 163.515C92.1752 163.792 92.0994 164.151 92.417 164.592C93.7345 166.432 95.6327 167.646 98.1114 168.232C101.476 169.03 104.296 168.474 106.571 166.564C107.766 165.916 109.32 164.74 111.235 163.036C113.147 161.339 114.626 158.164 112.095 156.403C110.161 155.065 108.576 154.544 106.123 155.192C102.647 156.115 100.607 158.072 97.045 160.917Z"
        fill="#6E7E44" />
    <path
        d="M135.819 96.4132C129.539 96.3897 123.615 97.1971 118.046 98.8353C114.143 99.983 110.226 102.729 106.97 104.032C103.012 105.618 99.0239 105.869 95.0049 104.785C98.6021 103.199 102.846 100.863 107.737 97.7792C113.297 94.2797 124.316 90.6887 130.835 93.477C132.499 94.1905 134.16 95.1692 135.819 96.4132Z"
        fill="#A2AC87" />
    <path
        d="M193.531 115.995C193.247 116.135 192.939 116.351 192.607 116.642C192.341 116.872 192.142 117.18 192.01 117.565C190.474 122.001 187.784 125.547 183.941 128.204C183.84 128.273 183.727 128.322 183.607 128.348C183.488 128.373 183.364 128.375 183.244 128.353C183.124 128.331 183.01 128.285 182.909 128.218C182.807 128.151 182.721 128.065 182.654 127.965C178.763 122.144 173.967 116.992 168.265 112.509C162.852 108.252 158.852 105.229 156.265 103.44C162.317 102.379 166.563 101.229 169.004 99.99C171.18 98.8869 173.329 97.7439 175.452 96.5609C175.58 96.4895 175.721 96.4441 175.867 96.4274C176.014 96.4107 176.162 96.423 176.303 96.4636C176.445 96.5042 176.577 96.5723 176.692 96.664C176.807 96.7556 176.903 96.869 176.974 96.9975C177.324 97.6359 177.218 98.225 176.654 98.7648C174.213 101.102 171.914 103.778 169.758 106.792C169.203 107.573 168.784 108.468 169.438 109.355C171.983 112.812 175.616 115.72 178.879 118.452C181.133 120.339 183.166 119.895 185.213 118.114C187.161 116.424 189.401 114.326 191.946 113.755C192.187 113.699 192.401 113.755 192.585 113.924C193.021 114.328 193.337 115.018 193.531 115.995Z"
        fill="#A2AC87" />
    <path
        d="M20.4291 115.623C18.7876 116.651 16.7714 116.944 14.8242 116.439C12.877 115.933 11.1581 114.67 10.0459 112.928C8.93358 111.185 8.51895 109.105 8.89319 107.146C9.26742 105.187 10.3999 103.509 12.0414 102.482C13.6829 101.454 15.6991 101.16 17.6463 101.666C19.5936 102.171 21.3124 103.434 22.4247 105.177C23.5369 106.92 23.9516 108.999 23.5773 110.958C23.2031 112.917 22.0706 114.595 20.4291 115.623ZM18.4497 112.295C18.8256 112.047 19.1411 111.717 19.3782 111.324C19.6153 110.931 19.7694 110.482 19.8315 110.004C19.8937 109.526 19.8628 109.028 19.7406 108.538C19.6184 108.047 19.4072 107.575 19.1192 107.147C18.8312 106.72 18.472 106.345 18.0621 106.045C17.6521 105.745 17.1995 105.525 16.73 105.398C16.2606 105.271 15.7834 105.24 15.3259 105.305C14.8684 105.371 14.4394 105.533 14.0635 105.781C13.6875 106.029 13.372 106.36 13.1349 106.753C12.8978 107.146 12.7438 107.594 12.6816 108.072C12.6194 108.55 12.6503 109.048 12.7726 109.539C12.8948 110.029 13.1059 110.501 13.3939 110.929C13.6819 111.357 14.0412 111.731 14.4511 112.031C14.861 112.332 15.3137 112.551 15.7831 112.678C16.2526 112.805 16.7297 112.837 17.1873 112.771C17.6448 112.705 18.0738 112.544 18.4497 112.295Z"
        fill="#6E7E44" />
    <path
        d="M13.3937 110.928C14.6049 112.727 16.8684 113.338 18.4494 112.294C20.0304 111.25 20.3302 108.945 19.1189 107.146C17.9077 105.348 15.6441 104.736 14.0632 105.78C12.4822 106.824 12.1824 109.129 13.3937 110.928Z"
        fill="white" />
    <path
        d="M61.7726 136.803C64.982 138.191 68.3112 137.668 69.2088 135.633C70.1063 133.598 68.2323 130.823 65.0229 129.434C61.8136 128.046 58.4843 128.569 57.5868 130.604C56.6892 132.639 58.5633 135.414 61.7726 136.803Z"
        fill="white" />
    <path
        d="M79.7627 148.623C77.6157 148.271 75.2199 148.13 73.4142 147.081C71.5942 146.02 70.2577 144.485 69.4046 142.476C69.3098 142.251 69.1605 142.07 68.9567 141.934L67.8975 141.237C69.4567 140.505 70.4615 139.92 70.9118 139.484C72.1677 138.273 73.208 137.472 74.0327 137.083C77.5873 135.393 83.95 134.189 87.206 137.181C88.9075 138.749 88.9857 140.789 87.4406 143.3C85.7297 146.074 83.1704 147.849 79.7627 148.623Z"
        fill="white" />
    <path
        d="M67.8974 141.237L68.9567 141.934C69.1605 142.07 69.3098 142.251 69.4046 142.476C70.2577 144.485 71.5942 146.02 73.4142 147.081C75.2199 148.13 77.6157 148.271 79.7627 148.623C77.5659 149.904 72.3478 151.496 70.1937 149.285C68.1842 147.224 67.0325 145.058 66.7387 142.786C66.5965 141.706 66.9827 141.19 67.8974 141.237Z"
        fill="#A2AC87" />
    <path
        d="M96.7746 156.002C95.0068 156.134 92.7745 156.408 90.0777 156.826C88.3289 157.098 86.6392 156.889 85.0089 156.199C83.4022 155.516 82.1083 153.974 80.6367 152.756C83.5752 151.569 85.3596 150.707 85.9899 150.172C89.5374 147.173 92.5304 145.307 97.0732 144.208C99.7462 143.565 102.016 143.934 103.884 145.314C104.874 146.046 105.038 146.99 104.374 148.144C102.426 151.529 99.8931 154.148 96.7746 156.002Z"
        fill="white" />
    <path
        d="M80.6371 152.756C82.1087 153.974 83.4025 155.516 85.0092 156.199C86.6396 156.889 88.3292 157.098 90.078 156.826C92.7748 156.408 95.0071 156.133 96.7749 156.002C92.8222 159.558 84.5329 165.05 79.7626 159.903C77.9 157.894 78.1915 155.511 80.6371 152.756Z"
        fill="#A2AC87" />
    <path
        d="M106.572 166.564C104.688 166.007 102.499 165.782 100.949 165C99.2189 164.123 97.918 162.761 97.0459 160.917C100.608 158.072 102.648 156.114 106.124 155.192C108.577 154.544 110.162 155.065 112.096 156.403C114.627 158.163 113.148 161.339 111.236 163.036C109.321 164.74 107.767 165.916 106.572 166.564Z"
        fill="white" />
    <path
        d="M156.122 159.333C155.027 162.191 152.968 164.299 149.944 165.656C146.792 167.068 143.517 166.651 140.119 164.402C142.949 164.768 145.226 164.642 146.951 164.022C148.52 163.463 151.577 161.9 156.122 159.333Z"
        fill="#A2AC87" />
    <path
        d="M97.0449 160.917C97.917 162.762 99.218 164.123 100.948 165.001C102.498 165.782 104.687 166.008 106.571 166.564C104.296 168.475 101.476 169.031 98.1113 168.233C95.6326 167.646 93.7344 166.433 92.4169 164.593C92.0993 164.151 92.1751 163.792 92.6444 163.515L97.0449 160.917Z"
        fill="#A2AC87" />
    <path
        d="M135.989 166.381C137.15 166.878 138.162 167.552 139.025 168.402C139.195 168.566 139.21 168.744 139.067 168.937C135.086 174.196 128.816 173.577 123.491 170.972C128.333 171.641 132.399 171.38 136.096 168.099C136.413 167.812 136.565 167.545 136.551 167.296C136.532 166.982 136.345 166.676 135.989 166.381Z"
        fill="#A2AC87" />
</svg>