<svg width="16" height="16" viewBox="0 0 16 16" fill="none" xmlns="http://www.w3.org/2000/svg">
<path d="M9.36621 3.99961C10.0174 4.12666 10.6158 4.44512 11.0849 4.91424C11.554 5.38336 11.8725 5.98179 11.9995 6.63295M9.36621 1.33295C10.7191 1.48324 11.9806 2.08906 12.9437 3.05095C13.9068 4.01284 14.5142 5.27362 14.6662 6.62628" stroke="white" stroke-width="1.5" stroke-linecap="round" stroke-linejoin="round"/>
<path d="M4.91986 6.56849C5.38386 7.53491 6.01638 8.44067 6.81744 9.24172C7.61849 10.0428 8.52425 10.6753 9.49066 11.1393C9.57379 11.1792 9.61535 11.1992 9.66795 11.2145C9.85485 11.269 10.0844 11.2298 10.2426 11.1165C10.2872 11.0846 10.3253 11.0465 10.4015 10.9703C10.6346 10.7372 10.7511 10.6207 10.8683 10.5445C11.3102 10.2572 11.8799 10.2572 12.3219 10.5445C12.439 10.6207 12.5556 10.7372 12.7887 10.9703L12.9186 11.1002C13.2729 11.4545 13.45 11.6317 13.5462 11.8219C13.7376 12.2003 13.7376 12.6471 13.5462 13.0255C13.45 13.2158 13.2729 13.3929 12.9186 13.7472L12.8135 13.8523C12.4604 14.2054 12.2839 14.3819 12.0438 14.5167C11.7775 14.6664 11.3638 14.7739 11.0584 14.773C10.7831 14.7722 10.5949 14.7188 10.2186 14.612C8.19634 14.038 6.2881 12.955 4.69611 11.363C3.10413 9.77105 2.02114 7.86281 1.44716 5.84055C1.34036 5.46425 1.28696 5.2761 1.28614 5.00081C1.28523 4.69532 1.3928 4.28166 1.54242 4.01533C1.67725 3.7753 1.85379 3.59876 2.20687 3.24568L2.31196 3.14059C2.66626 2.7863 2.8434 2.60915 3.03366 2.51292C3.41203 2.32154 3.85888 2.32154 4.23725 2.51292C4.4275 2.60915 4.60465 2.7863 4.95895 3.14059L5.08886 3.2705C5.32193 3.50358 5.43847 3.62011 5.51466 3.7373C5.80199 4.17922 5.80199 4.74894 5.51466 5.19087C5.43847 5.30806 5.32193 5.42459 5.08886 5.65766C5.01265 5.73387 4.97455 5.77197 4.94265 5.81652C4.82931 5.9748 4.79018 6.20431 4.84466 6.39121C4.85999 6.44381 4.87995 6.48537 4.91986 6.56849Z" fill="white"/>
</svg>
