<svg width="18" height="20" viewBox="0 0 18 20" fill="none" xmlns="http://www.w3.org/2000/svg">
<path fill-rule="evenodd" clip-rule="evenodd" d="M13.8797 5.64039C15.2797 5.79039 16.2897 6.22039 16.9597 6.96039C17.9297 8.04039 17.8997 9.48039 17.7897 10.4704L17.0897 16.0604C16.8797 18.0004 16.0897 20.0004 11.7897 20.0004H6.20975C1.90975 20.0004 1.11975 18.0004 0.909746 16.0504L0.209746 10.4804C0.0997458 9.48039 0.0697457 8.04039 1.03975 6.96039C1.70975 6.22039 2.71975 5.79039 4.11975 5.64039V5.06039C4.11975 2.56039 6.12975 0.250389 8.51975 0.0203886C9.90975 -0.109611 11.2497 0.330389 12.2797 1.27039C13.2997 2.19039 13.8797 3.51039 13.8797 4.88039V5.64039ZM11.3497 2.30039C10.6097 1.63039 9.65975 1.32039 8.65975 1.41039C6.97975 1.57039 5.50975 3.28039 5.50975 5.06039V5.58039H12.4897V4.88039C12.4897 3.90039 12.0797 2.96039 11.3497 2.30039ZM9.75 10C9.75 9.58579 9.41421 9.25 9 9.25C8.58579 9.25 8.25 9.58579 8.25 10V12.25H6C5.58579 12.25 5.25 12.5858 5.25 13C5.25 13.4142 5.58579 13.75 6 13.75H8.25V16C8.25 16.4142 8.58579 16.75 9 16.75C9.41421 16.75 9.75 16.4142 9.75 16V13.75H12C12.4142 13.75 12.75 13.4142 12.75 13C12.75 12.5858 12.4142 12.25 12 12.25H9.75V10Z" fill="white"/>
</svg>
