<svg width="25" height="24" viewBox="0 0 25 24" fill="none" xmlns="http://www.w3.org/2000/svg">
<path d="M20.4597 8.96002C19.7897 8.22002 18.7797 7.79002 17.3797 7.64002V6.88002C17.3797 5.51002 16.7997 4.19002 15.7797 3.27002C14.7497 2.33002 13.4097 1.89002 12.0197 2.02002C9.62975 2.25002 7.61975 4.56002 7.61975 7.06002V7.64002C6.21975 7.79002 5.20975 8.22002 4.53975 8.96002C3.56975 10.04 3.59975 11.48 3.70975 12.48L4.40975 18.05C4.61975 20 5.40975 22 9.70975 22H15.2897C19.5897 22 20.3797 20 20.5897 18.06L21.2897 12.47C21.3997 11.48 21.4197 10.04 20.4597 8.96002ZM12.1597 3.41002C13.1597 3.32002 14.1097 3.63002 14.8497 4.30002C15.5797 4.96002 15.9897 5.90002 15.9897 6.88002V7.58002H9.00975V7.06002C9.00975 5.28002 10.4797 3.57002 12.1597 3.41002ZM8.91975 13.15H8.90975C8.35975 13.15 7.90975 12.7 7.90975 12.15C7.90975 11.6 8.35975 11.15 8.90975 11.15C9.46975 11.15 9.91975 11.6 9.91975 12.15C9.91975 12.7 9.46975 13.15 8.91975 13.15ZM15.9197 13.15H15.9097C15.3597 13.15 14.9097 12.7 14.9097 12.15C14.9097 11.6 15.3597 11.15 15.9097 11.15C16.4697 11.15 16.9197 11.6 16.9197 12.15C16.9197 12.7 16.4697 13.15 15.9197 13.15Z" fill="white"/>
</svg>
